<?xml version="1.0" standalone="no"?><!-- Generator: Gravit.io -->
<svg xmlns="http://www.w3.org/2000/svg" style="isolation:isolate" viewBox="0 0 480 350" width="480" height="350">
    <path d=" M 279.373 315.746 L 279.373 312.26800000000003 Q 276.59999999999997 315.934 270.678 315.934 Q 268.093 315.934 266.1425 314.947 Q 264.192 313.96 263.1345 312.221 Q 262.077 310.48199999999997 262.077 308.32 Q 262.077 304.983 264.54449999999997 303.0325 Q 267.012 301.082 271.43 301.035 L 279.326 301.035 L 279.326 299.86 Q 279.326 297.228 277.7045 295.7945 Q 276.08299999999997 294.361 272.981 294.361 Q 269.221 294.361 265.32 297.04 L 263.48699999999997 294.032 Q 266.166 292.293 268.4455 291.5175 Q 270.72499999999997 290.742 273.87399999999997 290.742 Q 278.527 290.742 281.065 293.0215 Q 283.603 295.301 283.65 299.39 L 283.697 315.746 L 279.373 315.746 Z  M 271.57099999999997 312.315 Q 274.626 312.315 276.7645 310.8345 Q 278.903 309.354 279.326 306.91 L 279.326 304.419 L 272.041 304.419 Q 269.08 304.419 267.6465 305.312 Q 266.21299999999997 306.205 266.21299999999997 308.132 Q 266.21299999999997 310.059 267.67 311.187 Q 269.127 312.315 271.57099999999997 312.315 Z  M 287.363 290.883 L 292.01599999999996 290.883 L 299.489 311.422 L 306.91499999999996 290.883 L 311.33299999999997 290.883 L 301.65099999999995 315.746 L 297.092 315.746 L 287.363 290.883 Z  M 330.65 315.746 L 330.65 312.26800000000003 Q 327.877 315.934 321.955 315.934 Q 319.37 315.934 317.4195 314.947 Q 315.469 313.96 314.4115 312.221 Q 313.354 310.48199999999997 313.354 308.32 Q 313.354 304.983 315.8215 303.0325 Q 318.289 301.082 322.707 301.035 L 330.603 301.035 L 330.603 299.86 Q 330.603 297.228 328.9815 295.7945 Q 327.36 294.361 324.258 294.361 Q 320.498 294.361 316.597 297.04 L 314.764 294.032 Q 317.443 292.293 319.7225 291.5175 Q 322.002 290.742 325.151 290.742 Q 329.80400000000003 290.742 332.342 293.0215 Q 334.88 295.301 334.927 299.39 L 334.974 315.746 L 330.65 315.746 Z  M 322.848 312.315 Q 325.903 312.315 328.0415 310.8345 Q 330.18 309.354 330.603 306.91 L 330.603 304.419 L 323.318 304.419 Q 320.357 304.419 318.9235 305.312 Q 317.49 306.205 317.49 308.132 Q 317.49 310.059 318.947 311.187 Q 320.404 312.315 322.848 312.315 Z  M 342.776 290.883 L 347.14700000000005 290.883 L 347.14700000000005 315.746 L 342.776 315.746 L 342.776 290.883 Z  M 344.93800000000005 280.966 Q 346.113 280.966 346.8885 281.765 Q 347.66400000000004 282.564 347.66400000000004 283.786 Q 347.66400000000004 285.008 346.8885 285.807 Q 346.113 286.606 344.93800000000005 286.606 Q 343.76300000000003 286.606 342.9875 285.807 Q 342.21200000000005 285.008 342.21200000000005 283.786 Q 342.21200000000005 282.564 342.9875 281.765 Q 343.76300000000003 280.966 344.93800000000005 280.966 Z  M 355.889 280.872 L 360.26 280.872 L 360.26 315.746 L 355.889 315.746 L 355.889 280.872 Z  M 384.23 315.746 L 384.23 312.26800000000003 Q 381.457 315.934 375.53499999999997 315.934 Q 372.95 315.934 370.9995 314.947 Q 369.049 313.96 367.9915 312.221 Q 366.93399999999997 310.48199999999997 366.93399999999997 308.32 Q 366.93399999999997 304.983 369.4015 303.0325 Q 371.86899999999997 301.082 376.287 301.035 L 384.183 301.035 L 384.183 299.86 Q 384.183 297.228 382.56149999999997 295.7945 Q 380.94 294.361 377.83799999999997 294.361 Q 374.078 294.361 370.17699999999996 297.04 L 368.344 294.032 Q 371.02299999999997 292.293 373.3025 291.5175 Q 375.582 290.742 378.731 290.742 Q 383.384 290.742 385.92199999999997 293.0215 Q 388.46 295.301 388.507 299.39 L 388.554 315.746 L 384.23 315.746 Z  M 376.428 312.315 Q 379.483 312.315 381.62149999999997 310.8345 Q 383.76 309.354 384.183 306.91 L 384.183 304.419 L 376.89799999999997 304.419 Q 373.937 304.419 372.5035 305.312 Q 371.07 306.205 371.07 308.132 Q 371.07 310.059 372.527 311.187 Q 373.984 312.315 376.428 312.315 Z  M 410.174 290.742 Q 413.652 290.742 416.378 292.34000000000003 Q 419.104 293.938 420.608 296.805 Q 422.112 299.672 422.112 303.385 Q 422.112 307.051 420.6315 309.8945 Q 419.151 312.738 416.4485 314.3125 Q 413.746 315.887 410.26800000000003 315.887 Q 407.119 315.887 404.722 314.571 Q 402.325 313.255 400.962 310.811 L 400.962 315.746 L 396.591 315.746 L 396.591 280.872 L 400.962 280.872 L 400.962 295.818 Q 402.325 293.374 404.6985 292.058 Q 407.072 290.742 410.174 290.742 Z  M 409.32800000000003 312.08 Q 411.725 312.08 413.62850000000003 310.952 Q 415.532 309.824 416.5895 307.803 Q 417.647 305.782 417.647 303.244 Q 417.647 300.753 416.56600000000003 298.732 Q 415.485 296.711 413.605 295.583 Q 411.725 294.455 409.32800000000003 294.455 Q 406.931 294.455 405.02750000000003 295.583 Q 403.124 296.711 402.043 298.732 Q 400.962 300.753 400.962 303.244 Q 400.962 305.829 402.043 307.8265 Q 403.124 309.824 405.02750000000003 310.952 Q 406.931 312.08 409.32800000000003 312.08 Z  M 428.457 280.872 L 432.828 280.872 L 432.828 315.746 L 428.457 315.746 L 428.457 280.872 Z  M 451.58099999999996 290.742 Q 457.36199999999997 290.742 460.323 294.1495 Q 463.284 297.557 463.284 303.62 Q 463.284 304.56 463.23699999999997 305.03 L 443.59099999999995 305.03 Q 444.10799999999995 308.367 446.3875 310.341 Q 448.667 312.315 452.00399999999996 312.315 Q 454.21299999999997 312.315 456.1165 311.516 Q 458.02 310.717 459.42999999999995 309.26 L 461.827 311.751 Q 459.99399999999997 313.725 457.409 314.806 Q 454.82399999999996 315.887 451.67499999999995 315.887 Q 448.00899999999996 315.887 445.16549999999995 314.3125 Q 442.322 312.738 440.7475 309.871 Q 439.173 307.004 439.173 303.338 Q 439.173 299.672 440.7475 296.8285 Q 442.322 293.985 445.142 292.3635 Q 447.962 290.742 451.58099999999996 290.742 Z  M 459.33599999999996 301.646 Q 459.14799999999997 298.262 457.08 296.3115 Q 455.012 294.361 451.628 294.361 Q 448.33799999999997 294.361 446.1525 296.335 Q 443.967 298.309 443.544 301.646 L 459.33599999999996 301.646 Z  M 186.877 290.742 Q 191.24800000000002 290.742 193.739 293.3035 Q 196.23000000000002 295.865 196.23000000000002 300.377 L 196.23000000000002 315.746 L 191.859 315.746 L 191.859 301.552 Q 191.859 298.403 190.09650000000002 296.6405 Q 188.334 294.878 185.232 294.878 Q 181.895 294.925 179.8035 297.0165 Q 177.71200000000002 299.108 177.43 302.445 L 177.43 315.746 L 173.059 315.746 L 173.059 290.883 L 177.43 290.883 L 177.43 296.147 Q 179.92100000000002 290.836 186.877 290.742 Z  M 214.37199999999999 290.742 Q 218.08499999999998 290.742 220.9755 292.34000000000003 Q 223.86599999999999 293.938 225.4875 296.7815 Q 227.10899999999998 299.625 227.10899999999998 303.291 Q 227.10899999999998 306.957 225.4875 309.824 Q 223.86599999999999 312.69100000000003 220.9755 314.289 Q 218.08499999999998 315.887 214.37199999999999 315.887 Q 210.612 315.887 207.7215 314.289 Q 204.831 312.69100000000003 203.2095 309.8475 Q 201.588 307.004 201.588 303.291 Q 201.588 299.625 203.2095 296.7815 Q 204.831 293.938 207.7215 292.34000000000003 Q 210.612 290.742 214.37199999999999 290.742 Z  M 214.37199999999999 294.549 Q 211.928 294.549 210.0245 295.677 Q 208.12099999999998 296.805 207.0635 298.8025 Q 206.006 300.8 206.006 303.338 Q 206.006 305.923 207.0635 307.944 Q 208.12099999999998 309.96500000000003 210.0245 311.0695 Q 211.928 312.174 214.37199999999999 312.174 Q 216.769 312.174 218.67249999999999 311.0695 Q 220.576 309.96500000000003 221.6335 307.944 Q 222.691 305.923 222.691 303.338 Q 222.691 300.8 221.6335 298.8025 Q 220.576 296.805 218.67249999999999 295.677 Q 216.769 294.549 214.37199999999999 294.549 Z  M 246.567 314.101 Q 243.70000000000002 315.934 240.739 315.934 Q 237.77800000000002 315.934 235.945 314.1715 Q 234.112 312.409 234.112 308.837 L 234.112 295.06600000000003 L 230.58700000000002 295.06600000000003 L 230.58700000000002 291.729 L 234.112 291.729 L 234.112 285.055 L 238.53 285.055 L 238.53 291.729 L 246.144 291.729 L 246.144 295.06600000000003 L 238.53 295.06600000000003 L 238.53 308.038 Q 238.53 310.106 239.282 310.999 Q 240.03400000000002 311.892 241.538 311.892 Q 243.324 311.892 245.392 310.717 L 246.567 314.101 Z  M 17.724 282.846 L 22.236 282.846 L 22.236 311.657 L 36.618 311.657 L 36.618 315.746 L 17.724 315.746 L 17.724 282.846 Z  M 42.352000000000004 282.846 L 46.864000000000004 282.846 L 46.864000000000004 315.746 L 42.352000000000004 315.746 L 42.352000000000004 282.846 Z  M 69.65899999999999 282.846 Q 74.453 282.846 78.3305 284.9845 Q 82.208 287.123 84.417 290.883 Q 86.626 294.64300000000003 86.626 299.296 Q 86.626 303.949 84.3935 307.709 Q 82.161 311.469 78.26 313.6075 Q 74.35900000000001 315.746 69.518 315.746 L 56.264 315.746 L 56.264 282.846 L 69.65899999999999 282.846 Z  M 69.753 311.657 Q 73.184 311.657 75.9805 310.059 Q 78.777 308.461 80.3985 305.641 Q 82.02 302.821 82.02 299.343 Q 82.02 295.818 80.375 292.998 Q 78.73 290.178 75.8865 288.5565 Q 73.043 286.935 69.565 286.935 L 60.775999999999996 286.935 L 60.775999999999996 311.657 L 69.753 311.657 Z  M 117.50500000000001 315.746 L 114.02700000000002 307.756 L 96.68400000000001 307.756 L 93.25300000000001 315.746 L 88.50600000000001 315.746 L 103.123 282.846 L 107.82300000000001 282.846 L 122.393 315.746 L 117.50500000000001 315.746 Z  M 98.47000000000001 303.66700000000003 L 112.28800000000001 303.66700000000003 L 105.33200000000001 287.687 L 98.47000000000001 303.66700000000003 Z  M 148.431 315.746 L 141.89800000000002 305.406 Q 140.77 305.5 140.065 305.5 L 131.699 305.5 L 131.699 315.746 L 127.18700000000001 315.746 L 127.18700000000001 282.846 L 140.065 282.846 Q 146.316 282.846 149.7235 285.7365 Q 153.131 288.627 153.131 293.938 Q 153.131 297.933 151.27450000000002 300.659 Q 149.418 303.385 145.94 304.60699999999997 L 153.601 315.746 L 148.431 315.746 Z  M 140.065 301.411 Q 144.29500000000002 301.411 146.55100000000002 299.5545 Q 148.80700000000002 297.698 148.80700000000002 294.079 Q 148.80700000000002 290.554 146.55100000000002 288.7445 Q 144.29500000000002 286.935 140.065 286.935 L 131.699 286.935 L 131.699 301.411 L 140.065 301.411 Z "
          fill-rule="evenodd" fill="rgb(0,0,0)"/>
    <g style="isolation: isolate;">
        <path d=" M 279.373 315.746 L 279.373 312.26800000000003 Q 276.59999999999997 315.934 270.678 315.934 Q 268.093 315.934 266.1425 314.947 Q 264.192 313.96 263.1345 312.221 Q 262.077 310.48199999999997 262.077 308.32 Q 262.077 304.983 264.54449999999997 303.0325 Q 267.012 301.082 271.43 301.035 L 279.326 301.035 L 279.326 299.86 Q 279.326 297.228 277.7045 295.7945 Q 276.08299999999997 294.361 272.981 294.361 Q 269.221 294.361 265.32 297.04 L 263.48699999999997 294.032 Q 266.166 292.293 268.4455 291.5175 Q 270.72499999999997 290.742 273.87399999999997 290.742 Q 278.527 290.742 281.065 293.0215 Q 283.603 295.301 283.65 299.39 L 283.697 315.746 L 279.373 315.746 Z  M 271.57099999999997 312.315 Q 274.626 312.315 276.7645 310.8345 Q 278.903 309.354 279.326 306.91 L 279.326 304.419 L 272.041 304.419 Q 269.08 304.419 267.6465 305.312 Q 266.21299999999997 306.205 266.21299999999997 308.132 Q 266.21299999999997 310.059 267.67 311.187 Q 269.127 312.315 271.57099999999997 312.315 Z  M 287.363 290.883 L 292.01599999999996 290.883 L 299.489 311.422 L 306.91499999999996 290.883 L 311.33299999999997 290.883 L 301.65099999999995 315.746 L 297.092 315.746 L 287.363 290.883 Z  M 330.65 315.746 L 330.65 312.26800000000003 Q 327.877 315.934 321.955 315.934 Q 319.37 315.934 317.4195 314.947 Q 315.469 313.96 314.4115 312.221 Q 313.354 310.48199999999997 313.354 308.32 Q 313.354 304.983 315.8215 303.0325 Q 318.289 301.082 322.707 301.035 L 330.603 301.035 L 330.603 299.86 Q 330.603 297.228 328.9815 295.7945 Q 327.36 294.361 324.258 294.361 Q 320.498 294.361 316.597 297.04 L 314.764 294.032 Q 317.443 292.293 319.7225 291.5175 Q 322.002 290.742 325.151 290.742 Q 329.80400000000003 290.742 332.342 293.0215 Q 334.88 295.301 334.927 299.39 L 334.974 315.746 L 330.65 315.746 Z  M 322.848 312.315 Q 325.903 312.315 328.0415 310.8345 Q 330.18 309.354 330.603 306.91 L 330.603 304.419 L 323.318 304.419 Q 320.357 304.419 318.9235 305.312 Q 317.49 306.205 317.49 308.132 Q 317.49 310.059 318.947 311.187 Q 320.404 312.315 322.848 312.315 Z  M 342.776 290.883 L 347.14700000000005 290.883 L 347.14700000000005 315.746 L 342.776 315.746 L 342.776 290.883 Z  M 344.93800000000005 280.966 Q 346.113 280.966 346.8885 281.765 Q 347.66400000000004 282.564 347.66400000000004 283.786 Q 347.66400000000004 285.008 346.8885 285.807 Q 346.113 286.606 344.93800000000005 286.606 Q 343.76300000000003 286.606 342.9875 285.807 Q 342.21200000000005 285.008 342.21200000000005 283.786 Q 342.21200000000005 282.564 342.9875 281.765 Q 343.76300000000003 280.966 344.93800000000005 280.966 Z  M 355.889 280.872 L 360.26 280.872 L 360.26 315.746 L 355.889 315.746 L 355.889 280.872 Z  M 384.23 315.746 L 384.23 312.26800000000003 Q 381.457 315.934 375.53499999999997 315.934 Q 372.95 315.934 370.9995 314.947 Q 369.049 313.96 367.9915 312.221 Q 366.93399999999997 310.48199999999997 366.93399999999997 308.32 Q 366.93399999999997 304.983 369.4015 303.0325 Q 371.86899999999997 301.082 376.287 301.035 L 384.183 301.035 L 384.183 299.86 Q 384.183 297.228 382.56149999999997 295.7945 Q 380.94 294.361 377.83799999999997 294.361 Q 374.078 294.361 370.17699999999996 297.04 L 368.344 294.032 Q 371.02299999999997 292.293 373.3025 291.5175 Q 375.582 290.742 378.731 290.742 Q 383.384 290.742 385.92199999999997 293.0215 Q 388.46 295.301 388.507 299.39 L 388.554 315.746 L 384.23 315.746 Z  M 376.428 312.315 Q 379.483 312.315 381.62149999999997 310.8345 Q 383.76 309.354 384.183 306.91 L 384.183 304.419 L 376.89799999999997 304.419 Q 373.937 304.419 372.5035 305.312 Q 371.07 306.205 371.07 308.132 Q 371.07 310.059 372.527 311.187 Q 373.984 312.315 376.428 312.315 Z  M 410.174 290.742 Q 413.652 290.742 416.378 292.34000000000003 Q 419.104 293.938 420.608 296.805 Q 422.112 299.672 422.112 303.385 Q 422.112 307.051 420.6315 309.8945 Q 419.151 312.738 416.4485 314.3125 Q 413.746 315.887 410.26800000000003 315.887 Q 407.119 315.887 404.722 314.571 Q 402.325 313.255 400.962 310.811 L 400.962 315.746 L 396.591 315.746 L 396.591 280.872 L 400.962 280.872 L 400.962 295.818 Q 402.325 293.374 404.6985 292.058 Q 407.072 290.742 410.174 290.742 Z  M 409.32800000000003 312.08 Q 411.725 312.08 413.62850000000003 310.952 Q 415.532 309.824 416.5895 307.803 Q 417.647 305.782 417.647 303.244 Q 417.647 300.753 416.56600000000003 298.732 Q 415.485 296.711 413.605 295.583 Q 411.725 294.455 409.32800000000003 294.455 Q 406.931 294.455 405.02750000000003 295.583 Q 403.124 296.711 402.043 298.732 Q 400.962 300.753 400.962 303.244 Q 400.962 305.829 402.043 307.8265 Q 403.124 309.824 405.02750000000003 310.952 Q 406.931 312.08 409.32800000000003 312.08 Z  M 428.457 280.872 L 432.828 280.872 L 432.828 315.746 L 428.457 315.746 L 428.457 280.872 Z  M 451.58099999999996 290.742 Q 457.36199999999997 290.742 460.323 294.1495 Q 463.284 297.557 463.284 303.62 Q 463.284 304.56 463.23699999999997 305.03 L 443.59099999999995 305.03 Q 444.10799999999995 308.367 446.3875 310.341 Q 448.667 312.315 452.00399999999996 312.315 Q 454.21299999999997 312.315 456.1165 311.516 Q 458.02 310.717 459.42999999999995 309.26 L 461.827 311.751 Q 459.99399999999997 313.725 457.409 314.806 Q 454.82399999999996 315.887 451.67499999999995 315.887 Q 448.00899999999996 315.887 445.16549999999995 314.3125 Q 442.322 312.738 440.7475 309.871 Q 439.173 307.004 439.173 303.338 Q 439.173 299.672 440.7475 296.8285 Q 442.322 293.985 445.142 292.3635 Q 447.962 290.742 451.58099999999996 290.742 Z  M 459.33599999999996 301.646 Q 459.14799999999997 298.262 457.08 296.3115 Q 455.012 294.361 451.628 294.361 Q 448.33799999999997 294.361 446.1525 296.335 Q 443.967 298.309 443.544 301.646 L 459.33599999999996 301.646 Z  M 186.877 290.742 Q 191.24800000000002 290.742 193.739 293.3035 Q 196.23000000000002 295.865 196.23000000000002 300.377 L 196.23000000000002 315.746 L 191.859 315.746 L 191.859 301.552 Q 191.859 298.403 190.09650000000002 296.6405 Q 188.334 294.878 185.232 294.878 Q 181.895 294.925 179.8035 297.0165 Q 177.71200000000002 299.108 177.43 302.445 L 177.43 315.746 L 173.059 315.746 L 173.059 290.883 L 177.43 290.883 L 177.43 296.147 Q 179.92100000000002 290.836 186.877 290.742 Z  M 214.37199999999999 290.742 Q 218.08499999999998 290.742 220.9755 292.34000000000003 Q 223.86599999999999 293.938 225.4875 296.7815 Q 227.10899999999998 299.625 227.10899999999998 303.291 Q 227.10899999999998 306.957 225.4875 309.824 Q 223.86599999999999 312.69100000000003 220.9755 314.289 Q 218.08499999999998 315.887 214.37199999999999 315.887 Q 210.612 315.887 207.7215 314.289 Q 204.831 312.69100000000003 203.2095 309.8475 Q 201.588 307.004 201.588 303.291 Q 201.588 299.625 203.2095 296.7815 Q 204.831 293.938 207.7215 292.34000000000003 Q 210.612 290.742 214.37199999999999 290.742 Z  M 214.37199999999999 294.549 Q 211.928 294.549 210.0245 295.677 Q 208.12099999999998 296.805 207.0635 298.8025 Q 206.006 300.8 206.006 303.338 Q 206.006 305.923 207.0635 307.944 Q 208.12099999999998 309.96500000000003 210.0245 311.0695 Q 211.928 312.174 214.37199999999999 312.174 Q 216.769 312.174 218.67249999999999 311.0695 Q 220.576 309.96500000000003 221.6335 307.944 Q 222.691 305.923 222.691 303.338 Q 222.691 300.8 221.6335 298.8025 Q 220.576 296.805 218.67249999999999 295.677 Q 216.769 294.549 214.37199999999999 294.549 Z  M 246.567 314.101 Q 243.70000000000002 315.934 240.739 315.934 Q 237.77800000000002 315.934 235.945 314.1715 Q 234.112 312.409 234.112 308.837 L 234.112 295.06600000000003 L 230.58700000000002 295.06600000000003 L 230.58700000000002 291.729 L 234.112 291.729 L 234.112 285.055 L 238.53 285.055 L 238.53 291.729 L 246.144 291.729 L 246.144 295.06600000000003 L 238.53 295.06600000000003 L 238.53 308.038 Q 238.53 310.106 239.282 310.999 Q 240.03400000000002 311.892 241.538 311.892 Q 243.324 311.892 245.392 310.717 L 246.567 314.101 Z  M 17.724 282.846 L 22.236 282.846 L 22.236 311.657 L 36.618 311.657 L 36.618 315.746 L 17.724 315.746 L 17.724 282.846 Z  M 42.352000000000004 282.846 L 46.864000000000004 282.846 L 46.864000000000004 315.746 L 42.352000000000004 315.746 L 42.352000000000004 282.846 Z  M 69.65899999999999 282.846 Q 74.453 282.846 78.3305 284.9845 Q 82.208 287.123 84.417 290.883 Q 86.626 294.64300000000003 86.626 299.296 Q 86.626 303.949 84.3935 307.709 Q 82.161 311.469 78.26 313.6075 Q 74.35900000000001 315.746 69.518 315.746 L 56.264 315.746 L 56.264 282.846 L 69.65899999999999 282.846 Z  M 69.753 311.657 Q 73.184 311.657 75.9805 310.059 Q 78.777 308.461 80.3985 305.641 Q 82.02 302.821 82.02 299.343 Q 82.02 295.818 80.375 292.998 Q 78.73 290.178 75.8865 288.5565 Q 73.043 286.935 69.565 286.935 L 60.775999999999996 286.935 L 60.775999999999996 311.657 L 69.753 311.657 Z  M 117.50500000000001 315.746 L 114.02700000000002 307.756 L 96.68400000000001 307.756 L 93.25300000000001 315.746 L 88.50600000000001 315.746 L 103.123 282.846 L 107.82300000000001 282.846 L 122.393 315.746 L 117.50500000000001 315.746 Z  M 98.47000000000001 303.66700000000003 L 112.28800000000001 303.66700000000003 L 105.33200000000001 287.687 L 98.47000000000001 303.66700000000003 Z  M 148.431 315.746 L 141.89800000000002 305.406 Q 140.77 305.5 140.065 305.5 L 131.699 305.5 L 131.699 315.746 L 127.18700000000001 315.746 L 127.18700000000001 282.846 L 140.065 282.846 Q 146.316 282.846 149.7235 285.7365 Q 153.131 288.627 153.131 293.938 Q 153.131 297.933 151.27450000000002 300.659 Q 149.418 303.385 145.94 304.60699999999997 L 153.601 315.746 L 148.431 315.746 Z  M 140.065 301.411 Q 144.29500000000002 301.411 146.55100000000002 299.5545 Q 148.80700000000002 297.698 148.80700000000002 294.079 Q 148.80700000000002 290.554 146.55100000000002 288.7445 Q 144.29500000000002 286.935 140.065 286.935 L 131.699 286.935 L 131.699 301.411 L 140.065 301.411 Z "
              fill-rule="evenodd" fill="none" vector-effect="non-scaling-stroke" stroke-width="1" stroke="rgb(0,0,0)"
              stroke-linejoin="miter" stroke-linecap="square" stroke-miterlimit="3"/>
        <path d=" M 279.373 315.746 L 279.373 312.26800000000003 Q 276.59999999999997 315.934 270.678 315.934 Q 268.093 315.934 266.1425 314.947 Q 264.192 313.96 263.1345 312.221 Q 262.077 310.48199999999997 262.077 308.32 Q 262.077 304.983 264.54449999999997 303.0325 Q 267.012 301.082 271.43 301.035 L 279.326 301.035 L 279.326 299.86 Q 279.326 297.228 277.7045 295.7945 Q 276.08299999999997 294.361 272.981 294.361 Q 269.221 294.361 265.32 297.04 L 263.48699999999997 294.032 Q 266.166 292.293 268.4455 291.5175 Q 270.72499999999997 290.742 273.87399999999997 290.742 Q 278.527 290.742 281.065 293.0215 Q 283.603 295.301 283.65 299.39 L 283.697 315.746 L 279.373 315.746 Z  M 271.57099999999997 312.315 Q 274.626 312.315 276.7645 310.8345 Q 278.903 309.354 279.326 306.91 L 279.326 304.419 L 272.041 304.419 Q 269.08 304.419 267.6465 305.312 Q 266.21299999999997 306.205 266.21299999999997 308.132 Q 266.21299999999997 310.059 267.67 311.187 Q 269.127 312.315 271.57099999999997 312.315 Z  M 287.363 290.883 L 292.01599999999996 290.883 L 299.489 311.422 L 306.91499999999996 290.883 L 311.33299999999997 290.883 L 301.65099999999995 315.746 L 297.092 315.746 L 287.363 290.883 Z  M 330.65 315.746 L 330.65 312.26800000000003 Q 327.877 315.934 321.955 315.934 Q 319.37 315.934 317.4195 314.947 Q 315.469 313.96 314.4115 312.221 Q 313.354 310.48199999999997 313.354 308.32 Q 313.354 304.983 315.8215 303.0325 Q 318.289 301.082 322.707 301.035 L 330.603 301.035 L 330.603 299.86 Q 330.603 297.228 328.9815 295.7945 Q 327.36 294.361 324.258 294.361 Q 320.498 294.361 316.597 297.04 L 314.764 294.032 Q 317.443 292.293 319.7225 291.5175 Q 322.002 290.742 325.151 290.742 Q 329.80400000000003 290.742 332.342 293.0215 Q 334.88 295.301 334.927 299.39 L 334.974 315.746 L 330.65 315.746 Z  M 322.848 312.315 Q 325.903 312.315 328.0415 310.8345 Q 330.18 309.354 330.603 306.91 L 330.603 304.419 L 323.318 304.419 Q 320.357 304.419 318.9235 305.312 Q 317.49 306.205 317.49 308.132 Q 317.49 310.059 318.947 311.187 Q 320.404 312.315 322.848 312.315 Z  M 342.776 290.883 L 347.14700000000005 290.883 L 347.14700000000005 315.746 L 342.776 315.746 L 342.776 290.883 Z  M 344.93800000000005 280.966 Q 346.113 280.966 346.8885 281.765 Q 347.66400000000004 282.564 347.66400000000004 283.786 Q 347.66400000000004 285.008 346.8885 285.807 Q 346.113 286.606 344.93800000000005 286.606 Q 343.76300000000003 286.606 342.9875 285.807 Q 342.21200000000005 285.008 342.21200000000005 283.786 Q 342.21200000000005 282.564 342.9875 281.765 Q 343.76300000000003 280.966 344.93800000000005 280.966 Z  M 355.889 280.872 L 360.26 280.872 L 360.26 315.746 L 355.889 315.746 L 355.889 280.872 Z  M 384.23 315.746 L 384.23 312.26800000000003 Q 381.457 315.934 375.53499999999997 315.934 Q 372.95 315.934 370.9995 314.947 Q 369.049 313.96 367.9915 312.221 Q 366.93399999999997 310.48199999999997 366.93399999999997 308.32 Q 366.93399999999997 304.983 369.4015 303.0325 Q 371.86899999999997 301.082 376.287 301.035 L 384.183 301.035 L 384.183 299.86 Q 384.183 297.228 382.56149999999997 295.7945 Q 380.94 294.361 377.83799999999997 294.361 Q 374.078 294.361 370.17699999999996 297.04 L 368.344 294.032 Q 371.02299999999997 292.293 373.3025 291.5175 Q 375.582 290.742 378.731 290.742 Q 383.384 290.742 385.92199999999997 293.0215 Q 388.46 295.301 388.507 299.39 L 388.554 315.746 L 384.23 315.746 Z  M 376.428 312.315 Q 379.483 312.315 381.62149999999997 310.8345 Q 383.76 309.354 384.183 306.91 L 384.183 304.419 L 376.89799999999997 304.419 Q 373.937 304.419 372.5035 305.312 Q 371.07 306.205 371.07 308.132 Q 371.07 310.059 372.527 311.187 Q 373.984 312.315 376.428 312.315 Z  M 410.174 290.742 Q 413.652 290.742 416.378 292.34000000000003 Q 419.104 293.938 420.608 296.805 Q 422.112 299.672 422.112 303.385 Q 422.112 307.051 420.6315 309.8945 Q 419.151 312.738 416.4485 314.3125 Q 413.746 315.887 410.26800000000003 315.887 Q 407.119 315.887 404.722 314.571 Q 402.325 313.255 400.962 310.811 L 400.962 315.746 L 396.591 315.746 L 396.591 280.872 L 400.962 280.872 L 400.962 295.818 Q 402.325 293.374 404.6985 292.058 Q 407.072 290.742 410.174 290.742 Z  M 409.32800000000003 312.08 Q 411.725 312.08 413.62850000000003 310.952 Q 415.532 309.824 416.5895 307.803 Q 417.647 305.782 417.647 303.244 Q 417.647 300.753 416.56600000000003 298.732 Q 415.485 296.711 413.605 295.583 Q 411.725 294.455 409.32800000000003 294.455 Q 406.931 294.455 405.02750000000003 295.583 Q 403.124 296.711 402.043 298.732 Q 400.962 300.753 400.962 303.244 Q 400.962 305.829 402.043 307.8265 Q 403.124 309.824 405.02750000000003 310.952 Q 406.931 312.08 409.32800000000003 312.08 Z  M 428.457 280.872 L 432.828 280.872 L 432.828 315.746 L 428.457 315.746 L 428.457 280.872 Z  M 451.58099999999996 290.742 Q 457.36199999999997 290.742 460.323 294.1495 Q 463.284 297.557 463.284 303.62 Q 463.284 304.56 463.23699999999997 305.03 L 443.59099999999995 305.03 Q 444.10799999999995 308.367 446.3875 310.341 Q 448.667 312.315 452.00399999999996 312.315 Q 454.21299999999997 312.315 456.1165 311.516 Q 458.02 310.717 459.42999999999995 309.26 L 461.827 311.751 Q 459.99399999999997 313.725 457.409 314.806 Q 454.82399999999996 315.887 451.67499999999995 315.887 Q 448.00899999999996 315.887 445.16549999999995 314.3125 Q 442.322 312.738 440.7475 309.871 Q 439.173 307.004 439.173 303.338 Q 439.173 299.672 440.7475 296.8285 Q 442.322 293.985 445.142 292.3635 Q 447.962 290.742 451.58099999999996 290.742 Z  M 459.33599999999996 301.646 Q 459.14799999999997 298.262 457.08 296.3115 Q 455.012 294.361 451.628 294.361 Q 448.33799999999997 294.361 446.1525 296.335 Q 443.967 298.309 443.544 301.646 L 459.33599999999996 301.646 Z  M 186.877 290.742 Q 191.24800000000002 290.742 193.739 293.3035 Q 196.23000000000002 295.865 196.23000000000002 300.377 L 196.23000000000002 315.746 L 191.859 315.746 L 191.859 301.552 Q 191.859 298.403 190.09650000000002 296.6405 Q 188.334 294.878 185.232 294.878 Q 181.895 294.925 179.8035 297.0165 Q 177.71200000000002 299.108 177.43 302.445 L 177.43 315.746 L 173.059 315.746 L 173.059 290.883 L 177.43 290.883 L 177.43 296.147 Q 179.92100000000002 290.836 186.877 290.742 Z  M 214.37199999999999 290.742 Q 218.08499999999998 290.742 220.9755 292.34000000000003 Q 223.86599999999999 293.938 225.4875 296.7815 Q 227.10899999999998 299.625 227.10899999999998 303.291 Q 227.10899999999998 306.957 225.4875 309.824 Q 223.86599999999999 312.69100000000003 220.9755 314.289 Q 218.08499999999998 315.887 214.37199999999999 315.887 Q 210.612 315.887 207.7215 314.289 Q 204.831 312.69100000000003 203.2095 309.8475 Q 201.588 307.004 201.588 303.291 Q 201.588 299.625 203.2095 296.7815 Q 204.831 293.938 207.7215 292.34000000000003 Q 210.612 290.742 214.37199999999999 290.742 Z  M 214.37199999999999 294.549 Q 211.928 294.549 210.0245 295.677 Q 208.12099999999998 296.805 207.0635 298.8025 Q 206.006 300.8 206.006 303.338 Q 206.006 305.923 207.0635 307.944 Q 208.12099999999998 309.96500000000003 210.0245 311.0695 Q 211.928 312.174 214.37199999999999 312.174 Q 216.769 312.174 218.67249999999999 311.0695 Q 220.576 309.96500000000003 221.6335 307.944 Q 222.691 305.923 222.691 303.338 Q 222.691 300.8 221.6335 298.8025 Q 220.576 296.805 218.67249999999999 295.677 Q 216.769 294.549 214.37199999999999 294.549 Z  M 246.567 314.101 Q 243.70000000000002 315.934 240.739 315.934 Q 237.77800000000002 315.934 235.945 314.1715 Q 234.112 312.409 234.112 308.837 L 234.112 295.06600000000003 L 230.58700000000002 295.06600000000003 L 230.58700000000002 291.729 L 234.112 291.729 L 234.112 285.055 L 238.53 285.055 L 238.53 291.729 L 246.144 291.729 L 246.144 295.06600000000003 L 238.53 295.06600000000003 L 238.53 308.038 Q 238.53 310.106 239.282 310.999 Q 240.03400000000002 311.892 241.538 311.892 Q 243.324 311.892 245.392 310.717 L 246.567 314.101 Z  M 17.724 282.846 L 22.236 282.846 L 22.236 311.657 L 36.618 311.657 L 36.618 315.746 L 17.724 315.746 L 17.724 282.846 Z  M 42.352000000000004 282.846 L 46.864000000000004 282.846 L 46.864000000000004 315.746 L 42.352000000000004 315.746 L 42.352000000000004 282.846 Z  M 69.65899999999999 282.846 Q 74.453 282.846 78.3305 284.9845 Q 82.208 287.123 84.417 290.883 Q 86.626 294.64300000000003 86.626 299.296 Q 86.626 303.949 84.3935 307.709 Q 82.161 311.469 78.26 313.6075 Q 74.35900000000001 315.746 69.518 315.746 L 56.264 315.746 L 56.264 282.846 L 69.65899999999999 282.846 Z  M 69.753 311.657 Q 73.184 311.657 75.9805 310.059 Q 78.777 308.461 80.3985 305.641 Q 82.02 302.821 82.02 299.343 Q 82.02 295.818 80.375 292.998 Q 78.73 290.178 75.8865 288.5565 Q 73.043 286.935 69.565 286.935 L 60.775999999999996 286.935 L 60.775999999999996 311.657 L 69.753 311.657 Z  M 117.50500000000001 315.746 L 114.02700000000002 307.756 L 96.68400000000001 307.756 L 93.25300000000001 315.746 L 88.50600000000001 315.746 L 103.123 282.846 L 107.82300000000001 282.846 L 122.393 315.746 L 117.50500000000001 315.746 Z  M 98.47000000000001 303.66700000000003 L 112.28800000000001 303.66700000000003 L 105.33200000000001 287.687 L 98.47000000000001 303.66700000000003 Z  M 148.431 315.746 L 141.89800000000002 305.406 Q 140.77 305.5 140.065 305.5 L 131.699 305.5 L 131.699 315.746 L 127.18700000000001 315.746 L 127.18700000000001 282.846 L 140.065 282.846 Q 146.316 282.846 149.7235 285.7365 Q 153.131 288.627 153.131 293.938 Q 153.131 297.933 151.27450000000002 300.659 Q 149.418 303.385 145.94 304.60699999999997 L 153.601 315.746 L 148.431 315.746 Z  M 140.065 301.411 Q 144.29500000000002 301.411 146.55100000000002 299.5545 Q 148.80700000000002 297.698 148.80700000000002 294.079 Q 148.80700000000002 290.554 146.55100000000002 288.7445 Q 144.29500000000002 286.935 140.065 286.935 L 131.699 286.935 L 131.699 301.411 L 140.065 301.411 Z "
              fill-rule="evenodd" fill="none" vector-effect="non-scaling-stroke" stroke-width="1" stroke="rgb(0,0,0)"
              stroke-linejoin="miter" stroke-linecap="square" stroke-miterlimit="3"/>
    </g>
    <path d=" M 106.5 0 L 373.5 0 L 373.5 267 L 106.5 267 L 106.5 0 Z " fill="none"/>
    <path d=" M 240 122.375 C 227.7625 122.375 217.75 132.38750000000002 217.75 144.625 C 217.75 156.86249999999998 227.7625 166.875 240 166.875 C 252.23749999999998 166.875 262.25 156.86249999999998 262.25 144.625 C 262.25 132.38750000000002 252.23749999999998 122.375 240 122.375 Z  M 306.75 144.625 C 306.75 107.80125 276.82375 77.875 240 77.875 C 203.17624999999998 77.875 173.25 107.80125 173.25 144.625 C 173.25 169.32250000000002 186.71125 190.79375 206.625 202.36375 L 217.75 183.00625000000002 C 204.51125000000002 175.21875000000003 195.5 161.09000000000003 195.5 144.62500000000003 C 195.5 120.03875000000004 215.41375 100.12500000000004 240 100.12500000000004 C 264.58625 100.12500000000004 284.5 120.03875000000004 284.5 144.62500000000003 C 284.5 161.09000000000003 275.48875 175.21875000000003 262.25 183.00625000000002 L 273.375 202.36375 C 293.28875 190.79375000000002 306.75 169.32250000000002 306.75 144.625 Z  M 240 33.375 C 178.59 33.375 128.75 83.215 128.75 144.625 C 128.75 185.7875 151.11124999999998 221.61 184.26375000000002 240.85625 L 195.38875000000002 221.60999999999999 C 168.91125 206.14625 151 177.555 151 144.625 C 151 95.4525 190.8275 55.625 240 55.625 C 289.1725 55.625 329 95.4525 329 144.625 C 329 177.555 311.08875 206.14625 284.5 221.61 L 295.625 240.85625000000002 C 328.88875 221.61 351.25 185.78750000000002 351.25 144.62500000000003 C 351.25 83.21500000000002 301.40999999999997 33.37500000000002 240 33.375 Z "
          fill-rule="evenodd" fill="rgb(0,0,0)"/>
    <line x1="131.98902130126953" y1="50.26142120361328" x2="361.023193359375" y2="222.666259765625"
          vector-effect="non-scaling-stroke" stroke-width="40" stroke="rgb(255,255,255)" stroke-linejoin="miter"
          stroke-linecap="square" stroke-miterlimit="3"/>
    <line x1="126" y1="58.7625" x2="355.03417205810547" y2="231.1673385620117" vector-effect="non-scaling-stroke"
          stroke-width="20" stroke="rgb(0,0,0)" stroke-linejoin="miter" stroke-linecap="square" stroke-miterlimit="3"/>
</svg>