<?xml version="1.0" standalone="no"?><!-- Generator: Gravit.io -->
<svg xmlns="http://www.w3.org/2000/svg" style="isolation:isolate" viewBox="0 0 480 350" width="480" height="350">
    <path d=" M 261.334 247.52459213569776 L 261.334 245.60059213569775 Q 259.79999999999995 247.62859213569774 256.524 247.62859213569774 Q 255.094 247.62859213569774 254.015 247.08259213569775 Q 252.936 246.53659213569776 252.351 245.57459213569774 Q 251.766 244.61259213569775 251.766 243.41659213569775 Q 251.766 241.57059213569775 253.131 240.49159213569774 Q 254.49599999999998 239.41259213569776 256.94 239.38659213569775 L 261.308 239.38659213569775 L 261.308 238.73659213569775 Q 261.308 237.28059213569776 260.411 236.48759213569775 Q 259.514 235.69459213569775 257.798 235.69459213569775 Q 255.718 235.69459213569775 253.56 237.17659213569775 L 252.546 235.51259213569776 Q 254.028 234.55059213569774 255.289 234.12159213569777 Q 256.54999999999995 233.69259213569777 258.29200000000003 233.69259213569777 Q 260.866 233.69259213569777 262.27 234.95359213569776 Q 263.674 236.21459213569776 263.7 238.47659213569776 L 263.726 247.52459213569776 L 261.334 247.52459213569776 Z  M 257.01800000000003 245.62659213569776 Q 258.70799999999997 245.62659213569776 259.89099999999996 244.80759213569775 Q 261.07399999999996 243.98859213569776 261.308 242.63659213569775 L 261.308 241.25859213569777 L 257.278 241.25859213569777 Q 255.64 241.25859213569777 254.84699999999998 241.75259213569774 Q 254.054 242.24659213569777 254.054 243.31259213569774 Q 254.054 244.37859213569774 254.85999999999999 245.00259213569774 Q 255.666 245.62659213569776 257.01800000000003 245.62659213569776 Z  M 265.754 233.77059213569777 L 268.328 233.77059213569777 L 272.462 245.13259213569776 L 276.57 233.77059213569777 L 279.014 233.77059213569777 L 273.658 247.52459213569776 L 271.13599999999997 247.52459213569776 L 265.754 233.77059213569777 Z  M 289.7 247.52459213569776 L 289.7 245.60059213569775 Q 288.16599999999994 247.62859213569774 284.89 247.62859213569774 Q 283.46 247.62859213569774 282.381 247.08259213569775 Q 281.302 246.53659213569776 280.717 245.57459213569774 Q 280.13199999999995 244.61259213569775 280.13199999999995 243.41659213569775 Q 280.13199999999995 241.57059213569775 281.49699999999996 240.49159213569774 Q 282.86199999999997 239.41259213569776 285.306 239.38659213569775 L 289.674 239.38659213569775 L 289.674 238.73659213569775 Q 289.674 237.28059213569776 288.777 236.48759213569775 Q 287.88 235.69459213569775 286.164 235.69459213569775 Q 284.08399999999995 235.69459213569775 281.926 237.17659213569775 L 280.912 235.51259213569776 Q 282.394 234.55059213569774 283.655 234.12159213569777 Q 284.91599999999994 233.69259213569777 286.658 233.69259213569777 Q 289.23199999999997 233.69259213569777 290.63599999999997 234.95359213569776 Q 292.03999999999996 236.21459213569776 292.066 238.47659213569776 L 292.092 247.52459213569776 L 289.7 247.52459213569776 Z  M 285.384 245.62659213569776 Q 287.07399999999996 245.62659213569776 288.25699999999995 244.80759213569775 Q 289.43999999999994 243.98859213569776 289.674 242.63659213569775 L 289.674 241.25859213569777 L 285.644 241.25859213569777 Q 284.006 241.25859213569777 283.21299999999997 241.75259213569774 Q 282.41999999999996 242.24659213569777 282.41999999999996 243.31259213569774 Q 282.41999999999996 244.37859213569774 283.226 245.00259213569774 Q 284.032 245.62659213569776 285.384 245.62659213569776 Z  M 296.408 233.77059213569777 L 298.82599999999996 233.77059213569777 L 298.82599999999996 247.52459213569776 L 296.408 247.52459213569776 L 296.408 233.77059213569777 Z  M 297.604 228.28459213569775 Q 298.25399999999996 228.28459213569775 298.683 228.72659213569776 Q 299.11199999999997 229.16859213569776 299.11199999999997 229.84459213569775 Q 299.11199999999997 230.52059213569777 298.683 230.96259213569775 Q 298.25399999999996 231.40459213569775 297.604 231.40459213569775 Q 296.95399999999995 231.40459213569775 296.525 230.96259213569775 Q 296.096 230.52059213569777 296.096 229.84459213569775 Q 296.096 229.16859213569776 296.525 228.72659213569776 Q 296.95399999999995 228.28459213569775 297.604 228.28459213569775 Z  M 303.662 228.23259213569776 L 306.0799999999999 228.23259213569776 L 306.0799999999999 247.52459213569776 L 303.662 247.52459213569776 L 303.662 228.23259213569776 Z  M 319.34 247.52459213569776 L 319.34 245.60059213569775 Q 317.8059999999999 247.62859213569774 314.53 247.62859213569774 Q 313.09999999999997 247.62859213569774 312.02099999999996 247.08259213569775 Q 310.942 246.53659213569776 310.35699999999997 245.57459213569774 Q 309.77199999999993 244.61259213569775 309.77199999999993 243.41659213569775 Q 309.77199999999993 241.57059213569775 311.13699999999994 240.49159213569774 Q 312.50199999999995 239.41259213569776 314.94599999999997 239.38659213569775 L 319.31399999999996 239.38659213569775 L 319.31399999999996 238.73659213569775 Q 319.31399999999996 237.28059213569776 318.417 236.48759213569775 Q 317.52 235.69459213569775 315.804 235.69459213569775 Q 313.72399999999993 235.69459213569775 311.566 237.17659213569775 L 310.55199999999996 235.51259213569776 Q 312.034 234.55059213569774 313.29499999999996 234.12159213569777 Q 314.5559999999999 233.69259213569777 316.298 233.69259213569777 Q 318.87199999999996 233.69259213569777 320.27599999999995 234.95359213569776 Q 321.67999999999995 236.21459213569776 321.70599999999996 238.47659213569776 L 321.73199999999997 247.52459213569776 L 319.34 247.52459213569776 Z  M 315.024 245.62659213569776 Q 316.71399999999994 245.62659213569776 317.89699999999993 244.80759213569775 Q 319.0799999999999 243.98859213569776 319.31399999999996 242.63659213569775 L 319.31399999999996 241.25859213569777 L 315.284 241.25859213569777 Q 313.64599999999996 241.25859213569777 312.85299999999995 241.75259213569774 Q 312.05999999999995 242.24659213569777 312.05999999999995 243.31259213569774 Q 312.05999999999995 244.37859213569774 312.866 245.00259213569774 Q 313.67199999999997 245.62659213569776 315.024 245.62659213569776 Z  M 333.69199999999995 233.69259213569777 Q 335.616 233.69259213569777 337.12399999999997 234.57659213569775 Q 338.63199999999995 235.46059213569777 339.46399999999994 237.04659213569775 Q 340.29599999999994 238.63259213569776 340.29599999999994 240.68659213569777 Q 340.29599999999994 242.71459213569776 339.477 244.28759213569776 Q 338.65799999999996 245.86059213569774 337.16299999999995 246.73159213569775 Q 335.66799999999995 247.60259213569776 333.74399999999997 247.60259213569776 Q 332.00199999999995 247.60259213569776 330.67599999999993 246.87459213569775 Q 329.34999999999997 246.14659213569774 328.59599999999995 244.79459213569777 L 328.59599999999995 247.52459213569776 L 326.178 247.52459213569776 L 326.178 228.23259213569776 L 328.59599999999995 228.23259213569776 L 328.59599999999995 236.50059213569776 Q 329.34999999999997 235.14859213569775 330.66299999999995 234.42059213569775 Q 331.976 233.69259213569777 333.69199999999995 233.69259213569777 Z  M 333.22399999999993 245.49659213569777 Q 334.54999999999995 245.49659213569777 335.60299999999995 244.87259213569774 Q 336.65599999999995 244.24859213569775 337.241 243.13059213569775 Q 337.82599999999996 242.01259213569776 337.82599999999996 240.60859213569776 Q 337.82599999999996 239.23059213569775 337.22799999999995 238.11259213569775 Q 336.63 236.99459213569776 335.59 236.37059213569776 Q 334.54999999999995 235.74659213569777 333.22399999999993 235.74659213569777 Q 331.89799999999997 235.74659213569777 330.84499999999997 236.37059213569776 Q 329.792 236.99459213569776 329.19399999999996 238.11259213569775 Q 328.59599999999995 239.23059213569775 328.59599999999995 240.60859213569776 Q 328.59599999999995 242.03859213569774 329.19399999999996 243.14359213569776 Q 329.792 244.24859213569775 330.84499999999997 244.87259213569774 Q 331.89799999999997 245.49659213569777 333.22399999999993 245.49659213569777 Z  M 343.8059999999999 228.23259213569776 L 346.22399999999993 228.23259213569776 L 346.22399999999993 247.52459213569776 L 343.8059999999999 247.52459213569776 L 343.8059999999999 228.23259213569776 Z  M 356.59799999999996 233.69259213569777 Q 359.79599999999994 233.69259213569777 361.43399999999997 235.57759213569776 Q 363.07199999999995 237.46259213569775 363.07199999999995 240.81659213569776 Q 363.07199999999995 241.33659213569774 363.04599999999994 241.59659213569776 L 352.17799999999994 241.59659213569776 Q 352.46399999999994 243.44259213569777 353.7249999999999 244.53459213569775 Q 354.98599999999993 245.62659213569776 356.83199999999994 245.62659213569776 Q 358.054 245.62659213569776 359.10699999999997 245.18459213569776 Q 360.15999999999997 244.74259213569775 360.93999999999994 243.93659213569777 L 362.26599999999996 245.31459213569775 Q 361.25199999999995 246.40659213569776 359.82199999999995 247.00459213569775 Q 358.39199999999994 247.60259213569776 356.65 247.60259213569776 Q 354.62199999999996 247.60259213569776 353.049 246.73159213569775 Q 351.47599999999994 245.86059213569774 350.6049999999999 244.27459213569776 Q 349.7339999999999 242.68859213569775 349.7339999999999 240.66059213569775 Q 349.7339999999999 238.63259213569776 350.6049999999999 237.05959213569776 Q 351.47599999999994 235.48659213569775 353.03599999999994 234.58959213569776 Q 354.59599999999995 233.69259213569777 356.59799999999996 233.69259213569777 Z  M 360.8879999999999 239.72459213569775 Q 360.78399999999993 237.85259213569776 359.63999999999993 236.77359213569775 Q 358.496 235.69459213569775 356.6239999999999 235.69459213569775 Q 354.804 235.69459213569775 353.5949999999999 236.78659213569776 Q 352.38599999999997 237.87859213569774 352.15199999999993 239.72459213569775 L 360.8879999999999 239.72459213569775 Z  M 210.166 233.69259213569777 Q 212.584 233.69259213569777 213.962 235.10959213569777 Q 215.33999999999997 236.52659213569774 215.33999999999997 239.02259213569775 L 215.33999999999997 247.52459213569776 L 212.922 247.52459213569776 L 212.922 239.67259213569776 Q 212.922 237.93059213569776 211.947 236.95559213569774 Q 210.97199999999998 235.98059213569775 209.256 235.98059213569775 Q 207.41 236.00659213569776 206.253 237.16359213569774 Q 205.096 238.32059213569775 204.94 240.16659213569775 L 204.94 247.52459213569776 L 202.522 247.52459213569776 L 202.522 233.77059213569777 L 204.94 233.77059213569777 L 204.94 236.68259213569775 Q 206.31799999999998 233.74459213569776 210.166 233.69259213569777 Z  M 225.37599999999998 233.69259213569777 Q 227.43 233.69259213569777 229.029 234.57659213569775 Q 230.628 235.46059213569777 231.52499999999998 237.03359213569775 Q 232.422 238.60659213569775 232.422 240.63459213569774 Q 232.422 242.66259213569776 231.52499999999998 244.24859213569775 Q 230.628 245.83459213569776 229.029 246.71859213569775 Q 227.43 247.60259213569776 225.37599999999998 247.60259213569776 Q 223.296 247.60259213569776 221.697 246.71859213569775 Q 220.098 245.83459213569776 219.201 244.26159213569775 Q 218.30399999999997 242.68859213569775 218.30399999999997 240.63459213569774 Q 218.30399999999997 238.60659213569775 219.201 237.03359213569775 Q 220.098 235.46059213569777 221.697 234.57659213569775 Q 223.296 233.69259213569777 225.37599999999998 233.69259213569777 Z  M 225.37599999999998 235.79859213569776 Q 224.024 235.79859213569776 222.971 236.42259213569776 Q 221.918 237.04659213569775 221.333 238.15159213569774 Q 220.748 239.25659213569776 220.748 240.66059213569775 Q 220.748 242.09059213569776 221.333 243.20859213569776 Q 221.918 244.32659213569775 222.971 244.93759213569774 Q 224.024 245.54859213569776 225.37599999999998 245.54859213569776 Q 226.702 245.54859213569776 227.755 244.93759213569774 Q 228.808 244.32659213569775 229.393 243.20859213569776 Q 229.978 242.09059213569776 229.978 240.66059213569775 Q 229.978 239.25659213569776 229.393 238.15159213569774 Q 228.808 237.04659213569775 227.755 236.42259213569776 Q 226.702 235.79859213569776 225.37599999999998 235.79859213569776 Z  M 243.18599999999998 246.61459213569776 Q 241.6 247.62859213569774 239.962 247.62859213569774 Q 238.324 247.62859213569774 237.31 246.65359213569775 Q 236.296 245.67859213569776 236.296 243.70259213569776 L 236.296 236.08459213569776 L 234.346 236.08459213569776 L 234.346 234.23859213569776 L 236.296 234.23859213569776 L 236.296 230.54659213569775 L 238.74 230.54659213569775 L 238.74 234.23859213569776 L 242.952 234.23859213569776 L 242.952 236.08459213569776 L 238.74 236.08459213569776 L 238.74 243.26059213569775 Q 238.74 244.40459213569775 239.156 244.89859213569775 Q 239.572 245.39259213569775 240.404 245.39259213569775 Q 241.392 245.39259213569775 242.536 244.74259213569775 L 243.18599999999998 246.61459213569776 Z  M 116.59199999999998 229.32459213569774 L 119.088 229.32459213569774 L 119.088 245.26259213569776 L 127.044 245.26259213569776 L 127.044 247.52459213569776 L 116.59199999999998 247.52459213569776 L 116.59199999999998 229.32459213569774 Z  M 130.216 229.32459213569774 L 132.712 229.32459213569774 L 132.712 247.52459213569776 L 130.216 247.52459213569776 L 130.216 229.32459213569774 Z  M 145.322 229.32459213569774 Q 147.974 229.32459213569774 150.119 230.50759213569776 Q 152.264 231.69059213569776 153.486 233.77059213569777 Q 154.708 235.85059213569775 154.708 238.42459213569776 Q 154.708 240.99859213569775 153.473 243.07859213569776 Q 152.238 245.15859213569775 150.07999999999998 246.34159213569777 Q 147.922 247.52459213569776 145.244 247.52459213569776 L 137.912 247.52459213569776 L 137.912 229.32459213569774 L 145.322 229.32459213569774 Z  M 145.374 245.26259213569776 Q 147.272 245.26259213569776 148.819 244.37859213569774 Q 150.36599999999999 243.49459213569776 151.26299999999998 241.93459213569776 Q 152.16 240.37459213569775 152.16 238.45059213569775 Q 152.16 236.50059213569776 151.25 234.94059213569776 Q 150.34 233.38059213569775 148.767 232.48359213569776 Q 147.194 231.58659213569774 145.26999999999998 231.58659213569774 L 140.408 231.58659213569774 L 140.408 245.26259213569776 L 145.374 245.26259213569776 Z  M 171.79 247.52459213569776 L 169.86599999999999 243.10459213569774 L 160.272 243.10459213569774 L 158.374 247.52459213569776 L 155.748 247.52459213569776 L 163.834 229.32459213569774 L 166.434 229.32459213569774 L 174.494 247.52459213569776 L 171.79 247.52459213569776 Z  M 161.26 240.84259213569777 L 168.904 240.84259213569777 L 165.05599999999998 232.00259213569774 L 161.26 240.84259213569777 Z  M 188.898 247.52459213569776 L 185.284 241.80459213569776 Q 184.66 241.85659213569775 184.26999999999998 241.85659213569775 L 179.642 241.85659213569775 L 179.642 247.52459213569776 L 177.146 247.52459213569776 L 177.146 229.32459213569774 L 184.26999999999998 229.32459213569774 Q 187.728 229.32459213569774 189.613 230.92359213569776 Q 191.498 232.52259213569775 191.498 235.46059213569777 Q 191.498 237.67059213569775 190.471 239.17859213569776 Q 189.444 240.68659213569777 187.51999999999998 241.36259213569775 L 191.75799999999998 247.52459213569776 L 188.898 247.52459213569776 Z  M 184.26999999999998 239.59459213569775 Q 186.61 239.59459213569775 187.858 238.56759213569777 Q 189.106 237.54059213569775 189.106 235.53859213569774 Q 189.106 233.58859213569775 187.858 232.58759213569775 Q 186.61 231.58659213569774 184.26999999999998 231.58659213569774 L 179.642 231.58659213569774 L 179.642 239.59459213569775 L 184.26999999999998 239.59459213569775 Z "
          fill-rule="evenodd" fill="rgb(0,0,0)"/>
    <g style="isolation: isolate;">
        <path d=" M 261.334 247.52459213569776 L 261.334 245.60059213569775 Q 259.79999999999995 247.62859213569774 256.524 247.62859213569774 Q 255.094 247.62859213569774 254.015 247.08259213569775 Q 252.936 246.53659213569776 252.351 245.57459213569774 Q 251.766 244.61259213569775 251.766 243.41659213569775 Q 251.766 241.57059213569775 253.131 240.49159213569774 Q 254.49599999999998 239.41259213569776 256.94 239.38659213569775 L 261.308 239.38659213569775 L 261.308 238.73659213569775 Q 261.308 237.28059213569776 260.411 236.48759213569775 Q 259.514 235.69459213569775 257.798 235.69459213569775 Q 255.718 235.69459213569775 253.56 237.17659213569775 L 252.546 235.51259213569776 Q 254.028 234.55059213569774 255.289 234.12159213569777 Q 256.54999999999995 233.69259213569777 258.29200000000003 233.69259213569777 Q 260.866 233.69259213569777 262.27 234.95359213569776 Q 263.674 236.21459213569776 263.7 238.47659213569776 L 263.726 247.52459213569776 L 261.334 247.52459213569776 Z  M 257.01800000000003 245.62659213569776 Q 258.70799999999997 245.62659213569776 259.89099999999996 244.80759213569775 Q 261.07399999999996 243.98859213569776 261.308 242.63659213569775 L 261.308 241.25859213569777 L 257.278 241.25859213569777 Q 255.64 241.25859213569777 254.84699999999998 241.75259213569774 Q 254.054 242.24659213569777 254.054 243.31259213569774 Q 254.054 244.37859213569774 254.85999999999999 245.00259213569774 Q 255.666 245.62659213569776 257.01800000000003 245.62659213569776 Z  M 265.754 233.77059213569777 L 268.328 233.77059213569777 L 272.462 245.13259213569776 L 276.57 233.77059213569777 L 279.014 233.77059213569777 L 273.658 247.52459213569776 L 271.13599999999997 247.52459213569776 L 265.754 233.77059213569777 Z  M 289.7 247.52459213569776 L 289.7 245.60059213569775 Q 288.16599999999994 247.62859213569774 284.89 247.62859213569774 Q 283.46 247.62859213569774 282.381 247.08259213569775 Q 281.302 246.53659213569776 280.717 245.57459213569774 Q 280.13199999999995 244.61259213569775 280.13199999999995 243.41659213569775 Q 280.13199999999995 241.57059213569775 281.49699999999996 240.49159213569774 Q 282.86199999999997 239.41259213569776 285.306 239.38659213569775 L 289.674 239.38659213569775 L 289.674 238.73659213569775 Q 289.674 237.28059213569776 288.777 236.48759213569775 Q 287.88 235.69459213569775 286.164 235.69459213569775 Q 284.08399999999995 235.69459213569775 281.926 237.17659213569775 L 280.912 235.51259213569776 Q 282.394 234.55059213569774 283.655 234.12159213569777 Q 284.91599999999994 233.69259213569777 286.658 233.69259213569777 Q 289.23199999999997 233.69259213569777 290.63599999999997 234.95359213569776 Q 292.03999999999996 236.21459213569776 292.066 238.47659213569776 L 292.092 247.52459213569776 L 289.7 247.52459213569776 Z  M 285.384 245.62659213569776 Q 287.07399999999996 245.62659213569776 288.25699999999995 244.80759213569775 Q 289.43999999999994 243.98859213569776 289.674 242.63659213569775 L 289.674 241.25859213569777 L 285.644 241.25859213569777 Q 284.006 241.25859213569777 283.21299999999997 241.75259213569774 Q 282.41999999999996 242.24659213569777 282.41999999999996 243.31259213569774 Q 282.41999999999996 244.37859213569774 283.226 245.00259213569774 Q 284.032 245.62659213569776 285.384 245.62659213569776 Z  M 296.408 233.77059213569777 L 298.82599999999996 233.77059213569777 L 298.82599999999996 247.52459213569776 L 296.408 247.52459213569776 L 296.408 233.77059213569777 Z  M 297.604 228.28459213569775 Q 298.25399999999996 228.28459213569775 298.683 228.72659213569776 Q 299.11199999999997 229.16859213569776 299.11199999999997 229.84459213569775 Q 299.11199999999997 230.52059213569777 298.683 230.96259213569775 Q 298.25399999999996 231.40459213569775 297.604 231.40459213569775 Q 296.95399999999995 231.40459213569775 296.525 230.96259213569775 Q 296.096 230.52059213569777 296.096 229.84459213569775 Q 296.096 229.16859213569776 296.525 228.72659213569776 Q 296.95399999999995 228.28459213569775 297.604 228.28459213569775 Z  M 303.662 228.23259213569776 L 306.0799999999999 228.23259213569776 L 306.0799999999999 247.52459213569776 L 303.662 247.52459213569776 L 303.662 228.23259213569776 Z  M 319.34 247.52459213569776 L 319.34 245.60059213569775 Q 317.8059999999999 247.62859213569774 314.53 247.62859213569774 Q 313.09999999999997 247.62859213569774 312.02099999999996 247.08259213569775 Q 310.942 246.53659213569776 310.35699999999997 245.57459213569774 Q 309.77199999999993 244.61259213569775 309.77199999999993 243.41659213569775 Q 309.77199999999993 241.57059213569775 311.13699999999994 240.49159213569774 Q 312.50199999999995 239.41259213569776 314.94599999999997 239.38659213569775 L 319.31399999999996 239.38659213569775 L 319.31399999999996 238.73659213569775 Q 319.31399999999996 237.28059213569776 318.417 236.48759213569775 Q 317.52 235.69459213569775 315.804 235.69459213569775 Q 313.72399999999993 235.69459213569775 311.566 237.17659213569775 L 310.55199999999996 235.51259213569776 Q 312.034 234.55059213569774 313.29499999999996 234.12159213569777 Q 314.5559999999999 233.69259213569777 316.298 233.69259213569777 Q 318.87199999999996 233.69259213569777 320.27599999999995 234.95359213569776 Q 321.67999999999995 236.21459213569776 321.70599999999996 238.47659213569776 L 321.73199999999997 247.52459213569776 L 319.34 247.52459213569776 Z  M 315.024 245.62659213569776 Q 316.71399999999994 245.62659213569776 317.89699999999993 244.80759213569775 Q 319.0799999999999 243.98859213569776 319.31399999999996 242.63659213569775 L 319.31399999999996 241.25859213569777 L 315.284 241.25859213569777 Q 313.64599999999996 241.25859213569777 312.85299999999995 241.75259213569774 Q 312.05999999999995 242.24659213569777 312.05999999999995 243.31259213569774 Q 312.05999999999995 244.37859213569774 312.866 245.00259213569774 Q 313.67199999999997 245.62659213569776 315.024 245.62659213569776 Z  M 333.69199999999995 233.69259213569777 Q 335.616 233.69259213569777 337.12399999999997 234.57659213569775 Q 338.63199999999995 235.46059213569777 339.46399999999994 237.04659213569775 Q 340.29599999999994 238.63259213569776 340.29599999999994 240.68659213569777 Q 340.29599999999994 242.71459213569776 339.477 244.28759213569776 Q 338.65799999999996 245.86059213569774 337.16299999999995 246.73159213569775 Q 335.66799999999995 247.60259213569776 333.74399999999997 247.60259213569776 Q 332.00199999999995 247.60259213569776 330.67599999999993 246.87459213569775 Q 329.34999999999997 246.14659213569774 328.59599999999995 244.79459213569777 L 328.59599999999995 247.52459213569776 L 326.178 247.52459213569776 L 326.178 228.23259213569776 L 328.59599999999995 228.23259213569776 L 328.59599999999995 236.50059213569776 Q 329.34999999999997 235.14859213569775 330.66299999999995 234.42059213569775 Q 331.976 233.69259213569777 333.69199999999995 233.69259213569777 Z  M 333.22399999999993 245.49659213569777 Q 334.54999999999995 245.49659213569777 335.60299999999995 244.87259213569774 Q 336.65599999999995 244.24859213569775 337.241 243.13059213569775 Q 337.82599999999996 242.01259213569776 337.82599999999996 240.60859213569776 Q 337.82599999999996 239.23059213569775 337.22799999999995 238.11259213569775 Q 336.63 236.99459213569776 335.59 236.37059213569776 Q 334.54999999999995 235.74659213569777 333.22399999999993 235.74659213569777 Q 331.89799999999997 235.74659213569777 330.84499999999997 236.37059213569776 Q 329.792 236.99459213569776 329.19399999999996 238.11259213569775 Q 328.59599999999995 239.23059213569775 328.59599999999995 240.60859213569776 Q 328.59599999999995 242.03859213569774 329.19399999999996 243.14359213569776 Q 329.792 244.24859213569775 330.84499999999997 244.87259213569774 Q 331.89799999999997 245.49659213569777 333.22399999999993 245.49659213569777 Z  M 343.8059999999999 228.23259213569776 L 346.22399999999993 228.23259213569776 L 346.22399999999993 247.52459213569776 L 343.8059999999999 247.52459213569776 L 343.8059999999999 228.23259213569776 Z  M 356.59799999999996 233.69259213569777 Q 359.79599999999994 233.69259213569777 361.43399999999997 235.57759213569776 Q 363.07199999999995 237.46259213569775 363.07199999999995 240.81659213569776 Q 363.07199999999995 241.33659213569774 363.04599999999994 241.59659213569776 L 352.17799999999994 241.59659213569776 Q 352.46399999999994 243.44259213569777 353.7249999999999 244.53459213569775 Q 354.98599999999993 245.62659213569776 356.83199999999994 245.62659213569776 Q 358.054 245.62659213569776 359.10699999999997 245.18459213569776 Q 360.15999999999997 244.74259213569775 360.93999999999994 243.93659213569777 L 362.26599999999996 245.31459213569775 Q 361.25199999999995 246.40659213569776 359.82199999999995 247.00459213569775 Q 358.39199999999994 247.60259213569776 356.65 247.60259213569776 Q 354.62199999999996 247.60259213569776 353.049 246.73159213569775 Q 351.47599999999994 245.86059213569774 350.6049999999999 244.27459213569776 Q 349.7339999999999 242.68859213569775 349.7339999999999 240.66059213569775 Q 349.7339999999999 238.63259213569776 350.6049999999999 237.05959213569776 Q 351.47599999999994 235.48659213569775 353.03599999999994 234.58959213569776 Q 354.59599999999995 233.69259213569777 356.59799999999996 233.69259213569777 Z  M 360.8879999999999 239.72459213569775 Q 360.78399999999993 237.85259213569776 359.63999999999993 236.77359213569775 Q 358.496 235.69459213569775 356.6239999999999 235.69459213569775 Q 354.804 235.69459213569775 353.5949999999999 236.78659213569776 Q 352.38599999999997 237.87859213569774 352.15199999999993 239.72459213569775 L 360.8879999999999 239.72459213569775 Z  M 210.166 233.69259213569777 Q 212.584 233.69259213569777 213.962 235.10959213569777 Q 215.33999999999997 236.52659213569774 215.33999999999997 239.02259213569775 L 215.33999999999997 247.52459213569776 L 212.922 247.52459213569776 L 212.922 239.67259213569776 Q 212.922 237.93059213569776 211.947 236.95559213569774 Q 210.97199999999998 235.98059213569775 209.256 235.98059213569775 Q 207.41 236.00659213569776 206.253 237.16359213569774 Q 205.096 238.32059213569775 204.94 240.16659213569775 L 204.94 247.52459213569776 L 202.522 247.52459213569776 L 202.522 233.77059213569777 L 204.94 233.77059213569777 L 204.94 236.68259213569775 Q 206.31799999999998 233.74459213569776 210.166 233.69259213569777 Z  M 225.37599999999998 233.69259213569777 Q 227.43 233.69259213569777 229.029 234.57659213569775 Q 230.628 235.46059213569777 231.52499999999998 237.03359213569775 Q 232.422 238.60659213569775 232.422 240.63459213569774 Q 232.422 242.66259213569776 231.52499999999998 244.24859213569775 Q 230.628 245.83459213569776 229.029 246.71859213569775 Q 227.43 247.60259213569776 225.37599999999998 247.60259213569776 Q 223.296 247.60259213569776 221.697 246.71859213569775 Q 220.098 245.83459213569776 219.201 244.26159213569775 Q 218.30399999999997 242.68859213569775 218.30399999999997 240.63459213569774 Q 218.30399999999997 238.60659213569775 219.201 237.03359213569775 Q 220.098 235.46059213569777 221.697 234.57659213569775 Q 223.296 233.69259213569777 225.37599999999998 233.69259213569777 Z  M 225.37599999999998 235.79859213569776 Q 224.024 235.79859213569776 222.971 236.42259213569776 Q 221.918 237.04659213569775 221.333 238.15159213569774 Q 220.748 239.25659213569776 220.748 240.66059213569775 Q 220.748 242.09059213569776 221.333 243.20859213569776 Q 221.918 244.32659213569775 222.971 244.93759213569774 Q 224.024 245.54859213569776 225.37599999999998 245.54859213569776 Q 226.702 245.54859213569776 227.755 244.93759213569774 Q 228.808 244.32659213569775 229.393 243.20859213569776 Q 229.978 242.09059213569776 229.978 240.66059213569775 Q 229.978 239.25659213569776 229.393 238.15159213569774 Q 228.808 237.04659213569775 227.755 236.42259213569776 Q 226.702 235.79859213569776 225.37599999999998 235.79859213569776 Z  M 243.18599999999998 246.61459213569776 Q 241.6 247.62859213569774 239.962 247.62859213569774 Q 238.324 247.62859213569774 237.31 246.65359213569775 Q 236.296 245.67859213569776 236.296 243.70259213569776 L 236.296 236.08459213569776 L 234.346 236.08459213569776 L 234.346 234.23859213569776 L 236.296 234.23859213569776 L 236.296 230.54659213569775 L 238.74 230.54659213569775 L 238.74 234.23859213569776 L 242.952 234.23859213569776 L 242.952 236.08459213569776 L 238.74 236.08459213569776 L 238.74 243.26059213569775 Q 238.74 244.40459213569775 239.156 244.89859213569775 Q 239.572 245.39259213569775 240.404 245.39259213569775 Q 241.392 245.39259213569775 242.536 244.74259213569775 L 243.18599999999998 246.61459213569776 Z  M 116.59199999999998 229.32459213569774 L 119.088 229.32459213569774 L 119.088 245.26259213569776 L 127.044 245.26259213569776 L 127.044 247.52459213569776 L 116.59199999999998 247.52459213569776 L 116.59199999999998 229.32459213569774 Z  M 130.216 229.32459213569774 L 132.712 229.32459213569774 L 132.712 247.52459213569776 L 130.216 247.52459213569776 L 130.216 229.32459213569774 Z  M 145.322 229.32459213569774 Q 147.974 229.32459213569774 150.119 230.50759213569776 Q 152.264 231.69059213569776 153.486 233.77059213569777 Q 154.708 235.85059213569775 154.708 238.42459213569776 Q 154.708 240.99859213569775 153.473 243.07859213569776 Q 152.238 245.15859213569775 150.07999999999998 246.34159213569777 Q 147.922 247.52459213569776 145.244 247.52459213569776 L 137.912 247.52459213569776 L 137.912 229.32459213569774 L 145.322 229.32459213569774 Z  M 145.374 245.26259213569776 Q 147.272 245.26259213569776 148.819 244.37859213569774 Q 150.36599999999999 243.49459213569776 151.26299999999998 241.93459213569776 Q 152.16 240.37459213569775 152.16 238.45059213569775 Q 152.16 236.50059213569776 151.25 234.94059213569776 Q 150.34 233.38059213569775 148.767 232.48359213569776 Q 147.194 231.58659213569774 145.26999999999998 231.58659213569774 L 140.408 231.58659213569774 L 140.408 245.26259213569776 L 145.374 245.26259213569776 Z  M 171.79 247.52459213569776 L 169.86599999999999 243.10459213569774 L 160.272 243.10459213569774 L 158.374 247.52459213569776 L 155.748 247.52459213569776 L 163.834 229.32459213569774 L 166.434 229.32459213569774 L 174.494 247.52459213569776 L 171.79 247.52459213569776 Z  M 161.26 240.84259213569777 L 168.904 240.84259213569777 L 165.05599999999998 232.00259213569774 L 161.26 240.84259213569777 Z  M 188.898 247.52459213569776 L 185.284 241.80459213569776 Q 184.66 241.85659213569775 184.26999999999998 241.85659213569775 L 179.642 241.85659213569775 L 179.642 247.52459213569776 L 177.146 247.52459213569776 L 177.146 229.32459213569774 L 184.26999999999998 229.32459213569774 Q 187.728 229.32459213569774 189.613 230.92359213569776 Q 191.498 232.52259213569775 191.498 235.46059213569777 Q 191.498 237.67059213569775 190.471 239.17859213569776 Q 189.444 240.68659213569777 187.51999999999998 241.36259213569775 L 191.75799999999998 247.52459213569776 L 188.898 247.52459213569776 Z  M 184.26999999999998 239.59459213569775 Q 186.61 239.59459213569775 187.858 238.56759213569777 Q 189.106 237.54059213569775 189.106 235.53859213569774 Q 189.106 233.58859213569775 187.858 232.58759213569775 Q 186.61 231.58659213569774 184.26999999999998 231.58659213569774 L 179.642 231.58659213569774 L 179.642 239.59459213569775 L 184.26999999999998 239.59459213569775 Z "
              fill-rule="evenodd" fill="none" vector-effect="non-scaling-stroke" stroke-width="0.5582112567463376"
              stroke="rgb(0,0,0)" stroke-linejoin="miter" stroke-linecap="square" stroke-miterlimit="3"/>
        <path d=" M 261.334 247.52459213569776 L 261.334 245.60059213569775 Q 259.79999999999995 247.62859213569774 256.524 247.62859213569774 Q 255.094 247.62859213569774 254.015 247.08259213569775 Q 252.936 246.53659213569776 252.351 245.57459213569774 Q 251.766 244.61259213569775 251.766 243.41659213569775 Q 251.766 241.57059213569775 253.131 240.49159213569774 Q 254.49599999999998 239.41259213569776 256.94 239.38659213569775 L 261.308 239.38659213569775 L 261.308 238.73659213569775 Q 261.308 237.28059213569776 260.411 236.48759213569775 Q 259.514 235.69459213569775 257.798 235.69459213569775 Q 255.718 235.69459213569775 253.56 237.17659213569775 L 252.546 235.51259213569776 Q 254.028 234.55059213569774 255.289 234.12159213569777 Q 256.54999999999995 233.69259213569777 258.29200000000003 233.69259213569777 Q 260.866 233.69259213569777 262.27 234.95359213569776 Q 263.674 236.21459213569776 263.7 238.47659213569776 L 263.726 247.52459213569776 L 261.334 247.52459213569776 Z  M 257.01800000000003 245.62659213569776 Q 258.70799999999997 245.62659213569776 259.89099999999996 244.80759213569775 Q 261.07399999999996 243.98859213569776 261.308 242.63659213569775 L 261.308 241.25859213569777 L 257.278 241.25859213569777 Q 255.64 241.25859213569777 254.84699999999998 241.75259213569774 Q 254.054 242.24659213569777 254.054 243.31259213569774 Q 254.054 244.37859213569774 254.85999999999999 245.00259213569774 Q 255.666 245.62659213569776 257.01800000000003 245.62659213569776 Z  M 265.754 233.77059213569777 L 268.328 233.77059213569777 L 272.462 245.13259213569776 L 276.57 233.77059213569777 L 279.014 233.77059213569777 L 273.658 247.52459213569776 L 271.13599999999997 247.52459213569776 L 265.754 233.77059213569777 Z  M 289.7 247.52459213569776 L 289.7 245.60059213569775 Q 288.16599999999994 247.62859213569774 284.89 247.62859213569774 Q 283.46 247.62859213569774 282.381 247.08259213569775 Q 281.302 246.53659213569776 280.717 245.57459213569774 Q 280.13199999999995 244.61259213569775 280.13199999999995 243.41659213569775 Q 280.13199999999995 241.57059213569775 281.49699999999996 240.49159213569774 Q 282.86199999999997 239.41259213569776 285.306 239.38659213569775 L 289.674 239.38659213569775 L 289.674 238.73659213569775 Q 289.674 237.28059213569776 288.777 236.48759213569775 Q 287.88 235.69459213569775 286.164 235.69459213569775 Q 284.08399999999995 235.69459213569775 281.926 237.17659213569775 L 280.912 235.51259213569776 Q 282.394 234.55059213569774 283.655 234.12159213569777 Q 284.91599999999994 233.69259213569777 286.658 233.69259213569777 Q 289.23199999999997 233.69259213569777 290.63599999999997 234.95359213569776 Q 292.03999999999996 236.21459213569776 292.066 238.47659213569776 L 292.092 247.52459213569776 L 289.7 247.52459213569776 Z  M 285.384 245.62659213569776 Q 287.07399999999996 245.62659213569776 288.25699999999995 244.80759213569775 Q 289.43999999999994 243.98859213569776 289.674 242.63659213569775 L 289.674 241.25859213569777 L 285.644 241.25859213569777 Q 284.006 241.25859213569777 283.21299999999997 241.75259213569774 Q 282.41999999999996 242.24659213569777 282.41999999999996 243.31259213569774 Q 282.41999999999996 244.37859213569774 283.226 245.00259213569774 Q 284.032 245.62659213569776 285.384 245.62659213569776 Z  M 296.408 233.77059213569777 L 298.82599999999996 233.77059213569777 L 298.82599999999996 247.52459213569776 L 296.408 247.52459213569776 L 296.408 233.77059213569777 Z  M 297.604 228.28459213569775 Q 298.25399999999996 228.28459213569775 298.683 228.72659213569776 Q 299.11199999999997 229.16859213569776 299.11199999999997 229.84459213569775 Q 299.11199999999997 230.52059213569777 298.683 230.96259213569775 Q 298.25399999999996 231.40459213569775 297.604 231.40459213569775 Q 296.95399999999995 231.40459213569775 296.525 230.96259213569775 Q 296.096 230.52059213569777 296.096 229.84459213569775 Q 296.096 229.16859213569776 296.525 228.72659213569776 Q 296.95399999999995 228.28459213569775 297.604 228.28459213569775 Z  M 303.662 228.23259213569776 L 306.0799999999999 228.23259213569776 L 306.0799999999999 247.52459213569776 L 303.662 247.52459213569776 L 303.662 228.23259213569776 Z  M 319.34 247.52459213569776 L 319.34 245.60059213569775 Q 317.8059999999999 247.62859213569774 314.53 247.62859213569774 Q 313.09999999999997 247.62859213569774 312.02099999999996 247.08259213569775 Q 310.942 246.53659213569776 310.35699999999997 245.57459213569774 Q 309.77199999999993 244.61259213569775 309.77199999999993 243.41659213569775 Q 309.77199999999993 241.57059213569775 311.13699999999994 240.49159213569774 Q 312.50199999999995 239.41259213569776 314.94599999999997 239.38659213569775 L 319.31399999999996 239.38659213569775 L 319.31399999999996 238.73659213569775 Q 319.31399999999996 237.28059213569776 318.417 236.48759213569775 Q 317.52 235.69459213569775 315.804 235.69459213569775 Q 313.72399999999993 235.69459213569775 311.566 237.17659213569775 L 310.55199999999996 235.51259213569776 Q 312.034 234.55059213569774 313.29499999999996 234.12159213569777 Q 314.5559999999999 233.69259213569777 316.298 233.69259213569777 Q 318.87199999999996 233.69259213569777 320.27599999999995 234.95359213569776 Q 321.67999999999995 236.21459213569776 321.70599999999996 238.47659213569776 L 321.73199999999997 247.52459213569776 L 319.34 247.52459213569776 Z  M 315.024 245.62659213569776 Q 316.71399999999994 245.62659213569776 317.89699999999993 244.80759213569775 Q 319.0799999999999 243.98859213569776 319.31399999999996 242.63659213569775 L 319.31399999999996 241.25859213569777 L 315.284 241.25859213569777 Q 313.64599999999996 241.25859213569777 312.85299999999995 241.75259213569774 Q 312.05999999999995 242.24659213569777 312.05999999999995 243.31259213569774 Q 312.05999999999995 244.37859213569774 312.866 245.00259213569774 Q 313.67199999999997 245.62659213569776 315.024 245.62659213569776 Z  M 333.69199999999995 233.69259213569777 Q 335.616 233.69259213569777 337.12399999999997 234.57659213569775 Q 338.63199999999995 235.46059213569777 339.46399999999994 237.04659213569775 Q 340.29599999999994 238.63259213569776 340.29599999999994 240.68659213569777 Q 340.29599999999994 242.71459213569776 339.477 244.28759213569776 Q 338.65799999999996 245.86059213569774 337.16299999999995 246.73159213569775 Q 335.66799999999995 247.60259213569776 333.74399999999997 247.60259213569776 Q 332.00199999999995 247.60259213569776 330.67599999999993 246.87459213569775 Q 329.34999999999997 246.14659213569774 328.59599999999995 244.79459213569777 L 328.59599999999995 247.52459213569776 L 326.178 247.52459213569776 L 326.178 228.23259213569776 L 328.59599999999995 228.23259213569776 L 328.59599999999995 236.50059213569776 Q 329.34999999999997 235.14859213569775 330.66299999999995 234.42059213569775 Q 331.976 233.69259213569777 333.69199999999995 233.69259213569777 Z  M 333.22399999999993 245.49659213569777 Q 334.54999999999995 245.49659213569777 335.60299999999995 244.87259213569774 Q 336.65599999999995 244.24859213569775 337.241 243.13059213569775 Q 337.82599999999996 242.01259213569776 337.82599999999996 240.60859213569776 Q 337.82599999999996 239.23059213569775 337.22799999999995 238.11259213569775 Q 336.63 236.99459213569776 335.59 236.37059213569776 Q 334.54999999999995 235.74659213569777 333.22399999999993 235.74659213569777 Q 331.89799999999997 235.74659213569777 330.84499999999997 236.37059213569776 Q 329.792 236.99459213569776 329.19399999999996 238.11259213569775 Q 328.59599999999995 239.23059213569775 328.59599999999995 240.60859213569776 Q 328.59599999999995 242.03859213569774 329.19399999999996 243.14359213569776 Q 329.792 244.24859213569775 330.84499999999997 244.87259213569774 Q 331.89799999999997 245.49659213569777 333.22399999999993 245.49659213569777 Z  M 343.8059999999999 228.23259213569776 L 346.22399999999993 228.23259213569776 L 346.22399999999993 247.52459213569776 L 343.8059999999999 247.52459213569776 L 343.8059999999999 228.23259213569776 Z  M 356.59799999999996 233.69259213569777 Q 359.79599999999994 233.69259213569777 361.43399999999997 235.57759213569776 Q 363.07199999999995 237.46259213569775 363.07199999999995 240.81659213569776 Q 363.07199999999995 241.33659213569774 363.04599999999994 241.59659213569776 L 352.17799999999994 241.59659213569776 Q 352.46399999999994 243.44259213569777 353.7249999999999 244.53459213569775 Q 354.98599999999993 245.62659213569776 356.83199999999994 245.62659213569776 Q 358.054 245.62659213569776 359.10699999999997 245.18459213569776 Q 360.15999999999997 244.74259213569775 360.93999999999994 243.93659213569777 L 362.26599999999996 245.31459213569775 Q 361.25199999999995 246.40659213569776 359.82199999999995 247.00459213569775 Q 358.39199999999994 247.60259213569776 356.65 247.60259213569776 Q 354.62199999999996 247.60259213569776 353.049 246.73159213569775 Q 351.47599999999994 245.86059213569774 350.6049999999999 244.27459213569776 Q 349.7339999999999 242.68859213569775 349.7339999999999 240.66059213569775 Q 349.7339999999999 238.63259213569776 350.6049999999999 237.05959213569776 Q 351.47599999999994 235.48659213569775 353.03599999999994 234.58959213569776 Q 354.59599999999995 233.69259213569777 356.59799999999996 233.69259213569777 Z  M 360.8879999999999 239.72459213569775 Q 360.78399999999993 237.85259213569776 359.63999999999993 236.77359213569775 Q 358.496 235.69459213569775 356.6239999999999 235.69459213569775 Q 354.804 235.69459213569775 353.5949999999999 236.78659213569776 Q 352.38599999999997 237.87859213569774 352.15199999999993 239.72459213569775 L 360.8879999999999 239.72459213569775 Z  M 210.166 233.69259213569777 Q 212.584 233.69259213569777 213.962 235.10959213569777 Q 215.33999999999997 236.52659213569774 215.33999999999997 239.02259213569775 L 215.33999999999997 247.52459213569776 L 212.922 247.52459213569776 L 212.922 239.67259213569776 Q 212.922 237.93059213569776 211.947 236.95559213569774 Q 210.97199999999998 235.98059213569775 209.256 235.98059213569775 Q 207.41 236.00659213569776 206.253 237.16359213569774 Q 205.096 238.32059213569775 204.94 240.16659213569775 L 204.94 247.52459213569776 L 202.522 247.52459213569776 L 202.522 233.77059213569777 L 204.94 233.77059213569777 L 204.94 236.68259213569775 Q 206.31799999999998 233.74459213569776 210.166 233.69259213569777 Z  M 225.37599999999998 233.69259213569777 Q 227.43 233.69259213569777 229.029 234.57659213569775 Q 230.628 235.46059213569777 231.52499999999998 237.03359213569775 Q 232.422 238.60659213569775 232.422 240.63459213569774 Q 232.422 242.66259213569776 231.52499999999998 244.24859213569775 Q 230.628 245.83459213569776 229.029 246.71859213569775 Q 227.43 247.60259213569776 225.37599999999998 247.60259213569776 Q 223.296 247.60259213569776 221.697 246.71859213569775 Q 220.098 245.83459213569776 219.201 244.26159213569775 Q 218.30399999999997 242.68859213569775 218.30399999999997 240.63459213569774 Q 218.30399999999997 238.60659213569775 219.201 237.03359213569775 Q 220.098 235.46059213569777 221.697 234.57659213569775 Q 223.296 233.69259213569777 225.37599999999998 233.69259213569777 Z  M 225.37599999999998 235.79859213569776 Q 224.024 235.79859213569776 222.971 236.42259213569776 Q 221.918 237.04659213569775 221.333 238.15159213569774 Q 220.748 239.25659213569776 220.748 240.66059213569775 Q 220.748 242.09059213569776 221.333 243.20859213569776 Q 221.918 244.32659213569775 222.971 244.93759213569774 Q 224.024 245.54859213569776 225.37599999999998 245.54859213569776 Q 226.702 245.54859213569776 227.755 244.93759213569774 Q 228.808 244.32659213569775 229.393 243.20859213569776 Q 229.978 242.09059213569776 229.978 240.66059213569775 Q 229.978 239.25659213569776 229.393 238.15159213569774 Q 228.808 237.04659213569775 227.755 236.42259213569776 Q 226.702 235.79859213569776 225.37599999999998 235.79859213569776 Z  M 243.18599999999998 246.61459213569776 Q 241.6 247.62859213569774 239.962 247.62859213569774 Q 238.324 247.62859213569774 237.31 246.65359213569775 Q 236.296 245.67859213569776 236.296 243.70259213569776 L 236.296 236.08459213569776 L 234.346 236.08459213569776 L 234.346 234.23859213569776 L 236.296 234.23859213569776 L 236.296 230.54659213569775 L 238.74 230.54659213569775 L 238.74 234.23859213569776 L 242.952 234.23859213569776 L 242.952 236.08459213569776 L 238.74 236.08459213569776 L 238.74 243.26059213569775 Q 238.74 244.40459213569775 239.156 244.89859213569775 Q 239.572 245.39259213569775 240.404 245.39259213569775 Q 241.392 245.39259213569775 242.536 244.74259213569775 L 243.18599999999998 246.61459213569776 Z  M 116.59199999999998 229.32459213569774 L 119.088 229.32459213569774 L 119.088 245.26259213569776 L 127.044 245.26259213569776 L 127.044 247.52459213569776 L 116.59199999999998 247.52459213569776 L 116.59199999999998 229.32459213569774 Z  M 130.216 229.32459213569774 L 132.712 229.32459213569774 L 132.712 247.52459213569776 L 130.216 247.52459213569776 L 130.216 229.32459213569774 Z  M 145.322 229.32459213569774 Q 147.974 229.32459213569774 150.119 230.50759213569776 Q 152.264 231.69059213569776 153.486 233.77059213569777 Q 154.708 235.85059213569775 154.708 238.42459213569776 Q 154.708 240.99859213569775 153.473 243.07859213569776 Q 152.238 245.15859213569775 150.07999999999998 246.34159213569777 Q 147.922 247.52459213569776 145.244 247.52459213569776 L 137.912 247.52459213569776 L 137.912 229.32459213569774 L 145.322 229.32459213569774 Z  M 145.374 245.26259213569776 Q 147.272 245.26259213569776 148.819 244.37859213569774 Q 150.36599999999999 243.49459213569776 151.26299999999998 241.93459213569776 Q 152.16 240.37459213569775 152.16 238.45059213569775 Q 152.16 236.50059213569776 151.25 234.94059213569776 Q 150.34 233.38059213569775 148.767 232.48359213569776 Q 147.194 231.58659213569774 145.26999999999998 231.58659213569774 L 140.408 231.58659213569774 L 140.408 245.26259213569776 L 145.374 245.26259213569776 Z  M 171.79 247.52459213569776 L 169.86599999999999 243.10459213569774 L 160.272 243.10459213569774 L 158.374 247.52459213569776 L 155.748 247.52459213569776 L 163.834 229.32459213569774 L 166.434 229.32459213569774 L 174.494 247.52459213569776 L 171.79 247.52459213569776 Z  M 161.26 240.84259213569777 L 168.904 240.84259213569777 L 165.05599999999998 232.00259213569774 L 161.26 240.84259213569777 Z  M 188.898 247.52459213569776 L 185.284 241.80459213569776 Q 184.66 241.85659213569775 184.26999999999998 241.85659213569775 L 179.642 241.85659213569775 L 179.642 247.52459213569776 L 177.146 247.52459213569776 L 177.146 229.32459213569774 L 184.26999999999998 229.32459213569774 Q 187.728 229.32459213569774 189.613 230.92359213569776 Q 191.498 232.52259213569775 191.498 235.46059213569777 Q 191.498 237.67059213569775 190.471 239.17859213569776 Q 189.444 240.68659213569777 187.51999999999998 241.36259213569775 L 191.75799999999998 247.52459213569776 L 188.898 247.52459213569776 Z  M 184.26999999999998 239.59459213569775 Q 186.61 239.59459213569775 187.858 238.56759213569777 Q 189.106 237.54059213569775 189.106 235.53859213569774 Q 189.106 233.58859213569775 187.858 232.58759213569775 Q 186.61 231.58659213569774 184.26999999999998 231.58659213569774 L 179.642 231.58659213569774 L 179.642 239.59459213569775 L 184.26999999999998 239.59459213569775 Z "
              fill-rule="evenodd" fill="none" vector-effect="non-scaling-stroke" stroke-width="0.5582112567463376"
              stroke="rgb(0,0,0)" stroke-linejoin="miter" stroke-linecap="square" stroke-miterlimit="3"/>
    </g>
    <path d=" M 165.47879722436392 71.5 L 314.5212027756361 71.5 L 314.5212027756361 220.54240555127217 L 165.47879722436392 220.54240555127217 L 165.47879722436392 71.5 Z "
          fill="none"/>
    <path d=" M 240 139.81110254433307 C 233.16888737660145 139.81110254433307 227.57979953739397 145.40019038354055 227.57979953739397 152.23130300693907 C 227.57979953739397 159.06241563033763 233.16888737660145 164.6515034695451 240 164.6515034695451 C 246.83111262339855 164.6515034695451 252.420200462606 159.06241563033763 252.420200462606 152.23130300693907 C 252.420200462606 145.40019038354055 246.83111262339855 139.81110254433307 240 139.81110254433307 Z  M 277.26060138781804 152.23130300693907 C 277.26060138781804 131.67586863546438 260.5554343714747 114.97070161912104 240 114.97070161912104 C 219.44456562852528 114.97070161912104 202.73939861218196 131.67586863546438 202.73939861218196 152.23130300693907 C 202.73939861218196 166.01772717870745 210.2536201289551 178.00321659788133 221.36969930609098 184.46172652395302 L 227.57979953739397 173.65615354286493 C 220.18978286800518 169.30907864302236 215.15959907478796 161.42224850650925 215.15959907478796 152.23130300693907 C 215.15959907478796 138.50698125886294 226.27567825192384 127.39090208172706 240 127.39090208172706 C 253.72432174807616 127.39090208172706 264.840400925212 138.50698125886294 264.840400925212 152.23130300693907 C 264.840400925212 161.42224850650925 259.8102171319948 169.30907864302236 252.420200462606 173.65615354286493 L 258.630300693909 184.46172652395302 C 269.746385793458 178.00321659788133 277.26060138781804 166.01772717870745 277.26060138781804 152.23130300693907 Z  M 240 90.13030069390902 C 205.72024684165567 90.13030069390902 177.89899768696992 117.95154984859475 177.89899768696992 152.23130300693907 C 177.89899768696992 175.2086786006907 190.3813005732681 195.20519708134896 208.8873964197928 205.94866763874487 L 215.0974966510958 195.20519708134896 C 200.3174603511116 186.57316155018214 190.31919814957595 170.61319992849252 190.31919814957595 152.23130300693907 C 190.31919814957595 124.78265951078674 212.55135650384767 102.55050115651503 240 102.55050115651503 C 267.44864349615233 102.55050115651503 289.680801850424 124.78265951078674 289.680801850424 152.23130300693907 C 289.680801850424 170.61319992849252 279.6825366876818 186.57316155018214 264.840400925212 195.20519708134896 L 271.050501156515 205.94866763874487 C 289.6186994267319 195.20519708134896 302.10100231303005 175.2086786006907 302.10100231303005 152.23130300693907 C 302.10100231303005 117.95154984859475 274.2797561195509 90.13030069390902 240 90.13030069390902 Z "
          fill-rule="evenodd" fill="rgb(0,0,0)"/>
    <line x1="179.70705583817977" y1="99.55649109592599" x2="307.55650886059175" y2="195.794812698776"
          vector-effect="non-scaling-stroke" stroke-width="22.328450269853505" stroke="rgb(255,255,255)"
          stroke-linejoin="miter" stroke-linecap="square" stroke-miterlimit="3"/>
    <line x1="176.3639167309175" y1="104.30188897455668" x2="304.2133697533295" y2="200.5402105774067"
          vector-effect="non-scaling-stroke" stroke-width="11.164225134926753" stroke="rgb(0,0,0)"
          stroke-linejoin="miter" stroke-linecap="square" stroke-miterlimit="3"/>
</svg>