<?xml version="1.0" standalone="no"?><!-- Generator: Gravit.io -->
<svg xmlns="http://www.w3.org/2000/svg" style="isolation:isolate" viewBox="0 0 480 350" width="480" height="350">
    <path d=" M 292.3371934967769 90.67198083915798 L 291.3520237351931 90.85670016945495 L 258.47195064592125 103.60234570409537 L 221.52804935407872 90.67198083915798 L 186.8007814938185 102.37088350211562 C 185.50774618173975 102.80189380478978 184.58414806223618 103.91021272260906 184.58414806223618 105.32639572290452 L 184.58414806223618 198.42502627369868 C 184.58414806223618 200.1490792285453 185.93875795243267 201.50368471468556 187.66280650322307 201.50368471468556 L 188.6479777328256 201.31896098033238 L 221.52804935407872 188.5733169137107 L 258.47195064592125 201.50368471468556 L 293.1992141021252 189.8047849877654 C 294.4922567542977 189.37377468509123 295.41585193776376 188.265455767272 295.41585193776376 186.849275703014 L 295.41585193776376 93.75063928014487 C 295.41585193776376 92.02659072935447 294.0612464516235 90.67198083915798 292.3371934967769 90.67198083915798 Z  M 258.47195064592125 189.18905095073808 L 221.52804935407872 176.19710857164546 L 221.52804935407872 102.9866146031055 L 258.47195064592125 115.97855404616061 L 258.47195064592125 189.18905095073808 Z "
          fill-rule="evenodd" fill="rgb(0,0,0)"/>
    <path d=" M 166.11219741631493 72.20003019323673 L 313.887802583685 72.20003019323673 L 313.887802583685 219.97563536060682 L 166.11219741631493 219.97563536060682 L 166.11219741631493 72.20003019323673 Z "
          fill="none"/>
    <path d=" M 249.79999999999995 246.11276876167722 L 249.79999999999995 244.26276876167722 Q 248.325 246.21276876167724 245.17499999999995 246.21276876167724 Q 243.79999999999995 246.21276876167724 242.7625 245.68776876167723 Q 241.72499999999997 245.16276876167723 241.16249999999997 244.23776876167722 Q 240.59999999999997 243.31276876167723 240.59999999999997 242.16276876167723 Q 240.59999999999997 240.38776876167722 241.91249999999997 239.35026876167723 Q 243.22499999999997 238.31276876167723 245.575 238.28776876167723 L 249.77499999999998 238.28776876167723 L 249.77499999999998 237.66276876167723 Q 249.77499999999998 236.26276876167722 248.91249999999997 235.50026876167723 Q 248.04999999999995 234.73776876167722 246.39999999999998 234.73776876167722 Q 244.39999999999998 234.73776876167722 242.325 236.16276876167723 L 241.34999999999997 234.56276876167723 Q 242.77499999999998 233.63776876167722 243.98749999999995 233.22526876167723 Q 245.2 232.81276876167723 246.87499999999997 232.81276876167723 Q 249.34999999999997 232.81276876167723 250.7 234.02526876167724 Q 252.04999999999995 235.23776876167722 252.075 237.41276876167723 L 252.09999999999997 246.11276876167722 L 249.79999999999995 246.11276876167722 Z  M 245.64999999999998 244.28776876167723 Q 247.27499999999998 244.28776876167723 248.41249999999997 243.50026876167723 Q 249.54999999999995 242.71276876167724 249.77499999999998 241.41276876167723 L 249.77499999999998 240.08776876167724 L 245.89999999999998 240.08776876167724 Q 244.325 240.08776876167724 243.56249999999997 240.56276876167723 Q 242.79999999999995 241.03776876167723 242.79999999999995 242.06276876167723 Q 242.79999999999995 243.08776876167724 243.575 243.68776876167723 Q 244.34999999999997 244.28776876167723 245.64999999999998 244.28776876167723 Z  M 254.04999999999995 232.88776876167722 L 256.525 232.88776876167722 L 260.5 243.81276876167723 L 264.45 232.88776876167722 L 266.79999999999995 232.88776876167722 L 261.65 246.11276876167722 L 259.22499999999997 246.11276876167722 L 254.04999999999995 232.88776876167722 Z  M 277.075 246.11276876167722 L 277.075 244.26276876167722 Q 275.59999999999997 246.21276876167724 272.45 246.21276876167724 Q 271.075 246.21276876167724 270.03749999999997 245.68776876167723 Q 269 245.16276876167723 268.4375 244.23776876167722 Q 267.875 243.31276876167723 267.875 242.16276876167723 Q 267.875 240.38776876167722 269.1875 239.35026876167723 Q 270.5 238.31276876167723 272.84999999999997 238.28776876167723 L 277.04999999999995 238.28776876167723 L 277.04999999999995 237.66276876167723 Q 277.04999999999995 236.26276876167722 276.1875 235.50026876167723 Q 275.325 234.73776876167722 273.67499999999995 234.73776876167722 Q 271.67499999999995 234.73776876167722 269.59999999999997 236.16276876167723 L 268.625 234.56276876167723 Q 270.04999999999995 233.63776876167722 271.2625 233.22526876167723 Q 272.47499999999997 232.81276876167723 274.15 232.81276876167723 Q 276.625 232.81276876167723 277.97499999999997 234.02526876167724 Q 279.325 235.23776876167722 279.34999999999997 237.41276876167723 L 279.375 246.11276876167722 L 277.075 246.11276876167722 Z  M 272.92499999999995 244.28776876167723 Q 274.54999999999995 244.28776876167723 275.6875 243.50026876167723 Q 276.825 242.71276876167724 277.04999999999995 241.41276876167723 L 277.04999999999995 240.08776876167724 L 273.17499999999995 240.08776876167724 Q 271.59999999999997 240.08776876167724 270.8375 240.56276876167723 Q 270.075 241.03776876167723 270.075 242.06276876167723 Q 270.075 243.08776876167724 270.84999999999997 243.68776876167723 Q 271.625 244.28776876167723 272.92499999999995 244.28776876167723 Z  M 283.525 232.88776876167722 L 285.84999999999997 232.88776876167722 L 285.84999999999997 246.11276876167722 L 283.525 246.11276876167722 L 283.525 232.88776876167722 Z  M 284.675 227.61276876167722 Q 285.3 227.61276876167722 285.7125 228.03776876167723 Q 286.125 228.46276876167724 286.125 229.11276876167722 Q 286.125 229.76276876167722 285.7125 230.18776876167723 Q 285.3 230.61276876167722 284.675 230.61276876167722 Q 284.05 230.61276876167722 283.6375 230.18776876167723 Q 283.22499999999997 229.76276876167722 283.22499999999997 229.11276876167722 Q 283.22499999999997 228.46276876167724 283.6375 228.03776876167723 Q 284.05 227.61276876167722 284.675 227.61276876167722 Z  M 290.5 227.56276876167723 L 292.825 227.56276876167723 L 292.825 246.11276876167722 L 290.5 246.11276876167722 L 290.5 227.56276876167723 Z  M 305.575 246.11276876167722 L 305.575 244.26276876167722 Q 304.09999999999997 246.21276876167724 300.95 246.21276876167724 Q 299.575 246.21276876167724 298.53749999999997 245.68776876167723 Q 297.5 245.16276876167723 296.9375 244.23776876167722 Q 296.375 243.31276876167723 296.375 242.16276876167723 Q 296.375 240.38776876167722 297.6875 239.35026876167723 Q 299 238.31276876167723 301.34999999999997 238.28776876167723 L 305.54999999999995 238.28776876167723 L 305.54999999999995 237.66276876167723 Q 305.54999999999995 236.26276876167722 304.6875 235.50026876167723 Q 303.825 234.73776876167722 302.17499999999995 234.73776876167722 Q 300.17499999999995 234.73776876167722 298.09999999999997 236.16276876167723 L 297.125 234.56276876167723 Q 298.54999999999995 233.63776876167722 299.7625 233.22526876167723 Q 300.97499999999997 232.81276876167723 302.65 232.81276876167723 Q 305.125 232.81276876167723 306.47499999999997 234.02526876167724 Q 307.825 235.23776876167722 307.84999999999997 237.41276876167723 L 307.875 246.11276876167722 L 305.575 246.11276876167722 Z  M 301.42499999999995 244.28776876167723 Q 303.04999999999995 244.28776876167723 304.1875 243.50026876167723 Q 305.325 242.71276876167724 305.54999999999995 241.41276876167723 L 305.54999999999995 240.08776876167724 L 301.67499999999995 240.08776876167724 Q 300.09999999999997 240.08776876167724 299.3375 240.56276876167723 Q 298.575 241.03776876167723 298.575 242.06276876167723 Q 298.575 243.08776876167724 299.34999999999997 243.68776876167723 Q 300.125 244.28776876167723 301.42499999999995 244.28776876167723 Z  M 319.375 232.81276876167723 Q 321.22499999999997 232.81276876167723 322.675 233.66276876167723 Q 324.125 234.51276876167722 324.925 236.03776876167723 Q 325.72499999999997 237.56276876167723 325.72499999999997 239.53776876167723 Q 325.72499999999997 241.48776876167722 324.9375 243.00026876167723 Q 324.15 244.51276876167722 322.7125 245.35026876167723 Q 321.275 246.18776876167723 319.425 246.18776876167723 Q 317.75 246.18776876167723 316.47499999999997 245.48776876167722 Q 315.2 244.78776876167723 314.47499999999997 243.48776876167722 L 314.47499999999997 246.11276876167722 L 312.15 246.11276876167722 L 312.15 227.56276876167723 L 314.47499999999997 227.56276876167723 L 314.47499999999997 235.51276876167722 Q 315.2 234.21276876167724 316.4625 233.51276876167722 Q 317.72499999999997 232.81276876167723 319.375 232.81276876167723 Z  M 318.925 244.16276876167723 Q 320.2 244.16276876167723 321.2125 243.56276876167723 Q 322.22499999999997 242.96276876167724 322.78749999999997 241.88776876167722 Q 323.34999999999997 240.81276876167723 323.34999999999997 239.46276876167724 Q 323.34999999999997 238.13776876167722 322.775 237.06276876167723 Q 322.2 235.98776876167722 321.2 235.38776876167722 Q 320.2 234.78776876167723 318.925 234.78776876167723 Q 317.65 234.78776876167723 316.6375 235.38776876167722 Q 315.625 235.98776876167722 315.05 237.06276876167723 Q 314.47499999999997 238.13776876167722 314.47499999999997 239.46276876167724 Q 314.47499999999997 240.83776876167724 315.05 241.90026876167724 Q 315.625 242.96276876167724 316.6375 243.56276876167723 Q 317.65 244.16276876167723 318.925 244.16276876167723 Z  M 329.09999999999997 227.56276876167723 L 331.42499999999995 227.56276876167723 L 331.42499999999995 246.11276876167722 L 329.09999999999997 246.11276876167722 L 329.09999999999997 227.56276876167723 Z  M 341.4 232.81276876167723 Q 344.47499999999997 232.81276876167723 346.04999999999995 234.62526876167723 Q 347.625 236.43776876167723 347.625 239.66276876167723 Q 347.625 240.16276876167723 347.59999999999997 240.41276876167723 L 337.15 240.41276876167723 Q 337.42499999999995 242.18776876167723 338.6375 243.23776876167722 Q 339.84999999999997 244.28776876167723 341.625 244.28776876167723 Q 342.79999999999995 244.28776876167723 343.8125 243.86276876167722 Q 344.825 243.43776876167723 345.575 242.66276876167723 L 346.84999999999997 243.98776876167722 Q 345.875 245.03776876167723 344.5 245.61276876167722 Q 343.125 246.18776876167723 341.45 246.18776876167723 Q 339.5 246.18776876167723 337.98749999999995 245.35026876167723 Q 336.47499999999997 244.51276876167722 335.6375 242.98776876167722 Q 334.79999999999995 241.46276876167724 334.79999999999995 239.51276876167722 Q 334.79999999999995 237.56276876167723 335.6375 236.05026876167722 Q 336.47499999999997 234.53776876167723 337.97499999999997 233.67526876167722 Q 339.47499999999997 232.81276876167723 341.4 232.81276876167723 Z  M 345.525 238.61276876167722 Q 345.42499999999995 236.81276876167723 344.325 235.77526876167724 Q 343.22499999999997 234.73776876167722 341.42499999999995 234.73776876167722 Q 339.67499999999995 234.73776876167722 338.5125 235.78776876167723 Q 337.34999999999997 236.83776876167724 337.125 238.61276876167722 L 345.525 238.61276876167722 Z  M 200.59999999999997 232.81276876167723 Q 202.92499999999998 232.81276876167723 204.25 234.17526876167722 Q 205.575 235.53776876167723 205.575 237.93776876167723 L 205.575 246.11276876167722 L 203.25 246.11276876167722 L 203.25 238.56276876167723 Q 203.25 236.88776876167722 202.3125 235.95026876167722 Q 201.375 235.01276876167722 199.72499999999997 235.01276876167722 Q 197.95 235.03776876167723 196.83749999999998 236.15026876167724 Q 195.72499999999997 237.26276876167722 195.575 239.03776876167723 L 195.575 246.11276876167722 L 193.25 246.11276876167722 L 193.25 232.88776876167722 L 195.575 232.88776876167722 L 195.575 235.68776876167723 Q 196.89999999999998 232.86276876167722 200.59999999999997 232.81276876167723 Z  M 215.22499999999997 232.81276876167723 Q 217.2 232.81276876167723 218.73749999999995 233.66276876167723 Q 220.27499999999998 234.51276876167722 221.1375 236.02526876167724 Q 221.99999999999997 237.53776876167723 221.99999999999997 239.48776876167722 Q 221.99999999999997 241.43776876167723 221.1375 242.96276876167724 Q 220.27499999999998 244.48776876167722 218.73749999999995 245.33776876167724 Q 217.2 246.18776876167723 215.22499999999997 246.18776876167723 Q 213.22499999999997 246.18776876167723 211.68749999999997 245.33776876167724 Q 210.14999999999998 244.48776876167722 209.28749999999997 242.97526876167723 Q 208.42499999999995 241.46276876167724 208.42499999999995 239.48776876167722 Q 208.42499999999995 237.53776876167723 209.28749999999997 236.02526876167724 Q 210.14999999999998 234.51276876167722 211.68749999999997 233.66276876167723 Q 213.22499999999997 232.81276876167723 215.22499999999997 232.81276876167723 Z  M 215.22499999999997 234.83776876167724 Q 213.92499999999995 234.83776876167724 212.91249999999997 235.43776876167723 Q 211.89999999999998 236.03776876167723 211.33749999999998 237.10026876167723 Q 210.77499999999998 238.16276876167723 210.77499999999998 239.51276876167722 Q 210.77499999999998 240.88776876167722 211.33749999999998 241.96276876167724 Q 211.89999999999998 243.03776876167723 212.91249999999997 243.62526876167723 Q 213.92499999999995 244.21276876167724 215.22499999999997 244.21276876167724 Q 216.49999999999997 244.21276876167724 217.5125 243.62526876167723 Q 218.52499999999998 243.03776876167723 219.08749999999998 241.96276876167724 Q 219.64999999999998 240.88776876167722 219.64999999999998 239.51276876167722 Q 219.64999999999998 238.16276876167723 219.08749999999998 237.10026876167723 Q 218.52499999999998 236.03776876167723 217.5125 235.43776876167723 Q 216.49999999999997 234.83776876167724 215.22499999999997 234.83776876167724 Z  M 232.34999999999997 245.23776876167722 Q 230.825 246.21276876167724 229.25 246.21276876167724 Q 227.67499999999998 246.21276876167724 226.7 245.27526876167724 Q 225.72499999999997 244.33776876167724 225.72499999999997 242.43776876167723 L 225.72499999999997 235.11276876167722 L 223.84999999999997 235.11276876167722 L 223.84999999999997 233.33776876167724 L 225.72499999999997 233.33776876167724 L 225.72499999999997 229.78776876167723 L 228.075 229.78776876167723 L 228.075 233.33776876167724 L 232.125 233.33776876167724 L 232.125 235.11276876167722 L 228.075 235.11276876167722 L 228.075 242.01276876167722 Q 228.075 243.11276876167722 228.47499999999997 243.58776876167724 Q 228.875 244.06276876167723 229.67499999999998 244.06276876167723 Q 230.625 244.06276876167723 231.72499999999997 243.43776876167723 L 232.34999999999997 245.23776876167722 Z  M 131.97499999999997 228.61276876167722 L 134.825 228.61276876167722 L 141.22499999999997 240.91276876167723 L 147.575 228.61276876167722 L 150.45 228.61276876167722 L 150.45 246.11276876167722 L 148.2 246.11276876167722 L 148.17499999999998 232.13776876167722 L 141.95 244.26276876167722 L 140.47499999999997 244.26276876167722 L 134.2 232.13776876167722 L 134.2 246.11276876167722 L 131.97499999999997 246.11276876167722 L 131.97499999999997 228.61276876167722 Z  M 163.29999999999998 246.11276876167722 L 163.29999999999998 244.26276876167722 Q 161.825 246.21276876167724 158.67499999999998 246.21276876167724 Q 157.29999999999998 246.21276876167724 156.2625 245.68776876167723 Q 155.22499999999997 245.16276876167723 154.66249999999997 244.23776876167722 Q 154.09999999999997 243.31276876167723 154.09999999999997 242.16276876167723 Q 154.09999999999997 240.38776876167722 155.41249999999997 239.35026876167723 Q 156.72499999999997 238.31276876167723 159.075 238.28776876167723 L 163.27499999999998 238.28776876167723 L 163.27499999999998 237.66276876167723 Q 163.27499999999998 236.26276876167722 162.41249999999997 235.50026876167723 Q 161.54999999999998 234.73776876167722 159.89999999999998 234.73776876167722 Q 157.89999999999998 234.73776876167722 155.825 236.16276876167723 L 154.84999999999997 234.56276876167723 Q 156.27499999999998 233.63776876167722 157.48749999999998 233.22526876167723 Q 158.7 232.81276876167723 160.375 232.81276876167723 Q 162.84999999999997 232.81276876167723 164.2 234.02526876167724 Q 165.54999999999998 235.23776876167722 165.575 237.41276876167723 L 165.59999999999997 246.11276876167722 L 163.29999999999998 246.11276876167722 Z  M 159.14999999999998 244.28776876167723 Q 160.77499999999998 244.28776876167723 161.91249999999997 243.50026876167723 Q 163.04999999999998 242.71276876167724 163.27499999999998 241.41276876167723 L 163.27499999999998 240.08776876167724 L 159.39999999999998 240.08776876167724 Q 157.825 240.08776876167724 157.06249999999997 240.56276876167723 Q 156.29999999999998 241.03776876167723 156.29999999999998 242.06276876167723 Q 156.29999999999998 243.08776876167724 157.075 243.68776876167723 Q 157.84999999999997 244.28776876167723 159.14999999999998 244.28776876167723 Z  M 177.09999999999997 232.81276876167723 Q 178.95 232.81276876167723 180.39999999999998 233.66276876167723 Q 181.84999999999997 234.51276876167722 182.64999999999998 236.03776876167723 Q 183.45 237.56276876167723 183.45 239.53776876167723 Q 183.45 241.48776876167722 182.66249999999997 243.00026876167723 Q 181.87499999999997 244.51276876167722 180.43749999999997 245.35026876167723 Q 178.99999999999997 246.18776876167723 177.14999999999998 246.18776876167723 Q 175.47499999999997 246.18776876167723 174.2 245.48776876167722 Q 172.92499999999998 244.78776876167723 172.2 243.48776876167722 L 172.2 250.96276876167724 L 169.87499999999997 250.96276876167724 L 169.87499999999997 232.88776876167722 L 172.2 232.88776876167722 L 172.2 235.51276876167722 Q 172.92499999999998 234.21276876167724 174.18749999999997 233.51276876167722 Q 175.45 232.81276876167723 177.09999999999997 232.81276876167723 Z  M 176.64999999999998 244.16276876167723 Q 177.92499999999998 244.16276876167723 178.93749999999997 243.56276876167723 Q 179.95 242.96276876167724 180.5125 241.88776876167722 Q 181.075 240.81276876167723 181.075 239.46276876167724 Q 181.075 238.13776876167722 180.49999999999997 237.06276876167723 Q 179.92499999999998 235.98776876167722 178.92499999999998 235.38776876167722 Q 177.92499999999998 234.78776876167723 176.64999999999998 234.78776876167723 Q 175.37499999999997 234.78776876167723 174.36249999999998 235.38776876167722 Q 173.34999999999997 235.98776876167722 172.77499999999998 237.06276876167723 Q 172.2 238.13776876167722 172.2 239.46276876167724 Q 172.2 240.83776876167724 172.77499999999998 241.90026876167724 Q 173.34999999999997 242.96276876167724 174.36249999999998 243.56276876167723 Q 175.37499999999997 244.16276876167723 176.64999999999998 244.16276876167723 Z "
          fill-rule="evenodd" fill="rgb(0,0,0)"/>
    <g style="isolation: isolate;">
        <path d=" M 249.79999999999995 246.11276876167722 L 249.79999999999995 244.26276876167722 Q 248.325 246.21276876167724 245.17499999999995 246.21276876167724 Q 243.79999999999995 246.21276876167724 242.7625 245.68776876167723 Q 241.72499999999997 245.16276876167723 241.16249999999997 244.23776876167722 Q 240.59999999999997 243.31276876167723 240.59999999999997 242.16276876167723 Q 240.59999999999997 240.38776876167722 241.91249999999997 239.35026876167723 Q 243.22499999999997 238.31276876167723 245.575 238.28776876167723 L 249.77499999999998 238.28776876167723 L 249.77499999999998 237.66276876167723 Q 249.77499999999998 236.26276876167722 248.91249999999997 235.50026876167723 Q 248.04999999999995 234.73776876167722 246.39999999999998 234.73776876167722 Q 244.39999999999998 234.73776876167722 242.325 236.16276876167723 L 241.34999999999997 234.56276876167723 Q 242.77499999999998 233.63776876167722 243.98749999999995 233.22526876167723 Q 245.2 232.81276876167723 246.87499999999997 232.81276876167723 Q 249.34999999999997 232.81276876167723 250.7 234.02526876167724 Q 252.04999999999995 235.23776876167722 252.075 237.41276876167723 L 252.09999999999997 246.11276876167722 L 249.79999999999995 246.11276876167722 Z  M 245.64999999999998 244.28776876167723 Q 247.27499999999998 244.28776876167723 248.41249999999997 243.50026876167723 Q 249.54999999999995 242.71276876167724 249.77499999999998 241.41276876167723 L 249.77499999999998 240.08776876167724 L 245.89999999999998 240.08776876167724 Q 244.325 240.08776876167724 243.56249999999997 240.56276876167723 Q 242.79999999999995 241.03776876167723 242.79999999999995 242.06276876167723 Q 242.79999999999995 243.08776876167724 243.575 243.68776876167723 Q 244.34999999999997 244.28776876167723 245.64999999999998 244.28776876167723 Z  M 254.04999999999995 232.88776876167722 L 256.525 232.88776876167722 L 260.5 243.81276876167723 L 264.45 232.88776876167722 L 266.79999999999995 232.88776876167722 L 261.65 246.11276876167722 L 259.22499999999997 246.11276876167722 L 254.04999999999995 232.88776876167722 Z  M 277.075 246.11276876167722 L 277.075 244.26276876167722 Q 275.59999999999997 246.21276876167724 272.45 246.21276876167724 Q 271.075 246.21276876167724 270.03749999999997 245.68776876167723 Q 269 245.16276876167723 268.4375 244.23776876167722 Q 267.875 243.31276876167723 267.875 242.16276876167723 Q 267.875 240.38776876167722 269.1875 239.35026876167723 Q 270.5 238.31276876167723 272.84999999999997 238.28776876167723 L 277.04999999999995 238.28776876167723 L 277.04999999999995 237.66276876167723 Q 277.04999999999995 236.26276876167722 276.1875 235.50026876167723 Q 275.325 234.73776876167722 273.67499999999995 234.73776876167722 Q 271.67499999999995 234.73776876167722 269.59999999999997 236.16276876167723 L 268.625 234.56276876167723 Q 270.04999999999995 233.63776876167722 271.2625 233.22526876167723 Q 272.47499999999997 232.81276876167723 274.15 232.81276876167723 Q 276.625 232.81276876167723 277.97499999999997 234.02526876167724 Q 279.325 235.23776876167722 279.34999999999997 237.41276876167723 L 279.375 246.11276876167722 L 277.075 246.11276876167722 Z  M 272.92499999999995 244.28776876167723 Q 274.54999999999995 244.28776876167723 275.6875 243.50026876167723 Q 276.825 242.71276876167724 277.04999999999995 241.41276876167723 L 277.04999999999995 240.08776876167724 L 273.17499999999995 240.08776876167724 Q 271.59999999999997 240.08776876167724 270.8375 240.56276876167723 Q 270.075 241.03776876167723 270.075 242.06276876167723 Q 270.075 243.08776876167724 270.84999999999997 243.68776876167723 Q 271.625 244.28776876167723 272.92499999999995 244.28776876167723 Z  M 283.525 232.88776876167722 L 285.84999999999997 232.88776876167722 L 285.84999999999997 246.11276876167722 L 283.525 246.11276876167722 L 283.525 232.88776876167722 Z  M 284.675 227.61276876167722 Q 285.3 227.61276876167722 285.7125 228.03776876167723 Q 286.125 228.46276876167724 286.125 229.11276876167722 Q 286.125 229.76276876167722 285.7125 230.18776876167723 Q 285.3 230.61276876167722 284.675 230.61276876167722 Q 284.05 230.61276876167722 283.6375 230.18776876167723 Q 283.22499999999997 229.76276876167722 283.22499999999997 229.11276876167722 Q 283.22499999999997 228.46276876167724 283.6375 228.03776876167723 Q 284.05 227.61276876167722 284.675 227.61276876167722 Z  M 290.5 227.56276876167723 L 292.825 227.56276876167723 L 292.825 246.11276876167722 L 290.5 246.11276876167722 L 290.5 227.56276876167723 Z  M 305.575 246.11276876167722 L 305.575 244.26276876167722 Q 304.09999999999997 246.21276876167724 300.95 246.21276876167724 Q 299.575 246.21276876167724 298.53749999999997 245.68776876167723 Q 297.5 245.16276876167723 296.9375 244.23776876167722 Q 296.375 243.31276876167723 296.375 242.16276876167723 Q 296.375 240.38776876167722 297.6875 239.35026876167723 Q 299 238.31276876167723 301.34999999999997 238.28776876167723 L 305.54999999999995 238.28776876167723 L 305.54999999999995 237.66276876167723 Q 305.54999999999995 236.26276876167722 304.6875 235.50026876167723 Q 303.825 234.73776876167722 302.17499999999995 234.73776876167722 Q 300.17499999999995 234.73776876167722 298.09999999999997 236.16276876167723 L 297.125 234.56276876167723 Q 298.54999999999995 233.63776876167722 299.7625 233.22526876167723 Q 300.97499999999997 232.81276876167723 302.65 232.81276876167723 Q 305.125 232.81276876167723 306.47499999999997 234.02526876167724 Q 307.825 235.23776876167722 307.84999999999997 237.41276876167723 L 307.875 246.11276876167722 L 305.575 246.11276876167722 Z  M 301.42499999999995 244.28776876167723 Q 303.04999999999995 244.28776876167723 304.1875 243.50026876167723 Q 305.325 242.71276876167724 305.54999999999995 241.41276876167723 L 305.54999999999995 240.08776876167724 L 301.67499999999995 240.08776876167724 Q 300.09999999999997 240.08776876167724 299.3375 240.56276876167723 Q 298.575 241.03776876167723 298.575 242.06276876167723 Q 298.575 243.08776876167724 299.34999999999997 243.68776876167723 Q 300.125 244.28776876167723 301.42499999999995 244.28776876167723 Z  M 319.375 232.81276876167723 Q 321.22499999999997 232.81276876167723 322.675 233.66276876167723 Q 324.125 234.51276876167722 324.925 236.03776876167723 Q 325.72499999999997 237.56276876167723 325.72499999999997 239.53776876167723 Q 325.72499999999997 241.48776876167722 324.9375 243.00026876167723 Q 324.15 244.51276876167722 322.7125 245.35026876167723 Q 321.275 246.18776876167723 319.425 246.18776876167723 Q 317.75 246.18776876167723 316.47499999999997 245.48776876167722 Q 315.2 244.78776876167723 314.47499999999997 243.48776876167722 L 314.47499999999997 246.11276876167722 L 312.15 246.11276876167722 L 312.15 227.56276876167723 L 314.47499999999997 227.56276876167723 L 314.47499999999997 235.51276876167722 Q 315.2 234.21276876167724 316.4625 233.51276876167722 Q 317.72499999999997 232.81276876167723 319.375 232.81276876167723 Z  M 318.925 244.16276876167723 Q 320.2 244.16276876167723 321.2125 243.56276876167723 Q 322.22499999999997 242.96276876167724 322.78749999999997 241.88776876167722 Q 323.34999999999997 240.81276876167723 323.34999999999997 239.46276876167724 Q 323.34999999999997 238.13776876167722 322.775 237.06276876167723 Q 322.2 235.98776876167722 321.2 235.38776876167722 Q 320.2 234.78776876167723 318.925 234.78776876167723 Q 317.65 234.78776876167723 316.6375 235.38776876167722 Q 315.625 235.98776876167722 315.05 237.06276876167723 Q 314.47499999999997 238.13776876167722 314.47499999999997 239.46276876167724 Q 314.47499999999997 240.83776876167724 315.05 241.90026876167724 Q 315.625 242.96276876167724 316.6375 243.56276876167723 Q 317.65 244.16276876167723 318.925 244.16276876167723 Z  M 329.09999999999997 227.56276876167723 L 331.42499999999995 227.56276876167723 L 331.42499999999995 246.11276876167722 L 329.09999999999997 246.11276876167722 L 329.09999999999997 227.56276876167723 Z  M 341.4 232.81276876167723 Q 344.47499999999997 232.81276876167723 346.04999999999995 234.62526876167723 Q 347.625 236.43776876167723 347.625 239.66276876167723 Q 347.625 240.16276876167723 347.59999999999997 240.41276876167723 L 337.15 240.41276876167723 Q 337.42499999999995 242.18776876167723 338.6375 243.23776876167722 Q 339.84999999999997 244.28776876167723 341.625 244.28776876167723 Q 342.79999999999995 244.28776876167723 343.8125 243.86276876167722 Q 344.825 243.43776876167723 345.575 242.66276876167723 L 346.84999999999997 243.98776876167722 Q 345.875 245.03776876167723 344.5 245.61276876167722 Q 343.125 246.18776876167723 341.45 246.18776876167723 Q 339.5 246.18776876167723 337.98749999999995 245.35026876167723 Q 336.47499999999997 244.51276876167722 335.6375 242.98776876167722 Q 334.79999999999995 241.46276876167724 334.79999999999995 239.51276876167722 Q 334.79999999999995 237.56276876167723 335.6375 236.05026876167722 Q 336.47499999999997 234.53776876167723 337.97499999999997 233.67526876167722 Q 339.47499999999997 232.81276876167723 341.4 232.81276876167723 Z  M 345.525 238.61276876167722 Q 345.42499999999995 236.81276876167723 344.325 235.77526876167724 Q 343.22499999999997 234.73776876167722 341.42499999999995 234.73776876167722 Q 339.67499999999995 234.73776876167722 338.5125 235.78776876167723 Q 337.34999999999997 236.83776876167724 337.125 238.61276876167722 L 345.525 238.61276876167722 Z  M 200.59999999999997 232.81276876167723 Q 202.92499999999998 232.81276876167723 204.25 234.17526876167722 Q 205.575 235.53776876167723 205.575 237.93776876167723 L 205.575 246.11276876167722 L 203.25 246.11276876167722 L 203.25 238.56276876167723 Q 203.25 236.88776876167722 202.3125 235.95026876167722 Q 201.375 235.01276876167722 199.72499999999997 235.01276876167722 Q 197.95 235.03776876167723 196.83749999999998 236.15026876167724 Q 195.72499999999997 237.26276876167722 195.575 239.03776876167723 L 195.575 246.11276876167722 L 193.25 246.11276876167722 L 193.25 232.88776876167722 L 195.575 232.88776876167722 L 195.575 235.68776876167723 Q 196.89999999999998 232.86276876167722 200.59999999999997 232.81276876167723 Z  M 215.22499999999997 232.81276876167723 Q 217.2 232.81276876167723 218.73749999999995 233.66276876167723 Q 220.27499999999998 234.51276876167722 221.1375 236.02526876167724 Q 221.99999999999997 237.53776876167723 221.99999999999997 239.48776876167722 Q 221.99999999999997 241.43776876167723 221.1375 242.96276876167724 Q 220.27499999999998 244.48776876167722 218.73749999999995 245.33776876167724 Q 217.2 246.18776876167723 215.22499999999997 246.18776876167723 Q 213.22499999999997 246.18776876167723 211.68749999999997 245.33776876167724 Q 210.14999999999998 244.48776876167722 209.28749999999997 242.97526876167723 Q 208.42499999999995 241.46276876167724 208.42499999999995 239.48776876167722 Q 208.42499999999995 237.53776876167723 209.28749999999997 236.02526876167724 Q 210.14999999999998 234.51276876167722 211.68749999999997 233.66276876167723 Q 213.22499999999997 232.81276876167723 215.22499999999997 232.81276876167723 Z  M 215.22499999999997 234.83776876167724 Q 213.92499999999995 234.83776876167724 212.91249999999997 235.43776876167723 Q 211.89999999999998 236.03776876167723 211.33749999999998 237.10026876167723 Q 210.77499999999998 238.16276876167723 210.77499999999998 239.51276876167722 Q 210.77499999999998 240.88776876167722 211.33749999999998 241.96276876167724 Q 211.89999999999998 243.03776876167723 212.91249999999997 243.62526876167723 Q 213.92499999999995 244.21276876167724 215.22499999999997 244.21276876167724 Q 216.49999999999997 244.21276876167724 217.5125 243.62526876167723 Q 218.52499999999998 243.03776876167723 219.08749999999998 241.96276876167724 Q 219.64999999999998 240.88776876167722 219.64999999999998 239.51276876167722 Q 219.64999999999998 238.16276876167723 219.08749999999998 237.10026876167723 Q 218.52499999999998 236.03776876167723 217.5125 235.43776876167723 Q 216.49999999999997 234.83776876167724 215.22499999999997 234.83776876167724 Z  M 232.34999999999997 245.23776876167722 Q 230.825 246.21276876167724 229.25 246.21276876167724 Q 227.67499999999998 246.21276876167724 226.7 245.27526876167724 Q 225.72499999999997 244.33776876167724 225.72499999999997 242.43776876167723 L 225.72499999999997 235.11276876167722 L 223.84999999999997 235.11276876167722 L 223.84999999999997 233.33776876167724 L 225.72499999999997 233.33776876167724 L 225.72499999999997 229.78776876167723 L 228.075 229.78776876167723 L 228.075 233.33776876167724 L 232.125 233.33776876167724 L 232.125 235.11276876167722 L 228.075 235.11276876167722 L 228.075 242.01276876167722 Q 228.075 243.11276876167722 228.47499999999997 243.58776876167724 Q 228.875 244.06276876167723 229.67499999999998 244.06276876167723 Q 230.625 244.06276876167723 231.72499999999997 243.43776876167723 L 232.34999999999997 245.23776876167722 Z  M 131.97499999999997 228.61276876167722 L 134.825 228.61276876167722 L 141.22499999999997 240.91276876167723 L 147.575 228.61276876167722 L 150.45 228.61276876167722 L 150.45 246.11276876167722 L 148.2 246.11276876167722 L 148.17499999999998 232.13776876167722 L 141.95 244.26276876167722 L 140.47499999999997 244.26276876167722 L 134.2 232.13776876167722 L 134.2 246.11276876167722 L 131.97499999999997 246.11276876167722 L 131.97499999999997 228.61276876167722 Z  M 163.29999999999998 246.11276876167722 L 163.29999999999998 244.26276876167722 Q 161.825 246.21276876167724 158.67499999999998 246.21276876167724 Q 157.29999999999998 246.21276876167724 156.2625 245.68776876167723 Q 155.22499999999997 245.16276876167723 154.66249999999997 244.23776876167722 Q 154.09999999999997 243.31276876167723 154.09999999999997 242.16276876167723 Q 154.09999999999997 240.38776876167722 155.41249999999997 239.35026876167723 Q 156.72499999999997 238.31276876167723 159.075 238.28776876167723 L 163.27499999999998 238.28776876167723 L 163.27499999999998 237.66276876167723 Q 163.27499999999998 236.26276876167722 162.41249999999997 235.50026876167723 Q 161.54999999999998 234.73776876167722 159.89999999999998 234.73776876167722 Q 157.89999999999998 234.73776876167722 155.825 236.16276876167723 L 154.84999999999997 234.56276876167723 Q 156.27499999999998 233.63776876167722 157.48749999999998 233.22526876167723 Q 158.7 232.81276876167723 160.375 232.81276876167723 Q 162.84999999999997 232.81276876167723 164.2 234.02526876167724 Q 165.54999999999998 235.23776876167722 165.575 237.41276876167723 L 165.59999999999997 246.11276876167722 L 163.29999999999998 246.11276876167722 Z  M 159.14999999999998 244.28776876167723 Q 160.77499999999998 244.28776876167723 161.91249999999997 243.50026876167723 Q 163.04999999999998 242.71276876167724 163.27499999999998 241.41276876167723 L 163.27499999999998 240.08776876167724 L 159.39999999999998 240.08776876167724 Q 157.825 240.08776876167724 157.06249999999997 240.56276876167723 Q 156.29999999999998 241.03776876167723 156.29999999999998 242.06276876167723 Q 156.29999999999998 243.08776876167724 157.075 243.68776876167723 Q 157.84999999999997 244.28776876167723 159.14999999999998 244.28776876167723 Z  M 177.09999999999997 232.81276876167723 Q 178.95 232.81276876167723 180.39999999999998 233.66276876167723 Q 181.84999999999997 234.51276876167722 182.64999999999998 236.03776876167723 Q 183.45 237.56276876167723 183.45 239.53776876167723 Q 183.45 241.48776876167722 182.66249999999997 243.00026876167723 Q 181.87499999999997 244.51276876167722 180.43749999999997 245.35026876167723 Q 178.99999999999997 246.18776876167723 177.14999999999998 246.18776876167723 Q 175.47499999999997 246.18776876167723 174.2 245.48776876167722 Q 172.92499999999998 244.78776876167723 172.2 243.48776876167722 L 172.2 250.96276876167724 L 169.87499999999997 250.96276876167724 L 169.87499999999997 232.88776876167722 L 172.2 232.88776876167722 L 172.2 235.51276876167722 Q 172.92499999999998 234.21276876167724 174.18749999999997 233.51276876167722 Q 175.45 232.81276876167723 177.09999999999997 232.81276876167723 Z  M 176.64999999999998 244.16276876167723 Q 177.92499999999998 244.16276876167723 178.93749999999997 243.56276876167723 Q 179.95 242.96276876167724 180.5125 241.88776876167722 Q 181.075 240.81276876167723 181.075 239.46276876167724 Q 181.075 238.13776876167722 180.49999999999997 237.06276876167723 Q 179.92499999999998 235.98776876167722 178.92499999999998 235.38776876167722 Q 177.92499999999998 234.78776876167723 176.64999999999998 234.78776876167723 Q 175.37499999999997 234.78776876167723 174.36249999999998 235.38776876167722 Q 173.34999999999997 235.98776876167722 172.77499999999998 237.06276876167723 Q 172.2 238.13776876167722 172.2 239.46276876167724 Q 172.2 240.83776876167724 172.77499999999998 241.90026876167724 Q 173.34999999999997 242.96276876167724 174.36249999999998 243.56276876167723 Q 175.37499999999997 244.16276876167723 176.64999999999998 244.16276876167723 Z "
              fill-rule="evenodd" fill="none" vector-effect="non-scaling-stroke" stroke-width="0.5534666860201127"
              stroke="rgb(0,0,0)" stroke-linejoin="miter" stroke-linecap="square" stroke-miterlimit="3"/>
        <path d=" M 249.79999999999995 246.11276876167722 L 249.79999999999995 244.26276876167722 Q 248.325 246.21276876167724 245.17499999999995 246.21276876167724 Q 243.79999999999995 246.21276876167724 242.7625 245.68776876167723 Q 241.72499999999997 245.16276876167723 241.16249999999997 244.23776876167722 Q 240.59999999999997 243.31276876167723 240.59999999999997 242.16276876167723 Q 240.59999999999997 240.38776876167722 241.91249999999997 239.35026876167723 Q 243.22499999999997 238.31276876167723 245.575 238.28776876167723 L 249.77499999999998 238.28776876167723 L 249.77499999999998 237.66276876167723 Q 249.77499999999998 236.26276876167722 248.91249999999997 235.50026876167723 Q 248.04999999999995 234.73776876167722 246.39999999999998 234.73776876167722 Q 244.39999999999998 234.73776876167722 242.325 236.16276876167723 L 241.34999999999997 234.56276876167723 Q 242.77499999999998 233.63776876167722 243.98749999999995 233.22526876167723 Q 245.2 232.81276876167723 246.87499999999997 232.81276876167723 Q 249.34999999999997 232.81276876167723 250.7 234.02526876167724 Q 252.04999999999995 235.23776876167722 252.075 237.41276876167723 L 252.09999999999997 246.11276876167722 L 249.79999999999995 246.11276876167722 Z  M 245.64999999999998 244.28776876167723 Q 247.27499999999998 244.28776876167723 248.41249999999997 243.50026876167723 Q 249.54999999999995 242.71276876167724 249.77499999999998 241.41276876167723 L 249.77499999999998 240.08776876167724 L 245.89999999999998 240.08776876167724 Q 244.325 240.08776876167724 243.56249999999997 240.56276876167723 Q 242.79999999999995 241.03776876167723 242.79999999999995 242.06276876167723 Q 242.79999999999995 243.08776876167724 243.575 243.68776876167723 Q 244.34999999999997 244.28776876167723 245.64999999999998 244.28776876167723 Z  M 254.04999999999995 232.88776876167722 L 256.525 232.88776876167722 L 260.5 243.81276876167723 L 264.45 232.88776876167722 L 266.79999999999995 232.88776876167722 L 261.65 246.11276876167722 L 259.22499999999997 246.11276876167722 L 254.04999999999995 232.88776876167722 Z  M 277.075 246.11276876167722 L 277.075 244.26276876167722 Q 275.59999999999997 246.21276876167724 272.45 246.21276876167724 Q 271.075 246.21276876167724 270.03749999999997 245.68776876167723 Q 269 245.16276876167723 268.4375 244.23776876167722 Q 267.875 243.31276876167723 267.875 242.16276876167723 Q 267.875 240.38776876167722 269.1875 239.35026876167723 Q 270.5 238.31276876167723 272.84999999999997 238.28776876167723 L 277.04999999999995 238.28776876167723 L 277.04999999999995 237.66276876167723 Q 277.04999999999995 236.26276876167722 276.1875 235.50026876167723 Q 275.325 234.73776876167722 273.67499999999995 234.73776876167722 Q 271.67499999999995 234.73776876167722 269.59999999999997 236.16276876167723 L 268.625 234.56276876167723 Q 270.04999999999995 233.63776876167722 271.2625 233.22526876167723 Q 272.47499999999997 232.81276876167723 274.15 232.81276876167723 Q 276.625 232.81276876167723 277.97499999999997 234.02526876167724 Q 279.325 235.23776876167722 279.34999999999997 237.41276876167723 L 279.375 246.11276876167722 L 277.075 246.11276876167722 Z  M 272.92499999999995 244.28776876167723 Q 274.54999999999995 244.28776876167723 275.6875 243.50026876167723 Q 276.825 242.71276876167724 277.04999999999995 241.41276876167723 L 277.04999999999995 240.08776876167724 L 273.17499999999995 240.08776876167724 Q 271.59999999999997 240.08776876167724 270.8375 240.56276876167723 Q 270.075 241.03776876167723 270.075 242.06276876167723 Q 270.075 243.08776876167724 270.84999999999997 243.68776876167723 Q 271.625 244.28776876167723 272.92499999999995 244.28776876167723 Z  M 283.525 232.88776876167722 L 285.84999999999997 232.88776876167722 L 285.84999999999997 246.11276876167722 L 283.525 246.11276876167722 L 283.525 232.88776876167722 Z  M 284.675 227.61276876167722 Q 285.3 227.61276876167722 285.7125 228.03776876167723 Q 286.125 228.46276876167724 286.125 229.11276876167722 Q 286.125 229.76276876167722 285.7125 230.18776876167723 Q 285.3 230.61276876167722 284.675 230.61276876167722 Q 284.05 230.61276876167722 283.6375 230.18776876167723 Q 283.22499999999997 229.76276876167722 283.22499999999997 229.11276876167722 Q 283.22499999999997 228.46276876167724 283.6375 228.03776876167723 Q 284.05 227.61276876167722 284.675 227.61276876167722 Z  M 290.5 227.56276876167723 L 292.825 227.56276876167723 L 292.825 246.11276876167722 L 290.5 246.11276876167722 L 290.5 227.56276876167723 Z  M 305.575 246.11276876167722 L 305.575 244.26276876167722 Q 304.09999999999997 246.21276876167724 300.95 246.21276876167724 Q 299.575 246.21276876167724 298.53749999999997 245.68776876167723 Q 297.5 245.16276876167723 296.9375 244.23776876167722 Q 296.375 243.31276876167723 296.375 242.16276876167723 Q 296.375 240.38776876167722 297.6875 239.35026876167723 Q 299 238.31276876167723 301.34999999999997 238.28776876167723 L 305.54999999999995 238.28776876167723 L 305.54999999999995 237.66276876167723 Q 305.54999999999995 236.26276876167722 304.6875 235.50026876167723 Q 303.825 234.73776876167722 302.17499999999995 234.73776876167722 Q 300.17499999999995 234.73776876167722 298.09999999999997 236.16276876167723 L 297.125 234.56276876167723 Q 298.54999999999995 233.63776876167722 299.7625 233.22526876167723 Q 300.97499999999997 232.81276876167723 302.65 232.81276876167723 Q 305.125 232.81276876167723 306.47499999999997 234.02526876167724 Q 307.825 235.23776876167722 307.84999999999997 237.41276876167723 L 307.875 246.11276876167722 L 305.575 246.11276876167722 Z  M 301.42499999999995 244.28776876167723 Q 303.04999999999995 244.28776876167723 304.1875 243.50026876167723 Q 305.325 242.71276876167724 305.54999999999995 241.41276876167723 L 305.54999999999995 240.08776876167724 L 301.67499999999995 240.08776876167724 Q 300.09999999999997 240.08776876167724 299.3375 240.56276876167723 Q 298.575 241.03776876167723 298.575 242.06276876167723 Q 298.575 243.08776876167724 299.34999999999997 243.68776876167723 Q 300.125 244.28776876167723 301.42499999999995 244.28776876167723 Z  M 319.375 232.81276876167723 Q 321.22499999999997 232.81276876167723 322.675 233.66276876167723 Q 324.125 234.51276876167722 324.925 236.03776876167723 Q 325.72499999999997 237.56276876167723 325.72499999999997 239.53776876167723 Q 325.72499999999997 241.48776876167722 324.9375 243.00026876167723 Q 324.15 244.51276876167722 322.7125 245.35026876167723 Q 321.275 246.18776876167723 319.425 246.18776876167723 Q 317.75 246.18776876167723 316.47499999999997 245.48776876167722 Q 315.2 244.78776876167723 314.47499999999997 243.48776876167722 L 314.47499999999997 246.11276876167722 L 312.15 246.11276876167722 L 312.15 227.56276876167723 L 314.47499999999997 227.56276876167723 L 314.47499999999997 235.51276876167722 Q 315.2 234.21276876167724 316.4625 233.51276876167722 Q 317.72499999999997 232.81276876167723 319.375 232.81276876167723 Z  M 318.925 244.16276876167723 Q 320.2 244.16276876167723 321.2125 243.56276876167723 Q 322.22499999999997 242.96276876167724 322.78749999999997 241.88776876167722 Q 323.34999999999997 240.81276876167723 323.34999999999997 239.46276876167724 Q 323.34999999999997 238.13776876167722 322.775 237.06276876167723 Q 322.2 235.98776876167722 321.2 235.38776876167722 Q 320.2 234.78776876167723 318.925 234.78776876167723 Q 317.65 234.78776876167723 316.6375 235.38776876167722 Q 315.625 235.98776876167722 315.05 237.06276876167723 Q 314.47499999999997 238.13776876167722 314.47499999999997 239.46276876167724 Q 314.47499999999997 240.83776876167724 315.05 241.90026876167724 Q 315.625 242.96276876167724 316.6375 243.56276876167723 Q 317.65 244.16276876167723 318.925 244.16276876167723 Z  M 329.09999999999997 227.56276876167723 L 331.42499999999995 227.56276876167723 L 331.42499999999995 246.11276876167722 L 329.09999999999997 246.11276876167722 L 329.09999999999997 227.56276876167723 Z  M 341.4 232.81276876167723 Q 344.47499999999997 232.81276876167723 346.04999999999995 234.62526876167723 Q 347.625 236.43776876167723 347.625 239.66276876167723 Q 347.625 240.16276876167723 347.59999999999997 240.41276876167723 L 337.15 240.41276876167723 Q 337.42499999999995 242.18776876167723 338.6375 243.23776876167722 Q 339.84999999999997 244.28776876167723 341.625 244.28776876167723 Q 342.79999999999995 244.28776876167723 343.8125 243.86276876167722 Q 344.825 243.43776876167723 345.575 242.66276876167723 L 346.84999999999997 243.98776876167722 Q 345.875 245.03776876167723 344.5 245.61276876167722 Q 343.125 246.18776876167723 341.45 246.18776876167723 Q 339.5 246.18776876167723 337.98749999999995 245.35026876167723 Q 336.47499999999997 244.51276876167722 335.6375 242.98776876167722 Q 334.79999999999995 241.46276876167724 334.79999999999995 239.51276876167722 Q 334.79999999999995 237.56276876167723 335.6375 236.05026876167722 Q 336.47499999999997 234.53776876167723 337.97499999999997 233.67526876167722 Q 339.47499999999997 232.81276876167723 341.4 232.81276876167723 Z  M 345.525 238.61276876167722 Q 345.42499999999995 236.81276876167723 344.325 235.77526876167724 Q 343.22499999999997 234.73776876167722 341.42499999999995 234.73776876167722 Q 339.67499999999995 234.73776876167722 338.5125 235.78776876167723 Q 337.34999999999997 236.83776876167724 337.125 238.61276876167722 L 345.525 238.61276876167722 Z  M 200.59999999999997 232.81276876167723 Q 202.92499999999998 232.81276876167723 204.25 234.17526876167722 Q 205.575 235.53776876167723 205.575 237.93776876167723 L 205.575 246.11276876167722 L 203.25 246.11276876167722 L 203.25 238.56276876167723 Q 203.25 236.88776876167722 202.3125 235.95026876167722 Q 201.375 235.01276876167722 199.72499999999997 235.01276876167722 Q 197.95 235.03776876167723 196.83749999999998 236.15026876167724 Q 195.72499999999997 237.26276876167722 195.575 239.03776876167723 L 195.575 246.11276876167722 L 193.25 246.11276876167722 L 193.25 232.88776876167722 L 195.575 232.88776876167722 L 195.575 235.68776876167723 Q 196.89999999999998 232.86276876167722 200.59999999999997 232.81276876167723 Z  M 215.22499999999997 232.81276876167723 Q 217.2 232.81276876167723 218.73749999999995 233.66276876167723 Q 220.27499999999998 234.51276876167722 221.1375 236.02526876167724 Q 221.99999999999997 237.53776876167723 221.99999999999997 239.48776876167722 Q 221.99999999999997 241.43776876167723 221.1375 242.96276876167724 Q 220.27499999999998 244.48776876167722 218.73749999999995 245.33776876167724 Q 217.2 246.18776876167723 215.22499999999997 246.18776876167723 Q 213.22499999999997 246.18776876167723 211.68749999999997 245.33776876167724 Q 210.14999999999998 244.48776876167722 209.28749999999997 242.97526876167723 Q 208.42499999999995 241.46276876167724 208.42499999999995 239.48776876167722 Q 208.42499999999995 237.53776876167723 209.28749999999997 236.02526876167724 Q 210.14999999999998 234.51276876167722 211.68749999999997 233.66276876167723 Q 213.22499999999997 232.81276876167723 215.22499999999997 232.81276876167723 Z  M 215.22499999999997 234.83776876167724 Q 213.92499999999995 234.83776876167724 212.91249999999997 235.43776876167723 Q 211.89999999999998 236.03776876167723 211.33749999999998 237.10026876167723 Q 210.77499999999998 238.16276876167723 210.77499999999998 239.51276876167722 Q 210.77499999999998 240.88776876167722 211.33749999999998 241.96276876167724 Q 211.89999999999998 243.03776876167723 212.91249999999997 243.62526876167723 Q 213.92499999999995 244.21276876167724 215.22499999999997 244.21276876167724 Q 216.49999999999997 244.21276876167724 217.5125 243.62526876167723 Q 218.52499999999998 243.03776876167723 219.08749999999998 241.96276876167724 Q 219.64999999999998 240.88776876167722 219.64999999999998 239.51276876167722 Q 219.64999999999998 238.16276876167723 219.08749999999998 237.10026876167723 Q 218.52499999999998 236.03776876167723 217.5125 235.43776876167723 Q 216.49999999999997 234.83776876167724 215.22499999999997 234.83776876167724 Z  M 232.34999999999997 245.23776876167722 Q 230.825 246.21276876167724 229.25 246.21276876167724 Q 227.67499999999998 246.21276876167724 226.7 245.27526876167724 Q 225.72499999999997 244.33776876167724 225.72499999999997 242.43776876167723 L 225.72499999999997 235.11276876167722 L 223.84999999999997 235.11276876167722 L 223.84999999999997 233.33776876167724 L 225.72499999999997 233.33776876167724 L 225.72499999999997 229.78776876167723 L 228.075 229.78776876167723 L 228.075 233.33776876167724 L 232.125 233.33776876167724 L 232.125 235.11276876167722 L 228.075 235.11276876167722 L 228.075 242.01276876167722 Q 228.075 243.11276876167722 228.47499999999997 243.58776876167724 Q 228.875 244.06276876167723 229.67499999999998 244.06276876167723 Q 230.625 244.06276876167723 231.72499999999997 243.43776876167723 L 232.34999999999997 245.23776876167722 Z  M 131.97499999999997 228.61276876167722 L 134.825 228.61276876167722 L 141.22499999999997 240.91276876167723 L 147.575 228.61276876167722 L 150.45 228.61276876167722 L 150.45 246.11276876167722 L 148.2 246.11276876167722 L 148.17499999999998 232.13776876167722 L 141.95 244.26276876167722 L 140.47499999999997 244.26276876167722 L 134.2 232.13776876167722 L 134.2 246.11276876167722 L 131.97499999999997 246.11276876167722 L 131.97499999999997 228.61276876167722 Z  M 163.29999999999998 246.11276876167722 L 163.29999999999998 244.26276876167722 Q 161.825 246.21276876167724 158.67499999999998 246.21276876167724 Q 157.29999999999998 246.21276876167724 156.2625 245.68776876167723 Q 155.22499999999997 245.16276876167723 154.66249999999997 244.23776876167722 Q 154.09999999999997 243.31276876167723 154.09999999999997 242.16276876167723 Q 154.09999999999997 240.38776876167722 155.41249999999997 239.35026876167723 Q 156.72499999999997 238.31276876167723 159.075 238.28776876167723 L 163.27499999999998 238.28776876167723 L 163.27499999999998 237.66276876167723 Q 163.27499999999998 236.26276876167722 162.41249999999997 235.50026876167723 Q 161.54999999999998 234.73776876167722 159.89999999999998 234.73776876167722 Q 157.89999999999998 234.73776876167722 155.825 236.16276876167723 L 154.84999999999997 234.56276876167723 Q 156.27499999999998 233.63776876167722 157.48749999999998 233.22526876167723 Q 158.7 232.81276876167723 160.375 232.81276876167723 Q 162.84999999999997 232.81276876167723 164.2 234.02526876167724 Q 165.54999999999998 235.23776876167722 165.575 237.41276876167723 L 165.59999999999997 246.11276876167722 L 163.29999999999998 246.11276876167722 Z  M 159.14999999999998 244.28776876167723 Q 160.77499999999998 244.28776876167723 161.91249999999997 243.50026876167723 Q 163.04999999999998 242.71276876167724 163.27499999999998 241.41276876167723 L 163.27499999999998 240.08776876167724 L 159.39999999999998 240.08776876167724 Q 157.825 240.08776876167724 157.06249999999997 240.56276876167723 Q 156.29999999999998 241.03776876167723 156.29999999999998 242.06276876167723 Q 156.29999999999998 243.08776876167724 157.075 243.68776876167723 Q 157.84999999999997 244.28776876167723 159.14999999999998 244.28776876167723 Z  M 177.09999999999997 232.81276876167723 Q 178.95 232.81276876167723 180.39999999999998 233.66276876167723 Q 181.84999999999997 234.51276876167722 182.64999999999998 236.03776876167723 Q 183.45 237.56276876167723 183.45 239.53776876167723 Q 183.45 241.48776876167722 182.66249999999997 243.00026876167723 Q 181.87499999999997 244.51276876167722 180.43749999999997 245.35026876167723 Q 178.99999999999997 246.18776876167723 177.14999999999998 246.18776876167723 Q 175.47499999999997 246.18776876167723 174.2 245.48776876167722 Q 172.92499999999998 244.78776876167723 172.2 243.48776876167722 L 172.2 250.96276876167724 L 169.87499999999997 250.96276876167724 L 169.87499999999997 232.88776876167722 L 172.2 232.88776876167722 L 172.2 235.51276876167722 Q 172.92499999999998 234.21276876167724 174.18749999999997 233.51276876167722 Q 175.45 232.81276876167723 177.09999999999997 232.81276876167723 Z  M 176.64999999999998 244.16276876167723 Q 177.92499999999998 244.16276876167723 178.93749999999997 243.56276876167723 Q 179.95 242.96276876167724 180.5125 241.88776876167722 Q 181.075 240.81276876167723 181.075 239.46276876167724 Q 181.075 238.13776876167722 180.49999999999997 237.06276876167723 Q 179.92499999999998 235.98776876167722 178.92499999999998 235.38776876167722 Q 177.92499999999998 234.78776876167723 176.64999999999998 234.78776876167723 Q 175.37499999999997 234.78776876167723 174.36249999999998 235.38776876167722 Q 173.34999999999997 235.98776876167722 172.77499999999998 237.06276876167723 Q 172.2 238.13776876167722 172.2 239.46276876167724 Q 172.2 240.83776876167724 172.77499999999998 241.90026876167724 Q 173.34999999999997 242.96276876167724 174.36249999999998 243.56276876167723 Q 175.37499999999997 244.16276876167723 176.64999999999998 244.16276876167723 Z "
              fill-rule="evenodd" fill="none" vector-effect="non-scaling-stroke" stroke-width="0.5534666860201127"
              stroke="rgb(0,0,0)" stroke-linejoin="miter" stroke-linecap="square" stroke-miterlimit="3"/>
    </g>
    <line x1="176.898721449704" y1="94.06828554674536" x2="303.66150564406394" y2="189.48862019949453"
          vector-effect="non-scaling-stroke" stroke-width="22.138667440804507" stroke="rgb(255,255,255)"
          stroke-linejoin="miter" stroke-linecap="square" stroke-miterlimit="3"/>
    <line x1="173.58399767758647" y1="98.77334945577739" x2="300.3467818719464" y2="194.19368410852655"
          vector-effect="non-scaling-stroke" stroke-width="11.069333720402254" stroke="rgb(0,0,0)"
          stroke-linejoin="miter" stroke-linecap="square" stroke-miterlimit="3"/>
</svg>