<?xml version="1.0" standalone="no"?><!-- Generator: Gravit.io -->
<svg xmlns="http://www.w3.org/2000/svg" style="isolation:isolate" viewBox="0 -0.25 480 350.25" width="480"
     height="350.25">
    <path d=" M 334.5625 33.125 L 332.7825 33.458749999999995 L 273.375 56.4875 L 206.625 33.125 L 143.88 54.2625 C 141.54375 55.041250000000005 139.875 57.04375 139.875 59.602500000000006 L 139.875 227.8125 C 139.875 230.9275 142.3225 233.375 145.4375 233.375 L 147.2175 233.04125 L 206.625 210.0125 L 273.375 233.375 L 336.12 212.2375 C 338.45625 211.45875 340.125 209.45625 340.125 206.8975 L 340.125 38.6875 C 340.125 35.5725 337.6775 33.125 334.5625 33.125 Z  M 273.375 211.125 L 206.625 187.65125 L 206.625 55.375 L 273.375 78.84875 L 273.375 211.125 Z "
          fill-rule="evenodd" fill="rgb(0,0,0)"/>
    <path d=" M 106.5 -0.25 L 373.5 -0.25 L 373.5 266.75 L 106.5 266.75 L 106.5 -0.25 Z " fill="none"/>
    <path d=" M 259.304 315.746 L 259.304 312.26800000000003 Q 256.531 315.934 250.609 315.934 Q 248.024 315.934 246.0735 314.947 Q 244.123 313.96 243.06550000000001 312.221 Q 242.008 310.48199999999997 242.008 308.32 Q 242.008 304.983 244.4755 303.0325 Q 246.943 301.082 251.361 301.035 L 259.257 301.035 L 259.257 299.86 Q 259.257 297.228 257.6355 295.7945 Q 256.014 294.361 252.912 294.361 Q 249.15200000000002 294.361 245.251 297.04 L 243.418 294.032 Q 246.097 292.293 248.3765 291.5175 Q 250.656 290.742 253.805 290.742 Q 258.45799999999997 290.742 260.996 293.0215 Q 263.534 295.301 263.581 299.39 L 263.62800000000004 315.746 L 259.304 315.746 Z  M 251.502 312.315 Q 254.55700000000002 312.315 256.69550000000004 310.8345 Q 258.834 309.354 259.257 306.91 L 259.257 304.419 L 251.972 304.419 Q 249.011 304.419 247.57750000000001 305.312 Q 246.144 306.205 246.144 308.132 Q 246.144 310.059 247.601 311.187 Q 249.058 312.315 251.502 312.315 Z  M 267.294 290.883 L 271.947 290.883 L 279.41999999999996 311.422 L 286.846 290.883 L 291.264 290.883 L 281.582 315.746 L 277.023 315.746 L 267.294 290.883 Z  M 310.581 315.746 L 310.581 312.26800000000003 Q 307.808 315.934 301.88599999999997 315.934 Q 299.301 315.934 297.3505 314.947 Q 295.4 313.96 294.3425 312.221 Q 293.28499999999997 310.48199999999997 293.28499999999997 308.32 Q 293.28499999999997 304.983 295.7525 303.0325 Q 298.21999999999997 301.082 302.638 301.035 L 310.534 301.035 L 310.534 299.86 Q 310.534 297.228 308.91249999999997 295.7945 Q 307.291 294.361 304.18899999999996 294.361 Q 300.429 294.361 296.52799999999996 297.04 L 294.695 294.032 Q 297.37399999999997 292.293 299.6535 291.5175 Q 301.933 290.742 305.082 290.742 Q 309.735 290.742 312.27299999999997 293.0215 Q 314.811 295.301 314.858 299.39 L 314.905 315.746 L 310.581 315.746 Z  M 302.779 312.315 Q 305.834 312.315 307.97249999999997 310.8345 Q 310.111 309.354 310.534 306.91 L 310.534 304.419 L 303.24899999999997 304.419 Q 300.288 304.419 298.8545 305.312 Q 297.421 306.205 297.421 308.132 Q 297.421 310.059 298.878 311.187 Q 300.335 312.315 302.779 312.315 Z  M 322.707 290.883 L 327.07800000000003 290.883 L 327.07800000000003 315.746 L 322.707 315.746 L 322.707 290.883 Z  M 324.869 280.966 Q 326.044 280.966 326.8195 281.765 Q 327.595 282.564 327.595 283.786 Q 327.595 285.008 326.8195 285.807 Q 326.044 286.606 324.869 286.606 Q 323.694 286.606 322.9185 285.807 Q 322.14300000000003 285.008 322.14300000000003 283.786 Q 322.14300000000003 282.564 322.9185 281.765 Q 323.694 280.966 324.869 280.966 Z  M 335.82 280.872 L 340.191 280.872 L 340.191 315.746 L 335.82 315.746 L 335.82 280.872 Z  M 364.16099999999994 315.746 L 364.16099999999994 312.26800000000003 Q 361.388 315.934 355.46599999999995 315.934 Q 352.881 315.934 350.9305 314.947 Q 348.97999999999996 313.96 347.92249999999996 312.221 Q 346.86499999999995 310.48199999999997 346.86499999999995 308.32 Q 346.86499999999995 304.983 349.3325 303.0325 Q 351.79999999999995 301.082 356.21799999999996 301.035 L 364.114 301.035 L 364.114 299.86 Q 364.114 297.228 362.49249999999995 295.7945 Q 360.871 294.361 357.76899999999995 294.361 Q 354.00899999999996 294.361 350.10799999999995 297.04 L 348.275 294.032 Q 350.95399999999995 292.293 353.2335 291.5175 Q 355.513 290.742 358.662 290.742 Q 363.315 290.742 365.85299999999995 293.0215 Q 368.39099999999996 295.301 368.438 299.39 L 368.48499999999996 315.746 L 364.16099999999994 315.746 Z  M 356.359 312.315 Q 359.414 312.315 361.55249999999995 310.8345 Q 363.691 309.354 364.114 306.91 L 364.114 304.419 L 356.82899999999995 304.419 Q 353.868 304.419 352.43449999999996 305.312 Q 351.001 306.205 351.001 308.132 Q 351.001 310.059 352.45799999999997 311.187 Q 353.91499999999996 312.315 356.359 312.315 Z  M 390.105 290.742 Q 393.58299999999997 290.742 396.30899999999997 292.34000000000003 Q 399.03499999999997 293.938 400.539 296.805 Q 402.043 299.672 402.043 303.385 Q 402.043 307.051 400.5625 309.8945 Q 399.082 312.738 396.3795 314.3125 Q 393.677 315.887 390.199 315.887 Q 387.05 315.887 384.653 314.571 Q 382.256 313.255 380.893 310.811 L 380.893 315.746 L 376.522 315.746 L 376.522 280.872 L 380.893 280.872 L 380.893 295.818 Q 382.256 293.374 384.6295 292.058 Q 387.003 290.742 390.105 290.742 Z  M 389.259 312.08 Q 391.656 312.08 393.5595 310.952 Q 395.46299999999997 309.824 396.52049999999997 307.803 Q 397.578 305.782 397.578 303.244 Q 397.578 300.753 396.497 298.732 Q 395.416 296.711 393.536 295.583 Q 391.656 294.455 389.259 294.455 Q 386.86199999999997 294.455 384.9585 295.583 Q 383.055 296.711 381.974 298.732 Q 380.893 300.753 380.893 303.244 Q 380.893 305.829 381.974 307.8265 Q 383.055 309.824 384.9585 310.952 Q 386.86199999999997 312.08 389.259 312.08 Z  M 408.388 280.872 L 412.75899999999996 280.872 L 412.75899999999996 315.746 L 408.388 315.746 L 408.388 280.872 Z  M 431.51199999999994 290.742 Q 437.29299999999995 290.742 440.25399999999996 294.1495 Q 443.215 297.557 443.215 303.62 Q 443.215 304.56 443.16799999999995 305.03 L 423.52199999999993 305.03 Q 424.03899999999993 308.367 426.3185 310.341 Q 428.59799999999996 312.315 431.93499999999995 312.315 Q 434.14399999999995 312.315 436.04749999999996 311.516 Q 437.95099999999996 310.717 439.36099999999993 309.26 L 441.758 311.751 Q 439.92499999999995 313.725 437.34 314.806 Q 434.75499999999994 315.887 431.60599999999994 315.887 Q 427.93999999999994 315.887 425.09649999999993 314.3125 Q 422.253 312.738 420.6785 309.871 Q 419.104 307.004 419.104 303.338 Q 419.104 299.672 420.6785 296.8285 Q 422.253 293.985 425.073 292.3635 Q 427.893 290.742 431.51199999999994 290.742 Z  M 439.26699999999994 301.646 Q 439.07899999999995 298.262 437.01099999999997 296.3115 Q 434.943 294.361 431.55899999999997 294.361 Q 428.26899999999995 294.361 426.08349999999996 296.335 Q 423.89799999999997 298.309 423.47499999999997 301.646 L 439.26699999999994 301.646 Z  M 166.80800000000002 290.742 Q 171.17900000000003 290.742 173.67000000000002 293.3035 Q 176.16100000000003 295.865 176.16100000000003 300.377 L 176.16100000000003 315.746 L 171.79000000000002 315.746 L 171.79000000000002 301.552 Q 171.79000000000002 298.403 170.02750000000003 296.6405 Q 168.26500000000001 294.878 165.163 294.878 Q 161.82600000000002 294.925 159.73450000000003 297.0165 Q 157.64300000000003 299.108 157.36100000000002 302.445 L 157.36100000000002 315.746 L 152.99 315.746 L 152.99 290.883 L 157.36100000000002 290.883 L 157.36100000000002 296.147 Q 159.85200000000003 290.836 166.80800000000002 290.742 Z  M 194.30300000000003 290.742 Q 198.01600000000002 290.742 200.90650000000005 292.34000000000003 Q 203.79700000000003 293.938 205.41850000000005 296.7815 Q 207.04000000000002 299.625 207.04000000000002 303.291 Q 207.04000000000002 306.957 205.41850000000005 309.824 Q 203.79700000000003 312.69100000000003 200.90650000000005 314.289 Q 198.01600000000002 315.887 194.30300000000003 315.887 Q 190.54300000000003 315.887 187.65250000000003 314.289 Q 184.76200000000003 312.69100000000003 183.14050000000003 309.8475 Q 181.51900000000003 307.004 181.51900000000003 303.291 Q 181.51900000000003 299.625 183.14050000000003 296.7815 Q 184.76200000000003 293.938 187.65250000000003 292.34000000000003 Q 190.54300000000003 290.742 194.30300000000003 290.742 Z  M 194.30300000000003 294.549 Q 191.85900000000004 294.549 189.95550000000003 295.677 Q 188.05200000000002 296.805 186.99450000000004 298.8025 Q 185.93700000000004 300.8 185.93700000000004 303.338 Q 185.93700000000004 305.923 186.99450000000004 307.944 Q 188.05200000000002 309.96500000000003 189.95550000000003 311.0695 Q 191.85900000000004 312.174 194.30300000000003 312.174 Q 196.70000000000005 312.174 198.60350000000003 311.0695 Q 200.50700000000003 309.96500000000003 201.56450000000004 307.944 Q 202.62200000000004 305.923 202.62200000000004 303.338 Q 202.62200000000004 300.8 201.56450000000004 298.8025 Q 200.50700000000003 296.805 198.60350000000003 295.677 Q 196.70000000000005 294.549 194.30300000000003 294.549 Z  M 226.49800000000005 314.101 Q 223.63100000000006 315.934 220.67000000000004 315.934 Q 217.70900000000006 315.934 215.87600000000003 314.1715 Q 214.04300000000003 312.409 214.04300000000003 308.837 L 214.04300000000003 295.06600000000003 L 210.51800000000006 295.06600000000003 L 210.51800000000006 291.729 L 214.04300000000003 291.729 L 214.04300000000003 285.055 L 218.46100000000004 285.055 L 218.46100000000004 291.729 L 226.07500000000005 291.729 L 226.07500000000005 295.06600000000003 L 218.46100000000004 295.06600000000003 L 218.46100000000004 308.038 Q 218.46100000000004 310.106 219.21300000000005 310.999 Q 219.96500000000006 311.892 221.46900000000005 311.892 Q 223.25500000000005 311.892 225.32300000000004 310.717 L 226.49800000000005 314.101 Z  M 37.79300000000002 282.846 L 43.15100000000002 282.846 L 55.18300000000002 305.97 L 67.12100000000001 282.846 L 72.52600000000001 282.846 L 72.52600000000001 315.746 L 68.29600000000002 315.746 L 68.24900000000002 289.473 L 56.54600000000002 312.26800000000003 L 53.77300000000002 312.26800000000003 L 41.97600000000002 289.473 L 41.97600000000002 315.746 L 37.79300000000002 315.746 L 37.79300000000002 282.846 Z  M 96.68400000000003 315.746 L 96.68400000000003 312.26800000000003 Q 93.91100000000002 315.934 87.98900000000002 315.934 Q 85.40400000000002 315.934 83.45350000000002 314.947 Q 81.50300000000001 313.96 80.44550000000002 312.221 Q 79.38800000000002 310.48199999999997 79.38800000000002 308.32 Q 79.38800000000002 304.983 81.85550000000002 303.0325 Q 84.32300000000002 301.082 88.74100000000001 301.035 L 96.63700000000003 301.035 L 96.63700000000003 299.86 Q 96.63700000000003 297.228 95.01550000000002 295.7945 Q 93.39400000000002 294.361 90.29200000000003 294.361 Q 86.53200000000001 294.361 82.63100000000003 297.04 L 80.79800000000003 294.032 Q 83.47700000000002 292.293 85.75650000000002 291.5175 Q 88.03600000000003 290.742 91.18500000000002 290.742 Q 95.83800000000002 290.742 98.37600000000002 293.0215 Q 100.91400000000002 295.301 100.96100000000001 299.39 L 101.00800000000002 315.746 L 96.68400000000003 315.746 Z  M 88.88200000000002 312.315 Q 91.93700000000001 312.315 94.07550000000002 310.8345 Q 96.21400000000003 309.354 96.63700000000003 306.91 L 96.63700000000003 304.419 L 89.35200000000002 304.419 Q 86.39100000000002 304.419 84.95750000000001 305.312 Q 83.52400000000003 306.205 83.52400000000003 308.132 Q 83.52400000000003 310.059 84.98100000000002 311.187 Q 86.43800000000002 312.315 88.88200000000002 312.315 Z  M 122.62800000000001 290.742 Q 126.10600000000002 290.742 128.83200000000002 292.34000000000003 Q 131.55800000000002 293.938 133.062 296.805 Q 134.56600000000003 299.672 134.56600000000003 303.385 Q 134.56600000000003 307.051 133.08550000000002 309.8945 Q 131.60500000000002 312.738 128.90250000000003 314.3125 Q 126.20000000000002 315.887 122.72200000000001 315.887 Q 119.57300000000001 315.887 117.17600000000002 314.571 Q 114.77900000000001 313.255 113.41600000000001 310.811 L 113.41600000000001 324.86400000000003 L 109.04500000000002 324.86400000000003 L 109.04500000000002 290.883 L 113.41600000000001 290.883 L 113.41600000000001 295.818 Q 114.77900000000001 293.374 117.15250000000002 292.058 Q 119.52600000000001 290.742 122.62800000000001 290.742 Z  M 121.78200000000001 312.08 Q 124.17900000000002 312.08 126.08250000000001 310.952 Q 127.98600000000002 309.824 129.04350000000002 307.803 Q 130.101 305.782 130.101 303.244 Q 130.101 300.753 129.02 298.732 Q 127.93900000000002 296.711 126.05900000000001 295.583 Q 124.17900000000002 294.455 121.78200000000001 294.455 Q 119.38500000000002 294.455 117.48150000000001 295.583 Q 115.57800000000002 296.711 114.49700000000001 298.732 Q 113.41600000000001 300.753 113.41600000000001 303.244 Q 113.41600000000001 305.829 114.49700000000001 307.8265 Q 115.57800000000002 309.824 117.48150000000001 310.952 Q 119.38500000000002 312.08 121.78200000000001 312.08 Z "
          fill-rule="evenodd" fill="rgb(0,0,0)"/>
    <g style="isolation: isolate;">
        <path d=" M 259.304 315.746 L 259.304 312.26800000000003 Q 256.531 315.934 250.609 315.934 Q 248.024 315.934 246.0735 314.947 Q 244.123 313.96 243.06550000000001 312.221 Q 242.008 310.48199999999997 242.008 308.32 Q 242.008 304.983 244.4755 303.0325 Q 246.943 301.082 251.361 301.035 L 259.257 301.035 L 259.257 299.86 Q 259.257 297.228 257.6355 295.7945 Q 256.014 294.361 252.912 294.361 Q 249.15200000000002 294.361 245.251 297.04 L 243.418 294.032 Q 246.097 292.293 248.3765 291.5175 Q 250.656 290.742 253.805 290.742 Q 258.45799999999997 290.742 260.996 293.0215 Q 263.534 295.301 263.581 299.39 L 263.62800000000004 315.746 L 259.304 315.746 Z  M 251.502 312.315 Q 254.55700000000002 312.315 256.69550000000004 310.8345 Q 258.834 309.354 259.257 306.91 L 259.257 304.419 L 251.972 304.419 Q 249.011 304.419 247.57750000000001 305.312 Q 246.144 306.205 246.144 308.132 Q 246.144 310.059 247.601 311.187 Q 249.058 312.315 251.502 312.315 Z  M 267.294 290.883 L 271.947 290.883 L 279.41999999999996 311.422 L 286.846 290.883 L 291.264 290.883 L 281.582 315.746 L 277.023 315.746 L 267.294 290.883 Z  M 310.581 315.746 L 310.581 312.26800000000003 Q 307.808 315.934 301.88599999999997 315.934 Q 299.301 315.934 297.3505 314.947 Q 295.4 313.96 294.3425 312.221 Q 293.28499999999997 310.48199999999997 293.28499999999997 308.32 Q 293.28499999999997 304.983 295.7525 303.0325 Q 298.21999999999997 301.082 302.638 301.035 L 310.534 301.035 L 310.534 299.86 Q 310.534 297.228 308.91249999999997 295.7945 Q 307.291 294.361 304.18899999999996 294.361 Q 300.429 294.361 296.52799999999996 297.04 L 294.695 294.032 Q 297.37399999999997 292.293 299.6535 291.5175 Q 301.933 290.742 305.082 290.742 Q 309.735 290.742 312.27299999999997 293.0215 Q 314.811 295.301 314.858 299.39 L 314.905 315.746 L 310.581 315.746 Z  M 302.779 312.315 Q 305.834 312.315 307.97249999999997 310.8345 Q 310.111 309.354 310.534 306.91 L 310.534 304.419 L 303.24899999999997 304.419 Q 300.288 304.419 298.8545 305.312 Q 297.421 306.205 297.421 308.132 Q 297.421 310.059 298.878 311.187 Q 300.335 312.315 302.779 312.315 Z  M 322.707 290.883 L 327.07800000000003 290.883 L 327.07800000000003 315.746 L 322.707 315.746 L 322.707 290.883 Z  M 324.869 280.966 Q 326.044 280.966 326.8195 281.765 Q 327.595 282.564 327.595 283.786 Q 327.595 285.008 326.8195 285.807 Q 326.044 286.606 324.869 286.606 Q 323.694 286.606 322.9185 285.807 Q 322.14300000000003 285.008 322.14300000000003 283.786 Q 322.14300000000003 282.564 322.9185 281.765 Q 323.694 280.966 324.869 280.966 Z  M 335.82 280.872 L 340.191 280.872 L 340.191 315.746 L 335.82 315.746 L 335.82 280.872 Z  M 364.16099999999994 315.746 L 364.16099999999994 312.26800000000003 Q 361.388 315.934 355.46599999999995 315.934 Q 352.881 315.934 350.9305 314.947 Q 348.97999999999996 313.96 347.92249999999996 312.221 Q 346.86499999999995 310.48199999999997 346.86499999999995 308.32 Q 346.86499999999995 304.983 349.3325 303.0325 Q 351.79999999999995 301.082 356.21799999999996 301.035 L 364.114 301.035 L 364.114 299.86 Q 364.114 297.228 362.49249999999995 295.7945 Q 360.871 294.361 357.76899999999995 294.361 Q 354.00899999999996 294.361 350.10799999999995 297.04 L 348.275 294.032 Q 350.95399999999995 292.293 353.2335 291.5175 Q 355.513 290.742 358.662 290.742 Q 363.315 290.742 365.85299999999995 293.0215 Q 368.39099999999996 295.301 368.438 299.39 L 368.48499999999996 315.746 L 364.16099999999994 315.746 Z  M 356.359 312.315 Q 359.414 312.315 361.55249999999995 310.8345 Q 363.691 309.354 364.114 306.91 L 364.114 304.419 L 356.82899999999995 304.419 Q 353.868 304.419 352.43449999999996 305.312 Q 351.001 306.205 351.001 308.132 Q 351.001 310.059 352.45799999999997 311.187 Q 353.91499999999996 312.315 356.359 312.315 Z  M 390.105 290.742 Q 393.58299999999997 290.742 396.30899999999997 292.34000000000003 Q 399.03499999999997 293.938 400.539 296.805 Q 402.043 299.672 402.043 303.385 Q 402.043 307.051 400.5625 309.8945 Q 399.082 312.738 396.3795 314.3125 Q 393.677 315.887 390.199 315.887 Q 387.05 315.887 384.653 314.571 Q 382.256 313.255 380.893 310.811 L 380.893 315.746 L 376.522 315.746 L 376.522 280.872 L 380.893 280.872 L 380.893 295.818 Q 382.256 293.374 384.6295 292.058 Q 387.003 290.742 390.105 290.742 Z  M 389.259 312.08 Q 391.656 312.08 393.5595 310.952 Q 395.46299999999997 309.824 396.52049999999997 307.803 Q 397.578 305.782 397.578 303.244 Q 397.578 300.753 396.497 298.732 Q 395.416 296.711 393.536 295.583 Q 391.656 294.455 389.259 294.455 Q 386.86199999999997 294.455 384.9585 295.583 Q 383.055 296.711 381.974 298.732 Q 380.893 300.753 380.893 303.244 Q 380.893 305.829 381.974 307.8265 Q 383.055 309.824 384.9585 310.952 Q 386.86199999999997 312.08 389.259 312.08 Z  M 408.388 280.872 L 412.75899999999996 280.872 L 412.75899999999996 315.746 L 408.388 315.746 L 408.388 280.872 Z  M 431.51199999999994 290.742 Q 437.29299999999995 290.742 440.25399999999996 294.1495 Q 443.215 297.557 443.215 303.62 Q 443.215 304.56 443.16799999999995 305.03 L 423.52199999999993 305.03 Q 424.03899999999993 308.367 426.3185 310.341 Q 428.59799999999996 312.315 431.93499999999995 312.315 Q 434.14399999999995 312.315 436.04749999999996 311.516 Q 437.95099999999996 310.717 439.36099999999993 309.26 L 441.758 311.751 Q 439.92499999999995 313.725 437.34 314.806 Q 434.75499999999994 315.887 431.60599999999994 315.887 Q 427.93999999999994 315.887 425.09649999999993 314.3125 Q 422.253 312.738 420.6785 309.871 Q 419.104 307.004 419.104 303.338 Q 419.104 299.672 420.6785 296.8285 Q 422.253 293.985 425.073 292.3635 Q 427.893 290.742 431.51199999999994 290.742 Z  M 439.26699999999994 301.646 Q 439.07899999999995 298.262 437.01099999999997 296.3115 Q 434.943 294.361 431.55899999999997 294.361 Q 428.26899999999995 294.361 426.08349999999996 296.335 Q 423.89799999999997 298.309 423.47499999999997 301.646 L 439.26699999999994 301.646 Z  M 166.80800000000002 290.742 Q 171.17900000000003 290.742 173.67000000000002 293.3035 Q 176.16100000000003 295.865 176.16100000000003 300.377 L 176.16100000000003 315.746 L 171.79000000000002 315.746 L 171.79000000000002 301.552 Q 171.79000000000002 298.403 170.02750000000003 296.6405 Q 168.26500000000001 294.878 165.163 294.878 Q 161.82600000000002 294.925 159.73450000000003 297.0165 Q 157.64300000000003 299.108 157.36100000000002 302.445 L 157.36100000000002 315.746 L 152.99 315.746 L 152.99 290.883 L 157.36100000000002 290.883 L 157.36100000000002 296.147 Q 159.85200000000003 290.836 166.80800000000002 290.742 Z  M 194.30300000000003 290.742 Q 198.01600000000002 290.742 200.90650000000005 292.34000000000003 Q 203.79700000000003 293.938 205.41850000000005 296.7815 Q 207.04000000000002 299.625 207.04000000000002 303.291 Q 207.04000000000002 306.957 205.41850000000005 309.824 Q 203.79700000000003 312.69100000000003 200.90650000000005 314.289 Q 198.01600000000002 315.887 194.30300000000003 315.887 Q 190.54300000000003 315.887 187.65250000000003 314.289 Q 184.76200000000003 312.69100000000003 183.14050000000003 309.8475 Q 181.51900000000003 307.004 181.51900000000003 303.291 Q 181.51900000000003 299.625 183.14050000000003 296.7815 Q 184.76200000000003 293.938 187.65250000000003 292.34000000000003 Q 190.54300000000003 290.742 194.30300000000003 290.742 Z  M 194.30300000000003 294.549 Q 191.85900000000004 294.549 189.95550000000003 295.677 Q 188.05200000000002 296.805 186.99450000000004 298.8025 Q 185.93700000000004 300.8 185.93700000000004 303.338 Q 185.93700000000004 305.923 186.99450000000004 307.944 Q 188.05200000000002 309.96500000000003 189.95550000000003 311.0695 Q 191.85900000000004 312.174 194.30300000000003 312.174 Q 196.70000000000005 312.174 198.60350000000003 311.0695 Q 200.50700000000003 309.96500000000003 201.56450000000004 307.944 Q 202.62200000000004 305.923 202.62200000000004 303.338 Q 202.62200000000004 300.8 201.56450000000004 298.8025 Q 200.50700000000003 296.805 198.60350000000003 295.677 Q 196.70000000000005 294.549 194.30300000000003 294.549 Z  M 226.49800000000005 314.101 Q 223.63100000000006 315.934 220.67000000000004 315.934 Q 217.70900000000006 315.934 215.87600000000003 314.1715 Q 214.04300000000003 312.409 214.04300000000003 308.837 L 214.04300000000003 295.06600000000003 L 210.51800000000006 295.06600000000003 L 210.51800000000006 291.729 L 214.04300000000003 291.729 L 214.04300000000003 285.055 L 218.46100000000004 285.055 L 218.46100000000004 291.729 L 226.07500000000005 291.729 L 226.07500000000005 295.06600000000003 L 218.46100000000004 295.06600000000003 L 218.46100000000004 308.038 Q 218.46100000000004 310.106 219.21300000000005 310.999 Q 219.96500000000006 311.892 221.46900000000005 311.892 Q 223.25500000000005 311.892 225.32300000000004 310.717 L 226.49800000000005 314.101 Z  M 37.79300000000002 282.846 L 43.15100000000002 282.846 L 55.18300000000002 305.97 L 67.12100000000001 282.846 L 72.52600000000001 282.846 L 72.52600000000001 315.746 L 68.29600000000002 315.746 L 68.24900000000002 289.473 L 56.54600000000002 312.26800000000003 L 53.77300000000002 312.26800000000003 L 41.97600000000002 289.473 L 41.97600000000002 315.746 L 37.79300000000002 315.746 L 37.79300000000002 282.846 Z  M 96.68400000000003 315.746 L 96.68400000000003 312.26800000000003 Q 93.91100000000002 315.934 87.98900000000002 315.934 Q 85.40400000000002 315.934 83.45350000000002 314.947 Q 81.50300000000001 313.96 80.44550000000002 312.221 Q 79.38800000000002 310.48199999999997 79.38800000000002 308.32 Q 79.38800000000002 304.983 81.85550000000002 303.0325 Q 84.32300000000002 301.082 88.74100000000001 301.035 L 96.63700000000003 301.035 L 96.63700000000003 299.86 Q 96.63700000000003 297.228 95.01550000000002 295.7945 Q 93.39400000000002 294.361 90.29200000000003 294.361 Q 86.53200000000001 294.361 82.63100000000003 297.04 L 80.79800000000003 294.032 Q 83.47700000000002 292.293 85.75650000000002 291.5175 Q 88.03600000000003 290.742 91.18500000000002 290.742 Q 95.83800000000002 290.742 98.37600000000002 293.0215 Q 100.91400000000002 295.301 100.96100000000001 299.39 L 101.00800000000002 315.746 L 96.68400000000003 315.746 Z  M 88.88200000000002 312.315 Q 91.93700000000001 312.315 94.07550000000002 310.8345 Q 96.21400000000003 309.354 96.63700000000003 306.91 L 96.63700000000003 304.419 L 89.35200000000002 304.419 Q 86.39100000000002 304.419 84.95750000000001 305.312 Q 83.52400000000003 306.205 83.52400000000003 308.132 Q 83.52400000000003 310.059 84.98100000000002 311.187 Q 86.43800000000002 312.315 88.88200000000002 312.315 Z  M 122.62800000000001 290.742 Q 126.10600000000002 290.742 128.83200000000002 292.34000000000003 Q 131.55800000000002 293.938 133.062 296.805 Q 134.56600000000003 299.672 134.56600000000003 303.385 Q 134.56600000000003 307.051 133.08550000000002 309.8945 Q 131.60500000000002 312.738 128.90250000000003 314.3125 Q 126.20000000000002 315.887 122.72200000000001 315.887 Q 119.57300000000001 315.887 117.17600000000002 314.571 Q 114.77900000000001 313.255 113.41600000000001 310.811 L 113.41600000000001 324.86400000000003 L 109.04500000000002 324.86400000000003 L 109.04500000000002 290.883 L 113.41600000000001 290.883 L 113.41600000000001 295.818 Q 114.77900000000001 293.374 117.15250000000002 292.058 Q 119.52600000000001 290.742 122.62800000000001 290.742 Z  M 121.78200000000001 312.08 Q 124.17900000000002 312.08 126.08250000000001 310.952 Q 127.98600000000002 309.824 129.04350000000002 307.803 Q 130.101 305.782 130.101 303.244 Q 130.101 300.753 129.02 298.732 Q 127.93900000000002 296.711 126.05900000000001 295.583 Q 124.17900000000002 294.455 121.78200000000001 294.455 Q 119.38500000000002 294.455 117.48150000000001 295.583 Q 115.57800000000002 296.711 114.49700000000001 298.732 Q 113.41600000000001 300.753 113.41600000000001 303.244 Q 113.41600000000001 305.829 114.49700000000001 307.8265 Q 115.57800000000002 309.824 117.48150000000001 310.952 Q 119.38500000000002 312.08 121.78200000000001 312.08 Z "
              fill-rule="evenodd" fill="none" vector-effect="non-scaling-stroke" stroke-width="1" stroke="rgb(0,0,0)"
              stroke-linejoin="miter" stroke-linecap="square" stroke-miterlimit="3"/>
        <path d=" M 259.304 315.746 L 259.304 312.26800000000003 Q 256.531 315.934 250.609 315.934 Q 248.024 315.934 246.0735 314.947 Q 244.123 313.96 243.06550000000001 312.221 Q 242.008 310.48199999999997 242.008 308.32 Q 242.008 304.983 244.4755 303.0325 Q 246.943 301.082 251.361 301.035 L 259.257 301.035 L 259.257 299.86 Q 259.257 297.228 257.6355 295.7945 Q 256.014 294.361 252.912 294.361 Q 249.15200000000002 294.361 245.251 297.04 L 243.418 294.032 Q 246.097 292.293 248.3765 291.5175 Q 250.656 290.742 253.805 290.742 Q 258.45799999999997 290.742 260.996 293.0215 Q 263.534 295.301 263.581 299.39 L 263.62800000000004 315.746 L 259.304 315.746 Z  M 251.502 312.315 Q 254.55700000000002 312.315 256.69550000000004 310.8345 Q 258.834 309.354 259.257 306.91 L 259.257 304.419 L 251.972 304.419 Q 249.011 304.419 247.57750000000001 305.312 Q 246.144 306.205 246.144 308.132 Q 246.144 310.059 247.601 311.187 Q 249.058 312.315 251.502 312.315 Z  M 267.294 290.883 L 271.947 290.883 L 279.41999999999996 311.422 L 286.846 290.883 L 291.264 290.883 L 281.582 315.746 L 277.023 315.746 L 267.294 290.883 Z  M 310.581 315.746 L 310.581 312.26800000000003 Q 307.808 315.934 301.88599999999997 315.934 Q 299.301 315.934 297.3505 314.947 Q 295.4 313.96 294.3425 312.221 Q 293.28499999999997 310.48199999999997 293.28499999999997 308.32 Q 293.28499999999997 304.983 295.7525 303.0325 Q 298.21999999999997 301.082 302.638 301.035 L 310.534 301.035 L 310.534 299.86 Q 310.534 297.228 308.91249999999997 295.7945 Q 307.291 294.361 304.18899999999996 294.361 Q 300.429 294.361 296.52799999999996 297.04 L 294.695 294.032 Q 297.37399999999997 292.293 299.6535 291.5175 Q 301.933 290.742 305.082 290.742 Q 309.735 290.742 312.27299999999997 293.0215 Q 314.811 295.301 314.858 299.39 L 314.905 315.746 L 310.581 315.746 Z  M 302.779 312.315 Q 305.834 312.315 307.97249999999997 310.8345 Q 310.111 309.354 310.534 306.91 L 310.534 304.419 L 303.24899999999997 304.419 Q 300.288 304.419 298.8545 305.312 Q 297.421 306.205 297.421 308.132 Q 297.421 310.059 298.878 311.187 Q 300.335 312.315 302.779 312.315 Z  M 322.707 290.883 L 327.07800000000003 290.883 L 327.07800000000003 315.746 L 322.707 315.746 L 322.707 290.883 Z  M 324.869 280.966 Q 326.044 280.966 326.8195 281.765 Q 327.595 282.564 327.595 283.786 Q 327.595 285.008 326.8195 285.807 Q 326.044 286.606 324.869 286.606 Q 323.694 286.606 322.9185 285.807 Q 322.14300000000003 285.008 322.14300000000003 283.786 Q 322.14300000000003 282.564 322.9185 281.765 Q 323.694 280.966 324.869 280.966 Z  M 335.82 280.872 L 340.191 280.872 L 340.191 315.746 L 335.82 315.746 L 335.82 280.872 Z  M 364.16099999999994 315.746 L 364.16099999999994 312.26800000000003 Q 361.388 315.934 355.46599999999995 315.934 Q 352.881 315.934 350.9305 314.947 Q 348.97999999999996 313.96 347.92249999999996 312.221 Q 346.86499999999995 310.48199999999997 346.86499999999995 308.32 Q 346.86499999999995 304.983 349.3325 303.0325 Q 351.79999999999995 301.082 356.21799999999996 301.035 L 364.114 301.035 L 364.114 299.86 Q 364.114 297.228 362.49249999999995 295.7945 Q 360.871 294.361 357.76899999999995 294.361 Q 354.00899999999996 294.361 350.10799999999995 297.04 L 348.275 294.032 Q 350.95399999999995 292.293 353.2335 291.5175 Q 355.513 290.742 358.662 290.742 Q 363.315 290.742 365.85299999999995 293.0215 Q 368.39099999999996 295.301 368.438 299.39 L 368.48499999999996 315.746 L 364.16099999999994 315.746 Z  M 356.359 312.315 Q 359.414 312.315 361.55249999999995 310.8345 Q 363.691 309.354 364.114 306.91 L 364.114 304.419 L 356.82899999999995 304.419 Q 353.868 304.419 352.43449999999996 305.312 Q 351.001 306.205 351.001 308.132 Q 351.001 310.059 352.45799999999997 311.187 Q 353.91499999999996 312.315 356.359 312.315 Z  M 390.105 290.742 Q 393.58299999999997 290.742 396.30899999999997 292.34000000000003 Q 399.03499999999997 293.938 400.539 296.805 Q 402.043 299.672 402.043 303.385 Q 402.043 307.051 400.5625 309.8945 Q 399.082 312.738 396.3795 314.3125 Q 393.677 315.887 390.199 315.887 Q 387.05 315.887 384.653 314.571 Q 382.256 313.255 380.893 310.811 L 380.893 315.746 L 376.522 315.746 L 376.522 280.872 L 380.893 280.872 L 380.893 295.818 Q 382.256 293.374 384.6295 292.058 Q 387.003 290.742 390.105 290.742 Z  M 389.259 312.08 Q 391.656 312.08 393.5595 310.952 Q 395.46299999999997 309.824 396.52049999999997 307.803 Q 397.578 305.782 397.578 303.244 Q 397.578 300.753 396.497 298.732 Q 395.416 296.711 393.536 295.583 Q 391.656 294.455 389.259 294.455 Q 386.86199999999997 294.455 384.9585 295.583 Q 383.055 296.711 381.974 298.732 Q 380.893 300.753 380.893 303.244 Q 380.893 305.829 381.974 307.8265 Q 383.055 309.824 384.9585 310.952 Q 386.86199999999997 312.08 389.259 312.08 Z  M 408.388 280.872 L 412.75899999999996 280.872 L 412.75899999999996 315.746 L 408.388 315.746 L 408.388 280.872 Z  M 431.51199999999994 290.742 Q 437.29299999999995 290.742 440.25399999999996 294.1495 Q 443.215 297.557 443.215 303.62 Q 443.215 304.56 443.16799999999995 305.03 L 423.52199999999993 305.03 Q 424.03899999999993 308.367 426.3185 310.341 Q 428.59799999999996 312.315 431.93499999999995 312.315 Q 434.14399999999995 312.315 436.04749999999996 311.516 Q 437.95099999999996 310.717 439.36099999999993 309.26 L 441.758 311.751 Q 439.92499999999995 313.725 437.34 314.806 Q 434.75499999999994 315.887 431.60599999999994 315.887 Q 427.93999999999994 315.887 425.09649999999993 314.3125 Q 422.253 312.738 420.6785 309.871 Q 419.104 307.004 419.104 303.338 Q 419.104 299.672 420.6785 296.8285 Q 422.253 293.985 425.073 292.3635 Q 427.893 290.742 431.51199999999994 290.742 Z  M 439.26699999999994 301.646 Q 439.07899999999995 298.262 437.01099999999997 296.3115 Q 434.943 294.361 431.55899999999997 294.361 Q 428.26899999999995 294.361 426.08349999999996 296.335 Q 423.89799999999997 298.309 423.47499999999997 301.646 L 439.26699999999994 301.646 Z  M 166.80800000000002 290.742 Q 171.17900000000003 290.742 173.67000000000002 293.3035 Q 176.16100000000003 295.865 176.16100000000003 300.377 L 176.16100000000003 315.746 L 171.79000000000002 315.746 L 171.79000000000002 301.552 Q 171.79000000000002 298.403 170.02750000000003 296.6405 Q 168.26500000000001 294.878 165.163 294.878 Q 161.82600000000002 294.925 159.73450000000003 297.0165 Q 157.64300000000003 299.108 157.36100000000002 302.445 L 157.36100000000002 315.746 L 152.99 315.746 L 152.99 290.883 L 157.36100000000002 290.883 L 157.36100000000002 296.147 Q 159.85200000000003 290.836 166.80800000000002 290.742 Z  M 194.30300000000003 290.742 Q 198.01600000000002 290.742 200.90650000000005 292.34000000000003 Q 203.79700000000003 293.938 205.41850000000005 296.7815 Q 207.04000000000002 299.625 207.04000000000002 303.291 Q 207.04000000000002 306.957 205.41850000000005 309.824 Q 203.79700000000003 312.69100000000003 200.90650000000005 314.289 Q 198.01600000000002 315.887 194.30300000000003 315.887 Q 190.54300000000003 315.887 187.65250000000003 314.289 Q 184.76200000000003 312.69100000000003 183.14050000000003 309.8475 Q 181.51900000000003 307.004 181.51900000000003 303.291 Q 181.51900000000003 299.625 183.14050000000003 296.7815 Q 184.76200000000003 293.938 187.65250000000003 292.34000000000003 Q 190.54300000000003 290.742 194.30300000000003 290.742 Z  M 194.30300000000003 294.549 Q 191.85900000000004 294.549 189.95550000000003 295.677 Q 188.05200000000002 296.805 186.99450000000004 298.8025 Q 185.93700000000004 300.8 185.93700000000004 303.338 Q 185.93700000000004 305.923 186.99450000000004 307.944 Q 188.05200000000002 309.96500000000003 189.95550000000003 311.0695 Q 191.85900000000004 312.174 194.30300000000003 312.174 Q 196.70000000000005 312.174 198.60350000000003 311.0695 Q 200.50700000000003 309.96500000000003 201.56450000000004 307.944 Q 202.62200000000004 305.923 202.62200000000004 303.338 Q 202.62200000000004 300.8 201.56450000000004 298.8025 Q 200.50700000000003 296.805 198.60350000000003 295.677 Q 196.70000000000005 294.549 194.30300000000003 294.549 Z  M 226.49800000000005 314.101 Q 223.63100000000006 315.934 220.67000000000004 315.934 Q 217.70900000000006 315.934 215.87600000000003 314.1715 Q 214.04300000000003 312.409 214.04300000000003 308.837 L 214.04300000000003 295.06600000000003 L 210.51800000000006 295.06600000000003 L 210.51800000000006 291.729 L 214.04300000000003 291.729 L 214.04300000000003 285.055 L 218.46100000000004 285.055 L 218.46100000000004 291.729 L 226.07500000000005 291.729 L 226.07500000000005 295.06600000000003 L 218.46100000000004 295.06600000000003 L 218.46100000000004 308.038 Q 218.46100000000004 310.106 219.21300000000005 310.999 Q 219.96500000000006 311.892 221.46900000000005 311.892 Q 223.25500000000005 311.892 225.32300000000004 310.717 L 226.49800000000005 314.101 Z  M 37.79300000000002 282.846 L 43.15100000000002 282.846 L 55.18300000000002 305.97 L 67.12100000000001 282.846 L 72.52600000000001 282.846 L 72.52600000000001 315.746 L 68.29600000000002 315.746 L 68.24900000000002 289.473 L 56.54600000000002 312.26800000000003 L 53.77300000000002 312.26800000000003 L 41.97600000000002 289.473 L 41.97600000000002 315.746 L 37.79300000000002 315.746 L 37.79300000000002 282.846 Z  M 96.68400000000003 315.746 L 96.68400000000003 312.26800000000003 Q 93.91100000000002 315.934 87.98900000000002 315.934 Q 85.40400000000002 315.934 83.45350000000002 314.947 Q 81.50300000000001 313.96 80.44550000000002 312.221 Q 79.38800000000002 310.48199999999997 79.38800000000002 308.32 Q 79.38800000000002 304.983 81.85550000000002 303.0325 Q 84.32300000000002 301.082 88.74100000000001 301.035 L 96.63700000000003 301.035 L 96.63700000000003 299.86 Q 96.63700000000003 297.228 95.01550000000002 295.7945 Q 93.39400000000002 294.361 90.29200000000003 294.361 Q 86.53200000000001 294.361 82.63100000000003 297.04 L 80.79800000000003 294.032 Q 83.47700000000002 292.293 85.75650000000002 291.5175 Q 88.03600000000003 290.742 91.18500000000002 290.742 Q 95.83800000000002 290.742 98.37600000000002 293.0215 Q 100.91400000000002 295.301 100.96100000000001 299.39 L 101.00800000000002 315.746 L 96.68400000000003 315.746 Z  M 88.88200000000002 312.315 Q 91.93700000000001 312.315 94.07550000000002 310.8345 Q 96.21400000000003 309.354 96.63700000000003 306.91 L 96.63700000000003 304.419 L 89.35200000000002 304.419 Q 86.39100000000002 304.419 84.95750000000001 305.312 Q 83.52400000000003 306.205 83.52400000000003 308.132 Q 83.52400000000003 310.059 84.98100000000002 311.187 Q 86.43800000000002 312.315 88.88200000000002 312.315 Z  M 122.62800000000001 290.742 Q 126.10600000000002 290.742 128.83200000000002 292.34000000000003 Q 131.55800000000002 293.938 133.062 296.805 Q 134.56600000000003 299.672 134.56600000000003 303.385 Q 134.56600000000003 307.051 133.08550000000002 309.8945 Q 131.60500000000002 312.738 128.90250000000003 314.3125 Q 126.20000000000002 315.887 122.72200000000001 315.887 Q 119.57300000000001 315.887 117.17600000000002 314.571 Q 114.77900000000001 313.255 113.41600000000001 310.811 L 113.41600000000001 324.86400000000003 L 109.04500000000002 324.86400000000003 L 109.04500000000002 290.883 L 113.41600000000001 290.883 L 113.41600000000001 295.818 Q 114.77900000000001 293.374 117.15250000000002 292.058 Q 119.52600000000001 290.742 122.62800000000001 290.742 Z  M 121.78200000000001 312.08 Q 124.17900000000002 312.08 126.08250000000001 310.952 Q 127.98600000000002 309.824 129.04350000000002 307.803 Q 130.101 305.782 130.101 303.244 Q 130.101 300.753 129.02 298.732 Q 127.93900000000002 296.711 126.05900000000001 295.583 Q 124.17900000000002 294.455 121.78200000000001 294.455 Q 119.38500000000002 294.455 117.48150000000001 295.583 Q 115.57800000000002 296.711 114.49700000000001 298.732 Q 113.41600000000001 300.753 113.41600000000001 303.244 Q 113.41600000000001 305.829 114.49700000000001 307.8265 Q 115.57800000000002 309.824 117.48150000000001 310.952 Q 119.38500000000002 312.08 121.78200000000001 312.08 Z "
              fill-rule="evenodd" fill="none" vector-effect="non-scaling-stroke" stroke-width="1" stroke="rgb(0,0,0)"
              stroke-linejoin="miter" stroke-linecap="square" stroke-miterlimit="3"/>
    </g>
    <line x1="125.98902047115013" y1="39.261424834847176" x2="355.02318364919233" y2="211.66626195238445"
          vector-effect="non-scaling-stroke" stroke-width="40" stroke="rgb(255,255,255)" stroke-linejoin="miter"
          stroke-linecap="square" stroke-miterlimit="3"/>
    <line x1="120" y1="47.7625" x2="349.03417205810547" y2="220.1673385620117" vector-effect="non-scaling-stroke"
          stroke-width="20" stroke="rgb(0,0,0)" stroke-linejoin="miter" stroke-linecap="square" stroke-miterlimit="3"/>
</svg>