<?xml version="1.0" standalone="no"?><!-- Generator: Gravit.io -->
<svg xmlns="http://www.w3.org/2000/svg" style="isolation:isolate" viewBox="0 0 480 350" width="480" height="350">
    <path d=" M 269.38100000000003 247.52459213569776 L 269.38100000000003 245.60059213569775 Q 267.847 247.62859213569774 264.571 247.62859213569774 Q 263.141 247.62859213569774 262.062 247.08259213569775 Q 260.98300000000006 246.53659213569776 260.398 245.57459213569774 Q 259.813 244.61259213569775 259.813 243.41659213569775 Q 259.813 241.57059213569775 261.178 240.49159213569774 Q 262.543 239.41259213569776 264.987 239.38659213569775 L 269.355 239.38659213569775 L 269.355 238.73659213569775 Q 269.355 237.28059213569776 268.458 236.48759213569775 Q 267.56100000000004 235.69459213569775 265.845 235.69459213569775 Q 263.765 235.69459213569775 261.607 237.17659213569775 L 260.593 235.51259213569776 Q 262.07500000000005 234.55059213569774 263.336 234.12159213569777 Q 264.597 233.69259213569777 266.33900000000006 233.69259213569777 Q 268.913 233.69259213569777 270.317 234.95359213569776 Q 271.721 236.21459213569776 271.747 238.47659213569776 L 271.773 247.52459213569776 L 269.38100000000003 247.52459213569776 Z  M 265.06500000000005 245.62659213569776 Q 266.755 245.62659213569776 267.938 244.80759213569775 Q 269.121 243.98859213569776 269.355 242.63659213569775 L 269.355 241.25859213569777 L 265.32500000000005 241.25859213569777 Q 263.687 241.25859213569777 262.894 241.75259213569774 Q 262.101 242.24659213569777 262.101 243.31259213569774 Q 262.101 244.37859213569774 262.90700000000004 245.00259213569774 Q 263.713 245.62659213569776 265.06500000000005 245.62659213569776 Z  M 273.80100000000004 233.77059213569777 L 276.375 233.77059213569777 L 280.509 245.13259213569776 L 284.617 233.77059213569777 L 287.06100000000004 233.77059213569777 L 281.70500000000004 247.52459213569776 L 279.183 247.52459213569776 L 273.80100000000004 233.77059213569777 Z  M 297.747 247.52459213569776 L 297.747 245.60059213569775 Q 296.21299999999997 247.62859213569774 292.937 247.62859213569774 Q 291.507 247.62859213569774 290.428 247.08259213569775 Q 289.34900000000005 246.53659213569776 288.764 245.57459213569774 Q 288.179 244.61259213569775 288.179 243.41659213569775 Q 288.179 241.57059213569775 289.544 240.49159213569774 Q 290.909 239.41259213569776 293.353 239.38659213569775 L 297.721 239.38659213569775 L 297.721 238.73659213569775 Q 297.721 237.28059213569776 296.824 236.48759213569775 Q 295.927 235.69459213569775 294.211 235.69459213569775 Q 292.131 235.69459213569775 289.973 237.17659213569775 L 288.959 235.51259213569776 Q 290.44100000000003 234.55059213569774 291.702 234.12159213569777 Q 292.96299999999997 233.69259213569777 294.70500000000004 233.69259213569777 Q 297.279 233.69259213569777 298.683 234.95359213569776 Q 300.087 236.21459213569776 300.113 238.47659213569776 L 300.139 247.52459213569776 L 297.747 247.52459213569776 Z  M 293.43100000000004 245.62659213569776 Q 295.121 245.62659213569776 296.304 244.80759213569775 Q 297.48699999999997 243.98859213569776 297.721 242.63659213569775 L 297.721 241.25859213569777 L 293.69100000000003 241.25859213569777 Q 292.053 241.25859213569777 291.26 241.75259213569774 Q 290.467 242.24659213569777 290.467 243.31259213569774 Q 290.467 244.37859213569774 291.273 245.00259213569774 Q 292.079 245.62659213569776 293.43100000000004 245.62659213569776 Z  M 304.45500000000004 233.77059213569777 L 306.873 233.77059213569777 L 306.873 247.52459213569776 L 304.45500000000004 247.52459213569776 L 304.45500000000004 233.77059213569777 Z  M 305.651 228.28459213569775 Q 306.301 228.28459213569775 306.73 228.72659213569776 Q 307.159 229.16859213569776 307.159 229.84459213569775 Q 307.159 230.52059213569777 306.73 230.96259213569775 Q 306.301 231.40459213569775 305.651 231.40459213569775 Q 305.001 231.40459213569775 304.572 230.96259213569775 Q 304.14300000000003 230.52059213569777 304.14300000000003 229.84459213569775 Q 304.14300000000003 229.16859213569776 304.572 228.72659213569776 Q 305.001 228.28459213569775 305.651 228.28459213569775 Z  M 311.709 228.23259213569776 L 314.12699999999995 228.23259213569776 L 314.12699999999995 247.52459213569776 L 311.709 247.52459213569776 L 311.709 228.23259213569776 Z  M 327.387 247.52459213569776 L 327.387 245.60059213569775 Q 325.85299999999995 247.62859213569774 322.577 247.62859213569774 Q 321.147 247.62859213569774 320.068 247.08259213569775 Q 318.98900000000003 246.53659213569776 318.404 245.57459213569774 Q 317.81899999999996 244.61259213569775 317.81899999999996 243.41659213569775 Q 317.81899999999996 241.57059213569775 319.18399999999997 240.49159213569774 Q 320.549 239.41259213569776 322.993 239.38659213569775 L 327.361 239.38659213569775 L 327.361 238.73659213569775 Q 327.361 237.28059213569776 326.464 236.48759213569775 Q 325.567 235.69459213569775 323.851 235.69459213569775 Q 321.77099999999996 235.69459213569775 319.613 237.17659213569775 L 318.599 235.51259213569776 Q 320.081 234.55059213569774 321.342 234.12159213569777 Q 322.60299999999995 233.69259213569777 324.345 233.69259213569777 Q 326.919 233.69259213569777 328.323 234.95359213569776 Q 329.727 236.21459213569776 329.753 238.47659213569776 L 329.779 247.52459213569776 L 327.387 247.52459213569776 Z  M 323.071 245.62659213569776 Q 324.76099999999997 245.62659213569776 325.94399999999996 244.80759213569775 Q 327.12699999999995 243.98859213569776 327.361 242.63659213569775 L 327.361 241.25859213569777 L 323.331 241.25859213569777 Q 321.693 241.25859213569777 320.9 241.75259213569774 Q 320.10699999999997 242.24659213569777 320.10699999999997 243.31259213569774 Q 320.10699999999997 244.37859213569774 320.913 245.00259213569774 Q 321.719 245.62659213569776 323.071 245.62659213569776 Z  M 341.739 233.69259213569777 Q 343.663 233.69259213569777 345.171 234.57659213569775 Q 346.679 235.46059213569777 347.51099999999997 237.04659213569775 Q 348.34299999999996 238.63259213569776 348.34299999999996 240.68659213569777 Q 348.34299999999996 242.71459213569776 347.524 244.28759213569776 Q 346.705 245.86059213569774 345.21 246.73159213569775 Q 343.715 247.60259213569776 341.791 247.60259213569776 Q 340.049 247.60259213569776 338.72299999999996 246.87459213569775 Q 337.397 246.14659213569774 336.643 244.79459213569777 L 336.643 247.52459213569776 L 334.225 247.52459213569776 L 334.225 228.23259213569776 L 336.643 228.23259213569776 L 336.643 236.50059213569776 Q 337.397 235.14859213569775 338.71 234.42059213569775 Q 340.023 233.69259213569777 341.739 233.69259213569777 Z  M 341.27099999999996 245.49659213569777 Q 342.597 245.49659213569777 343.65 244.87259213569774 Q 344.703 244.24859213569775 345.288 243.13059213569775 Q 345.873 242.01259213569776 345.873 240.60859213569776 Q 345.873 239.23059213569775 345.275 238.11259213569775 Q 344.677 236.99459213569776 343.637 236.37059213569776 Q 342.597 235.74659213569777 341.27099999999996 235.74659213569777 Q 339.945 235.74659213569777 338.892 236.37059213569776 Q 337.839 236.99459213569776 337.241 238.11259213569775 Q 336.643 239.23059213569775 336.643 240.60859213569776 Q 336.643 242.03859213569774 337.241 243.14359213569776 Q 337.839 244.24859213569775 338.892 244.87259213569774 Q 339.945 245.49659213569777 341.27099999999996 245.49659213569777 Z  M 351.85299999999995 228.23259213569776 L 354.27099999999996 228.23259213569776 L 354.27099999999996 247.52459213569776 L 351.85299999999995 247.52459213569776 L 351.85299999999995 228.23259213569776 Z  M 364.645 233.69259213569777 Q 367.84299999999996 233.69259213569777 369.481 235.57759213569776 Q 371.11899999999997 237.46259213569775 371.11899999999997 240.81659213569776 Q 371.11899999999997 241.33659213569774 371.09299999999996 241.59659213569776 L 360.22499999999997 241.59659213569776 Q 360.51099999999997 243.44259213569777 361.772 244.53459213569775 Q 363.03299999999996 245.62659213569776 364.87899999999996 245.62659213569776 Q 366.10099999999994 245.62659213569776 367.154 245.18459213569776 Q 368.207 244.74259213569775 368.98699999999997 243.93659213569777 L 370.313 245.31459213569775 Q 369.299 246.40659213569776 367.86899999999997 247.00459213569775 Q 366.43899999999996 247.60259213569776 364.69699999999995 247.60259213569776 Q 362.669 247.60259213569776 361.09599999999995 246.73159213569775 Q 359.52299999999997 245.86059213569774 358.652 244.27459213569776 Q 357.78099999999995 242.68859213569775 357.78099999999995 240.66059213569775 Q 357.78099999999995 238.63259213569776 358.652 237.05959213569776 Q 359.52299999999997 235.48659213569775 361.08299999999997 234.58959213569776 Q 362.643 233.69259213569777 364.645 233.69259213569777 Z  M 368.93499999999995 239.72459213569775 Q 368.83099999999996 237.85259213569776 367.68699999999995 236.77359213569775 Q 366.54299999999995 235.69459213569775 364.671 235.69459213569775 Q 362.85099999999994 235.69459213569775 361.64199999999994 236.78659213569776 Q 360.433 237.87859213569774 360.19899999999996 239.72459213569775 L 368.93499999999995 239.72459213569775 Z  M 218.21300000000002 233.69259213569777 Q 220.631 233.69259213569777 222.00900000000001 235.10959213569777 Q 223.387 236.52659213569774 223.387 239.02259213569775 L 223.387 247.52459213569776 L 220.969 247.52459213569776 L 220.969 239.67259213569776 Q 220.969 237.93059213569776 219.994 236.95559213569774 Q 219.019 235.98059213569775 217.303 235.98059213569775 Q 215.457 236.00659213569776 214.3 237.16359213569774 Q 213.143 238.32059213569775 212.98700000000002 240.16659213569775 L 212.98700000000002 247.52459213569776 L 210.56900000000002 247.52459213569776 L 210.56900000000002 233.77059213569777 L 212.98700000000002 233.77059213569777 L 212.98700000000002 236.68259213569775 Q 214.365 233.74459213569776 218.21300000000002 233.69259213569777 Z  M 233.423 233.69259213569777 Q 235.477 233.69259213569777 237.076 234.57659213569775 Q 238.675 235.46059213569777 239.572 237.03359213569775 Q 240.469 238.60659213569775 240.469 240.63459213569774 Q 240.469 242.66259213569776 239.572 244.24859213569775 Q 238.675 245.83459213569776 237.076 246.71859213569775 Q 235.477 247.60259213569776 233.423 247.60259213569776 Q 231.34300000000002 247.60259213569776 229.744 246.71859213569775 Q 228.145 245.83459213569776 227.248 244.26159213569775 Q 226.351 242.68859213569775 226.351 240.63459213569774 Q 226.351 238.60659213569775 227.248 237.03359213569775 Q 228.145 235.46059213569777 229.744 234.57659213569775 Q 231.34300000000002 233.69259213569777 233.423 233.69259213569777 Z  M 233.423 235.79859213569776 Q 232.071 235.79859213569776 231.018 236.42259213569776 Q 229.965 237.04659213569775 229.38 238.15159213569774 Q 228.79500000000002 239.25659213569776 228.79500000000002 240.66059213569775 Q 228.79500000000002 242.09059213569776 229.38 243.20859213569776 Q 229.965 244.32659213569775 231.018 244.93759213569774 Q 232.071 245.54859213569776 233.423 245.54859213569776 Q 234.749 245.54859213569776 235.802 244.93759213569774 Q 236.85500000000002 244.32659213569775 237.44 243.20859213569776 Q 238.025 242.09059213569776 238.025 240.66059213569775 Q 238.025 239.25659213569776 237.44 238.15159213569774 Q 236.85500000000002 237.04659213569775 235.802 236.42259213569776 Q 234.749 235.79859213569776 233.423 235.79859213569776 Z  M 251.233 246.61459213569776 Q 249.647 247.62859213569774 248.00900000000001 247.62859213569774 Q 246.371 247.62859213569774 245.357 246.65359213569775 Q 244.34300000000002 245.67859213569776 244.34300000000002 243.70259213569776 L 244.34300000000002 236.08459213569776 L 242.393 236.08459213569776 L 242.393 234.23859213569776 L 244.34300000000002 234.23859213569776 L 244.34300000000002 230.54659213569775 L 246.787 230.54659213569775 L 246.787 234.23859213569776 L 250.999 234.23859213569776 L 250.999 236.08459213569776 L 246.787 236.08459213569776 L 246.787 243.26059213569775 Q 246.787 244.40459213569775 247.203 244.89859213569775 Q 247.619 245.39259213569775 248.451 245.39259213569775 Q 249.439 245.39259213569775 250.583 244.74259213569775 L 251.233 246.61459213569776 Z  M 119.179 233.12059213569776 Q 117.905 232.31459213569775 116.53999999999999 231.91159213569776 Q 115.175 231.50859213569777 114.03099999999999 231.50859213569777 Q 112.445 231.50859213569777 111.496 232.11959213569776 Q 110.547 232.73059213569775 110.547 233.79659213569775 Q 110.547 234.75859213569777 111.119 235.36959213569776 Q 111.69099999999999 235.98059213569775 112.523 236.33159213569775 Q 113.35499999999999 236.68259213569775 114.83699999999999 237.15059213569776 Q 116.68299999999999 237.72259213569777 117.827 238.24259213569775 Q 118.971 238.76259213569776 119.77699999999999 239.78959213569775 Q 120.583 240.81659213569776 120.583 242.50659213569776 Q 120.583 244.06659213569776 119.738 245.23659213569775 Q 118.893 246.40659213569776 117.372 247.04359213569776 Q 115.851 247.68059213569776 113.875 247.68059213569776 Q 111.87299999999999 247.68059213569776 109.975 246.90059213569776 Q 108.077 246.12059213569776 106.699 244.82059213569775 L 107.817 242.66259213569776 Q 109.11699999999999 243.93659213569777 110.74199999999999 244.62559213569776 Q 112.36699999999999 245.31459213569775 113.901 245.31459213569775 Q 115.72099999999999 245.31459213569775 116.774 244.59959213569775 Q 117.827 243.88459213569774 117.827 242.66259213569776 Q 117.827 241.70059213569775 117.255 241.07659213569775 Q 116.68299999999999 240.45259213569776 115.812 240.08859213569775 Q 114.94099999999999 239.72459213569775 113.45899999999999 239.28259213569777 Q 111.639 238.73659213569775 110.49499999999999 238.21659213569777 Q 109.351 237.69659213569776 108.55799999999999 236.68259213569775 Q 107.76499999999999 235.66859213569776 107.76499999999999 234.00459213569775 Q 107.76499999999999 232.54859213569776 108.571 231.43059213569776 Q 109.377 230.31259213569774 110.833 229.71459213569776 Q 112.28899999999999 229.11659213569774 114.213 229.11659213569774 Q 115.851 229.11659213569774 117.42399999999999 229.59759213569777 Q 118.99699999999999 230.07859213569776 120.219 230.88459213569774 L 119.179 233.12059213569776 Z  M 132.517 229.16859213569776 Q 135.143 229.16859213569776 137.34 230.39059213569774 Q 139.53699999999998 231.61259213569775 140.81099999999998 233.73159213569775 Q 142.08499999999998 235.85059213569775 142.08499999999998 238.39859213569775 Q 142.08499999999998 240.94659213569776 140.81099999999998 243.09159213569777 Q 139.53699999999998 245.23659213569775 137.34 246.47159213569776 Q 135.143 247.70659213569775 132.517 247.70659213569775 Q 129.891 247.70659213569775 127.69399999999999 246.47159213569776 Q 125.497 245.23659213569775 124.223 243.09159213569777 Q 122.949 240.94659213569776 122.949 238.39859213569775 Q 122.949 235.85059213569775 124.223 233.73159213569775 Q 125.497 231.61259213569775 127.681 230.39059213569774 Q 129.865 229.16859213569776 132.517 229.16859213569776 Z  M 132.543 231.40459213569775 Q 130.64499999999998 231.40459213569775 129.01999999999998 232.34059213569776 Q 127.395 233.27659213569774 126.43299999999999 234.87559213569776 Q 125.471 236.47459213569775 125.471 238.39859213569775 Q 125.471 240.32259213569776 126.43299999999999 241.93459213569776 Q 127.395 243.54659213569775 129.01999999999998 244.49559213569776 Q 130.64499999999998 245.44459213569775 132.543 245.44459213569775 Q 134.441 245.44459213569775 136.04 244.49559213569776 Q 137.639 243.54659213569775 138.588 241.93459213569776 Q 139.53699999999998 240.32259213569776 139.53699999999998 238.39859213569775 Q 139.53699999999998 236.47459213569775 138.588 234.87559213569776 Q 137.639 233.27659213569774 136.04 232.34059213569776 Q 134.441 231.40459213569775 132.543 231.40459213569775 Z  M 158.62099999999998 229.32459213569774 L 161.091 229.32459213569774 L 161.091 247.52459213569776 L 158.569 247.52459213569776 L 148.16899999999998 233.43259213569775 L 148.16899999999998 247.52459213569776 L 145.673 247.52459213569776 L 145.673 229.32459213569774 L 148.195 229.32459213569774 L 158.62099999999998 243.44259213569777 L 158.62099999999998 229.32459213569774 Z  M 179.837 247.52459213569776 L 177.913 243.10459213569774 L 168.31900000000002 243.10459213569774 L 166.421 247.52459213569776 L 163.79500000000002 247.52459213569776 L 171.881 229.32459213569774 L 174.481 229.32459213569774 L 182.541 247.52459213569776 L 179.837 247.52459213569776 Z  M 169.30700000000002 240.84259213569777 L 176.951 240.84259213569777 L 173.103 232.00259213569774 L 169.30700000000002 240.84259213569777 Z  M 196.945 247.52459213569776 L 193.33100000000002 241.80459213569776 Q 192.707 241.85659213569775 192.317 241.85659213569775 L 187.68900000000002 241.85659213569775 L 187.68900000000002 247.52459213569776 L 185.19299999999998 247.52459213569776 L 185.19299999999998 229.32459213569774 L 192.317 229.32459213569774 Q 195.775 229.32459213569774 197.66000000000003 230.92359213569776 Q 199.54500000000002 232.52259213569775 199.54500000000002 235.46059213569777 Q 199.54500000000002 237.67059213569775 198.518 239.17859213569776 Q 197.49099999999999 240.68659213569777 195.567 241.36259213569775 L 199.805 247.52459213569776 L 196.945 247.52459213569776 Z  M 192.317 239.59459213569775 Q 194.657 239.59459213569775 195.905 238.56759213569777 Q 197.15300000000002 237.54059213569775 197.15300000000002 235.53859213569774 Q 197.15300000000002 233.58859213569775 195.905 232.58759213569775 Q 194.657 231.58659213569774 192.317 231.58659213569774 L 187.68900000000002 231.58659213569774 L 187.68900000000002 239.59459213569775 L 192.317 239.59459213569775 Z "
          fill-rule="evenodd" fill="rgb(0,0,0)"/>
    <g style="isolation: isolate;">
        <path d=" M 269.38100000000003 247.52459213569776 L 269.38100000000003 245.60059213569775 Q 267.847 247.62859213569774 264.571 247.62859213569774 Q 263.141 247.62859213569774 262.062 247.08259213569775 Q 260.98300000000006 246.53659213569776 260.398 245.57459213569774 Q 259.813 244.61259213569775 259.813 243.41659213569775 Q 259.813 241.57059213569775 261.178 240.49159213569774 Q 262.543 239.41259213569776 264.987 239.38659213569775 L 269.355 239.38659213569775 L 269.355 238.73659213569775 Q 269.355 237.28059213569776 268.458 236.48759213569775 Q 267.56100000000004 235.69459213569775 265.845 235.69459213569775 Q 263.765 235.69459213569775 261.607 237.17659213569775 L 260.593 235.51259213569776 Q 262.07500000000005 234.55059213569774 263.336 234.12159213569777 Q 264.597 233.69259213569777 266.33900000000006 233.69259213569777 Q 268.913 233.69259213569777 270.317 234.95359213569776 Q 271.721 236.21459213569776 271.747 238.47659213569776 L 271.773 247.52459213569776 L 269.38100000000003 247.52459213569776 Z  M 265.06500000000005 245.62659213569776 Q 266.755 245.62659213569776 267.938 244.80759213569775 Q 269.121 243.98859213569776 269.355 242.63659213569775 L 269.355 241.25859213569777 L 265.32500000000005 241.25859213569777 Q 263.687 241.25859213569777 262.894 241.75259213569774 Q 262.101 242.24659213569777 262.101 243.31259213569774 Q 262.101 244.37859213569774 262.90700000000004 245.00259213569774 Q 263.713 245.62659213569776 265.06500000000005 245.62659213569776 Z  M 273.80100000000004 233.77059213569777 L 276.375 233.77059213569777 L 280.509 245.13259213569776 L 284.617 233.77059213569777 L 287.06100000000004 233.77059213569777 L 281.70500000000004 247.52459213569776 L 279.183 247.52459213569776 L 273.80100000000004 233.77059213569777 Z  M 297.747 247.52459213569776 L 297.747 245.60059213569775 Q 296.21299999999997 247.62859213569774 292.937 247.62859213569774 Q 291.507 247.62859213569774 290.428 247.08259213569775 Q 289.34900000000005 246.53659213569776 288.764 245.57459213569774 Q 288.179 244.61259213569775 288.179 243.41659213569775 Q 288.179 241.57059213569775 289.544 240.49159213569774 Q 290.909 239.41259213569776 293.353 239.38659213569775 L 297.721 239.38659213569775 L 297.721 238.73659213569775 Q 297.721 237.28059213569776 296.824 236.48759213569775 Q 295.927 235.69459213569775 294.211 235.69459213569775 Q 292.131 235.69459213569775 289.973 237.17659213569775 L 288.959 235.51259213569776 Q 290.44100000000003 234.55059213569774 291.702 234.12159213569777 Q 292.96299999999997 233.69259213569777 294.70500000000004 233.69259213569777 Q 297.279 233.69259213569777 298.683 234.95359213569776 Q 300.087 236.21459213569776 300.113 238.47659213569776 L 300.139 247.52459213569776 L 297.747 247.52459213569776 Z  M 293.43100000000004 245.62659213569776 Q 295.121 245.62659213569776 296.304 244.80759213569775 Q 297.48699999999997 243.98859213569776 297.721 242.63659213569775 L 297.721 241.25859213569777 L 293.69100000000003 241.25859213569777 Q 292.053 241.25859213569777 291.26 241.75259213569774 Q 290.467 242.24659213569777 290.467 243.31259213569774 Q 290.467 244.37859213569774 291.273 245.00259213569774 Q 292.079 245.62659213569776 293.43100000000004 245.62659213569776 Z  M 304.45500000000004 233.77059213569777 L 306.873 233.77059213569777 L 306.873 247.52459213569776 L 304.45500000000004 247.52459213569776 L 304.45500000000004 233.77059213569777 Z  M 305.651 228.28459213569775 Q 306.301 228.28459213569775 306.73 228.72659213569776 Q 307.159 229.16859213569776 307.159 229.84459213569775 Q 307.159 230.52059213569777 306.73 230.96259213569775 Q 306.301 231.40459213569775 305.651 231.40459213569775 Q 305.001 231.40459213569775 304.572 230.96259213569775 Q 304.14300000000003 230.52059213569777 304.14300000000003 229.84459213569775 Q 304.14300000000003 229.16859213569776 304.572 228.72659213569776 Q 305.001 228.28459213569775 305.651 228.28459213569775 Z  M 311.709 228.23259213569776 L 314.12699999999995 228.23259213569776 L 314.12699999999995 247.52459213569776 L 311.709 247.52459213569776 L 311.709 228.23259213569776 Z  M 327.387 247.52459213569776 L 327.387 245.60059213569775 Q 325.85299999999995 247.62859213569774 322.577 247.62859213569774 Q 321.147 247.62859213569774 320.068 247.08259213569775 Q 318.98900000000003 246.53659213569776 318.404 245.57459213569774 Q 317.81899999999996 244.61259213569775 317.81899999999996 243.41659213569775 Q 317.81899999999996 241.57059213569775 319.18399999999997 240.49159213569774 Q 320.549 239.41259213569776 322.993 239.38659213569775 L 327.361 239.38659213569775 L 327.361 238.73659213569775 Q 327.361 237.28059213569776 326.464 236.48759213569775 Q 325.567 235.69459213569775 323.851 235.69459213569775 Q 321.77099999999996 235.69459213569775 319.613 237.17659213569775 L 318.599 235.51259213569776 Q 320.081 234.55059213569774 321.342 234.12159213569777 Q 322.60299999999995 233.69259213569777 324.345 233.69259213569777 Q 326.919 233.69259213569777 328.323 234.95359213569776 Q 329.727 236.21459213569776 329.753 238.47659213569776 L 329.779 247.52459213569776 L 327.387 247.52459213569776 Z  M 323.071 245.62659213569776 Q 324.76099999999997 245.62659213569776 325.94399999999996 244.80759213569775 Q 327.12699999999995 243.98859213569776 327.361 242.63659213569775 L 327.361 241.25859213569777 L 323.331 241.25859213569777 Q 321.693 241.25859213569777 320.9 241.75259213569774 Q 320.10699999999997 242.24659213569777 320.10699999999997 243.31259213569774 Q 320.10699999999997 244.37859213569774 320.913 245.00259213569774 Q 321.719 245.62659213569776 323.071 245.62659213569776 Z  M 341.739 233.69259213569777 Q 343.663 233.69259213569777 345.171 234.57659213569775 Q 346.679 235.46059213569777 347.51099999999997 237.04659213569775 Q 348.34299999999996 238.63259213569776 348.34299999999996 240.68659213569777 Q 348.34299999999996 242.71459213569776 347.524 244.28759213569776 Q 346.705 245.86059213569774 345.21 246.73159213569775 Q 343.715 247.60259213569776 341.791 247.60259213569776 Q 340.049 247.60259213569776 338.72299999999996 246.87459213569775 Q 337.397 246.14659213569774 336.643 244.79459213569777 L 336.643 247.52459213569776 L 334.225 247.52459213569776 L 334.225 228.23259213569776 L 336.643 228.23259213569776 L 336.643 236.50059213569776 Q 337.397 235.14859213569775 338.71 234.42059213569775 Q 340.023 233.69259213569777 341.739 233.69259213569777 Z  M 341.27099999999996 245.49659213569777 Q 342.597 245.49659213569777 343.65 244.87259213569774 Q 344.703 244.24859213569775 345.288 243.13059213569775 Q 345.873 242.01259213569776 345.873 240.60859213569776 Q 345.873 239.23059213569775 345.275 238.11259213569775 Q 344.677 236.99459213569776 343.637 236.37059213569776 Q 342.597 235.74659213569777 341.27099999999996 235.74659213569777 Q 339.945 235.74659213569777 338.892 236.37059213569776 Q 337.839 236.99459213569776 337.241 238.11259213569775 Q 336.643 239.23059213569775 336.643 240.60859213569776 Q 336.643 242.03859213569774 337.241 243.14359213569776 Q 337.839 244.24859213569775 338.892 244.87259213569774 Q 339.945 245.49659213569777 341.27099999999996 245.49659213569777 Z  M 351.85299999999995 228.23259213569776 L 354.27099999999996 228.23259213569776 L 354.27099999999996 247.52459213569776 L 351.85299999999995 247.52459213569776 L 351.85299999999995 228.23259213569776 Z  M 364.645 233.69259213569777 Q 367.84299999999996 233.69259213569777 369.481 235.57759213569776 Q 371.11899999999997 237.46259213569775 371.11899999999997 240.81659213569776 Q 371.11899999999997 241.33659213569774 371.09299999999996 241.59659213569776 L 360.22499999999997 241.59659213569776 Q 360.51099999999997 243.44259213569777 361.772 244.53459213569775 Q 363.03299999999996 245.62659213569776 364.87899999999996 245.62659213569776 Q 366.10099999999994 245.62659213569776 367.154 245.18459213569776 Q 368.207 244.74259213569775 368.98699999999997 243.93659213569777 L 370.313 245.31459213569775 Q 369.299 246.40659213569776 367.86899999999997 247.00459213569775 Q 366.43899999999996 247.60259213569776 364.69699999999995 247.60259213569776 Q 362.669 247.60259213569776 361.09599999999995 246.73159213569775 Q 359.52299999999997 245.86059213569774 358.652 244.27459213569776 Q 357.78099999999995 242.68859213569775 357.78099999999995 240.66059213569775 Q 357.78099999999995 238.63259213569776 358.652 237.05959213569776 Q 359.52299999999997 235.48659213569775 361.08299999999997 234.58959213569776 Q 362.643 233.69259213569777 364.645 233.69259213569777 Z  M 368.93499999999995 239.72459213569775 Q 368.83099999999996 237.85259213569776 367.68699999999995 236.77359213569775 Q 366.54299999999995 235.69459213569775 364.671 235.69459213569775 Q 362.85099999999994 235.69459213569775 361.64199999999994 236.78659213569776 Q 360.433 237.87859213569774 360.19899999999996 239.72459213569775 L 368.93499999999995 239.72459213569775 Z  M 218.21300000000002 233.69259213569777 Q 220.631 233.69259213569777 222.00900000000001 235.10959213569777 Q 223.387 236.52659213569774 223.387 239.02259213569775 L 223.387 247.52459213569776 L 220.969 247.52459213569776 L 220.969 239.67259213569776 Q 220.969 237.93059213569776 219.994 236.95559213569774 Q 219.019 235.98059213569775 217.303 235.98059213569775 Q 215.457 236.00659213569776 214.3 237.16359213569774 Q 213.143 238.32059213569775 212.98700000000002 240.16659213569775 L 212.98700000000002 247.52459213569776 L 210.56900000000002 247.52459213569776 L 210.56900000000002 233.77059213569777 L 212.98700000000002 233.77059213569777 L 212.98700000000002 236.68259213569775 Q 214.365 233.74459213569776 218.21300000000002 233.69259213569777 Z  M 233.423 233.69259213569777 Q 235.477 233.69259213569777 237.076 234.57659213569775 Q 238.675 235.46059213569777 239.572 237.03359213569775 Q 240.469 238.60659213569775 240.469 240.63459213569774 Q 240.469 242.66259213569776 239.572 244.24859213569775 Q 238.675 245.83459213569776 237.076 246.71859213569775 Q 235.477 247.60259213569776 233.423 247.60259213569776 Q 231.34300000000002 247.60259213569776 229.744 246.71859213569775 Q 228.145 245.83459213569776 227.248 244.26159213569775 Q 226.351 242.68859213569775 226.351 240.63459213569774 Q 226.351 238.60659213569775 227.248 237.03359213569775 Q 228.145 235.46059213569777 229.744 234.57659213569775 Q 231.34300000000002 233.69259213569777 233.423 233.69259213569777 Z  M 233.423 235.79859213569776 Q 232.071 235.79859213569776 231.018 236.42259213569776 Q 229.965 237.04659213569775 229.38 238.15159213569774 Q 228.79500000000002 239.25659213569776 228.79500000000002 240.66059213569775 Q 228.79500000000002 242.09059213569776 229.38 243.20859213569776 Q 229.965 244.32659213569775 231.018 244.93759213569774 Q 232.071 245.54859213569776 233.423 245.54859213569776 Q 234.749 245.54859213569776 235.802 244.93759213569774 Q 236.85500000000002 244.32659213569775 237.44 243.20859213569776 Q 238.025 242.09059213569776 238.025 240.66059213569775 Q 238.025 239.25659213569776 237.44 238.15159213569774 Q 236.85500000000002 237.04659213569775 235.802 236.42259213569776 Q 234.749 235.79859213569776 233.423 235.79859213569776 Z  M 251.233 246.61459213569776 Q 249.647 247.62859213569774 248.00900000000001 247.62859213569774 Q 246.371 247.62859213569774 245.357 246.65359213569775 Q 244.34300000000002 245.67859213569776 244.34300000000002 243.70259213569776 L 244.34300000000002 236.08459213569776 L 242.393 236.08459213569776 L 242.393 234.23859213569776 L 244.34300000000002 234.23859213569776 L 244.34300000000002 230.54659213569775 L 246.787 230.54659213569775 L 246.787 234.23859213569776 L 250.999 234.23859213569776 L 250.999 236.08459213569776 L 246.787 236.08459213569776 L 246.787 243.26059213569775 Q 246.787 244.40459213569775 247.203 244.89859213569775 Q 247.619 245.39259213569775 248.451 245.39259213569775 Q 249.439 245.39259213569775 250.583 244.74259213569775 L 251.233 246.61459213569776 Z  M 119.179 233.12059213569776 Q 117.905 232.31459213569775 116.53999999999999 231.91159213569776 Q 115.175 231.50859213569777 114.03099999999999 231.50859213569777 Q 112.445 231.50859213569777 111.496 232.11959213569776 Q 110.547 232.73059213569775 110.547 233.79659213569775 Q 110.547 234.75859213569777 111.119 235.36959213569776 Q 111.69099999999999 235.98059213569775 112.523 236.33159213569775 Q 113.35499999999999 236.68259213569775 114.83699999999999 237.15059213569776 Q 116.68299999999999 237.72259213569777 117.827 238.24259213569775 Q 118.971 238.76259213569776 119.77699999999999 239.78959213569775 Q 120.583 240.81659213569776 120.583 242.50659213569776 Q 120.583 244.06659213569776 119.738 245.23659213569775 Q 118.893 246.40659213569776 117.372 247.04359213569776 Q 115.851 247.68059213569776 113.875 247.68059213569776 Q 111.87299999999999 247.68059213569776 109.975 246.90059213569776 Q 108.077 246.12059213569776 106.699 244.82059213569775 L 107.817 242.66259213569776 Q 109.11699999999999 243.93659213569777 110.74199999999999 244.62559213569776 Q 112.36699999999999 245.31459213569775 113.901 245.31459213569775 Q 115.72099999999999 245.31459213569775 116.774 244.59959213569775 Q 117.827 243.88459213569774 117.827 242.66259213569776 Q 117.827 241.70059213569775 117.255 241.07659213569775 Q 116.68299999999999 240.45259213569776 115.812 240.08859213569775 Q 114.94099999999999 239.72459213569775 113.45899999999999 239.28259213569777 Q 111.639 238.73659213569775 110.49499999999999 238.21659213569777 Q 109.351 237.69659213569776 108.55799999999999 236.68259213569775 Q 107.76499999999999 235.66859213569776 107.76499999999999 234.00459213569775 Q 107.76499999999999 232.54859213569776 108.571 231.43059213569776 Q 109.377 230.31259213569774 110.833 229.71459213569776 Q 112.28899999999999 229.11659213569774 114.213 229.11659213569774 Q 115.851 229.11659213569774 117.42399999999999 229.59759213569777 Q 118.99699999999999 230.07859213569776 120.219 230.88459213569774 L 119.179 233.12059213569776 Z  M 132.517 229.16859213569776 Q 135.143 229.16859213569776 137.34 230.39059213569774 Q 139.53699999999998 231.61259213569775 140.81099999999998 233.73159213569775 Q 142.08499999999998 235.85059213569775 142.08499999999998 238.39859213569775 Q 142.08499999999998 240.94659213569776 140.81099999999998 243.09159213569777 Q 139.53699999999998 245.23659213569775 137.34 246.47159213569776 Q 135.143 247.70659213569775 132.517 247.70659213569775 Q 129.891 247.70659213569775 127.69399999999999 246.47159213569776 Q 125.497 245.23659213569775 124.223 243.09159213569777 Q 122.949 240.94659213569776 122.949 238.39859213569775 Q 122.949 235.85059213569775 124.223 233.73159213569775 Q 125.497 231.61259213569775 127.681 230.39059213569774 Q 129.865 229.16859213569776 132.517 229.16859213569776 Z  M 132.543 231.40459213569775 Q 130.64499999999998 231.40459213569775 129.01999999999998 232.34059213569776 Q 127.395 233.27659213569774 126.43299999999999 234.87559213569776 Q 125.471 236.47459213569775 125.471 238.39859213569775 Q 125.471 240.32259213569776 126.43299999999999 241.93459213569776 Q 127.395 243.54659213569775 129.01999999999998 244.49559213569776 Q 130.64499999999998 245.44459213569775 132.543 245.44459213569775 Q 134.441 245.44459213569775 136.04 244.49559213569776 Q 137.639 243.54659213569775 138.588 241.93459213569776 Q 139.53699999999998 240.32259213569776 139.53699999999998 238.39859213569775 Q 139.53699999999998 236.47459213569775 138.588 234.87559213569776 Q 137.639 233.27659213569774 136.04 232.34059213569776 Q 134.441 231.40459213569775 132.543 231.40459213569775 Z  M 158.62099999999998 229.32459213569774 L 161.091 229.32459213569774 L 161.091 247.52459213569776 L 158.569 247.52459213569776 L 148.16899999999998 233.43259213569775 L 148.16899999999998 247.52459213569776 L 145.673 247.52459213569776 L 145.673 229.32459213569774 L 148.195 229.32459213569774 L 158.62099999999998 243.44259213569777 L 158.62099999999998 229.32459213569774 Z  M 179.837 247.52459213569776 L 177.913 243.10459213569774 L 168.31900000000002 243.10459213569774 L 166.421 247.52459213569776 L 163.79500000000002 247.52459213569776 L 171.881 229.32459213569774 L 174.481 229.32459213569774 L 182.541 247.52459213569776 L 179.837 247.52459213569776 Z  M 169.30700000000002 240.84259213569777 L 176.951 240.84259213569777 L 173.103 232.00259213569774 L 169.30700000000002 240.84259213569777 Z  M 196.945 247.52459213569776 L 193.33100000000002 241.80459213569776 Q 192.707 241.85659213569775 192.317 241.85659213569775 L 187.68900000000002 241.85659213569775 L 187.68900000000002 247.52459213569776 L 185.19299999999998 247.52459213569776 L 185.19299999999998 229.32459213569774 L 192.317 229.32459213569774 Q 195.775 229.32459213569774 197.66000000000003 230.92359213569776 Q 199.54500000000002 232.52259213569775 199.54500000000002 235.46059213569777 Q 199.54500000000002 237.67059213569775 198.518 239.17859213569776 Q 197.49099999999999 240.68659213569777 195.567 241.36259213569775 L 199.805 247.52459213569776 L 196.945 247.52459213569776 Z  M 192.317 239.59459213569775 Q 194.657 239.59459213569775 195.905 238.56759213569777 Q 197.15300000000002 237.54059213569775 197.15300000000002 235.53859213569774 Q 197.15300000000002 233.58859213569775 195.905 232.58759213569775 Q 194.657 231.58659213569774 192.317 231.58659213569774 L 187.68900000000002 231.58659213569774 L 187.68900000000002 239.59459213569775 L 192.317 239.59459213569775 Z "
              fill-rule="evenodd" fill="none" vector-effect="non-scaling-stroke" stroke-width="0.5582112567463376"
              stroke="rgb(0,0,0)" stroke-linejoin="miter" stroke-linecap="square" stroke-miterlimit="3"/>
        <path d=" M 269.38100000000003 247.52459213569776 L 269.38100000000003 245.60059213569775 Q 267.847 247.62859213569774 264.571 247.62859213569774 Q 263.141 247.62859213569774 262.062 247.08259213569775 Q 260.98300000000006 246.53659213569776 260.398 245.57459213569774 Q 259.813 244.61259213569775 259.813 243.41659213569775 Q 259.813 241.57059213569775 261.178 240.49159213569774 Q 262.543 239.41259213569776 264.987 239.38659213569775 L 269.355 239.38659213569775 L 269.355 238.73659213569775 Q 269.355 237.28059213569776 268.458 236.48759213569775 Q 267.56100000000004 235.69459213569775 265.845 235.69459213569775 Q 263.765 235.69459213569775 261.607 237.17659213569775 L 260.593 235.51259213569776 Q 262.07500000000005 234.55059213569774 263.336 234.12159213569777 Q 264.597 233.69259213569777 266.33900000000006 233.69259213569777 Q 268.913 233.69259213569777 270.317 234.95359213569776 Q 271.721 236.21459213569776 271.747 238.47659213569776 L 271.773 247.52459213569776 L 269.38100000000003 247.52459213569776 Z  M 265.06500000000005 245.62659213569776 Q 266.755 245.62659213569776 267.938 244.80759213569775 Q 269.121 243.98859213569776 269.355 242.63659213569775 L 269.355 241.25859213569777 L 265.32500000000005 241.25859213569777 Q 263.687 241.25859213569777 262.894 241.75259213569774 Q 262.101 242.24659213569777 262.101 243.31259213569774 Q 262.101 244.37859213569774 262.90700000000004 245.00259213569774 Q 263.713 245.62659213569776 265.06500000000005 245.62659213569776 Z  M 273.80100000000004 233.77059213569777 L 276.375 233.77059213569777 L 280.509 245.13259213569776 L 284.617 233.77059213569777 L 287.06100000000004 233.77059213569777 L 281.70500000000004 247.52459213569776 L 279.183 247.52459213569776 L 273.80100000000004 233.77059213569777 Z  M 297.747 247.52459213569776 L 297.747 245.60059213569775 Q 296.21299999999997 247.62859213569774 292.937 247.62859213569774 Q 291.507 247.62859213569774 290.428 247.08259213569775 Q 289.34900000000005 246.53659213569776 288.764 245.57459213569774 Q 288.179 244.61259213569775 288.179 243.41659213569775 Q 288.179 241.57059213569775 289.544 240.49159213569774 Q 290.909 239.41259213569776 293.353 239.38659213569775 L 297.721 239.38659213569775 L 297.721 238.73659213569775 Q 297.721 237.28059213569776 296.824 236.48759213569775 Q 295.927 235.69459213569775 294.211 235.69459213569775 Q 292.131 235.69459213569775 289.973 237.17659213569775 L 288.959 235.51259213569776 Q 290.44100000000003 234.55059213569774 291.702 234.12159213569777 Q 292.96299999999997 233.69259213569777 294.70500000000004 233.69259213569777 Q 297.279 233.69259213569777 298.683 234.95359213569776 Q 300.087 236.21459213569776 300.113 238.47659213569776 L 300.139 247.52459213569776 L 297.747 247.52459213569776 Z  M 293.43100000000004 245.62659213569776 Q 295.121 245.62659213569776 296.304 244.80759213569775 Q 297.48699999999997 243.98859213569776 297.721 242.63659213569775 L 297.721 241.25859213569777 L 293.69100000000003 241.25859213569777 Q 292.053 241.25859213569777 291.26 241.75259213569774 Q 290.467 242.24659213569777 290.467 243.31259213569774 Q 290.467 244.37859213569774 291.273 245.00259213569774 Q 292.079 245.62659213569776 293.43100000000004 245.62659213569776 Z  M 304.45500000000004 233.77059213569777 L 306.873 233.77059213569777 L 306.873 247.52459213569776 L 304.45500000000004 247.52459213569776 L 304.45500000000004 233.77059213569777 Z  M 305.651 228.28459213569775 Q 306.301 228.28459213569775 306.73 228.72659213569776 Q 307.159 229.16859213569776 307.159 229.84459213569775 Q 307.159 230.52059213569777 306.73 230.96259213569775 Q 306.301 231.40459213569775 305.651 231.40459213569775 Q 305.001 231.40459213569775 304.572 230.96259213569775 Q 304.14300000000003 230.52059213569777 304.14300000000003 229.84459213569775 Q 304.14300000000003 229.16859213569776 304.572 228.72659213569776 Q 305.001 228.28459213569775 305.651 228.28459213569775 Z  M 311.709 228.23259213569776 L 314.12699999999995 228.23259213569776 L 314.12699999999995 247.52459213569776 L 311.709 247.52459213569776 L 311.709 228.23259213569776 Z  M 327.387 247.52459213569776 L 327.387 245.60059213569775 Q 325.85299999999995 247.62859213569774 322.577 247.62859213569774 Q 321.147 247.62859213569774 320.068 247.08259213569775 Q 318.98900000000003 246.53659213569776 318.404 245.57459213569774 Q 317.81899999999996 244.61259213569775 317.81899999999996 243.41659213569775 Q 317.81899999999996 241.57059213569775 319.18399999999997 240.49159213569774 Q 320.549 239.41259213569776 322.993 239.38659213569775 L 327.361 239.38659213569775 L 327.361 238.73659213569775 Q 327.361 237.28059213569776 326.464 236.48759213569775 Q 325.567 235.69459213569775 323.851 235.69459213569775 Q 321.77099999999996 235.69459213569775 319.613 237.17659213569775 L 318.599 235.51259213569776 Q 320.081 234.55059213569774 321.342 234.12159213569777 Q 322.60299999999995 233.69259213569777 324.345 233.69259213569777 Q 326.919 233.69259213569777 328.323 234.95359213569776 Q 329.727 236.21459213569776 329.753 238.47659213569776 L 329.779 247.52459213569776 L 327.387 247.52459213569776 Z  M 323.071 245.62659213569776 Q 324.76099999999997 245.62659213569776 325.94399999999996 244.80759213569775 Q 327.12699999999995 243.98859213569776 327.361 242.63659213569775 L 327.361 241.25859213569777 L 323.331 241.25859213569777 Q 321.693 241.25859213569777 320.9 241.75259213569774 Q 320.10699999999997 242.24659213569777 320.10699999999997 243.31259213569774 Q 320.10699999999997 244.37859213569774 320.913 245.00259213569774 Q 321.719 245.62659213569776 323.071 245.62659213569776 Z  M 341.739 233.69259213569777 Q 343.663 233.69259213569777 345.171 234.57659213569775 Q 346.679 235.46059213569777 347.51099999999997 237.04659213569775 Q 348.34299999999996 238.63259213569776 348.34299999999996 240.68659213569777 Q 348.34299999999996 242.71459213569776 347.524 244.28759213569776 Q 346.705 245.86059213569774 345.21 246.73159213569775 Q 343.715 247.60259213569776 341.791 247.60259213569776 Q 340.049 247.60259213569776 338.72299999999996 246.87459213569775 Q 337.397 246.14659213569774 336.643 244.79459213569777 L 336.643 247.52459213569776 L 334.225 247.52459213569776 L 334.225 228.23259213569776 L 336.643 228.23259213569776 L 336.643 236.50059213569776 Q 337.397 235.14859213569775 338.71 234.42059213569775 Q 340.023 233.69259213569777 341.739 233.69259213569777 Z  M 341.27099999999996 245.49659213569777 Q 342.597 245.49659213569777 343.65 244.87259213569774 Q 344.703 244.24859213569775 345.288 243.13059213569775 Q 345.873 242.01259213569776 345.873 240.60859213569776 Q 345.873 239.23059213569775 345.275 238.11259213569775 Q 344.677 236.99459213569776 343.637 236.37059213569776 Q 342.597 235.74659213569777 341.27099999999996 235.74659213569777 Q 339.945 235.74659213569777 338.892 236.37059213569776 Q 337.839 236.99459213569776 337.241 238.11259213569775 Q 336.643 239.23059213569775 336.643 240.60859213569776 Q 336.643 242.03859213569774 337.241 243.14359213569776 Q 337.839 244.24859213569775 338.892 244.87259213569774 Q 339.945 245.49659213569777 341.27099999999996 245.49659213569777 Z  M 351.85299999999995 228.23259213569776 L 354.27099999999996 228.23259213569776 L 354.27099999999996 247.52459213569776 L 351.85299999999995 247.52459213569776 L 351.85299999999995 228.23259213569776 Z  M 364.645 233.69259213569777 Q 367.84299999999996 233.69259213569777 369.481 235.57759213569776 Q 371.11899999999997 237.46259213569775 371.11899999999997 240.81659213569776 Q 371.11899999999997 241.33659213569774 371.09299999999996 241.59659213569776 L 360.22499999999997 241.59659213569776 Q 360.51099999999997 243.44259213569777 361.772 244.53459213569775 Q 363.03299999999996 245.62659213569776 364.87899999999996 245.62659213569776 Q 366.10099999999994 245.62659213569776 367.154 245.18459213569776 Q 368.207 244.74259213569775 368.98699999999997 243.93659213569777 L 370.313 245.31459213569775 Q 369.299 246.40659213569776 367.86899999999997 247.00459213569775 Q 366.43899999999996 247.60259213569776 364.69699999999995 247.60259213569776 Q 362.669 247.60259213569776 361.09599999999995 246.73159213569775 Q 359.52299999999997 245.86059213569774 358.652 244.27459213569776 Q 357.78099999999995 242.68859213569775 357.78099999999995 240.66059213569775 Q 357.78099999999995 238.63259213569776 358.652 237.05959213569776 Q 359.52299999999997 235.48659213569775 361.08299999999997 234.58959213569776 Q 362.643 233.69259213569777 364.645 233.69259213569777 Z  M 368.93499999999995 239.72459213569775 Q 368.83099999999996 237.85259213569776 367.68699999999995 236.77359213569775 Q 366.54299999999995 235.69459213569775 364.671 235.69459213569775 Q 362.85099999999994 235.69459213569775 361.64199999999994 236.78659213569776 Q 360.433 237.87859213569774 360.19899999999996 239.72459213569775 L 368.93499999999995 239.72459213569775 Z  M 218.21300000000002 233.69259213569777 Q 220.631 233.69259213569777 222.00900000000001 235.10959213569777 Q 223.387 236.52659213569774 223.387 239.02259213569775 L 223.387 247.52459213569776 L 220.969 247.52459213569776 L 220.969 239.67259213569776 Q 220.969 237.93059213569776 219.994 236.95559213569774 Q 219.019 235.98059213569775 217.303 235.98059213569775 Q 215.457 236.00659213569776 214.3 237.16359213569774 Q 213.143 238.32059213569775 212.98700000000002 240.16659213569775 L 212.98700000000002 247.52459213569776 L 210.56900000000002 247.52459213569776 L 210.56900000000002 233.77059213569777 L 212.98700000000002 233.77059213569777 L 212.98700000000002 236.68259213569775 Q 214.365 233.74459213569776 218.21300000000002 233.69259213569777 Z  M 233.423 233.69259213569777 Q 235.477 233.69259213569777 237.076 234.57659213569775 Q 238.675 235.46059213569777 239.572 237.03359213569775 Q 240.469 238.60659213569775 240.469 240.63459213569774 Q 240.469 242.66259213569776 239.572 244.24859213569775 Q 238.675 245.83459213569776 237.076 246.71859213569775 Q 235.477 247.60259213569776 233.423 247.60259213569776 Q 231.34300000000002 247.60259213569776 229.744 246.71859213569775 Q 228.145 245.83459213569776 227.248 244.26159213569775 Q 226.351 242.68859213569775 226.351 240.63459213569774 Q 226.351 238.60659213569775 227.248 237.03359213569775 Q 228.145 235.46059213569777 229.744 234.57659213569775 Q 231.34300000000002 233.69259213569777 233.423 233.69259213569777 Z  M 233.423 235.79859213569776 Q 232.071 235.79859213569776 231.018 236.42259213569776 Q 229.965 237.04659213569775 229.38 238.15159213569774 Q 228.79500000000002 239.25659213569776 228.79500000000002 240.66059213569775 Q 228.79500000000002 242.09059213569776 229.38 243.20859213569776 Q 229.965 244.32659213569775 231.018 244.93759213569774 Q 232.071 245.54859213569776 233.423 245.54859213569776 Q 234.749 245.54859213569776 235.802 244.93759213569774 Q 236.85500000000002 244.32659213569775 237.44 243.20859213569776 Q 238.025 242.09059213569776 238.025 240.66059213569775 Q 238.025 239.25659213569776 237.44 238.15159213569774 Q 236.85500000000002 237.04659213569775 235.802 236.42259213569776 Q 234.749 235.79859213569776 233.423 235.79859213569776 Z  M 251.233 246.61459213569776 Q 249.647 247.62859213569774 248.00900000000001 247.62859213569774 Q 246.371 247.62859213569774 245.357 246.65359213569775 Q 244.34300000000002 245.67859213569776 244.34300000000002 243.70259213569776 L 244.34300000000002 236.08459213569776 L 242.393 236.08459213569776 L 242.393 234.23859213569776 L 244.34300000000002 234.23859213569776 L 244.34300000000002 230.54659213569775 L 246.787 230.54659213569775 L 246.787 234.23859213569776 L 250.999 234.23859213569776 L 250.999 236.08459213569776 L 246.787 236.08459213569776 L 246.787 243.26059213569775 Q 246.787 244.40459213569775 247.203 244.89859213569775 Q 247.619 245.39259213569775 248.451 245.39259213569775 Q 249.439 245.39259213569775 250.583 244.74259213569775 L 251.233 246.61459213569776 Z  M 119.179 233.12059213569776 Q 117.905 232.31459213569775 116.53999999999999 231.91159213569776 Q 115.175 231.50859213569777 114.03099999999999 231.50859213569777 Q 112.445 231.50859213569777 111.496 232.11959213569776 Q 110.547 232.73059213569775 110.547 233.79659213569775 Q 110.547 234.75859213569777 111.119 235.36959213569776 Q 111.69099999999999 235.98059213569775 112.523 236.33159213569775 Q 113.35499999999999 236.68259213569775 114.83699999999999 237.15059213569776 Q 116.68299999999999 237.72259213569777 117.827 238.24259213569775 Q 118.971 238.76259213569776 119.77699999999999 239.78959213569775 Q 120.583 240.81659213569776 120.583 242.50659213569776 Q 120.583 244.06659213569776 119.738 245.23659213569775 Q 118.893 246.40659213569776 117.372 247.04359213569776 Q 115.851 247.68059213569776 113.875 247.68059213569776 Q 111.87299999999999 247.68059213569776 109.975 246.90059213569776 Q 108.077 246.12059213569776 106.699 244.82059213569775 L 107.817 242.66259213569776 Q 109.11699999999999 243.93659213569777 110.74199999999999 244.62559213569776 Q 112.36699999999999 245.31459213569775 113.901 245.31459213569775 Q 115.72099999999999 245.31459213569775 116.774 244.59959213569775 Q 117.827 243.88459213569774 117.827 242.66259213569776 Q 117.827 241.70059213569775 117.255 241.07659213569775 Q 116.68299999999999 240.45259213569776 115.812 240.08859213569775 Q 114.94099999999999 239.72459213569775 113.45899999999999 239.28259213569777 Q 111.639 238.73659213569775 110.49499999999999 238.21659213569777 Q 109.351 237.69659213569776 108.55799999999999 236.68259213569775 Q 107.76499999999999 235.66859213569776 107.76499999999999 234.00459213569775 Q 107.76499999999999 232.54859213569776 108.571 231.43059213569776 Q 109.377 230.31259213569774 110.833 229.71459213569776 Q 112.28899999999999 229.11659213569774 114.213 229.11659213569774 Q 115.851 229.11659213569774 117.42399999999999 229.59759213569777 Q 118.99699999999999 230.07859213569776 120.219 230.88459213569774 L 119.179 233.12059213569776 Z  M 132.517 229.16859213569776 Q 135.143 229.16859213569776 137.34 230.39059213569774 Q 139.53699999999998 231.61259213569775 140.81099999999998 233.73159213569775 Q 142.08499999999998 235.85059213569775 142.08499999999998 238.39859213569775 Q 142.08499999999998 240.94659213569776 140.81099999999998 243.09159213569777 Q 139.53699999999998 245.23659213569775 137.34 246.47159213569776 Q 135.143 247.70659213569775 132.517 247.70659213569775 Q 129.891 247.70659213569775 127.69399999999999 246.47159213569776 Q 125.497 245.23659213569775 124.223 243.09159213569777 Q 122.949 240.94659213569776 122.949 238.39859213569775 Q 122.949 235.85059213569775 124.223 233.73159213569775 Q 125.497 231.61259213569775 127.681 230.39059213569774 Q 129.865 229.16859213569776 132.517 229.16859213569776 Z  M 132.543 231.40459213569775 Q 130.64499999999998 231.40459213569775 129.01999999999998 232.34059213569776 Q 127.395 233.27659213569774 126.43299999999999 234.87559213569776 Q 125.471 236.47459213569775 125.471 238.39859213569775 Q 125.471 240.32259213569776 126.43299999999999 241.93459213569776 Q 127.395 243.54659213569775 129.01999999999998 244.49559213569776 Q 130.64499999999998 245.44459213569775 132.543 245.44459213569775 Q 134.441 245.44459213569775 136.04 244.49559213569776 Q 137.639 243.54659213569775 138.588 241.93459213569776 Q 139.53699999999998 240.32259213569776 139.53699999999998 238.39859213569775 Q 139.53699999999998 236.47459213569775 138.588 234.87559213569776 Q 137.639 233.27659213569774 136.04 232.34059213569776 Q 134.441 231.40459213569775 132.543 231.40459213569775 Z  M 158.62099999999998 229.32459213569774 L 161.091 229.32459213569774 L 161.091 247.52459213569776 L 158.569 247.52459213569776 L 148.16899999999998 233.43259213569775 L 148.16899999999998 247.52459213569776 L 145.673 247.52459213569776 L 145.673 229.32459213569774 L 148.195 229.32459213569774 L 158.62099999999998 243.44259213569777 L 158.62099999999998 229.32459213569774 Z  M 179.837 247.52459213569776 L 177.913 243.10459213569774 L 168.31900000000002 243.10459213569774 L 166.421 247.52459213569776 L 163.79500000000002 247.52459213569776 L 171.881 229.32459213569774 L 174.481 229.32459213569774 L 182.541 247.52459213569776 L 179.837 247.52459213569776 Z  M 169.30700000000002 240.84259213569777 L 176.951 240.84259213569777 L 173.103 232.00259213569774 L 169.30700000000002 240.84259213569777 Z  M 196.945 247.52459213569776 L 193.33100000000002 241.80459213569776 Q 192.707 241.85659213569775 192.317 241.85659213569775 L 187.68900000000002 241.85659213569775 L 187.68900000000002 247.52459213569776 L 185.19299999999998 247.52459213569776 L 185.19299999999998 229.32459213569774 L 192.317 229.32459213569774 Q 195.775 229.32459213569774 197.66000000000003 230.92359213569776 Q 199.54500000000002 232.52259213569775 199.54500000000002 235.46059213569777 Q 199.54500000000002 237.67059213569775 198.518 239.17859213569776 Q 197.49099999999999 240.68659213569777 195.567 241.36259213569775 L 199.805 247.52459213569776 L 196.945 247.52459213569776 Z  M 192.317 239.59459213569775 Q 194.657 239.59459213569775 195.905 238.56759213569777 Q 197.15300000000002 237.54059213569775 197.15300000000002 235.53859213569774 Q 197.15300000000002 233.58859213569775 195.905 232.58759213569775 Q 194.657 231.58659213569774 192.317 231.58659213569774 L 187.68900000000002 231.58659213569774 L 187.68900000000002 239.59459213569775 L 192.317 239.59459213569775 Z "
              fill-rule="evenodd" fill="none" vector-effect="non-scaling-stroke" stroke-width="0.5582112567463376"
              stroke="rgb(0,0,0)" stroke-linejoin="miter" stroke-linecap="square" stroke-miterlimit="3"/>
    </g>
    <path d=" M 165.47879722436392 71.5 L 314.5212027756361 71.5 L 314.5212027756361 220.54240555127217 L 165.47879722436392 220.54240555127217 L 165.47879722436392 71.5 Z "
          fill="none"/>
    <path d=" M 240 139.81110254433307 C 233.16888737660145 139.81110254433307 227.57979953739397 145.40019038354055 227.57979953739397 152.23130300693907 C 227.57979953739397 159.06241563033763 233.16888737660145 164.6515034695451 240 164.6515034695451 C 246.83111262339855 164.6515034695451 252.420200462606 159.06241563033763 252.420200462606 152.23130300693907 C 252.420200462606 145.40019038354055 246.83111262339855 139.81110254433307 240 139.81110254433307 Z  M 277.26060138781804 152.23130300693907 C 277.26060138781804 131.67586863546438 260.5554343714747 114.97070161912104 240 114.97070161912104 C 219.44456562852528 114.97070161912104 202.73939861218196 131.67586863546438 202.73939861218196 152.23130300693907 C 202.73939861218196 166.01772717870745 210.2536201289551 178.00321659788133 221.36969930609098 184.46172652395302 L 227.57979953739397 173.65615354286493 C 220.18978286800518 169.30907864302236 215.15959907478796 161.42224850650925 215.15959907478796 152.23130300693907 C 215.15959907478796 138.50698125886294 226.27567825192384 127.39090208172706 240 127.39090208172706 C 253.72432174807616 127.39090208172706 264.840400925212 138.50698125886294 264.840400925212 152.23130300693907 C 264.840400925212 161.42224850650925 259.8102171319948 169.30907864302236 252.420200462606 173.65615354286493 L 258.630300693909 184.46172652395302 C 269.746385793458 178.00321659788133 277.26060138781804 166.01772717870745 277.26060138781804 152.23130300693907 Z  M 240 90.13030069390902 C 205.72024684165567 90.13030069390902 177.89899768696992 117.95154984859475 177.89899768696992 152.23130300693907 C 177.89899768696992 175.2086786006907 190.3813005732681 195.20519708134896 208.8873964197928 205.94866763874487 L 215.0974966510958 195.20519708134896 C 200.3174603511116 186.57316155018214 190.31919814957595 170.61319992849252 190.31919814957595 152.23130300693907 C 190.31919814957595 124.78265951078674 212.55135650384767 102.55050115651503 240 102.55050115651503 C 267.44864349615233 102.55050115651503 289.680801850424 124.78265951078674 289.680801850424 152.23130300693907 C 289.680801850424 170.61319992849252 279.6825366876818 186.57316155018214 264.840400925212 195.20519708134896 L 271.050501156515 205.94866763874487 C 289.6186994267319 195.20519708134896 302.10100231303005 175.2086786006907 302.10100231303005 152.23130300693907 C 302.10100231303005 117.95154984859475 274.2797561195509 90.13030069390902 240 90.13030069390902 Z "
          fill-rule="evenodd" fill="rgb(0,0,0)"/>
    <line x1="179.70705583817977" y1="99.55649109592599" x2="307.55650886059175" y2="195.794812698776"
          vector-effect="non-scaling-stroke" stroke-width="22.328450269853505" stroke="rgb(255,255,255)"
          stroke-linejoin="miter" stroke-linecap="square" stroke-miterlimit="3"/>
    <line x1="176.3639167309175" y1="104.30188897455668" x2="304.2133697533295" y2="200.5402105774067"
          vector-effect="non-scaling-stroke" stroke-width="11.164225134926753" stroke="rgb(0,0,0)"
          stroke-linejoin="miter" stroke-linecap="square" stroke-miterlimit="3"/>
</svg>