<?xml version="1.0" standalone="no"?><!-- Generator: Gravit.io -->
<svg xmlns="http://www.w3.org/2000/svg" style="isolation:isolate" viewBox="0 0 1280 480" width="1280" height="480">
    <path d=" M 221.54213483146066 144.75 L 412.04213483146066 144.75 L 412.04213483146066 335.25 L 221.54213483146066 335.25 L 221.54213483146066 144.75 Z  M 221.54213483146066 144.75 L 412.04213483146066 144.75 L 412.04213483146066 335.25 L 221.54213483146066 335.25 L 221.54213483146066 144.75 Z "
          fill-rule="evenodd" fill="none"/>
    <path d=" M 388.22963483146066 196.34375 L 356.47963483146066 228.09375 L 356.47963483146066 200.3125 C 356.47963483146066 195.94687348604202 352.90775377562875 192.375 348.54213483146066 192.375 L 299.4883824091279 192.375 L 388.22963483146066 281.11625242233276 L 388.22963483146066 196.34375 Z  M 247.49775968006486 160.625 L 237.41713483146066 170.7056248486042 L 259.08650998285646 192.375 L 253.29213483146066 192.375 C 248.92651020995015 192.375 245.35463483146066 195.94687348604202 245.35463483146066 200.3125 L 245.35463483146066 279.6875 C 245.35463483146066 284.0531189441681 248.92651020995015 287.625 253.29213483146066 287.625 L 348.54213483146066 287.625 C 350.20900256446237 287.625 351.63775498679513 286.9900006055832 352.82839209845895 286.19624757766724 L 378.1490061979615 311.4375 L 388.22963483146066 301.35687136650085 L 247.49775968006486 160.625 Z "
          fill-rule="evenodd" fill="rgb(0,0,0)"/>
    <path d=" M 464.29397752808984 289.658 L 464.29397752808984 285.29200000000003 Q 460.81297752808985 289.894 453.3789775280899 289.894 Q 450.1339775280899 289.894 447.68547752808985 288.65500000000003 Q 445.2369775280899 287.416 443.90947752808984 285.233 Q 442.58197752808985 283.05 442.58197752808985 280.336 Q 442.58197752808985 276.14700000000005 445.6794775280899 273.6985 Q 448.77697752808984 271.25 454.32297752808984 271.19100000000003 L 464.23497752808987 271.19100000000003 L 464.23497752808987 269.716 Q 464.23497752808987 266.41200000000003 462.19947752808986 264.6125 Q 460.16397752808984 262.813 456.26997752808984 262.813 Q 451.54997752808987 262.813 446.6529775280899 266.17600000000004 L 444.35197752808983 262.4 Q 447.71497752808983 260.217 450.57647752808987 259.24350000000004 Q 453.43797752808985 258.27 457.3909775280899 258.27 Q 463.2319775280898 258.27 466.41797752808986 261.1315 Q 469.60397752808984 263.993 469.66297752808987 269.12600000000003 L 469.72197752808984 289.658 L 464.29397752808984 289.658 Z  M 454.49997752808986 285.351 Q 458.33497752808984 285.351 461.01947752808985 283.4925 Q 463.70397752808987 281.634 464.23497752808987 278.56600000000003 L 464.23497752808987 275.439 L 455.08997752808983 275.439 Q 451.37297752808985 275.439 449.5734775280898 276.56 Q 447.77397752808986 277.68100000000004 447.77397752808986 280.1 Q 447.77397752808986 282.519 449.60297752808987 283.935 Q 451.4319775280899 285.351 454.49997752808986 285.351 Z  M 474.32397752808987 258.447 L 480.1649775280899 258.447 L 489.54597752808985 284.23 L 498.86797752808985 258.447 L 504.41397752808984 258.447 L 492.25997752808985 289.658 L 486.53697752808984 289.658 L 474.32397752808987 258.447 Z  M 528.6629775280899 289.658 L 528.6629775280899 285.29200000000003 Q 525.1819775280899 289.894 517.7479775280899 289.894 Q 514.5029775280899 289.894 512.0544775280898 288.65500000000003 Q 509.60597752808985 287.416 508.27847752808987 285.233 Q 506.9509775280899 283.05 506.9509775280899 280.336 Q 506.9509775280899 276.14700000000005 510.04847752808985 273.6985 Q 513.1459775280898 271.25 518.6919775280899 271.19100000000003 L 528.6039775280899 271.19100000000003 L 528.6039775280899 269.716 Q 528.6039775280899 266.41200000000003 526.5684775280898 264.6125 Q 524.5329775280899 262.813 520.6389775280899 262.813 Q 515.9189775280898 262.813 511.02197752808985 266.17600000000004 L 508.72097752808986 262.4 Q 512.0839775280898 260.217 514.9454775280899 259.24350000000004 Q 517.8069775280899 258.27 521.7599775280898 258.27 Q 527.6009775280899 258.27 530.7869775280899 261.1315 Q 533.9729775280898 263.993 534.0319775280899 269.12600000000003 L 534.0909775280899 289.658 L 528.6629775280899 289.658 Z  M 518.8689775280899 285.351 Q 522.7039775280898 285.351 525.3884775280899 283.4925 Q 528.0729775280898 281.634 528.6039775280899 278.56600000000003 L 528.6039775280899 275.439 L 519.4589775280899 275.439 Q 515.7419775280898 275.439 513.9424775280899 276.56 Q 512.1429775280899 277.68100000000004 512.1429775280899 280.1 Q 512.1429775280899 282.519 513.9719775280898 283.935 Q 515.8009775280898 285.351 518.8689775280899 285.351 Z  M 543.8849775280898 258.447 L 549.3719775280898 258.447 L 549.3719775280898 289.658 L 543.8849775280898 289.658 L 543.8849775280898 258.447 Z  M 546.5989775280898 245.99800000000002 Q 548.0739775280898 245.99800000000002 549.0474775280899 247.001 Q 550.0209775280898 248.00400000000002 550.0209775280898 249.538 Q 550.0209775280898 251.072 549.0474775280899 252.07500000000002 Q 548.0739775280898 253.078 546.5989775280898 253.078 Q 545.1239775280899 253.078 544.1504775280898 252.07500000000002 Q 543.1769775280899 251.072 543.1769775280899 249.538 Q 543.1769775280899 248.00400000000002 544.1504775280898 247.001 Q 545.1239775280899 245.99800000000002 546.5989775280898 245.99800000000002 Z  M 560.3459775280899 245.88 L 565.8329775280898 245.88 L 565.8329775280898 289.658 L 560.3459775280899 289.658 L 560.3459775280899 245.88 Z  M 595.9229775280899 289.658 L 595.9229775280899 285.29200000000003 Q 592.4419775280899 289.894 585.0079775280899 289.894 Q 581.7629775280898 289.894 579.3144775280898 288.65500000000003 Q 576.8659775280898 287.416 575.5384775280899 285.233 Q 574.2109775280899 283.05 574.2109775280899 280.336 Q 574.2109775280899 276.14700000000005 577.3084775280898 273.6985 Q 580.4059775280898 271.25 585.9519775280899 271.19100000000003 L 595.8639775280899 271.19100000000003 L 595.8639775280899 269.716 Q 595.8639775280899 266.41200000000003 593.8284775280898 264.6125 Q 591.7929775280899 262.813 587.8989775280899 262.813 Q 583.1789775280898 262.813 578.2819775280898 266.17600000000004 L 575.9809775280899 262.4 Q 579.3439775280899 260.217 582.2054775280899 259.24350000000004 Q 585.0669775280899 258.27 589.0199775280898 258.27 Q 594.8609775280898 258.27 598.0469775280899 261.1315 Q 601.2329775280898 263.993 601.2919775280898 269.12600000000003 L 601.3509775280899 289.658 L 595.9229775280899 289.658 Z  M 586.1289775280899 285.351 Q 589.9639775280898 285.351 592.6484775280899 283.4925 Q 595.3329775280898 281.634 595.8639775280899 278.56600000000003 L 595.8639775280899 275.439 L 586.7189775280899 275.439 Q 583.0019775280898 275.439 581.2024775280898 276.56 Q 579.4029775280899 277.68100000000004 579.4029775280899 280.1 Q 579.4029775280899 282.519 581.2319775280898 283.935 Q 583.0609775280898 285.351 586.1289775280899 285.351 Z  M 628.4909775280898 258.27 Q 632.8569775280898 258.27 636.2789775280899 260.276 Q 639.7009775280899 262.28200000000004 641.5889775280898 265.88100000000003 Q 643.4769775280898 269.48 643.4769775280898 274.141 Q 643.4769775280898 278.743 641.6184775280899 282.3125 Q 639.7599775280898 285.882 636.3674775280898 287.85850000000005 Q 632.9749775280899 289.83500000000004 628.6089775280898 289.83500000000004 Q 624.6559775280898 289.83500000000004 621.6469775280898 288.183 Q 618.6379775280898 286.531 616.9269775280899 283.463 L 616.9269775280899 289.658 L 611.4399775280898 289.658 L 611.4399775280898 245.88 L 616.9269775280899 245.88 L 616.9269775280899 264.642 Q 618.6379775280898 261.574 621.6174775280898 259.922 Q 624.5969775280898 258.27 628.4909775280898 258.27 Z  M 627.4289775280898 285.05600000000004 Q 630.4379775280898 285.05600000000004 632.8274775280898 283.64 Q 635.2169775280898 282.22400000000005 636.5444775280898 279.687 Q 637.8719775280898 277.15000000000003 637.8719775280898 273.964 Q 637.8719775280898 270.837 636.5149775280898 268.3 Q 635.1579775280899 265.76300000000003 632.7979775280899 264.347 Q 630.4379775280898 262.93100000000004 627.4289775280898 262.93100000000004 Q 624.4199775280898 262.93100000000004 622.0304775280898 264.347 Q 619.6409775280898 265.76300000000003 618.2839775280898 268.3 Q 616.9269775280899 270.837 616.9269775280899 273.964 Q 616.9269775280899 277.209 618.2839775280898 279.7165 Q 619.6409775280898 282.22400000000005 622.0304775280898 283.64 Q 624.4199775280898 285.05600000000004 627.4289775280898 285.05600000000004 Z  M 651.4419775280899 245.88 L 656.9289775280898 245.88 L 656.9289775280898 289.658 L 651.4419775280899 289.658 L 651.4419775280899 245.88 Z  M 680.4699775280899 258.27 Q 687.7269775280898 258.27 691.4439775280898 262.5475 Q 695.1609775280899 266.82500000000005 695.1609775280899 274.43600000000004 Q 695.1609775280899 275.616 695.1019775280898 276.206 L 670.4399775280899 276.206 Q 671.0889775280898 280.395 673.9504775280898 282.87300000000005 Q 676.8119775280899 285.351 681.0009775280898 285.351 Q 683.7739775280899 285.351 686.1634775280899 284.348 Q 688.5529775280899 283.345 690.3229775280898 281.516 L 693.3319775280899 284.64300000000003 Q 691.0309775280898 287.121 687.7859775280899 288.478 Q 684.5409775280898 289.83500000000004 680.5879775280898 289.83500000000004 Q 675.9859775280898 289.83500000000004 672.4164775280899 287.85850000000005 Q 668.8469775280898 285.882 666.8704775280899 282.283 Q 664.8939775280899 278.684 664.8939775280899 274.082 Q 664.8939775280899 269.48 666.8704775280899 265.9105 Q 668.8469775280898 262.341 672.3869775280898 260.3055 Q 675.9269775280899 258.27 680.4699775280899 258.27 Z  M 690.2049775280898 271.958 Q 689.9689775280899 267.71000000000004 687.3729775280899 265.2615 Q 684.7769775280899 262.813 680.5289775280899 262.813 Q 676.3989775280899 262.813 673.6554775280898 265.291 Q 670.9119775280899 267.769 670.3809775280898 271.958 L 690.2049775280898 271.958 Z  M 943.9639775280898 186.349 Q 949.4509775280899 186.349 952.5779775280898 189.5645 Q 955.7049775280898 192.78 955.7049775280898 198.44400000000002 L 955.7049775280898 217.737 L 950.2179775280899 217.737 L 950.2179775280899 199.91899999999998 Q 950.2179775280899 195.966 948.0054775280898 193.7535 Q 945.7929775280899 191.541 941.8989775280899 191.541 Q 937.7099775280899 191.6 935.0844775280899 194.2255 Q 932.4589775280899 196.851 932.1049775280899 201.04 L 932.1049775280899 217.737 L 926.6179775280899 217.737 L 926.6179775280899 186.526 L 932.1049775280899 186.526 L 932.1049775280899 193.13400000000001 Q 935.2319775280898 186.46699999999998 943.9639775280898 186.349 Z  M 978.4789775280899 186.349 Q 983.13997752809 186.349 986.76847752809 188.355 Q 990.39697752809 190.361 992.43247752809 193.9305 Q 994.4679775280899 197.5 994.4679775280899 202.102 Q 994.4679775280899 206.704 992.43247752809 210.303 Q 990.39697752809 213.902 986.76847752809 215.90800000000002 Q 983.13997752809 217.914 978.4789775280899 217.914 Q 973.7589775280899 217.914 970.1304775280898 215.90800000000002 Q 966.5019775280898 213.902 964.4664775280899 210.3325 Q 962.4309775280899 206.763 962.4309775280899 202.102 Q 962.4309775280899 197.5 964.4664775280899 193.9305 Q 966.5019775280898 190.361 970.1304775280898 188.355 Q 973.7589775280899 186.349 978.4789775280899 186.349 Z  M 978.4789775280899 191.128 Q 975.4109775280899 191.128 973.0214775280899 192.544 Q 970.6319775280899 193.96 969.3044775280898 196.4675 Q 967.97697752809 198.975 967.97697752809 202.161 Q 967.97697752809 205.406 969.3044775280898 207.94299999999998 Q 970.6319775280899 210.48000000000002 973.0214775280899 211.8665 Q 975.4109775280899 213.253 978.4789775280899 213.253 Q 981.4879775280899 213.253 983.8774775280899 211.8665 Q 986.2669775280899 210.48000000000002 987.59447752809 207.94299999999998 Q 988.9219775280899 205.406 988.9219775280899 202.161 Q 988.9219775280899 198.975 987.59447752809 196.4675 Q 986.2669775280899 193.96 983.8774775280899 192.544 Q 981.4879775280899 191.128 978.4789775280899 191.128 Z  M 1018.8939775280899 215.672 Q 1015.2949775280899 217.973 1011.5779775280898 217.973 Q 1007.86097752809 217.973 1005.55997752809 215.7605 Q 1003.2589775280899 213.548 1003.2589775280899 209.064 L 1003.2589775280899 191.777 L 998.8339775280899 191.777 L 998.8339775280899 187.588 L 1003.2589775280899 187.588 L 1003.2589775280899 179.21 L 1008.8049775280899 179.21 L 1008.8049775280899 187.588 L 1018.3629775280899 187.588 L 1018.3629775280899 191.777 L 1008.8049775280899 191.777 L 1008.8049775280899 208.061 Q 1008.8049775280899 210.657 1009.7489775280899 211.778 Q 1010.6929775280898 212.899 1012.58097752809 212.899 Q 1014.82297752809 212.899 1017.41897752809 211.424 L 1018.8939775280899 215.672 Z  M 695.9279775280897 176.437 L 701.8279775280898 176.437 L 687.8449775280899 217.737 L 681.9449775280898 217.737 L 671.2659775280898 183.635 L 660.4099775280898 217.737 L 654.5689775280898 217.737 L 640.6449775280898 176.437 L 646.7219775280898 176.437 L 657.6369775280898 211.66 L 668.4929775280898 176.437 L 674.1569775280898 176.437 L 685.0719775280899 211.66 L 695.9279775280897 176.437 Z  M 719.9409775280899 186.349 Q 727.1979775280898 186.349 730.9149775280898 190.6265 Q 734.6319775280898 194.904 734.6319775280898 202.515 Q 734.6319775280898 203.695 734.5729775280898 204.285 L 709.9109775280898 204.285 Q 710.5599775280898 208.474 713.4214775280898 210.952 Q 716.2829775280898 213.43 720.4719775280898 213.43 Q 723.2449775280897 213.43 725.6344775280897 212.427 Q 728.0239775280897 211.424 729.7939775280898 209.595 L 732.8029775280897 212.722 Q 730.5019775280898 215.2 727.2569775280898 216.55700000000002 Q 724.0119775280898 217.914 720.0589775280898 217.914 Q 715.4569775280897 217.914 711.8874775280899 215.9375 Q 708.3179775280898 213.961 706.3414775280899 210.362 Q 704.3649775280899 206.763 704.3649775280899 202.161 Q 704.3649775280899 197.559 706.3414775280899 193.9895 Q 708.3179775280898 190.42000000000002 711.8579775280898 188.3845 Q 715.3979775280898 186.349 719.9409775280899 186.349 Z  M 729.6759775280898 200.037 Q 729.4399775280898 195.789 726.8439775280899 193.3405 Q 724.2479775280899 190.892 719.9999775280899 190.892 Q 715.8699775280897 190.892 713.1264775280898 193.37 Q 710.3829775280899 195.848 709.8519775280898 200.037 L 729.6759775280898 200.037 Z  M 759.4709775280899 186.349 Q 763.8369775280898 186.349 767.2589775280899 188.355 Q 770.6809775280899 190.361 772.5689775280898 193.96 Q 774.4569775280899 197.559 774.4569775280899 202.22 Q 774.4569775280899 206.822 772.5984775280899 210.3915 Q 770.7399775280899 213.961 767.3474775280898 215.9375 Q 763.9549775280898 217.914 759.5889775280898 217.914 Q 755.6359775280898 217.914 752.6269775280898 216.262 Q 749.6179775280898 214.61 747.9069775280898 211.542 L 747.9069775280898 217.737 L 742.4199775280898 217.737 L 742.4199775280898 173.959 L 747.9069775280898 173.959 L 747.9069775280898 192.721 Q 749.6179775280898 189.653 752.5974775280898 188.001 Q 755.5769775280899 186.349 759.4709775280899 186.349 Z  M 758.4089775280898 213.135 Q 761.4179775280898 213.135 763.8074775280897 211.719 Q 766.1969775280897 210.303 767.5244775280898 207.76600000000002 Q 768.8519775280898 205.22899999999998 768.8519775280898 202.043 Q 768.8519775280898 198.916 767.4949775280897 196.37900000000002 Q 766.1379775280898 193.84199999999998 763.7779775280899 192.426 Q 761.4179775280898 191.01 758.4089775280898 191.01 Q 755.3999775280898 191.01 753.0104775280898 192.426 Q 750.6209775280898 193.84199999999998 749.2639775280898 196.37900000000002 Q 747.9069775280898 198.916 747.9069775280898 202.043 Q 747.9069775280898 205.288 749.2639775280898 207.7955 Q 750.6209775280898 210.303 753.0104775280898 211.719 Q 755.3999775280898 213.135 758.4089775280898 213.135 Z  M 804.0159775280898 194.845 Q 800.2989775280898 191.246 795.1069775280898 191.246 Q 792.0389775280898 191.246 789.6494775280898 192.603 Q 787.2599775280898 193.96 785.9029775280899 196.438 Q 784.5459775280899 198.916 784.5459775280899 202.161 Q 784.5459775280899 205.406 785.8734775280898 207.88400000000001 Q 787.2009775280899 210.362 789.5314775280899 211.7485 Q 791.8619775280898 213.135 794.8709775280898 213.135 Q 797.8799775280899 213.135 800.2989775280898 212.132 Q 802.7179775280898 211.12900000000002 804.3109775280898 209.24099999999999 L 807.4379775280898 212.427 Q 805.3139775280898 215.082 802.0394775280898 216.498 Q 798.7649775280898 217.914 794.6349775280898 217.914 Q 790.0919775280898 217.914 786.5519775280898 215.90800000000002 Q 783.0119775280898 213.902 781.0354775280898 210.3325 Q 779.0589775280898 206.763 779.0589775280898 202.161 Q 779.0589775280898 197.559 781.0354775280898 193.96 Q 783.0119775280898 190.361 786.5519775280898 188.355 Q 790.0919775280898 186.349 794.6349775280898 186.349 Q 798.5879775280898 186.349 801.7444775280899 187.5585 Q 804.9009775280899 188.768 807.0249775280898 191.069 L 804.0159775280898 194.845 Z  M 834.3419775280898 217.737 L 834.3419775280898 213.371 Q 830.8609775280898 217.973 823.4269775280899 217.973 Q 820.1819775280899 217.973 817.7334775280899 216.734 Q 815.2849775280899 215.495 813.9574775280898 213.312 Q 812.6299775280899 211.12900000000002 812.6299775280899 208.415 Q 812.6299775280899 204.226 815.7274775280898 201.7775 Q 818.8249775280899 199.329 824.3709775280898 199.26999999999998 L 834.2829775280899 199.26999999999998 L 834.2829775280899 197.79500000000002 Q 834.2829775280899 194.49099999999999 832.2474775280898 192.69150000000002 Q 830.2119775280898 190.892 826.3179775280898 190.892 Q 821.5979775280898 190.892 816.7009775280899 194.255 L 814.3999775280898 190.47899999999998 Q 817.7629775280898 188.296 820.6244775280899 187.3225 Q 823.4859775280898 186.349 827.4389775280899 186.349 Q 833.2799775280898 186.349 836.4659775280899 189.2105 Q 839.6519775280899 192.072 839.7109775280899 197.20499999999998 L 839.7699775280898 217.737 L 834.3419775280898 217.737 Z  M 824.5479775280899 213.43 Q 828.3829775280899 213.43 831.0674775280899 211.57150000000001 Q 833.7519775280898 209.713 834.2829775280899 206.645 L 834.2829775280899 203.518 L 825.1379775280898 203.518 Q 821.4209775280899 203.518 819.6214775280898 204.639 Q 817.8219775280899 205.76 817.8219775280899 208.179 Q 817.8219775280899 210.598 819.6509775280899 212.014 Q 821.4799775280899 213.43 824.5479775280899 213.43 Z  M 889.8609775280898 186.349 Q 895.2299775280899 186.349 898.2979775280899 189.594 Q 901.3659775280898 192.839 901.3659775280898 198.44400000000002 L 901.3659775280898 217.737 L 895.8199775280898 217.737 L 895.8199775280898 199.91899999999998 Q 895.8199775280898 195.966 893.6664775280899 193.724 Q 891.5129775280898 191.482 887.7369775280899 191.482 Q 883.3119775280899 191.6 880.7749775280898 194.609 Q 878.2379775280899 197.618 878.2379775280899 202.338 L 878.2379775280899 217.737 L 872.6919775280899 217.737 L 872.6919775280899 199.91899999999998 Q 872.6919775280899 195.966 870.5679775280898 193.724 Q 868.4439775280898 191.482 864.6089775280898 191.482 Q 860.1839775280898 191.6 857.6174775280899 194.609 Q 855.0509775280898 197.618 855.0509775280898 202.338 L 855.0509775280898 217.737 L 849.5639775280899 217.737 L 849.5639775280899 186.526 L 855.0509775280898 186.526 L 855.0509775280898 193.075 Q 858.1189775280898 186.46699999999998 866.6739775280898 186.349 Q 870.9809775280899 186.349 873.8424775280898 188.414 Q 876.7039775280898 190.47899999999998 877.7069775280899 194.196 Q 880.5979775280898 186.46699999999998 889.8609775280898 186.349 Z  M 469.89897752808986 185.051 Q 467.00797752808984 183.222 463.91047752808987 182.3075 Q 460.81297752808985 181.393 458.21697752808984 181.393 Q 454.61797752808985 181.393 452.46447752808984 182.77949999999998 Q 450.31097752808984 184.166 450.31097752808984 186.585 Q 450.31097752808984 188.768 451.60897752808984 190.15449999999998 Q 452.90697752808984 191.541 454.7949775280899 192.3375 Q 456.68297752808985 193.13400000000001 460.04597752808985 194.196 Q 464.23497752808987 195.494 466.8309775280899 196.674 Q 469.4269775280899 197.85399999999998 471.25597752808983 200.1845 Q 473.08497752808984 202.515 473.08497752808984 206.35 Q 473.08497752808984 209.89 471.1674775280899 212.54500000000002 Q 469.24997752808986 215.2 465.79847752808985 216.6455 Q 462.34697752808984 218.091 457.86297752808986 218.091 Q 453.31997752808985 218.091 449.01297752808983 216.321 Q 444.7059775280899 214.551 441.57897752808987 211.601 L 444.11597752808984 206.704 Q 447.06597752808983 209.595 450.75347752808983 211.1585 Q 454.44097752808983 212.722 457.9219775280899 212.722 Q 462.0519775280899 212.722 464.4414775280899 211.0995 Q 466.8309775280899 209.477 466.8309775280899 206.704 Q 466.8309775280899 204.52100000000002 465.5329775280899 203.10500000000002 Q 464.23497752808987 201.689 462.2584775280899 200.863 Q 460.28197752808984 200.037 456.91897752808984 199.034 Q 452.78897752808984 197.79500000000002 450.19297752808984 196.615 Q 447.59697752808984 195.435 445.79747752808987 193.13400000000001 Q 443.99797752808985 190.833 443.99797752808985 187.057 Q 443.99797752808985 183.753 445.82697752808986 181.216 Q 447.65597752808986 178.679 450.95997752808984 177.322 Q 454.26397752808987 175.965 458.62997752808985 175.965 Q 462.34697752808984 175.965 465.91647752808984 177.0565 Q 469.48597752808985 178.148 472.2589775280899 179.977 L 469.89897752808986 185.051 Z  M 494.56097752808984 186.349 Q 499.22197752808984 186.349 502.85047752808987 188.355 Q 506.47897752808984 190.361 508.51447752808986 193.9305 Q 510.54997752808987 197.5 510.54997752808987 202.102 Q 510.54997752808987 206.704 508.51447752808986 210.303 Q 506.47897752808984 213.902 502.85047752808987 215.90800000000002 Q 499.22197752808984 217.914 494.56097752808984 217.914 Q 489.84097752808987 217.914 486.21247752808983 215.90800000000002 Q 482.58397752808986 213.902 480.54847752808985 210.3325 Q 478.51297752808983 206.763 478.51297752808983 202.102 Q 478.51297752808983 197.5 480.54847752808985 193.9305 Q 482.58397752808986 190.361 486.21247752808983 188.355 Q 489.84097752808987 186.349 494.56097752808984 186.349 Z  M 494.56097752808984 191.128 Q 491.49297752808985 191.128 489.10347752808985 192.544 Q 486.71397752808986 193.96 485.38647752808987 196.4675 Q 484.0589775280898 198.975 484.0589775280898 202.161 Q 484.0589775280898 205.406 485.38647752808987 207.94299999999998 Q 486.71397752808986 210.48000000000002 489.10347752808985 211.8665 Q 491.49297752808985 213.253 494.56097752808984 213.253 Q 497.56997752808985 213.253 499.95947752808985 211.8665 Q 502.34897752808985 210.48000000000002 503.67647752808983 207.94299999999998 Q 505.0039775280899 205.406 505.0039775280899 202.161 Q 505.0039775280899 198.975 503.67647752808983 196.4675 Q 502.34897752808985 193.96 499.95947752808985 192.544 Q 497.56997752808985 191.128 494.56097752808984 191.128 Z  M 523.7069775280899 193.252 Q 525.2409775280898 189.889 528.0729775280898 188.1485 Q 530.9049775280898 186.40800000000002 534.7989775280898 186.349 L 534.7989775280898 191.659 Q 530.0199775280898 191.482 527.0699775280898 194.137 Q 524.1199775280899 196.792 523.7069775280899 201.276 L 523.7069775280899 217.737 L 518.2199775280899 217.737 L 518.2199775280899 186.526 L 523.7069775280899 186.526 L 523.7069775280899 193.252 Z  M 546.2449775280899 193.252 Q 547.7789775280899 189.889 550.6109775280898 188.1485 Q 553.4429775280898 186.40800000000002 557.3369775280898 186.349 L 557.3369775280898 191.659 Q 552.5579775280899 191.482 549.6079775280898 194.137 Q 546.6579775280899 196.792 546.2449775280899 201.276 L 546.2449775280899 217.737 L 540.7579775280899 217.737 L 540.7579775280899 186.526 L 546.2449775280899 186.526 L 546.2449775280899 193.252 Z  M 574.2109775280899 222.162 Q 572.7359775280898 225.761 570.2874775280899 227.59 Q 567.8389775280898 229.41899999999998 564.5349775280898 229.41899999999998 Q 562.5289775280899 229.41899999999998 560.8769775280898 228.829 Q 559.2249775280899 228.239 557.6909775280899 227 L 560.0509775280898 222.693 Q 562.1159775280898 224.168 564.2399775280899 224.168 Q 567.7799775280898 224.168 569.5499775280898 220.156 L 570.7299775280899 217.383 L 557.8089775280898 186.526 L 563.5909775280899 186.526 L 573.5029775280898 211.542 L 582.8839775280899 186.526 L 588.4889775280899 186.526 L 574.2109775280899 222.162 Z  M 594.3889775280899 211.483 Q 595.7459775280898 211.483 596.6604775280898 212.427 Q 597.5749775280899 213.371 597.5749775280899 214.846 Q 597.5749775280899 216.321 596.6604775280898 217.2945 Q 595.7459775280898 218.268 594.3889775280899 218.268 Q 593.0319775280898 218.268 592.0879775280898 217.2945 Q 591.1439775280899 216.321 591.1439775280899 214.846 Q 591.1439775280899 213.371 592.0879775280898 212.427 Q 593.0319775280898 211.483 594.3889775280899 211.483 Z  M 606.6019775280898 211.483 Q 607.9589775280898 211.483 608.8734775280898 212.427 Q 609.7879775280899 213.371 609.7879775280899 214.846 Q 609.7879775280899 216.321 608.8734775280898 217.2945 Q 607.9589775280898 218.268 606.6019775280898 218.268 Q 605.2449775280899 218.268 604.3009775280898 217.2945 Q 603.3569775280898 216.321 603.3569775280898 214.846 Q 603.3569775280898 213.371 604.3009775280898 212.427 Q 605.2449775280899 211.483 606.6019775280898 211.483 Z  M 618.8149775280898 211.483 Q 620.1719775280899 211.483 621.0864775280899 212.427 Q 622.0009775280898 213.371 622.0009775280898 214.846 Q 622.0009775280898 216.321 621.0864775280899 217.2945 Q 620.1719775280899 218.268 618.8149775280898 218.268 Q 617.4579775280898 218.268 616.5139775280899 217.2945 Q 615.5699775280898 216.321 615.5699775280898 214.846 Q 615.5699775280898 213.371 616.5139775280899 212.427 Q 617.4579775280898 211.483 618.8149775280898 211.483 Z "
          fill-rule="evenodd" fill="rgb(0,0,0)"/>
    <g style="isolation: isolate;">
        <path d=" M 464.29397752808984 289.658 L 464.29397752808984 285.29200000000003 Q 460.81297752808985 289.894 453.3789775280899 289.894 Q 450.1339775280899 289.894 447.68547752808985 288.65500000000003 Q 445.2369775280899 287.416 443.90947752808984 285.233 Q 442.58197752808985 283.05 442.58197752808985 280.336 Q 442.58197752808985 276.14700000000005 445.6794775280899 273.6985 Q 448.77697752808984 271.25 454.32297752808984 271.19100000000003 L 464.23497752808987 271.19100000000003 L 464.23497752808987 269.716 Q 464.23497752808987 266.41200000000003 462.19947752808986 264.6125 Q 460.16397752808984 262.813 456.26997752808984 262.813 Q 451.54997752808987 262.813 446.6529775280899 266.17600000000004 L 444.35197752808983 262.4 Q 447.71497752808983 260.217 450.57647752808987 259.24350000000004 Q 453.43797752808985 258.27 457.3909775280899 258.27 Q 463.2319775280898 258.27 466.41797752808986 261.1315 Q 469.60397752808984 263.993 469.66297752808987 269.12600000000003 L 469.72197752808984 289.658 L 464.29397752808984 289.658 Z  M 454.49997752808986 285.351 Q 458.33497752808984 285.351 461.01947752808985 283.4925 Q 463.70397752808987 281.634 464.23497752808987 278.56600000000003 L 464.23497752808987 275.439 L 455.08997752808983 275.439 Q 451.37297752808985 275.439 449.5734775280898 276.56 Q 447.77397752808986 277.68100000000004 447.77397752808986 280.1 Q 447.77397752808986 282.519 449.60297752808987 283.935 Q 451.4319775280899 285.351 454.49997752808986 285.351 Z  M 474.32397752808987 258.447 L 480.1649775280899 258.447 L 489.54597752808985 284.23 L 498.86797752808985 258.447 L 504.41397752808984 258.447 L 492.25997752808985 289.658 L 486.53697752808984 289.658 L 474.32397752808987 258.447 Z  M 528.6629775280899 289.658 L 528.6629775280899 285.29200000000003 Q 525.1819775280899 289.894 517.7479775280899 289.894 Q 514.5029775280899 289.894 512.0544775280898 288.65500000000003 Q 509.60597752808985 287.416 508.27847752808987 285.233 Q 506.9509775280899 283.05 506.9509775280899 280.336 Q 506.9509775280899 276.14700000000005 510.04847752808985 273.6985 Q 513.1459775280898 271.25 518.6919775280899 271.19100000000003 L 528.6039775280899 271.19100000000003 L 528.6039775280899 269.716 Q 528.6039775280899 266.41200000000003 526.5684775280898 264.6125 Q 524.5329775280899 262.813 520.6389775280899 262.813 Q 515.9189775280898 262.813 511.02197752808985 266.17600000000004 L 508.72097752808986 262.4 Q 512.0839775280898 260.217 514.9454775280899 259.24350000000004 Q 517.8069775280899 258.27 521.7599775280898 258.27 Q 527.6009775280899 258.27 530.7869775280899 261.1315 Q 533.9729775280898 263.993 534.0319775280899 269.12600000000003 L 534.0909775280899 289.658 L 528.6629775280899 289.658 Z  M 518.8689775280899 285.351 Q 522.7039775280898 285.351 525.3884775280899 283.4925 Q 528.0729775280898 281.634 528.6039775280899 278.56600000000003 L 528.6039775280899 275.439 L 519.4589775280899 275.439 Q 515.7419775280898 275.439 513.9424775280899 276.56 Q 512.1429775280899 277.68100000000004 512.1429775280899 280.1 Q 512.1429775280899 282.519 513.9719775280898 283.935 Q 515.8009775280898 285.351 518.8689775280899 285.351 Z  M 543.8849775280898 258.447 L 549.3719775280898 258.447 L 549.3719775280898 289.658 L 543.8849775280898 289.658 L 543.8849775280898 258.447 Z  M 546.5989775280898 245.99800000000002 Q 548.0739775280898 245.99800000000002 549.0474775280899 247.001 Q 550.0209775280898 248.00400000000002 550.0209775280898 249.538 Q 550.0209775280898 251.072 549.0474775280899 252.07500000000002 Q 548.0739775280898 253.078 546.5989775280898 253.078 Q 545.1239775280899 253.078 544.1504775280898 252.07500000000002 Q 543.1769775280899 251.072 543.1769775280899 249.538 Q 543.1769775280899 248.00400000000002 544.1504775280898 247.001 Q 545.1239775280899 245.99800000000002 546.5989775280898 245.99800000000002 Z  M 560.3459775280899 245.88 L 565.8329775280898 245.88 L 565.8329775280898 289.658 L 560.3459775280899 289.658 L 560.3459775280899 245.88 Z  M 595.9229775280899 289.658 L 595.9229775280899 285.29200000000003 Q 592.4419775280899 289.894 585.0079775280899 289.894 Q 581.7629775280898 289.894 579.3144775280898 288.65500000000003 Q 576.8659775280898 287.416 575.5384775280899 285.233 Q 574.2109775280899 283.05 574.2109775280899 280.336 Q 574.2109775280899 276.14700000000005 577.3084775280898 273.6985 Q 580.4059775280898 271.25 585.9519775280899 271.19100000000003 L 595.8639775280899 271.19100000000003 L 595.8639775280899 269.716 Q 595.8639775280899 266.41200000000003 593.8284775280898 264.6125 Q 591.7929775280899 262.813 587.8989775280899 262.813 Q 583.1789775280898 262.813 578.2819775280898 266.17600000000004 L 575.9809775280899 262.4 Q 579.3439775280899 260.217 582.2054775280899 259.24350000000004 Q 585.0669775280899 258.27 589.0199775280898 258.27 Q 594.8609775280898 258.27 598.0469775280899 261.1315 Q 601.2329775280898 263.993 601.2919775280898 269.12600000000003 L 601.3509775280899 289.658 L 595.9229775280899 289.658 Z  M 586.1289775280899 285.351 Q 589.9639775280898 285.351 592.6484775280899 283.4925 Q 595.3329775280898 281.634 595.8639775280899 278.56600000000003 L 595.8639775280899 275.439 L 586.7189775280899 275.439 Q 583.0019775280898 275.439 581.2024775280898 276.56 Q 579.4029775280899 277.68100000000004 579.4029775280899 280.1 Q 579.4029775280899 282.519 581.2319775280898 283.935 Q 583.0609775280898 285.351 586.1289775280899 285.351 Z  M 628.4909775280898 258.27 Q 632.8569775280898 258.27 636.2789775280899 260.276 Q 639.7009775280899 262.28200000000004 641.5889775280898 265.88100000000003 Q 643.4769775280898 269.48 643.4769775280898 274.141 Q 643.4769775280898 278.743 641.6184775280899 282.3125 Q 639.7599775280898 285.882 636.3674775280898 287.85850000000005 Q 632.9749775280899 289.83500000000004 628.6089775280898 289.83500000000004 Q 624.6559775280898 289.83500000000004 621.6469775280898 288.183 Q 618.6379775280898 286.531 616.9269775280899 283.463 L 616.9269775280899 289.658 L 611.4399775280898 289.658 L 611.4399775280898 245.88 L 616.9269775280899 245.88 L 616.9269775280899 264.642 Q 618.6379775280898 261.574 621.6174775280898 259.922 Q 624.5969775280898 258.27 628.4909775280898 258.27 Z  M 627.4289775280898 285.05600000000004 Q 630.4379775280898 285.05600000000004 632.8274775280898 283.64 Q 635.2169775280898 282.22400000000005 636.5444775280898 279.687 Q 637.8719775280898 277.15000000000003 637.8719775280898 273.964 Q 637.8719775280898 270.837 636.5149775280898 268.3 Q 635.1579775280899 265.76300000000003 632.7979775280899 264.347 Q 630.4379775280898 262.93100000000004 627.4289775280898 262.93100000000004 Q 624.4199775280898 262.93100000000004 622.0304775280898 264.347 Q 619.6409775280898 265.76300000000003 618.2839775280898 268.3 Q 616.9269775280899 270.837 616.9269775280899 273.964 Q 616.9269775280899 277.209 618.2839775280898 279.7165 Q 619.6409775280898 282.22400000000005 622.0304775280898 283.64 Q 624.4199775280898 285.05600000000004 627.4289775280898 285.05600000000004 Z  M 651.4419775280899 245.88 L 656.9289775280898 245.88 L 656.9289775280898 289.658 L 651.4419775280899 289.658 L 651.4419775280899 245.88 Z  M 680.4699775280899 258.27 Q 687.7269775280898 258.27 691.4439775280898 262.5475 Q 695.1609775280899 266.82500000000005 695.1609775280899 274.43600000000004 Q 695.1609775280899 275.616 695.1019775280898 276.206 L 670.4399775280899 276.206 Q 671.0889775280898 280.395 673.9504775280898 282.87300000000005 Q 676.8119775280899 285.351 681.0009775280898 285.351 Q 683.7739775280899 285.351 686.1634775280899 284.348 Q 688.5529775280899 283.345 690.3229775280898 281.516 L 693.3319775280899 284.64300000000003 Q 691.0309775280898 287.121 687.7859775280899 288.478 Q 684.5409775280898 289.83500000000004 680.5879775280898 289.83500000000004 Q 675.9859775280898 289.83500000000004 672.4164775280899 287.85850000000005 Q 668.8469775280898 285.882 666.8704775280899 282.283 Q 664.8939775280899 278.684 664.8939775280899 274.082 Q 664.8939775280899 269.48 666.8704775280899 265.9105 Q 668.8469775280898 262.341 672.3869775280898 260.3055 Q 675.9269775280899 258.27 680.4699775280899 258.27 Z  M 690.2049775280898 271.958 Q 689.9689775280899 267.71000000000004 687.3729775280899 265.2615 Q 684.7769775280899 262.813 680.5289775280899 262.813 Q 676.3989775280899 262.813 673.6554775280898 265.291 Q 670.9119775280899 267.769 670.3809775280898 271.958 L 690.2049775280898 271.958 Z  M 943.9639775280898 186.349 Q 949.4509775280899 186.349 952.5779775280898 189.5645 Q 955.7049775280898 192.78 955.7049775280898 198.44400000000002 L 955.7049775280898 217.737 L 950.2179775280899 217.737 L 950.2179775280899 199.91899999999998 Q 950.2179775280899 195.966 948.0054775280898 193.7535 Q 945.7929775280899 191.541 941.8989775280899 191.541 Q 937.7099775280899 191.6 935.0844775280899 194.2255 Q 932.4589775280899 196.851 932.1049775280899 201.04 L 932.1049775280899 217.737 L 926.6179775280899 217.737 L 926.6179775280899 186.526 L 932.1049775280899 186.526 L 932.1049775280899 193.13400000000001 Q 935.2319775280898 186.46699999999998 943.9639775280898 186.349 Z  M 978.4789775280899 186.349 Q 983.13997752809 186.349 986.76847752809 188.355 Q 990.39697752809 190.361 992.43247752809 193.9305 Q 994.4679775280899 197.5 994.4679775280899 202.102 Q 994.4679775280899 206.704 992.43247752809 210.303 Q 990.39697752809 213.902 986.76847752809 215.90800000000002 Q 983.13997752809 217.914 978.4789775280899 217.914 Q 973.7589775280899 217.914 970.1304775280898 215.90800000000002 Q 966.5019775280898 213.902 964.4664775280899 210.3325 Q 962.4309775280899 206.763 962.4309775280899 202.102 Q 962.4309775280899 197.5 964.4664775280899 193.9305 Q 966.5019775280898 190.361 970.1304775280898 188.355 Q 973.7589775280899 186.349 978.4789775280899 186.349 Z  M 978.4789775280899 191.128 Q 975.4109775280899 191.128 973.0214775280899 192.544 Q 970.6319775280899 193.96 969.3044775280898 196.4675 Q 967.97697752809 198.975 967.97697752809 202.161 Q 967.97697752809 205.406 969.3044775280898 207.94299999999998 Q 970.6319775280899 210.48000000000002 973.0214775280899 211.8665 Q 975.4109775280899 213.253 978.4789775280899 213.253 Q 981.4879775280899 213.253 983.8774775280899 211.8665 Q 986.2669775280899 210.48000000000002 987.59447752809 207.94299999999998 Q 988.9219775280899 205.406 988.9219775280899 202.161 Q 988.9219775280899 198.975 987.59447752809 196.4675 Q 986.2669775280899 193.96 983.8774775280899 192.544 Q 981.4879775280899 191.128 978.4789775280899 191.128 Z  M 1018.8939775280899 215.672 Q 1015.2949775280899 217.973 1011.5779775280898 217.973 Q 1007.86097752809 217.973 1005.55997752809 215.7605 Q 1003.2589775280899 213.548 1003.2589775280899 209.064 L 1003.2589775280899 191.777 L 998.8339775280899 191.777 L 998.8339775280899 187.588 L 1003.2589775280899 187.588 L 1003.2589775280899 179.21 L 1008.8049775280899 179.21 L 1008.8049775280899 187.588 L 1018.3629775280899 187.588 L 1018.3629775280899 191.777 L 1008.8049775280899 191.777 L 1008.8049775280899 208.061 Q 1008.8049775280899 210.657 1009.7489775280899 211.778 Q 1010.6929775280898 212.899 1012.58097752809 212.899 Q 1014.82297752809 212.899 1017.41897752809 211.424 L 1018.8939775280899 215.672 Z  M 695.9279775280897 176.437 L 701.8279775280898 176.437 L 687.8449775280899 217.737 L 681.9449775280898 217.737 L 671.2659775280898 183.635 L 660.4099775280898 217.737 L 654.5689775280898 217.737 L 640.6449775280898 176.437 L 646.7219775280898 176.437 L 657.6369775280898 211.66 L 668.4929775280898 176.437 L 674.1569775280898 176.437 L 685.0719775280899 211.66 L 695.9279775280897 176.437 Z  M 719.9409775280899 186.349 Q 727.1979775280898 186.349 730.9149775280898 190.6265 Q 734.6319775280898 194.904 734.6319775280898 202.515 Q 734.6319775280898 203.695 734.5729775280898 204.285 L 709.9109775280898 204.285 Q 710.5599775280898 208.474 713.4214775280898 210.952 Q 716.2829775280898 213.43 720.4719775280898 213.43 Q 723.2449775280897 213.43 725.6344775280897 212.427 Q 728.0239775280897 211.424 729.7939775280898 209.595 L 732.8029775280897 212.722 Q 730.5019775280898 215.2 727.2569775280898 216.55700000000002 Q 724.0119775280898 217.914 720.0589775280898 217.914 Q 715.4569775280897 217.914 711.8874775280899 215.9375 Q 708.3179775280898 213.961 706.3414775280899 210.362 Q 704.3649775280899 206.763 704.3649775280899 202.161 Q 704.3649775280899 197.559 706.3414775280899 193.9895 Q 708.3179775280898 190.42000000000002 711.8579775280898 188.3845 Q 715.3979775280898 186.349 719.9409775280899 186.349 Z  M 729.6759775280898 200.037 Q 729.4399775280898 195.789 726.8439775280899 193.3405 Q 724.2479775280899 190.892 719.9999775280899 190.892 Q 715.8699775280897 190.892 713.1264775280898 193.37 Q 710.3829775280899 195.848 709.8519775280898 200.037 L 729.6759775280898 200.037 Z  M 759.4709775280899 186.349 Q 763.8369775280898 186.349 767.2589775280899 188.355 Q 770.6809775280899 190.361 772.5689775280898 193.96 Q 774.4569775280899 197.559 774.4569775280899 202.22 Q 774.4569775280899 206.822 772.5984775280899 210.3915 Q 770.7399775280899 213.961 767.3474775280898 215.9375 Q 763.9549775280898 217.914 759.5889775280898 217.914 Q 755.6359775280898 217.914 752.6269775280898 216.262 Q 749.6179775280898 214.61 747.9069775280898 211.542 L 747.9069775280898 217.737 L 742.4199775280898 217.737 L 742.4199775280898 173.959 L 747.9069775280898 173.959 L 747.9069775280898 192.721 Q 749.6179775280898 189.653 752.5974775280898 188.001 Q 755.5769775280899 186.349 759.4709775280899 186.349 Z  M 758.4089775280898 213.135 Q 761.4179775280898 213.135 763.8074775280897 211.719 Q 766.1969775280897 210.303 767.5244775280898 207.76600000000002 Q 768.8519775280898 205.22899999999998 768.8519775280898 202.043 Q 768.8519775280898 198.916 767.4949775280897 196.37900000000002 Q 766.1379775280898 193.84199999999998 763.7779775280899 192.426 Q 761.4179775280898 191.01 758.4089775280898 191.01 Q 755.3999775280898 191.01 753.0104775280898 192.426 Q 750.6209775280898 193.84199999999998 749.2639775280898 196.37900000000002 Q 747.9069775280898 198.916 747.9069775280898 202.043 Q 747.9069775280898 205.288 749.2639775280898 207.7955 Q 750.6209775280898 210.303 753.0104775280898 211.719 Q 755.3999775280898 213.135 758.4089775280898 213.135 Z  M 804.0159775280898 194.845 Q 800.2989775280898 191.246 795.1069775280898 191.246 Q 792.0389775280898 191.246 789.6494775280898 192.603 Q 787.2599775280898 193.96 785.9029775280899 196.438 Q 784.5459775280899 198.916 784.5459775280899 202.161 Q 784.5459775280899 205.406 785.8734775280898 207.88400000000001 Q 787.2009775280899 210.362 789.5314775280899 211.7485 Q 791.8619775280898 213.135 794.8709775280898 213.135 Q 797.8799775280899 213.135 800.2989775280898 212.132 Q 802.7179775280898 211.12900000000002 804.3109775280898 209.24099999999999 L 807.4379775280898 212.427 Q 805.3139775280898 215.082 802.0394775280898 216.498 Q 798.7649775280898 217.914 794.6349775280898 217.914 Q 790.0919775280898 217.914 786.5519775280898 215.90800000000002 Q 783.0119775280898 213.902 781.0354775280898 210.3325 Q 779.0589775280898 206.763 779.0589775280898 202.161 Q 779.0589775280898 197.559 781.0354775280898 193.96 Q 783.0119775280898 190.361 786.5519775280898 188.355 Q 790.0919775280898 186.349 794.6349775280898 186.349 Q 798.5879775280898 186.349 801.7444775280899 187.5585 Q 804.9009775280899 188.768 807.0249775280898 191.069 L 804.0159775280898 194.845 Z  M 834.3419775280898 217.737 L 834.3419775280898 213.371 Q 830.8609775280898 217.973 823.4269775280899 217.973 Q 820.1819775280899 217.973 817.7334775280899 216.734 Q 815.2849775280899 215.495 813.9574775280898 213.312 Q 812.6299775280899 211.12900000000002 812.6299775280899 208.415 Q 812.6299775280899 204.226 815.7274775280898 201.7775 Q 818.8249775280899 199.329 824.3709775280898 199.26999999999998 L 834.2829775280899 199.26999999999998 L 834.2829775280899 197.79500000000002 Q 834.2829775280899 194.49099999999999 832.2474775280898 192.69150000000002 Q 830.2119775280898 190.892 826.3179775280898 190.892 Q 821.5979775280898 190.892 816.7009775280899 194.255 L 814.3999775280898 190.47899999999998 Q 817.7629775280898 188.296 820.6244775280899 187.3225 Q 823.4859775280898 186.349 827.4389775280899 186.349 Q 833.2799775280898 186.349 836.4659775280899 189.2105 Q 839.6519775280899 192.072 839.7109775280899 197.20499999999998 L 839.7699775280898 217.737 L 834.3419775280898 217.737 Z  M 824.5479775280899 213.43 Q 828.3829775280899 213.43 831.0674775280899 211.57150000000001 Q 833.7519775280898 209.713 834.2829775280899 206.645 L 834.2829775280899 203.518 L 825.1379775280898 203.518 Q 821.4209775280899 203.518 819.6214775280898 204.639 Q 817.8219775280899 205.76 817.8219775280899 208.179 Q 817.8219775280899 210.598 819.6509775280899 212.014 Q 821.4799775280899 213.43 824.5479775280899 213.43 Z  M 889.8609775280898 186.349 Q 895.2299775280899 186.349 898.2979775280899 189.594 Q 901.3659775280898 192.839 901.3659775280898 198.44400000000002 L 901.3659775280898 217.737 L 895.8199775280898 217.737 L 895.8199775280898 199.91899999999998 Q 895.8199775280898 195.966 893.6664775280899 193.724 Q 891.5129775280898 191.482 887.7369775280899 191.482 Q 883.3119775280899 191.6 880.7749775280898 194.609 Q 878.2379775280899 197.618 878.2379775280899 202.338 L 878.2379775280899 217.737 L 872.6919775280899 217.737 L 872.6919775280899 199.91899999999998 Q 872.6919775280899 195.966 870.5679775280898 193.724 Q 868.4439775280898 191.482 864.6089775280898 191.482 Q 860.1839775280898 191.6 857.6174775280899 194.609 Q 855.0509775280898 197.618 855.0509775280898 202.338 L 855.0509775280898 217.737 L 849.5639775280899 217.737 L 849.5639775280899 186.526 L 855.0509775280898 186.526 L 855.0509775280898 193.075 Q 858.1189775280898 186.46699999999998 866.6739775280898 186.349 Q 870.9809775280899 186.349 873.8424775280898 188.414 Q 876.7039775280898 190.47899999999998 877.7069775280899 194.196 Q 880.5979775280898 186.46699999999998 889.8609775280898 186.349 Z  M 469.89897752808986 185.051 Q 467.00797752808984 183.222 463.91047752808987 182.3075 Q 460.81297752808985 181.393 458.21697752808984 181.393 Q 454.61797752808985 181.393 452.46447752808984 182.77949999999998 Q 450.31097752808984 184.166 450.31097752808984 186.585 Q 450.31097752808984 188.768 451.60897752808984 190.15449999999998 Q 452.90697752808984 191.541 454.7949775280899 192.3375 Q 456.68297752808985 193.13400000000001 460.04597752808985 194.196 Q 464.23497752808987 195.494 466.8309775280899 196.674 Q 469.4269775280899 197.85399999999998 471.25597752808983 200.1845 Q 473.08497752808984 202.515 473.08497752808984 206.35 Q 473.08497752808984 209.89 471.1674775280899 212.54500000000002 Q 469.24997752808986 215.2 465.79847752808985 216.6455 Q 462.34697752808984 218.091 457.86297752808986 218.091 Q 453.31997752808985 218.091 449.01297752808983 216.321 Q 444.7059775280899 214.551 441.57897752808987 211.601 L 444.11597752808984 206.704 Q 447.06597752808983 209.595 450.75347752808983 211.1585 Q 454.44097752808983 212.722 457.9219775280899 212.722 Q 462.0519775280899 212.722 464.4414775280899 211.0995 Q 466.8309775280899 209.477 466.8309775280899 206.704 Q 466.8309775280899 204.52100000000002 465.5329775280899 203.10500000000002 Q 464.23497752808987 201.689 462.2584775280899 200.863 Q 460.28197752808984 200.037 456.91897752808984 199.034 Q 452.78897752808984 197.79500000000002 450.19297752808984 196.615 Q 447.59697752808984 195.435 445.79747752808987 193.13400000000001 Q 443.99797752808985 190.833 443.99797752808985 187.057 Q 443.99797752808985 183.753 445.82697752808986 181.216 Q 447.65597752808986 178.679 450.95997752808984 177.322 Q 454.26397752808987 175.965 458.62997752808985 175.965 Q 462.34697752808984 175.965 465.91647752808984 177.0565 Q 469.48597752808985 178.148 472.2589775280899 179.977 L 469.89897752808986 185.051 Z  M 494.56097752808984 186.349 Q 499.22197752808984 186.349 502.85047752808987 188.355 Q 506.47897752808984 190.361 508.51447752808986 193.9305 Q 510.54997752808987 197.5 510.54997752808987 202.102 Q 510.54997752808987 206.704 508.51447752808986 210.303 Q 506.47897752808984 213.902 502.85047752808987 215.90800000000002 Q 499.22197752808984 217.914 494.56097752808984 217.914 Q 489.84097752808987 217.914 486.21247752808983 215.90800000000002 Q 482.58397752808986 213.902 480.54847752808985 210.3325 Q 478.51297752808983 206.763 478.51297752808983 202.102 Q 478.51297752808983 197.5 480.54847752808985 193.9305 Q 482.58397752808986 190.361 486.21247752808983 188.355 Q 489.84097752808987 186.349 494.56097752808984 186.349 Z  M 494.56097752808984 191.128 Q 491.49297752808985 191.128 489.10347752808985 192.544 Q 486.71397752808986 193.96 485.38647752808987 196.4675 Q 484.0589775280898 198.975 484.0589775280898 202.161 Q 484.0589775280898 205.406 485.38647752808987 207.94299999999998 Q 486.71397752808986 210.48000000000002 489.10347752808985 211.8665 Q 491.49297752808985 213.253 494.56097752808984 213.253 Q 497.56997752808985 213.253 499.95947752808985 211.8665 Q 502.34897752808985 210.48000000000002 503.67647752808983 207.94299999999998 Q 505.0039775280899 205.406 505.0039775280899 202.161 Q 505.0039775280899 198.975 503.67647752808983 196.4675 Q 502.34897752808985 193.96 499.95947752808985 192.544 Q 497.56997752808985 191.128 494.56097752808984 191.128 Z  M 523.7069775280899 193.252 Q 525.2409775280898 189.889 528.0729775280898 188.1485 Q 530.9049775280898 186.40800000000002 534.7989775280898 186.349 L 534.7989775280898 191.659 Q 530.0199775280898 191.482 527.0699775280898 194.137 Q 524.1199775280899 196.792 523.7069775280899 201.276 L 523.7069775280899 217.737 L 518.2199775280899 217.737 L 518.2199775280899 186.526 L 523.7069775280899 186.526 L 523.7069775280899 193.252 Z  M 546.2449775280899 193.252 Q 547.7789775280899 189.889 550.6109775280898 188.1485 Q 553.4429775280898 186.40800000000002 557.3369775280898 186.349 L 557.3369775280898 191.659 Q 552.5579775280899 191.482 549.6079775280898 194.137 Q 546.6579775280899 196.792 546.2449775280899 201.276 L 546.2449775280899 217.737 L 540.7579775280899 217.737 L 540.7579775280899 186.526 L 546.2449775280899 186.526 L 546.2449775280899 193.252 Z  M 574.2109775280899 222.162 Q 572.7359775280898 225.761 570.2874775280899 227.59 Q 567.8389775280898 229.41899999999998 564.5349775280898 229.41899999999998 Q 562.5289775280899 229.41899999999998 560.8769775280898 228.829 Q 559.2249775280899 228.239 557.6909775280899 227 L 560.0509775280898 222.693 Q 562.1159775280898 224.168 564.2399775280899 224.168 Q 567.7799775280898 224.168 569.5499775280898 220.156 L 570.7299775280899 217.383 L 557.8089775280898 186.526 L 563.5909775280899 186.526 L 573.5029775280898 211.542 L 582.8839775280899 186.526 L 588.4889775280899 186.526 L 574.2109775280899 222.162 Z  M 594.3889775280899 211.483 Q 595.7459775280898 211.483 596.6604775280898 212.427 Q 597.5749775280899 213.371 597.5749775280899 214.846 Q 597.5749775280899 216.321 596.6604775280898 217.2945 Q 595.7459775280898 218.268 594.3889775280899 218.268 Q 593.0319775280898 218.268 592.0879775280898 217.2945 Q 591.1439775280899 216.321 591.1439775280899 214.846 Q 591.1439775280899 213.371 592.0879775280898 212.427 Q 593.0319775280898 211.483 594.3889775280899 211.483 Z  M 606.6019775280898 211.483 Q 607.9589775280898 211.483 608.8734775280898 212.427 Q 609.7879775280899 213.371 609.7879775280899 214.846 Q 609.7879775280899 216.321 608.8734775280898 217.2945 Q 607.9589775280898 218.268 606.6019775280898 218.268 Q 605.2449775280899 218.268 604.3009775280898 217.2945 Q 603.3569775280898 216.321 603.3569775280898 214.846 Q 603.3569775280898 213.371 604.3009775280898 212.427 Q 605.2449775280899 211.483 606.6019775280898 211.483 Z  M 618.8149775280898 211.483 Q 620.1719775280899 211.483 621.0864775280899 212.427 Q 622.0009775280898 213.371 622.0009775280898 214.846 Q 622.0009775280898 216.321 621.0864775280899 217.2945 Q 620.1719775280899 218.268 618.8149775280898 218.268 Q 617.4579775280898 218.268 616.5139775280899 217.2945 Q 615.5699775280898 216.321 615.5699775280898 214.846 Q 615.5699775280898 213.371 616.5139775280899 212.427 Q 617.4579775280898 211.483 618.8149775280898 211.483 Z "
              fill-rule="evenodd" fill="none" vector-effect="non-scaling-stroke" stroke-width="0.7134831460674157"
              stroke="rgb(0,0,0)" stroke-linejoin="miter" stroke-linecap="square" stroke-miterlimit="3"/>
        <path d=" M 464.29397752808984 289.658 L 464.29397752808984 285.29200000000003 Q 460.81297752808985 289.894 453.3789775280899 289.894 Q 450.1339775280899 289.894 447.68547752808985 288.65500000000003 Q 445.2369775280899 287.416 443.90947752808984 285.233 Q 442.58197752808985 283.05 442.58197752808985 280.336 Q 442.58197752808985 276.14700000000005 445.6794775280899 273.6985 Q 448.77697752808984 271.25 454.32297752808984 271.19100000000003 L 464.23497752808987 271.19100000000003 L 464.23497752808987 269.716 Q 464.23497752808987 266.41200000000003 462.19947752808986 264.6125 Q 460.16397752808984 262.813 456.26997752808984 262.813 Q 451.54997752808987 262.813 446.6529775280899 266.17600000000004 L 444.35197752808983 262.4 Q 447.71497752808983 260.217 450.57647752808987 259.24350000000004 Q 453.43797752808985 258.27 457.3909775280899 258.27 Q 463.2319775280898 258.27 466.41797752808986 261.1315 Q 469.60397752808984 263.993 469.66297752808987 269.12600000000003 L 469.72197752808984 289.658 L 464.29397752808984 289.658 Z  M 454.49997752808986 285.351 Q 458.33497752808984 285.351 461.01947752808985 283.4925 Q 463.70397752808987 281.634 464.23497752808987 278.56600000000003 L 464.23497752808987 275.439 L 455.08997752808983 275.439 Q 451.37297752808985 275.439 449.5734775280898 276.56 Q 447.77397752808986 277.68100000000004 447.77397752808986 280.1 Q 447.77397752808986 282.519 449.60297752808987 283.935 Q 451.4319775280899 285.351 454.49997752808986 285.351 Z  M 474.32397752808987 258.447 L 480.1649775280899 258.447 L 489.54597752808985 284.23 L 498.86797752808985 258.447 L 504.41397752808984 258.447 L 492.25997752808985 289.658 L 486.53697752808984 289.658 L 474.32397752808987 258.447 Z  M 528.6629775280899 289.658 L 528.6629775280899 285.29200000000003 Q 525.1819775280899 289.894 517.7479775280899 289.894 Q 514.5029775280899 289.894 512.0544775280898 288.65500000000003 Q 509.60597752808985 287.416 508.27847752808987 285.233 Q 506.9509775280899 283.05 506.9509775280899 280.336 Q 506.9509775280899 276.14700000000005 510.04847752808985 273.6985 Q 513.1459775280898 271.25 518.6919775280899 271.19100000000003 L 528.6039775280899 271.19100000000003 L 528.6039775280899 269.716 Q 528.6039775280899 266.41200000000003 526.5684775280898 264.6125 Q 524.5329775280899 262.813 520.6389775280899 262.813 Q 515.9189775280898 262.813 511.02197752808985 266.17600000000004 L 508.72097752808986 262.4 Q 512.0839775280898 260.217 514.9454775280899 259.24350000000004 Q 517.8069775280899 258.27 521.7599775280898 258.27 Q 527.6009775280899 258.27 530.7869775280899 261.1315 Q 533.9729775280898 263.993 534.0319775280899 269.12600000000003 L 534.0909775280899 289.658 L 528.6629775280899 289.658 Z  M 518.8689775280899 285.351 Q 522.7039775280898 285.351 525.3884775280899 283.4925 Q 528.0729775280898 281.634 528.6039775280899 278.56600000000003 L 528.6039775280899 275.439 L 519.4589775280899 275.439 Q 515.7419775280898 275.439 513.9424775280899 276.56 Q 512.1429775280899 277.68100000000004 512.1429775280899 280.1 Q 512.1429775280899 282.519 513.9719775280898 283.935 Q 515.8009775280898 285.351 518.8689775280899 285.351 Z  M 543.8849775280898 258.447 L 549.3719775280898 258.447 L 549.3719775280898 289.658 L 543.8849775280898 289.658 L 543.8849775280898 258.447 Z  M 546.5989775280898 245.99800000000002 Q 548.0739775280898 245.99800000000002 549.0474775280899 247.001 Q 550.0209775280898 248.00400000000002 550.0209775280898 249.538 Q 550.0209775280898 251.072 549.0474775280899 252.07500000000002 Q 548.0739775280898 253.078 546.5989775280898 253.078 Q 545.1239775280899 253.078 544.1504775280898 252.07500000000002 Q 543.1769775280899 251.072 543.1769775280899 249.538 Q 543.1769775280899 248.00400000000002 544.1504775280898 247.001 Q 545.1239775280899 245.99800000000002 546.5989775280898 245.99800000000002 Z  M 560.3459775280899 245.88 L 565.8329775280898 245.88 L 565.8329775280898 289.658 L 560.3459775280899 289.658 L 560.3459775280899 245.88 Z  M 595.9229775280899 289.658 L 595.9229775280899 285.29200000000003 Q 592.4419775280899 289.894 585.0079775280899 289.894 Q 581.7629775280898 289.894 579.3144775280898 288.65500000000003 Q 576.8659775280898 287.416 575.5384775280899 285.233 Q 574.2109775280899 283.05 574.2109775280899 280.336 Q 574.2109775280899 276.14700000000005 577.3084775280898 273.6985 Q 580.4059775280898 271.25 585.9519775280899 271.19100000000003 L 595.8639775280899 271.19100000000003 L 595.8639775280899 269.716 Q 595.8639775280899 266.41200000000003 593.8284775280898 264.6125 Q 591.7929775280899 262.813 587.8989775280899 262.813 Q 583.1789775280898 262.813 578.2819775280898 266.17600000000004 L 575.9809775280899 262.4 Q 579.3439775280899 260.217 582.2054775280899 259.24350000000004 Q 585.0669775280899 258.27 589.0199775280898 258.27 Q 594.8609775280898 258.27 598.0469775280899 261.1315 Q 601.2329775280898 263.993 601.2919775280898 269.12600000000003 L 601.3509775280899 289.658 L 595.9229775280899 289.658 Z  M 586.1289775280899 285.351 Q 589.9639775280898 285.351 592.6484775280899 283.4925 Q 595.3329775280898 281.634 595.8639775280899 278.56600000000003 L 595.8639775280899 275.439 L 586.7189775280899 275.439 Q 583.0019775280898 275.439 581.2024775280898 276.56 Q 579.4029775280899 277.68100000000004 579.4029775280899 280.1 Q 579.4029775280899 282.519 581.2319775280898 283.935 Q 583.0609775280898 285.351 586.1289775280899 285.351 Z  M 628.4909775280898 258.27 Q 632.8569775280898 258.27 636.2789775280899 260.276 Q 639.7009775280899 262.28200000000004 641.5889775280898 265.88100000000003 Q 643.4769775280898 269.48 643.4769775280898 274.141 Q 643.4769775280898 278.743 641.6184775280899 282.3125 Q 639.7599775280898 285.882 636.3674775280898 287.85850000000005 Q 632.9749775280899 289.83500000000004 628.6089775280898 289.83500000000004 Q 624.6559775280898 289.83500000000004 621.6469775280898 288.183 Q 618.6379775280898 286.531 616.9269775280899 283.463 L 616.9269775280899 289.658 L 611.4399775280898 289.658 L 611.4399775280898 245.88 L 616.9269775280899 245.88 L 616.9269775280899 264.642 Q 618.6379775280898 261.574 621.6174775280898 259.922 Q 624.5969775280898 258.27 628.4909775280898 258.27 Z  M 627.4289775280898 285.05600000000004 Q 630.4379775280898 285.05600000000004 632.8274775280898 283.64 Q 635.2169775280898 282.22400000000005 636.5444775280898 279.687 Q 637.8719775280898 277.15000000000003 637.8719775280898 273.964 Q 637.8719775280898 270.837 636.5149775280898 268.3 Q 635.1579775280899 265.76300000000003 632.7979775280899 264.347 Q 630.4379775280898 262.93100000000004 627.4289775280898 262.93100000000004 Q 624.4199775280898 262.93100000000004 622.0304775280898 264.347 Q 619.6409775280898 265.76300000000003 618.2839775280898 268.3 Q 616.9269775280899 270.837 616.9269775280899 273.964 Q 616.9269775280899 277.209 618.2839775280898 279.7165 Q 619.6409775280898 282.22400000000005 622.0304775280898 283.64 Q 624.4199775280898 285.05600000000004 627.4289775280898 285.05600000000004 Z  M 651.4419775280899 245.88 L 656.9289775280898 245.88 L 656.9289775280898 289.658 L 651.4419775280899 289.658 L 651.4419775280899 245.88 Z  M 680.4699775280899 258.27 Q 687.7269775280898 258.27 691.4439775280898 262.5475 Q 695.1609775280899 266.82500000000005 695.1609775280899 274.43600000000004 Q 695.1609775280899 275.616 695.1019775280898 276.206 L 670.4399775280899 276.206 Q 671.0889775280898 280.395 673.9504775280898 282.87300000000005 Q 676.8119775280899 285.351 681.0009775280898 285.351 Q 683.7739775280899 285.351 686.1634775280899 284.348 Q 688.5529775280899 283.345 690.3229775280898 281.516 L 693.3319775280899 284.64300000000003 Q 691.0309775280898 287.121 687.7859775280899 288.478 Q 684.5409775280898 289.83500000000004 680.5879775280898 289.83500000000004 Q 675.9859775280898 289.83500000000004 672.4164775280899 287.85850000000005 Q 668.8469775280898 285.882 666.8704775280899 282.283 Q 664.8939775280899 278.684 664.8939775280899 274.082 Q 664.8939775280899 269.48 666.8704775280899 265.9105 Q 668.8469775280898 262.341 672.3869775280898 260.3055 Q 675.9269775280899 258.27 680.4699775280899 258.27 Z  M 690.2049775280898 271.958 Q 689.9689775280899 267.71000000000004 687.3729775280899 265.2615 Q 684.7769775280899 262.813 680.5289775280899 262.813 Q 676.3989775280899 262.813 673.6554775280898 265.291 Q 670.9119775280899 267.769 670.3809775280898 271.958 L 690.2049775280898 271.958 Z  M 943.9639775280898 186.349 Q 949.4509775280899 186.349 952.5779775280898 189.5645 Q 955.7049775280898 192.78 955.7049775280898 198.44400000000002 L 955.7049775280898 217.737 L 950.2179775280899 217.737 L 950.2179775280899 199.91899999999998 Q 950.2179775280899 195.966 948.0054775280898 193.7535 Q 945.7929775280899 191.541 941.8989775280899 191.541 Q 937.7099775280899 191.6 935.0844775280899 194.2255 Q 932.4589775280899 196.851 932.1049775280899 201.04 L 932.1049775280899 217.737 L 926.6179775280899 217.737 L 926.6179775280899 186.526 L 932.1049775280899 186.526 L 932.1049775280899 193.13400000000001 Q 935.2319775280898 186.46699999999998 943.9639775280898 186.349 Z  M 978.4789775280899 186.349 Q 983.13997752809 186.349 986.76847752809 188.355 Q 990.39697752809 190.361 992.43247752809 193.9305 Q 994.4679775280899 197.5 994.4679775280899 202.102 Q 994.4679775280899 206.704 992.43247752809 210.303 Q 990.39697752809 213.902 986.76847752809 215.90800000000002 Q 983.13997752809 217.914 978.4789775280899 217.914 Q 973.7589775280899 217.914 970.1304775280898 215.90800000000002 Q 966.5019775280898 213.902 964.4664775280899 210.3325 Q 962.4309775280899 206.763 962.4309775280899 202.102 Q 962.4309775280899 197.5 964.4664775280899 193.9305 Q 966.5019775280898 190.361 970.1304775280898 188.355 Q 973.7589775280899 186.349 978.4789775280899 186.349 Z  M 978.4789775280899 191.128 Q 975.4109775280899 191.128 973.0214775280899 192.544 Q 970.6319775280899 193.96 969.3044775280898 196.4675 Q 967.97697752809 198.975 967.97697752809 202.161 Q 967.97697752809 205.406 969.3044775280898 207.94299999999998 Q 970.6319775280899 210.48000000000002 973.0214775280899 211.8665 Q 975.4109775280899 213.253 978.4789775280899 213.253 Q 981.4879775280899 213.253 983.8774775280899 211.8665 Q 986.2669775280899 210.48000000000002 987.59447752809 207.94299999999998 Q 988.9219775280899 205.406 988.9219775280899 202.161 Q 988.9219775280899 198.975 987.59447752809 196.4675 Q 986.2669775280899 193.96 983.8774775280899 192.544 Q 981.4879775280899 191.128 978.4789775280899 191.128 Z  M 1018.8939775280899 215.672 Q 1015.2949775280899 217.973 1011.5779775280898 217.973 Q 1007.86097752809 217.973 1005.55997752809 215.7605 Q 1003.2589775280899 213.548 1003.2589775280899 209.064 L 1003.2589775280899 191.777 L 998.8339775280899 191.777 L 998.8339775280899 187.588 L 1003.2589775280899 187.588 L 1003.2589775280899 179.21 L 1008.8049775280899 179.21 L 1008.8049775280899 187.588 L 1018.3629775280899 187.588 L 1018.3629775280899 191.777 L 1008.8049775280899 191.777 L 1008.8049775280899 208.061 Q 1008.8049775280899 210.657 1009.7489775280899 211.778 Q 1010.6929775280898 212.899 1012.58097752809 212.899 Q 1014.82297752809 212.899 1017.41897752809 211.424 L 1018.8939775280899 215.672 Z  M 695.9279775280897 176.437 L 701.8279775280898 176.437 L 687.8449775280899 217.737 L 681.9449775280898 217.737 L 671.2659775280898 183.635 L 660.4099775280898 217.737 L 654.5689775280898 217.737 L 640.6449775280898 176.437 L 646.7219775280898 176.437 L 657.6369775280898 211.66 L 668.4929775280898 176.437 L 674.1569775280898 176.437 L 685.0719775280899 211.66 L 695.9279775280897 176.437 Z  M 719.9409775280899 186.349 Q 727.1979775280898 186.349 730.9149775280898 190.6265 Q 734.6319775280898 194.904 734.6319775280898 202.515 Q 734.6319775280898 203.695 734.5729775280898 204.285 L 709.9109775280898 204.285 Q 710.5599775280898 208.474 713.4214775280898 210.952 Q 716.2829775280898 213.43 720.4719775280898 213.43 Q 723.2449775280897 213.43 725.6344775280897 212.427 Q 728.0239775280897 211.424 729.7939775280898 209.595 L 732.8029775280897 212.722 Q 730.5019775280898 215.2 727.2569775280898 216.55700000000002 Q 724.0119775280898 217.914 720.0589775280898 217.914 Q 715.4569775280897 217.914 711.8874775280899 215.9375 Q 708.3179775280898 213.961 706.3414775280899 210.362 Q 704.3649775280899 206.763 704.3649775280899 202.161 Q 704.3649775280899 197.559 706.3414775280899 193.9895 Q 708.3179775280898 190.42000000000002 711.8579775280898 188.3845 Q 715.3979775280898 186.349 719.9409775280899 186.349 Z  M 729.6759775280898 200.037 Q 729.4399775280898 195.789 726.8439775280899 193.3405 Q 724.2479775280899 190.892 719.9999775280899 190.892 Q 715.8699775280897 190.892 713.1264775280898 193.37 Q 710.3829775280899 195.848 709.8519775280898 200.037 L 729.6759775280898 200.037 Z  M 759.4709775280899 186.349 Q 763.8369775280898 186.349 767.2589775280899 188.355 Q 770.6809775280899 190.361 772.5689775280898 193.96 Q 774.4569775280899 197.559 774.4569775280899 202.22 Q 774.4569775280899 206.822 772.5984775280899 210.3915 Q 770.7399775280899 213.961 767.3474775280898 215.9375 Q 763.9549775280898 217.914 759.5889775280898 217.914 Q 755.6359775280898 217.914 752.6269775280898 216.262 Q 749.6179775280898 214.61 747.9069775280898 211.542 L 747.9069775280898 217.737 L 742.4199775280898 217.737 L 742.4199775280898 173.959 L 747.9069775280898 173.959 L 747.9069775280898 192.721 Q 749.6179775280898 189.653 752.5974775280898 188.001 Q 755.5769775280899 186.349 759.4709775280899 186.349 Z  M 758.4089775280898 213.135 Q 761.4179775280898 213.135 763.8074775280897 211.719 Q 766.1969775280897 210.303 767.5244775280898 207.76600000000002 Q 768.8519775280898 205.22899999999998 768.8519775280898 202.043 Q 768.8519775280898 198.916 767.4949775280897 196.37900000000002 Q 766.1379775280898 193.84199999999998 763.7779775280899 192.426 Q 761.4179775280898 191.01 758.4089775280898 191.01 Q 755.3999775280898 191.01 753.0104775280898 192.426 Q 750.6209775280898 193.84199999999998 749.2639775280898 196.37900000000002 Q 747.9069775280898 198.916 747.9069775280898 202.043 Q 747.9069775280898 205.288 749.2639775280898 207.7955 Q 750.6209775280898 210.303 753.0104775280898 211.719 Q 755.3999775280898 213.135 758.4089775280898 213.135 Z  M 804.0159775280898 194.845 Q 800.2989775280898 191.246 795.1069775280898 191.246 Q 792.0389775280898 191.246 789.6494775280898 192.603 Q 787.2599775280898 193.96 785.9029775280899 196.438 Q 784.5459775280899 198.916 784.5459775280899 202.161 Q 784.5459775280899 205.406 785.8734775280898 207.88400000000001 Q 787.2009775280899 210.362 789.5314775280899 211.7485 Q 791.8619775280898 213.135 794.8709775280898 213.135 Q 797.8799775280899 213.135 800.2989775280898 212.132 Q 802.7179775280898 211.12900000000002 804.3109775280898 209.24099999999999 L 807.4379775280898 212.427 Q 805.3139775280898 215.082 802.0394775280898 216.498 Q 798.7649775280898 217.914 794.6349775280898 217.914 Q 790.0919775280898 217.914 786.5519775280898 215.90800000000002 Q 783.0119775280898 213.902 781.0354775280898 210.3325 Q 779.0589775280898 206.763 779.0589775280898 202.161 Q 779.0589775280898 197.559 781.0354775280898 193.96 Q 783.0119775280898 190.361 786.5519775280898 188.355 Q 790.0919775280898 186.349 794.6349775280898 186.349 Q 798.5879775280898 186.349 801.7444775280899 187.5585 Q 804.9009775280899 188.768 807.0249775280898 191.069 L 804.0159775280898 194.845 Z  M 834.3419775280898 217.737 L 834.3419775280898 213.371 Q 830.8609775280898 217.973 823.4269775280899 217.973 Q 820.1819775280899 217.973 817.7334775280899 216.734 Q 815.2849775280899 215.495 813.9574775280898 213.312 Q 812.6299775280899 211.12900000000002 812.6299775280899 208.415 Q 812.6299775280899 204.226 815.7274775280898 201.7775 Q 818.8249775280899 199.329 824.3709775280898 199.26999999999998 L 834.2829775280899 199.26999999999998 L 834.2829775280899 197.79500000000002 Q 834.2829775280899 194.49099999999999 832.2474775280898 192.69150000000002 Q 830.2119775280898 190.892 826.3179775280898 190.892 Q 821.5979775280898 190.892 816.7009775280899 194.255 L 814.3999775280898 190.47899999999998 Q 817.7629775280898 188.296 820.6244775280899 187.3225 Q 823.4859775280898 186.349 827.4389775280899 186.349 Q 833.2799775280898 186.349 836.4659775280899 189.2105 Q 839.6519775280899 192.072 839.7109775280899 197.20499999999998 L 839.7699775280898 217.737 L 834.3419775280898 217.737 Z  M 824.5479775280899 213.43 Q 828.3829775280899 213.43 831.0674775280899 211.57150000000001 Q 833.7519775280898 209.713 834.2829775280899 206.645 L 834.2829775280899 203.518 L 825.1379775280898 203.518 Q 821.4209775280899 203.518 819.6214775280898 204.639 Q 817.8219775280899 205.76 817.8219775280899 208.179 Q 817.8219775280899 210.598 819.6509775280899 212.014 Q 821.4799775280899 213.43 824.5479775280899 213.43 Z  M 889.8609775280898 186.349 Q 895.2299775280899 186.349 898.2979775280899 189.594 Q 901.3659775280898 192.839 901.3659775280898 198.44400000000002 L 901.3659775280898 217.737 L 895.8199775280898 217.737 L 895.8199775280898 199.91899999999998 Q 895.8199775280898 195.966 893.6664775280899 193.724 Q 891.5129775280898 191.482 887.7369775280899 191.482 Q 883.3119775280899 191.6 880.7749775280898 194.609 Q 878.2379775280899 197.618 878.2379775280899 202.338 L 878.2379775280899 217.737 L 872.6919775280899 217.737 L 872.6919775280899 199.91899999999998 Q 872.6919775280899 195.966 870.5679775280898 193.724 Q 868.4439775280898 191.482 864.6089775280898 191.482 Q 860.1839775280898 191.6 857.6174775280899 194.609 Q 855.0509775280898 197.618 855.0509775280898 202.338 L 855.0509775280898 217.737 L 849.5639775280899 217.737 L 849.5639775280899 186.526 L 855.0509775280898 186.526 L 855.0509775280898 193.075 Q 858.1189775280898 186.46699999999998 866.6739775280898 186.349 Q 870.9809775280899 186.349 873.8424775280898 188.414 Q 876.7039775280898 190.47899999999998 877.7069775280899 194.196 Q 880.5979775280898 186.46699999999998 889.8609775280898 186.349 Z  M 469.89897752808986 185.051 Q 467.00797752808984 183.222 463.91047752808987 182.3075 Q 460.81297752808985 181.393 458.21697752808984 181.393 Q 454.61797752808985 181.393 452.46447752808984 182.77949999999998 Q 450.31097752808984 184.166 450.31097752808984 186.585 Q 450.31097752808984 188.768 451.60897752808984 190.15449999999998 Q 452.90697752808984 191.541 454.7949775280899 192.3375 Q 456.68297752808985 193.13400000000001 460.04597752808985 194.196 Q 464.23497752808987 195.494 466.8309775280899 196.674 Q 469.4269775280899 197.85399999999998 471.25597752808983 200.1845 Q 473.08497752808984 202.515 473.08497752808984 206.35 Q 473.08497752808984 209.89 471.1674775280899 212.54500000000002 Q 469.24997752808986 215.2 465.79847752808985 216.6455 Q 462.34697752808984 218.091 457.86297752808986 218.091 Q 453.31997752808985 218.091 449.01297752808983 216.321 Q 444.7059775280899 214.551 441.57897752808987 211.601 L 444.11597752808984 206.704 Q 447.06597752808983 209.595 450.75347752808983 211.1585 Q 454.44097752808983 212.722 457.9219775280899 212.722 Q 462.0519775280899 212.722 464.4414775280899 211.0995 Q 466.8309775280899 209.477 466.8309775280899 206.704 Q 466.8309775280899 204.52100000000002 465.5329775280899 203.10500000000002 Q 464.23497752808987 201.689 462.2584775280899 200.863 Q 460.28197752808984 200.037 456.91897752808984 199.034 Q 452.78897752808984 197.79500000000002 450.19297752808984 196.615 Q 447.59697752808984 195.435 445.79747752808987 193.13400000000001 Q 443.99797752808985 190.833 443.99797752808985 187.057 Q 443.99797752808985 183.753 445.82697752808986 181.216 Q 447.65597752808986 178.679 450.95997752808984 177.322 Q 454.26397752808987 175.965 458.62997752808985 175.965 Q 462.34697752808984 175.965 465.91647752808984 177.0565 Q 469.48597752808985 178.148 472.2589775280899 179.977 L 469.89897752808986 185.051 Z  M 494.56097752808984 186.349 Q 499.22197752808984 186.349 502.85047752808987 188.355 Q 506.47897752808984 190.361 508.51447752808986 193.9305 Q 510.54997752808987 197.5 510.54997752808987 202.102 Q 510.54997752808987 206.704 508.51447752808986 210.303 Q 506.47897752808984 213.902 502.85047752808987 215.90800000000002 Q 499.22197752808984 217.914 494.56097752808984 217.914 Q 489.84097752808987 217.914 486.21247752808983 215.90800000000002 Q 482.58397752808986 213.902 480.54847752808985 210.3325 Q 478.51297752808983 206.763 478.51297752808983 202.102 Q 478.51297752808983 197.5 480.54847752808985 193.9305 Q 482.58397752808986 190.361 486.21247752808983 188.355 Q 489.84097752808987 186.349 494.56097752808984 186.349 Z  M 494.56097752808984 191.128 Q 491.49297752808985 191.128 489.10347752808985 192.544 Q 486.71397752808986 193.96 485.38647752808987 196.4675 Q 484.0589775280898 198.975 484.0589775280898 202.161 Q 484.0589775280898 205.406 485.38647752808987 207.94299999999998 Q 486.71397752808986 210.48000000000002 489.10347752808985 211.8665 Q 491.49297752808985 213.253 494.56097752808984 213.253 Q 497.56997752808985 213.253 499.95947752808985 211.8665 Q 502.34897752808985 210.48000000000002 503.67647752808983 207.94299999999998 Q 505.0039775280899 205.406 505.0039775280899 202.161 Q 505.0039775280899 198.975 503.67647752808983 196.4675 Q 502.34897752808985 193.96 499.95947752808985 192.544 Q 497.56997752808985 191.128 494.56097752808984 191.128 Z  M 523.7069775280899 193.252 Q 525.2409775280898 189.889 528.0729775280898 188.1485 Q 530.9049775280898 186.40800000000002 534.7989775280898 186.349 L 534.7989775280898 191.659 Q 530.0199775280898 191.482 527.0699775280898 194.137 Q 524.1199775280899 196.792 523.7069775280899 201.276 L 523.7069775280899 217.737 L 518.2199775280899 217.737 L 518.2199775280899 186.526 L 523.7069775280899 186.526 L 523.7069775280899 193.252 Z  M 546.2449775280899 193.252 Q 547.7789775280899 189.889 550.6109775280898 188.1485 Q 553.4429775280898 186.40800000000002 557.3369775280898 186.349 L 557.3369775280898 191.659 Q 552.5579775280899 191.482 549.6079775280898 194.137 Q 546.6579775280899 196.792 546.2449775280899 201.276 L 546.2449775280899 217.737 L 540.7579775280899 217.737 L 540.7579775280899 186.526 L 546.2449775280899 186.526 L 546.2449775280899 193.252 Z  M 574.2109775280899 222.162 Q 572.7359775280898 225.761 570.2874775280899 227.59 Q 567.8389775280898 229.41899999999998 564.5349775280898 229.41899999999998 Q 562.5289775280899 229.41899999999998 560.8769775280898 228.829 Q 559.2249775280899 228.239 557.6909775280899 227 L 560.0509775280898 222.693 Q 562.1159775280898 224.168 564.2399775280899 224.168 Q 567.7799775280898 224.168 569.5499775280898 220.156 L 570.7299775280899 217.383 L 557.8089775280898 186.526 L 563.5909775280899 186.526 L 573.5029775280898 211.542 L 582.8839775280899 186.526 L 588.4889775280899 186.526 L 574.2109775280899 222.162 Z  M 594.3889775280899 211.483 Q 595.7459775280898 211.483 596.6604775280898 212.427 Q 597.5749775280899 213.371 597.5749775280899 214.846 Q 597.5749775280899 216.321 596.6604775280898 217.2945 Q 595.7459775280898 218.268 594.3889775280899 218.268 Q 593.0319775280898 218.268 592.0879775280898 217.2945 Q 591.1439775280899 216.321 591.1439775280899 214.846 Q 591.1439775280899 213.371 592.0879775280898 212.427 Q 593.0319775280898 211.483 594.3889775280899 211.483 Z  M 606.6019775280898 211.483 Q 607.9589775280898 211.483 608.8734775280898 212.427 Q 609.7879775280899 213.371 609.7879775280899 214.846 Q 609.7879775280899 216.321 608.8734775280898 217.2945 Q 607.9589775280898 218.268 606.6019775280898 218.268 Q 605.2449775280899 218.268 604.3009775280898 217.2945 Q 603.3569775280898 216.321 603.3569775280898 214.846 Q 603.3569775280898 213.371 604.3009775280898 212.427 Q 605.2449775280899 211.483 606.6019775280898 211.483 Z  M 618.8149775280898 211.483 Q 620.1719775280899 211.483 621.0864775280899 212.427 Q 622.0009775280898 213.371 622.0009775280898 214.846 Q 622.0009775280898 216.321 621.0864775280899 217.2945 Q 620.1719775280899 218.268 618.8149775280898 218.268 Q 617.4579775280898 218.268 616.5139775280899 217.2945 Q 615.5699775280898 216.321 615.5699775280898 214.846 Q 615.5699775280898 213.371 616.5139775280899 212.427 Q 617.4579775280898 211.483 618.8149775280898 211.483 Z "
              fill-rule="evenodd" fill="none" vector-effect="non-scaling-stroke" stroke-width="0.7134831460674157"
              stroke="rgb(0,0,0)" stroke-linejoin="miter" stroke-linecap="square" stroke-miterlimit="3"/>
    </g>
</svg>