<?xml version="1.0" standalone="no"?><!-- Generator: Gravit.io -->
<svg xmlns="http://www.w3.org/2000/svg" style="isolation:isolate" viewBox="0 0 1280 350" width="1280" height="350">
    <path d=" M 55 41.5 L 322 41.5 L 322 308.5 L 55 308.5 L 55 41.5 Z  M 55 41.5 L 322 41.5 L 322 308.5 L 55 308.5 L 55 41.5 Z "
          fill-rule="evenodd" fill="none"/>
    <path d=" M 288.625 113.8125 L 244.125 158.3125 L 244.125 119.375 C 244.125 113.25625000000001 239.11875 108.25 233 108.25 L 164.2475 108.25 L 288.625 232.6275 L 288.625 113.8125 Z  M 91.37875 63.75 L 77.25 77.87875 L 107.62125 108.25 L 99.5 108.25 C 93.38125 108.25 88.375 113.25625000000001 88.375 119.375 L 88.375 230.625 C 88.375 236.74375 93.38125 241.75 99.5 241.75 L 233 241.75 C 235.33625 241.75 237.33875 240.86 239.0075 239.7475 L 274.49625000000003 275.125 L 288.625 260.99625000000003 L 91.37875 63.75 Z "
          fill-rule="evenodd" fill="rgb(0,0,0)"/>
    <path d=" M 982.2080000000002 192.26825 L 982.2080000000002 187.90225 Q 978.7270000000002 192.50425 971.2930000000001 192.50425 Q 968.0480000000001 192.50425 965.5995000000001 191.26525 Q 963.1510000000002 190.02625 961.8235000000002 187.84325 Q 960.4960000000002 185.66025000000002 960.4960000000002 182.94625 Q 960.4960000000002 178.75725 963.5935000000002 176.30875 Q 966.6910000000001 173.86025 972.2370000000002 173.80124999999998 L 982.1490000000001 173.80124999999998 L 982.1490000000001 172.32625000000002 Q 982.1490000000001 169.02224999999999 980.1135000000002 167.22275000000002 Q 978.0780000000002 165.42325 974.1840000000002 165.42325 Q 969.4640000000002 165.42325 964.5670000000001 168.78625 L 962.2660000000002 165.01024999999998 Q 965.6290000000001 162.82725 968.4905000000001 161.85375 Q 971.3520000000002 160.88025 975.3050000000002 160.88025 Q 981.1460000000002 160.88025 984.3320000000001 163.74175 Q 987.5180000000001 166.60325 987.5770000000001 171.73624999999998 L 987.6360000000002 192.26825 L 982.2080000000002 192.26825 Z  M 972.4140000000001 187.96125 Q 976.2490000000001 187.96125 978.9335000000002 186.10275000000001 Q 981.6180000000002 184.24425 982.1490000000001 181.17625 L 982.1490000000001 178.04925 L 973.0040000000001 178.04925 Q 969.2870000000001 178.04925 967.4875000000002 179.17025 Q 965.6880000000001 180.29125 965.6880000000001 182.71025 Q 965.6880000000001 185.12925 967.5170000000002 186.54525 Q 969.3460000000001 187.96125 972.4140000000001 187.96125 Z  M 992.2380000000002 161.05725 L 998.0790000000002 161.05725 L 1007.4600000000002 186.84025 L 1016.7820000000002 161.05725 L 1022.3280000000002 161.05725 L 1010.1740000000001 192.26825 L 1004.4510000000001 192.26825 L 992.2380000000002 161.05725 Z  M 1046.5770000000002 192.26825 L 1046.5770000000002 187.90225 Q 1043.0960000000002 192.50425 1035.6620000000003 192.50425 Q 1032.4170000000001 192.50425 1029.9685000000002 191.26525 Q 1027.5200000000002 190.02625 1026.1925 187.84325 Q 1024.8650000000002 185.66025000000002 1024.8650000000002 182.94625 Q 1024.8650000000002 178.75725 1027.9625 176.30875 Q 1031.0600000000002 173.86025 1036.6060000000002 173.80124999999998 L 1046.518 173.80124999999998 L 1046.518 172.32625000000002 Q 1046.518 169.02224999999999 1044.4825 167.22275000000002 Q 1042.4470000000001 165.42325 1038.5530000000003 165.42325 Q 1033.833 165.42325 1028.9360000000001 168.78625 L 1026.6350000000002 165.01024999999998 Q 1029.998 162.82725 1032.8595 161.85375 Q 1035.7210000000002 160.88025 1039.6740000000002 160.88025 Q 1045.5150000000003 160.88025 1048.701 163.74175 Q 1051.8870000000002 166.60325 1051.9460000000001 171.73624999999998 L 1052.005 192.26825 L 1046.5770000000002 192.26825 Z  M 1036.7830000000001 187.96125 Q 1040.6180000000002 187.96125 1043.3025000000002 186.10275000000001 Q 1045.987 184.24425 1046.518 181.17625 L 1046.518 178.04925 L 1037.373 178.04925 Q 1033.6560000000002 178.04925 1031.8565000000003 179.17025 Q 1030.0570000000002 180.29125 1030.0570000000002 182.71025 Q 1030.0570000000002 185.12925 1031.8860000000002 186.54525 Q 1033.7150000000001 187.96125 1036.7830000000001 187.96125 Z  M 1061.7990000000002 161.05725 L 1067.286 161.05725 L 1067.286 192.26825 L 1061.7990000000002 192.26825 L 1061.7990000000002 161.05725 Z  M 1064.5130000000001 148.60825 Q 1065.9880000000003 148.60825 1066.9615000000003 149.61124999999998 Q 1067.9350000000002 150.61425 1067.9350000000002 152.14825 Q 1067.9350000000002 153.68225 1066.9615000000003 154.68525 Q 1065.9880000000003 155.68824999999998 1064.5130000000001 155.68824999999998 Q 1063.038 155.68824999999998 1062.0645000000002 154.68525 Q 1061.0910000000001 153.68225 1061.0910000000001 152.14825 Q 1061.0910000000001 150.61425 1062.0645000000002 149.61124999999998 Q 1063.038 148.60825 1064.5130000000001 148.60825 Z  M 1078.2600000000002 148.49025 L 1083.7470000000003 148.49025 L 1083.7470000000003 192.26825 L 1078.2600000000002 192.26825 L 1078.2600000000002 148.49025 Z  M 1113.8370000000004 192.26825 L 1113.8370000000004 187.90225 Q 1110.3560000000002 192.50425 1102.9220000000003 192.50425 Q 1099.6770000000001 192.50425 1097.2285000000002 191.26525 Q 1094.7800000000002 190.02625 1093.4525000000003 187.84325 Q 1092.1250000000005 185.66025000000002 1092.1250000000005 182.94625 Q 1092.1250000000005 178.75725 1095.2225000000003 176.30875 Q 1098.3200000000002 173.86025 1103.8660000000004 173.80124999999998 L 1113.7780000000002 173.80124999999998 L 1113.7780000000002 172.32625000000002 Q 1113.7780000000002 169.02224999999999 1111.7425000000003 167.22275000000002 Q 1109.7070000000003 165.42325 1105.8130000000003 165.42325 Q 1101.0930000000003 165.42325 1096.1960000000004 168.78625 L 1093.8950000000004 165.01024999999998 Q 1097.2580000000003 162.82725 1100.1195000000002 161.85375 Q 1102.9810000000002 160.88025 1106.9340000000002 160.88025 Q 1112.7750000000003 160.88025 1115.9610000000002 163.74175 Q 1119.1470000000004 166.60325 1119.2060000000001 171.73624999999998 L 1119.2650000000003 192.26825 L 1113.8370000000004 192.26825 Z  M 1104.0430000000001 187.96125 Q 1107.8780000000002 187.96125 1110.5625000000005 186.10275000000001 Q 1113.2470000000003 184.24425 1113.7780000000002 181.17625 L 1113.7780000000002 178.04925 L 1104.6330000000003 178.04925 Q 1100.9160000000002 178.04925 1099.1165000000003 179.17025 Q 1097.3170000000002 180.29125 1097.3170000000002 182.71025 Q 1097.3170000000002 185.12925 1099.1460000000002 186.54525 Q 1100.9750000000004 187.96125 1104.0430000000001 187.96125 Z  M 1146.4050000000002 160.88025 Q 1150.7710000000002 160.88025 1154.1930000000002 162.88625 Q 1157.6150000000002 164.89225 1159.5030000000002 168.49125 Q 1161.3910000000003 172.09025 1161.3910000000003 176.75125 Q 1161.3910000000003 181.35325 1159.5325000000003 184.92275 Q 1157.6740000000004 188.49225 1154.2815000000003 190.46875 Q 1150.8890000000001 192.44525 1146.5230000000001 192.44525 Q 1142.5700000000002 192.44525 1139.5610000000001 190.79325 Q 1136.5520000000001 189.14125 1134.8410000000003 186.07325 L 1134.8410000000003 192.26825 L 1129.3540000000003 192.26825 L 1129.3540000000003 148.49025 L 1134.8410000000003 148.49025 L 1134.8410000000003 167.25225 Q 1136.5520000000001 164.18425 1139.5315000000003 162.53225 Q 1142.5110000000004 160.88025 1146.4050000000002 160.88025 Z  M 1145.3430000000003 187.66625 Q 1148.3520000000003 187.66625 1150.7415000000003 186.25025 Q 1153.1310000000003 184.83425 1154.4585000000002 182.29725000000002 Q 1155.7860000000003 179.76024999999998 1155.7860000000003 176.57425 Q 1155.7860000000003 173.44725 1154.4290000000003 170.91025000000002 Q 1153.0720000000001 168.37324999999998 1150.7120000000004 166.95725 Q 1148.3520000000003 165.54125 1145.3430000000003 165.54125 Q 1142.3340000000003 165.54125 1139.9445000000003 166.95725 Q 1137.5550000000003 168.37324999999998 1136.1980000000003 170.91025000000002 Q 1134.8410000000003 173.44725 1134.8410000000003 176.57425 Q 1134.8410000000003 179.81925 1136.1980000000003 182.32675 Q 1137.5550000000003 184.83425 1139.9445000000003 186.25025 Q 1142.3340000000003 187.66625 1145.3430000000003 187.66625 Z  M 1169.3560000000002 148.49025 L 1174.8430000000003 148.49025 L 1174.8430000000003 192.26825 L 1169.3560000000002 192.26825 L 1169.3560000000002 148.49025 Z  M 1198.3840000000002 160.88025 Q 1205.6410000000003 160.88025 1209.3580000000002 165.15775 Q 1213.0750000000003 169.43525 1213.0750000000003 177.04625 Q 1213.0750000000003 178.22625 1213.0160000000003 178.81625 L 1188.3540000000003 178.81625 Q 1189.0030000000002 183.00525 1191.8645000000001 185.48325 Q 1194.7260000000003 187.96125 1198.9150000000004 187.96125 Q 1201.6880000000003 187.96125 1204.0775000000003 186.95825 Q 1206.4670000000003 185.95525 1208.2370000000003 184.12625 L 1211.2460000000003 187.25325 Q 1208.9450000000002 189.73125 1205.7000000000003 191.08825000000002 Q 1202.4550000000004 192.44525 1198.5020000000004 192.44525 Q 1193.9000000000003 192.44525 1190.3305000000003 190.46875 Q 1186.7610000000004 188.49225 1184.7845000000002 184.89325 Q 1182.8080000000004 181.29425 1182.8080000000004 176.69225 Q 1182.8080000000004 172.09025 1184.7845000000002 168.52075 Q 1186.7610000000004 164.95125000000002 1190.3010000000004 162.91575 Q 1193.8410000000003 160.88025 1198.3840000000002 160.88025 Z  M 1208.1190000000001 174.56825 Q 1207.8830000000003 170.32025 1205.2870000000003 167.87175 Q 1202.6910000000003 165.42325 1198.4430000000002 165.42325 Q 1194.3130000000003 165.42325 1191.5695000000003 167.90125 Q 1188.8260000000002 170.37925 1188.2950000000003 174.56825 L 1208.1190000000001 174.56825 Z  M 866.0960000000001 160.88025 Q 871.5830000000001 160.88025 874.7100000000002 164.09575 Q 877.8370000000001 167.31125 877.8370000000001 172.97525000000002 L 877.8370000000001 192.26825 L 872.3500000000001 192.26825 L 872.3500000000001 174.45024999999998 Q 872.3500000000001 170.49725 870.1375000000002 168.28475 Q 867.9250000000002 166.07225 864.0310000000002 166.07225 Q 859.8420000000001 166.13125 857.2165000000002 168.75675 Q 854.5910000000001 171.38225 854.2370000000001 175.57125 L 854.2370000000001 192.26825 L 848.7500000000002 192.26825 L 848.7500000000002 161.05725 L 854.2370000000001 161.05725 L 854.2370000000001 167.66525000000001 Q 857.3640000000001 160.99824999999998 866.0960000000001 160.88025 Z  M 900.6110000000002 160.88025 Q 905.2720000000002 160.88025 908.9005000000002 162.88625 Q 912.5290000000002 164.89225 914.5645000000002 168.46175 Q 916.6000000000001 172.03125 916.6000000000001 176.63325 Q 916.6000000000001 181.23525 914.5645000000002 184.83425 Q 912.5290000000002 188.43325 908.9005000000002 190.43925000000002 Q 905.2720000000002 192.44525 900.6110000000002 192.44525 Q 895.8910000000002 192.44525 892.2625000000002 190.43925000000002 Q 888.6340000000001 188.43325 886.5985000000002 184.86375 Q 884.5630000000002 181.29425 884.5630000000002 176.63325 Q 884.5630000000002 172.03125 886.5985000000002 168.46175 Q 888.6340000000001 164.89225 892.2625000000002 162.88625 Q 895.8910000000002 160.88025 900.6110000000002 160.88025 Z  M 900.6110000000002 165.65925 Q 897.5430000000001 165.65925 895.1535000000001 167.07525 Q 892.7640000000001 168.49125 891.4365000000001 170.99875 Q 890.1090000000002 173.50625 890.1090000000002 176.69225 Q 890.1090000000002 179.93725 891.4365000000001 182.47424999999998 Q 892.7640000000001 185.01125000000002 895.1535000000001 186.39775 Q 897.5430000000001 187.78425 900.6110000000002 187.78425 Q 903.6200000000001 187.78425 906.0095000000002 186.39775 Q 908.3990000000002 185.01125000000002 909.7265000000002 182.47424999999998 Q 911.0540000000002 179.93725 911.0540000000002 176.69225 Q 911.0540000000002 173.50625 909.7265000000002 170.99875 Q 908.3990000000002 168.49125 906.0095000000002 167.07525 Q 903.6200000000001 165.65925 900.6110000000002 165.65925 Z  M 941.0260000000002 190.20325 Q 937.4270000000001 192.50425 933.7100000000002 192.50425 Q 929.9930000000002 192.50425 927.6920000000002 190.29175 Q 925.3910000000002 188.07925 925.3910000000002 183.59525 L 925.3910000000002 166.30825 L 920.9660000000002 166.30825 L 920.9660000000002 162.11925 L 925.3910000000002 162.11925 L 925.3910000000002 153.74125 L 930.9370000000002 153.74125 L 930.9370000000002 162.11925 L 940.4950000000002 162.11925 L 940.4950000000002 166.30825 L 930.9370000000002 166.30825 L 930.9370000000002 182.59225 Q 930.9370000000002 185.18825 931.8810000000002 186.30925 Q 932.8250000000002 187.43025 934.7130000000002 187.43025 Q 936.9550000000002 187.43025 939.5510000000002 185.95525 L 941.0260000000002 190.20325 Z  M 618.0600000000001 150.96825 L 623.96 150.96825 L 609.9770000000001 192.26825 L 604.0770000000001 192.26825 L 593.3980000000001 158.16625 L 582.5420000000001 192.26825 L 576.701 192.26825 L 562.777 150.96825 L 568.854 150.96825 L 579.7690000000001 186.19125 L 590.6250000000001 150.96825 L 596.2890000000001 150.96825 L 607.2040000000001 186.19125 L 618.0600000000001 150.96825 Z  M 642.0730000000001 160.88025 Q 649.3300000000002 160.88025 653.047 165.15775 Q 656.7640000000001 169.43525 656.7640000000001 177.04625 Q 656.7640000000001 178.22625 656.7050000000002 178.81625 L 632.0430000000001 178.81625 Q 632.692 183.00525 635.5535000000001 185.48325 Q 638.4150000000001 187.96125 642.604 187.96125 Q 645.3770000000001 187.96125 647.7665000000001 186.95825 Q 650.1560000000001 185.95525 651.9260000000002 184.12625 L 654.9350000000001 187.25325 Q 652.634 189.73125 649.3890000000001 191.08825000000002 Q 646.144 192.44525 642.191 192.44525 Q 637.589 192.44525 634.0195000000001 190.46875 Q 630.45 188.49225 628.4735000000001 184.89325 Q 626.4970000000001 181.29425 626.4970000000001 176.69225 Q 626.4970000000001 172.09025 628.4735000000001 168.52075 Q 630.45 164.95125000000002 633.99 162.91575 Q 637.5300000000001 160.88025 642.0730000000001 160.88025 Z  M 651.8080000000001 174.56825 Q 651.5720000000001 170.32025 648.9760000000001 167.87175 Q 646.3800000000001 165.42325 642.1320000000001 165.42325 Q 638.0020000000001 165.42325 635.2585000000001 167.90125 Q 632.5150000000001 170.37925 631.9840000000002 174.56825 L 651.8080000000001 174.56825 Z  M 681.6030000000001 160.88025 Q 685.969 160.88025 689.3910000000001 162.88625 Q 692.8130000000001 164.89225 694.701 168.49125 Q 696.5890000000002 172.09025 696.5890000000002 176.75125 Q 696.5890000000002 181.35325 694.7305000000001 184.92275 Q 692.8720000000001 188.49225 689.4795000000001 190.46875 Q 686.0870000000001 192.44525 681.7210000000001 192.44525 Q 677.768 192.44525 674.759 190.79325 Q 671.7500000000001 189.14125 670.0390000000001 186.07325 L 670.0390000000001 192.26825 L 664.5520000000001 192.26825 L 664.5520000000001 148.49025 L 670.0390000000001 148.49025 L 670.0390000000001 167.25225 Q 671.7500000000001 164.18425 674.7295000000001 162.53225 Q 677.7090000000001 160.88025 681.6030000000001 160.88025 Z  M 680.5410000000002 187.66625 Q 683.5500000000001 187.66625 685.9395000000001 186.25025 Q 688.3290000000001 184.83425 689.6565 182.29725000000002 Q 690.9840000000002 179.76024999999998 690.9840000000002 176.57425 Q 690.9840000000002 173.44725 689.6270000000001 170.91025000000002 Q 688.2700000000001 168.37324999999998 685.9100000000001 166.95725 Q 683.5500000000001 165.54125 680.5410000000002 165.54125 Q 677.5320000000002 165.54125 675.1425000000002 166.95725 Q 672.7530000000002 168.37324999999998 671.3960000000001 170.91025000000002 Q 670.0390000000001 173.44725 670.0390000000001 176.57425 Q 670.0390000000001 179.81925 671.3960000000001 182.32675 Q 672.7530000000002 184.83425 675.1425000000002 186.25025 Q 677.5320000000002 187.66625 680.5410000000002 187.66625 Z  M 726.1480000000001 169.37625 Q 722.431 165.77725 717.239 165.77725 Q 714.171 165.77725 711.7815 167.13425 Q 709.392 168.49125 708.0350000000001 170.96925 Q 706.6780000000001 173.44725 706.6780000000001 176.69225 Q 706.6780000000001 179.93725 708.0055000000001 182.41525000000001 Q 709.3330000000001 184.89325 711.6635000000001 186.27975 Q 713.9940000000001 187.66625 717.0030000000002 187.66625 Q 720.0120000000002 187.66625 722.431 186.66325 Q 724.8500000000001 185.66025000000002 726.4430000000001 183.77224999999999 L 729.5700000000002 186.95825 Q 727.4460000000001 189.61325 724.1715000000002 191.02925 Q 720.8970000000002 192.44525 716.767 192.44525 Q 712.2240000000002 192.44525 708.6840000000001 190.43925000000002 Q 705.1440000000001 188.43325 703.1675 184.86375 Q 701.191 181.29425 701.191 176.69225 Q 701.191 172.09025 703.1675 168.49125 Q 705.1440000000001 164.89225 708.6840000000001 162.88625 Q 712.2240000000002 160.88025 716.767 160.88025 Q 720.72 160.88025 723.8765000000001 162.08975 Q 727.0330000000001 163.29925 729.1570000000002 165.60025 L 726.1480000000001 169.37625 Z  M 756.4740000000002 192.26825 L 756.4740000000002 187.90225 Q 752.9930000000002 192.50425 745.5590000000002 192.50425 Q 742.3140000000001 192.50425 739.8655000000001 191.26525 Q 737.4170000000001 190.02625 736.0895 187.84325 Q 734.7620000000002 185.66025000000002 734.7620000000002 182.94625 Q 734.7620000000002 178.75725 737.8595000000001 176.30875 Q 740.9570000000001 173.86025 746.5030000000002 173.80124999999998 L 756.4150000000002 173.80124999999998 L 756.4150000000002 172.32625000000002 Q 756.4150000000002 169.02224999999999 754.3795000000001 167.22275000000002 Q 752.344 165.42325 748.45 165.42325 Q 743.7300000000001 165.42325 738.8330000000001 168.78625 L 736.5320000000002 165.01024999999998 Q 739.8950000000001 162.82725 742.7565000000002 161.85375 Q 745.6180000000002 160.88025 749.5710000000001 160.88025 Q 755.412 160.88025 758.5980000000002 163.74175 Q 761.7840000000001 166.60325 761.8430000000001 171.73624999999998 L 761.902 192.26825 L 756.4740000000002 192.26825 Z  M 746.6800000000001 187.96125 Q 750.5150000000001 187.96125 753.1995000000002 186.10275000000001 Q 755.8840000000001 184.24425 756.4150000000002 181.17625 L 756.4150000000002 178.04925 L 747.2700000000001 178.04925 Q 743.5530000000001 178.04925 741.7535000000001 179.17025 Q 739.9540000000002 180.29125 739.9540000000002 182.71025 Q 739.9540000000002 185.12925 741.7830000000001 186.54525 Q 743.6120000000001 187.96125 746.6800000000001 187.96125 Z  M 811.9930000000002 160.88025 Q 817.3620000000001 160.88025 820.4300000000001 164.12525 Q 823.498 167.37025 823.498 172.97525000000002 L 823.498 192.26825 L 817.9520000000001 192.26825 L 817.9520000000001 174.45024999999998 Q 817.9520000000001 170.49725 815.7985000000001 168.25525 Q 813.6450000000001 166.01325 809.8690000000001 166.01325 Q 805.4440000000002 166.13125 802.9070000000002 169.14025 Q 800.3700000000001 172.14925 800.3700000000001 176.86925 L 800.3700000000001 192.26825 L 794.8240000000001 192.26825 L 794.8240000000001 174.45024999999998 Q 794.8240000000001 170.49725 792.7 168.25525 Q 790.5760000000001 166.01325 786.7410000000001 166.01325 Q 782.316 166.13125 779.7495000000001 169.14025 Q 777.1830000000001 172.14925 777.1830000000001 176.86925 L 777.1830000000001 192.26825 L 771.6960000000001 192.26825 L 771.6960000000001 161.05725 L 777.1830000000001 161.05725 L 777.1830000000001 167.60625 Q 780.2510000000001 160.99824999999998 788.806 160.88025 Q 793.113 160.88025 795.9745 162.94525 Q 798.8360000000001 165.01024999999998 799.8390000000002 168.72725 Q 802.7300000000001 160.99824999999998 811.9930000000002 160.88025 Z  M 392.0310000000001 159.58225 Q 389.1400000000001 157.75325 386.04250000000013 156.83875 Q 382.9450000000001 155.92425 380.3490000000001 155.92425 Q 376.7500000000001 155.92425 374.5965000000001 157.31074999999998 Q 372.4430000000001 158.69725 372.4430000000001 161.11625 Q 372.4430000000001 163.29925 373.7410000000001 164.68574999999998 Q 375.0390000000001 166.07225 376.92700000000013 166.86875 Q 378.8150000000001 167.66525000000001 382.1780000000001 168.72725 Q 386.36700000000013 170.02525 388.96300000000014 171.20525 Q 391.55900000000014 172.38524999999998 393.3880000000001 174.71575 Q 395.2170000000001 177.04625 395.2170000000001 180.88125 Q 395.2170000000001 184.42125 393.29950000000014 187.07625000000002 Q 391.3820000000001 189.73125 387.9305000000001 191.17675 Q 384.4790000000001 192.62225 379.9950000000001 192.62225 Q 375.4520000000001 192.62225 371.1450000000001 190.85225 Q 366.83800000000014 189.08225 363.7110000000001 186.13225 L 366.2480000000001 181.23525 Q 369.1980000000001 184.12625 372.8855000000001 185.68975 Q 376.5730000000001 187.25325 380.0540000000001 187.25325 Q 384.18400000000014 187.25325 386.57350000000014 185.63075 Q 388.96300000000014 184.00825 388.96300000000014 181.23525 Q 388.96300000000014 179.05225000000002 387.66500000000013 177.63625000000002 Q 386.36700000000013 176.22025 384.3905000000001 175.39425 Q 382.4140000000001 174.56825 379.0510000000001 173.56525 Q 374.9210000000001 172.32625000000002 372.3250000000001 171.14625 Q 369.7290000000001 169.96625 367.92950000000013 167.66525000000001 Q 366.1300000000001 165.36425 366.1300000000001 161.58825 Q 366.1300000000001 158.28425 367.9590000000001 155.74725 Q 369.7880000000001 153.21025 373.0920000000001 151.85325 Q 376.39600000000013 150.49625 380.7620000000001 150.49625 Q 384.4790000000001 150.49625 388.0485000000001 151.58775 Q 391.6180000000001 152.67925 394.39100000000013 154.50825 L 392.0310000000001 159.58225 Z  M 416.6930000000001 160.88025 Q 421.3540000000001 160.88025 424.98250000000013 162.88625 Q 428.6110000000001 164.89225 430.6465000000001 168.46175 Q 432.68200000000013 172.03125 432.68200000000013 176.63325 Q 432.68200000000013 181.23525 430.6465000000001 184.83425 Q 428.6110000000001 188.43325 424.98250000000013 190.43925000000002 Q 421.3540000000001 192.44525 416.6930000000001 192.44525 Q 411.9730000000001 192.44525 408.3445000000001 190.43925000000002 Q 404.7160000000001 188.43325 402.6805000000001 184.86375 Q 400.6450000000001 181.29425 400.6450000000001 176.63325 Q 400.6450000000001 172.03125 402.6805000000001 168.46175 Q 404.7160000000001 164.89225 408.3445000000001 162.88625 Q 411.9730000000001 160.88025 416.6930000000001 160.88025 Z  M 416.6930000000001 165.65925 Q 413.6250000000001 165.65925 411.2355000000001 167.07525 Q 408.8460000000001 168.49125 407.51850000000013 170.99875 Q 406.19100000000014 173.50625 406.19100000000014 176.69225 Q 406.19100000000014 179.93725 407.51850000000013 182.47424999999998 Q 408.8460000000001 185.01125000000002 411.2355000000001 186.39775 Q 413.6250000000001 187.78425 416.6930000000001 187.78425 Q 419.7020000000001 187.78425 422.0915000000001 186.39775 Q 424.4810000000001 185.01125000000002 425.8085000000001 182.47424999999998 Q 427.1360000000001 179.93725 427.1360000000001 176.69225 Q 427.1360000000001 173.50625 425.8085000000001 170.99875 Q 424.4810000000001 168.49125 422.0915000000001 167.07525 Q 419.7020000000001 165.65925 416.6930000000001 165.65925 Z  M 445.8390000000001 167.78325 Q 447.3730000000001 164.42025 450.20500000000015 162.67975 Q 453.03700000000015 160.93925000000002 456.93100000000015 160.88025 L 456.93100000000015 166.19025 Q 452.1520000000001 166.01325 449.2020000000001 168.66825 Q 446.2520000000001 171.32325 445.8390000000001 175.80725 L 445.8390000000001 192.26825 L 440.3520000000001 192.26825 L 440.3520000000001 161.05725 L 445.8390000000001 161.05725 L 445.8390000000001 167.78325 Z  M 468.3770000000001 167.78325 Q 469.9110000000001 164.42025 472.7430000000001 162.67975 Q 475.5750000000001 160.93925000000002 479.4690000000001 160.88025 L 479.4690000000001 166.19025 Q 474.6900000000001 166.01325 471.7400000000001 168.66825 Q 468.79000000000013 171.32325 468.3770000000001 175.80725 L 468.3770000000001 192.26825 L 462.8900000000001 192.26825 L 462.8900000000001 161.05725 L 468.3770000000001 161.05725 L 468.3770000000001 167.78325 Z  M 496.3430000000001 196.69325 Q 494.8680000000001 200.29225 492.4195000000001 202.12125 Q 489.9710000000001 203.95024999999998 486.66700000000014 203.95024999999998 Q 484.6610000000001 203.95024999999998 483.0090000000001 203.36025 Q 481.3570000000001 202.77025 479.8230000000001 201.53125 L 482.1830000000001 197.22425 Q 484.2480000000001 198.69925 486.3720000000001 198.69925 Q 489.9120000000001 198.69925 491.68200000000013 194.68725 L 492.8620000000001 191.91425 L 479.94100000000014 161.05725 L 485.7230000000001 161.05725 L 495.6350000000001 186.07325 L 505.0160000000001 161.05725 L 510.6210000000001 161.05725 L 496.3430000000001 196.69325 Z  M 516.5210000000001 186.01425 Q 517.8780000000002 186.01425 518.7925000000001 186.95825 Q 519.7070000000001 187.90225 519.7070000000001 189.37725 Q 519.7070000000001 190.85225 518.7925000000001 191.82575 Q 517.8780000000002 192.79925 516.5210000000001 192.79925 Q 515.1640000000001 192.79925 514.2200000000001 191.82575 Q 513.2760000000001 190.85225 513.2760000000001 189.37725 Q 513.2760000000001 187.90225 514.2200000000001 186.95825 Q 515.1640000000001 186.01425 516.5210000000001 186.01425 Z  M 528.7340000000002 186.01425 Q 530.0910000000001 186.01425 531.0055000000001 186.95825 Q 531.9200000000001 187.90225 531.9200000000001 189.37725 Q 531.9200000000001 190.85225 531.0055000000001 191.82575 Q 530.0910000000001 192.79925 528.7340000000002 192.79925 Q 527.3770000000001 192.79925 526.4330000000001 191.82575 Q 525.489 190.85225 525.489 189.37725 Q 525.489 187.90225 526.4330000000001 186.95825 Q 527.3770000000001 186.01425 528.7340000000002 186.01425 Z  M 540.9470000000001 186.01425 Q 542.3040000000001 186.01425 543.2185000000001 186.95825 Q 544.133 187.90225 544.133 189.37725 Q 544.133 190.85225 543.2185000000001 191.82575 Q 542.3040000000001 192.79925 540.9470000000001 192.79925 Q 539.5900000000001 192.79925 538.6460000000001 191.82575 Q 537.7020000000001 190.85225 537.7020000000001 189.37725 Q 537.7020000000001 187.90225 538.6460000000001 186.95825 Q 539.5900000000001 186.01425 540.9470000000001 186.01425 Z "
          fill-rule="evenodd" fill="rgb(0,0,0)"/>
    <g style="isolation: isolate;">
        <path d=" M 982.2080000000002 192.26825 L 982.2080000000002 187.90225 Q 978.7270000000002 192.50425 971.2930000000001 192.50425 Q 968.0480000000001 192.50425 965.5995000000001 191.26525 Q 963.1510000000002 190.02625 961.8235000000002 187.84325 Q 960.4960000000002 185.66025000000002 960.4960000000002 182.94625 Q 960.4960000000002 178.75725 963.5935000000002 176.30875 Q 966.6910000000001 173.86025 972.2370000000002 173.80124999999998 L 982.1490000000001 173.80124999999998 L 982.1490000000001 172.32625000000002 Q 982.1490000000001 169.02224999999999 980.1135000000002 167.22275000000002 Q 978.0780000000002 165.42325 974.1840000000002 165.42325 Q 969.4640000000002 165.42325 964.5670000000001 168.78625 L 962.2660000000002 165.01024999999998 Q 965.6290000000001 162.82725 968.4905000000001 161.85375 Q 971.3520000000002 160.88025 975.3050000000002 160.88025 Q 981.1460000000002 160.88025 984.3320000000001 163.74175 Q 987.5180000000001 166.60325 987.5770000000001 171.73624999999998 L 987.6360000000002 192.26825 L 982.2080000000002 192.26825 Z  M 972.4140000000001 187.96125 Q 976.2490000000001 187.96125 978.9335000000002 186.10275000000001 Q 981.6180000000002 184.24425 982.1490000000001 181.17625 L 982.1490000000001 178.04925 L 973.0040000000001 178.04925 Q 969.2870000000001 178.04925 967.4875000000002 179.17025 Q 965.6880000000001 180.29125 965.6880000000001 182.71025 Q 965.6880000000001 185.12925 967.5170000000002 186.54525 Q 969.3460000000001 187.96125 972.4140000000001 187.96125 Z  M 992.2380000000002 161.05725 L 998.0790000000002 161.05725 L 1007.4600000000002 186.84025 L 1016.7820000000002 161.05725 L 1022.3280000000002 161.05725 L 1010.1740000000001 192.26825 L 1004.4510000000001 192.26825 L 992.2380000000002 161.05725 Z  M 1046.5770000000002 192.26825 L 1046.5770000000002 187.90225 Q 1043.0960000000002 192.50425 1035.6620000000003 192.50425 Q 1032.4170000000001 192.50425 1029.9685000000002 191.26525 Q 1027.5200000000002 190.02625 1026.1925 187.84325 Q 1024.8650000000002 185.66025000000002 1024.8650000000002 182.94625 Q 1024.8650000000002 178.75725 1027.9625 176.30875 Q 1031.0600000000002 173.86025 1036.6060000000002 173.80124999999998 L 1046.518 173.80124999999998 L 1046.518 172.32625000000002 Q 1046.518 169.02224999999999 1044.4825 167.22275000000002 Q 1042.4470000000001 165.42325 1038.5530000000003 165.42325 Q 1033.833 165.42325 1028.9360000000001 168.78625 L 1026.6350000000002 165.01024999999998 Q 1029.998 162.82725 1032.8595 161.85375 Q 1035.7210000000002 160.88025 1039.6740000000002 160.88025 Q 1045.5150000000003 160.88025 1048.701 163.74175 Q 1051.8870000000002 166.60325 1051.9460000000001 171.73624999999998 L 1052.005 192.26825 L 1046.5770000000002 192.26825 Z  M 1036.7830000000001 187.96125 Q 1040.6180000000002 187.96125 1043.3025000000002 186.10275000000001 Q 1045.987 184.24425 1046.518 181.17625 L 1046.518 178.04925 L 1037.373 178.04925 Q 1033.6560000000002 178.04925 1031.8565000000003 179.17025 Q 1030.0570000000002 180.29125 1030.0570000000002 182.71025 Q 1030.0570000000002 185.12925 1031.8860000000002 186.54525 Q 1033.7150000000001 187.96125 1036.7830000000001 187.96125 Z  M 1061.7990000000002 161.05725 L 1067.286 161.05725 L 1067.286 192.26825 L 1061.7990000000002 192.26825 L 1061.7990000000002 161.05725 Z  M 1064.5130000000001 148.60825 Q 1065.9880000000003 148.60825 1066.9615000000003 149.61124999999998 Q 1067.9350000000002 150.61425 1067.9350000000002 152.14825 Q 1067.9350000000002 153.68225 1066.9615000000003 154.68525 Q 1065.9880000000003 155.68824999999998 1064.5130000000001 155.68824999999998 Q 1063.038 155.68824999999998 1062.0645000000002 154.68525 Q 1061.0910000000001 153.68225 1061.0910000000001 152.14825 Q 1061.0910000000001 150.61425 1062.0645000000002 149.61124999999998 Q 1063.038 148.60825 1064.5130000000001 148.60825 Z  M 1078.2600000000002 148.49025 L 1083.7470000000003 148.49025 L 1083.7470000000003 192.26825 L 1078.2600000000002 192.26825 L 1078.2600000000002 148.49025 Z  M 1113.8370000000004 192.26825 L 1113.8370000000004 187.90225 Q 1110.3560000000002 192.50425 1102.9220000000003 192.50425 Q 1099.6770000000001 192.50425 1097.2285000000002 191.26525 Q 1094.7800000000002 190.02625 1093.4525000000003 187.84325 Q 1092.1250000000005 185.66025000000002 1092.1250000000005 182.94625 Q 1092.1250000000005 178.75725 1095.2225000000003 176.30875 Q 1098.3200000000002 173.86025 1103.8660000000004 173.80124999999998 L 1113.7780000000002 173.80124999999998 L 1113.7780000000002 172.32625000000002 Q 1113.7780000000002 169.02224999999999 1111.7425000000003 167.22275000000002 Q 1109.7070000000003 165.42325 1105.8130000000003 165.42325 Q 1101.0930000000003 165.42325 1096.1960000000004 168.78625 L 1093.8950000000004 165.01024999999998 Q 1097.2580000000003 162.82725 1100.1195000000002 161.85375 Q 1102.9810000000002 160.88025 1106.9340000000002 160.88025 Q 1112.7750000000003 160.88025 1115.9610000000002 163.74175 Q 1119.1470000000004 166.60325 1119.2060000000001 171.73624999999998 L 1119.2650000000003 192.26825 L 1113.8370000000004 192.26825 Z  M 1104.0430000000001 187.96125 Q 1107.8780000000002 187.96125 1110.5625000000005 186.10275000000001 Q 1113.2470000000003 184.24425 1113.7780000000002 181.17625 L 1113.7780000000002 178.04925 L 1104.6330000000003 178.04925 Q 1100.9160000000002 178.04925 1099.1165000000003 179.17025 Q 1097.3170000000002 180.29125 1097.3170000000002 182.71025 Q 1097.3170000000002 185.12925 1099.1460000000002 186.54525 Q 1100.9750000000004 187.96125 1104.0430000000001 187.96125 Z  M 1146.4050000000002 160.88025 Q 1150.7710000000002 160.88025 1154.1930000000002 162.88625 Q 1157.6150000000002 164.89225 1159.5030000000002 168.49125 Q 1161.3910000000003 172.09025 1161.3910000000003 176.75125 Q 1161.3910000000003 181.35325 1159.5325000000003 184.92275 Q 1157.6740000000004 188.49225 1154.2815000000003 190.46875 Q 1150.8890000000001 192.44525 1146.5230000000001 192.44525 Q 1142.5700000000002 192.44525 1139.5610000000001 190.79325 Q 1136.5520000000001 189.14125 1134.8410000000003 186.07325 L 1134.8410000000003 192.26825 L 1129.3540000000003 192.26825 L 1129.3540000000003 148.49025 L 1134.8410000000003 148.49025 L 1134.8410000000003 167.25225 Q 1136.5520000000001 164.18425 1139.5315000000003 162.53225 Q 1142.5110000000004 160.88025 1146.4050000000002 160.88025 Z  M 1145.3430000000003 187.66625 Q 1148.3520000000003 187.66625 1150.7415000000003 186.25025 Q 1153.1310000000003 184.83425 1154.4585000000002 182.29725000000002 Q 1155.7860000000003 179.76024999999998 1155.7860000000003 176.57425 Q 1155.7860000000003 173.44725 1154.4290000000003 170.91025000000002 Q 1153.0720000000001 168.37324999999998 1150.7120000000004 166.95725 Q 1148.3520000000003 165.54125 1145.3430000000003 165.54125 Q 1142.3340000000003 165.54125 1139.9445000000003 166.95725 Q 1137.5550000000003 168.37324999999998 1136.1980000000003 170.91025000000002 Q 1134.8410000000003 173.44725 1134.8410000000003 176.57425 Q 1134.8410000000003 179.81925 1136.1980000000003 182.32675 Q 1137.5550000000003 184.83425 1139.9445000000003 186.25025 Q 1142.3340000000003 187.66625 1145.3430000000003 187.66625 Z  M 1169.3560000000002 148.49025 L 1174.8430000000003 148.49025 L 1174.8430000000003 192.26825 L 1169.3560000000002 192.26825 L 1169.3560000000002 148.49025 Z  M 1198.3840000000002 160.88025 Q 1205.6410000000003 160.88025 1209.3580000000002 165.15775 Q 1213.0750000000003 169.43525 1213.0750000000003 177.04625 Q 1213.0750000000003 178.22625 1213.0160000000003 178.81625 L 1188.3540000000003 178.81625 Q 1189.0030000000002 183.00525 1191.8645000000001 185.48325 Q 1194.7260000000003 187.96125 1198.9150000000004 187.96125 Q 1201.6880000000003 187.96125 1204.0775000000003 186.95825 Q 1206.4670000000003 185.95525 1208.2370000000003 184.12625 L 1211.2460000000003 187.25325 Q 1208.9450000000002 189.73125 1205.7000000000003 191.08825000000002 Q 1202.4550000000004 192.44525 1198.5020000000004 192.44525 Q 1193.9000000000003 192.44525 1190.3305000000003 190.46875 Q 1186.7610000000004 188.49225 1184.7845000000002 184.89325 Q 1182.8080000000004 181.29425 1182.8080000000004 176.69225 Q 1182.8080000000004 172.09025 1184.7845000000002 168.52075 Q 1186.7610000000004 164.95125000000002 1190.3010000000004 162.91575 Q 1193.8410000000003 160.88025 1198.3840000000002 160.88025 Z  M 1208.1190000000001 174.56825 Q 1207.8830000000003 170.32025 1205.2870000000003 167.87175 Q 1202.6910000000003 165.42325 1198.4430000000002 165.42325 Q 1194.3130000000003 165.42325 1191.5695000000003 167.90125 Q 1188.8260000000002 170.37925 1188.2950000000003 174.56825 L 1208.1190000000001 174.56825 Z  M 866.0960000000001 160.88025 Q 871.5830000000001 160.88025 874.7100000000002 164.09575 Q 877.8370000000001 167.31125 877.8370000000001 172.97525000000002 L 877.8370000000001 192.26825 L 872.3500000000001 192.26825 L 872.3500000000001 174.45024999999998 Q 872.3500000000001 170.49725 870.1375000000002 168.28475 Q 867.9250000000002 166.07225 864.0310000000002 166.07225 Q 859.8420000000001 166.13125 857.2165000000002 168.75675 Q 854.5910000000001 171.38225 854.2370000000001 175.57125 L 854.2370000000001 192.26825 L 848.7500000000002 192.26825 L 848.7500000000002 161.05725 L 854.2370000000001 161.05725 L 854.2370000000001 167.66525000000001 Q 857.3640000000001 160.99824999999998 866.0960000000001 160.88025 Z  M 900.6110000000002 160.88025 Q 905.2720000000002 160.88025 908.9005000000002 162.88625 Q 912.5290000000002 164.89225 914.5645000000002 168.46175 Q 916.6000000000001 172.03125 916.6000000000001 176.63325 Q 916.6000000000001 181.23525 914.5645000000002 184.83425 Q 912.5290000000002 188.43325 908.9005000000002 190.43925000000002 Q 905.2720000000002 192.44525 900.6110000000002 192.44525 Q 895.8910000000002 192.44525 892.2625000000002 190.43925000000002 Q 888.6340000000001 188.43325 886.5985000000002 184.86375 Q 884.5630000000002 181.29425 884.5630000000002 176.63325 Q 884.5630000000002 172.03125 886.5985000000002 168.46175 Q 888.6340000000001 164.89225 892.2625000000002 162.88625 Q 895.8910000000002 160.88025 900.6110000000002 160.88025 Z  M 900.6110000000002 165.65925 Q 897.5430000000001 165.65925 895.1535000000001 167.07525 Q 892.7640000000001 168.49125 891.4365000000001 170.99875 Q 890.1090000000002 173.50625 890.1090000000002 176.69225 Q 890.1090000000002 179.93725 891.4365000000001 182.47424999999998 Q 892.7640000000001 185.01125000000002 895.1535000000001 186.39775 Q 897.5430000000001 187.78425 900.6110000000002 187.78425 Q 903.6200000000001 187.78425 906.0095000000002 186.39775 Q 908.3990000000002 185.01125000000002 909.7265000000002 182.47424999999998 Q 911.0540000000002 179.93725 911.0540000000002 176.69225 Q 911.0540000000002 173.50625 909.7265000000002 170.99875 Q 908.3990000000002 168.49125 906.0095000000002 167.07525 Q 903.6200000000001 165.65925 900.6110000000002 165.65925 Z  M 941.0260000000002 190.20325 Q 937.4270000000001 192.50425 933.7100000000002 192.50425 Q 929.9930000000002 192.50425 927.6920000000002 190.29175 Q 925.3910000000002 188.07925 925.3910000000002 183.59525 L 925.3910000000002 166.30825 L 920.9660000000002 166.30825 L 920.9660000000002 162.11925 L 925.3910000000002 162.11925 L 925.3910000000002 153.74125 L 930.9370000000002 153.74125 L 930.9370000000002 162.11925 L 940.4950000000002 162.11925 L 940.4950000000002 166.30825 L 930.9370000000002 166.30825 L 930.9370000000002 182.59225 Q 930.9370000000002 185.18825 931.8810000000002 186.30925 Q 932.8250000000002 187.43025 934.7130000000002 187.43025 Q 936.9550000000002 187.43025 939.5510000000002 185.95525 L 941.0260000000002 190.20325 Z  M 618.0600000000001 150.96825 L 623.96 150.96825 L 609.9770000000001 192.26825 L 604.0770000000001 192.26825 L 593.3980000000001 158.16625 L 582.5420000000001 192.26825 L 576.701 192.26825 L 562.777 150.96825 L 568.854 150.96825 L 579.7690000000001 186.19125 L 590.6250000000001 150.96825 L 596.2890000000001 150.96825 L 607.2040000000001 186.19125 L 618.0600000000001 150.96825 Z  M 642.0730000000001 160.88025 Q 649.3300000000002 160.88025 653.047 165.15775 Q 656.7640000000001 169.43525 656.7640000000001 177.04625 Q 656.7640000000001 178.22625 656.7050000000002 178.81625 L 632.0430000000001 178.81625 Q 632.692 183.00525 635.5535000000001 185.48325 Q 638.4150000000001 187.96125 642.604 187.96125 Q 645.3770000000001 187.96125 647.7665000000001 186.95825 Q 650.1560000000001 185.95525 651.9260000000002 184.12625 L 654.9350000000001 187.25325 Q 652.634 189.73125 649.3890000000001 191.08825000000002 Q 646.144 192.44525 642.191 192.44525 Q 637.589 192.44525 634.0195000000001 190.46875 Q 630.45 188.49225 628.4735000000001 184.89325 Q 626.4970000000001 181.29425 626.4970000000001 176.69225 Q 626.4970000000001 172.09025 628.4735000000001 168.52075 Q 630.45 164.95125000000002 633.99 162.91575 Q 637.5300000000001 160.88025 642.0730000000001 160.88025 Z  M 651.8080000000001 174.56825 Q 651.5720000000001 170.32025 648.9760000000001 167.87175 Q 646.3800000000001 165.42325 642.1320000000001 165.42325 Q 638.0020000000001 165.42325 635.2585000000001 167.90125 Q 632.5150000000001 170.37925 631.9840000000002 174.56825 L 651.8080000000001 174.56825 Z  M 681.6030000000001 160.88025 Q 685.969 160.88025 689.3910000000001 162.88625 Q 692.8130000000001 164.89225 694.701 168.49125 Q 696.5890000000002 172.09025 696.5890000000002 176.75125 Q 696.5890000000002 181.35325 694.7305000000001 184.92275 Q 692.8720000000001 188.49225 689.4795000000001 190.46875 Q 686.0870000000001 192.44525 681.7210000000001 192.44525 Q 677.768 192.44525 674.759 190.79325 Q 671.7500000000001 189.14125 670.0390000000001 186.07325 L 670.0390000000001 192.26825 L 664.5520000000001 192.26825 L 664.5520000000001 148.49025 L 670.0390000000001 148.49025 L 670.0390000000001 167.25225 Q 671.7500000000001 164.18425 674.7295000000001 162.53225 Q 677.7090000000001 160.88025 681.6030000000001 160.88025 Z  M 680.5410000000002 187.66625 Q 683.5500000000001 187.66625 685.9395000000001 186.25025 Q 688.3290000000001 184.83425 689.6565 182.29725000000002 Q 690.9840000000002 179.76024999999998 690.9840000000002 176.57425 Q 690.9840000000002 173.44725 689.6270000000001 170.91025000000002 Q 688.2700000000001 168.37324999999998 685.9100000000001 166.95725 Q 683.5500000000001 165.54125 680.5410000000002 165.54125 Q 677.5320000000002 165.54125 675.1425000000002 166.95725 Q 672.7530000000002 168.37324999999998 671.3960000000001 170.91025000000002 Q 670.0390000000001 173.44725 670.0390000000001 176.57425 Q 670.0390000000001 179.81925 671.3960000000001 182.32675 Q 672.7530000000002 184.83425 675.1425000000002 186.25025 Q 677.5320000000002 187.66625 680.5410000000002 187.66625 Z  M 726.1480000000001 169.37625 Q 722.431 165.77725 717.239 165.77725 Q 714.171 165.77725 711.7815 167.13425 Q 709.392 168.49125 708.0350000000001 170.96925 Q 706.6780000000001 173.44725 706.6780000000001 176.69225 Q 706.6780000000001 179.93725 708.0055000000001 182.41525000000001 Q 709.3330000000001 184.89325 711.6635000000001 186.27975 Q 713.9940000000001 187.66625 717.0030000000002 187.66625 Q 720.0120000000002 187.66625 722.431 186.66325 Q 724.8500000000001 185.66025000000002 726.4430000000001 183.77224999999999 L 729.5700000000002 186.95825 Q 727.4460000000001 189.61325 724.1715000000002 191.02925 Q 720.8970000000002 192.44525 716.767 192.44525 Q 712.2240000000002 192.44525 708.6840000000001 190.43925000000002 Q 705.1440000000001 188.43325 703.1675 184.86375 Q 701.191 181.29425 701.191 176.69225 Q 701.191 172.09025 703.1675 168.49125 Q 705.1440000000001 164.89225 708.6840000000001 162.88625 Q 712.2240000000002 160.88025 716.767 160.88025 Q 720.72 160.88025 723.8765000000001 162.08975 Q 727.0330000000001 163.29925 729.1570000000002 165.60025 L 726.1480000000001 169.37625 Z  M 756.4740000000002 192.26825 L 756.4740000000002 187.90225 Q 752.9930000000002 192.50425 745.5590000000002 192.50425 Q 742.3140000000001 192.50425 739.8655000000001 191.26525 Q 737.4170000000001 190.02625 736.0895 187.84325 Q 734.7620000000002 185.66025000000002 734.7620000000002 182.94625 Q 734.7620000000002 178.75725 737.8595000000001 176.30875 Q 740.9570000000001 173.86025 746.5030000000002 173.80124999999998 L 756.4150000000002 173.80124999999998 L 756.4150000000002 172.32625000000002 Q 756.4150000000002 169.02224999999999 754.3795000000001 167.22275000000002 Q 752.344 165.42325 748.45 165.42325 Q 743.7300000000001 165.42325 738.8330000000001 168.78625 L 736.5320000000002 165.01024999999998 Q 739.8950000000001 162.82725 742.7565000000002 161.85375 Q 745.6180000000002 160.88025 749.5710000000001 160.88025 Q 755.412 160.88025 758.5980000000002 163.74175 Q 761.7840000000001 166.60325 761.8430000000001 171.73624999999998 L 761.902 192.26825 L 756.4740000000002 192.26825 Z  M 746.6800000000001 187.96125 Q 750.5150000000001 187.96125 753.1995000000002 186.10275000000001 Q 755.8840000000001 184.24425 756.4150000000002 181.17625 L 756.4150000000002 178.04925 L 747.2700000000001 178.04925 Q 743.5530000000001 178.04925 741.7535000000001 179.17025 Q 739.9540000000002 180.29125 739.9540000000002 182.71025 Q 739.9540000000002 185.12925 741.7830000000001 186.54525 Q 743.6120000000001 187.96125 746.6800000000001 187.96125 Z  M 811.9930000000002 160.88025 Q 817.3620000000001 160.88025 820.4300000000001 164.12525 Q 823.498 167.37025 823.498 172.97525000000002 L 823.498 192.26825 L 817.9520000000001 192.26825 L 817.9520000000001 174.45024999999998 Q 817.9520000000001 170.49725 815.7985000000001 168.25525 Q 813.6450000000001 166.01325 809.8690000000001 166.01325 Q 805.4440000000002 166.13125 802.9070000000002 169.14025 Q 800.3700000000001 172.14925 800.3700000000001 176.86925 L 800.3700000000001 192.26825 L 794.8240000000001 192.26825 L 794.8240000000001 174.45024999999998 Q 794.8240000000001 170.49725 792.7 168.25525 Q 790.5760000000001 166.01325 786.7410000000001 166.01325 Q 782.316 166.13125 779.7495000000001 169.14025 Q 777.1830000000001 172.14925 777.1830000000001 176.86925 L 777.1830000000001 192.26825 L 771.6960000000001 192.26825 L 771.6960000000001 161.05725 L 777.1830000000001 161.05725 L 777.1830000000001 167.60625 Q 780.2510000000001 160.99824999999998 788.806 160.88025 Q 793.113 160.88025 795.9745 162.94525 Q 798.8360000000001 165.01024999999998 799.8390000000002 168.72725 Q 802.7300000000001 160.99824999999998 811.9930000000002 160.88025 Z  M 392.0310000000001 159.58225 Q 389.1400000000001 157.75325 386.04250000000013 156.83875 Q 382.9450000000001 155.92425 380.3490000000001 155.92425 Q 376.7500000000001 155.92425 374.5965000000001 157.31074999999998 Q 372.4430000000001 158.69725 372.4430000000001 161.11625 Q 372.4430000000001 163.29925 373.7410000000001 164.68574999999998 Q 375.0390000000001 166.07225 376.92700000000013 166.86875 Q 378.8150000000001 167.66525000000001 382.1780000000001 168.72725 Q 386.36700000000013 170.02525 388.96300000000014 171.20525 Q 391.55900000000014 172.38524999999998 393.3880000000001 174.71575 Q 395.2170000000001 177.04625 395.2170000000001 180.88125 Q 395.2170000000001 184.42125 393.29950000000014 187.07625000000002 Q 391.3820000000001 189.73125 387.9305000000001 191.17675 Q 384.4790000000001 192.62225 379.9950000000001 192.62225 Q 375.4520000000001 192.62225 371.1450000000001 190.85225 Q 366.83800000000014 189.08225 363.7110000000001 186.13225 L 366.2480000000001 181.23525 Q 369.1980000000001 184.12625 372.8855000000001 185.68975 Q 376.5730000000001 187.25325 380.0540000000001 187.25325 Q 384.18400000000014 187.25325 386.57350000000014 185.63075 Q 388.96300000000014 184.00825 388.96300000000014 181.23525 Q 388.96300000000014 179.05225000000002 387.66500000000013 177.63625000000002 Q 386.36700000000013 176.22025 384.3905000000001 175.39425 Q 382.4140000000001 174.56825 379.0510000000001 173.56525 Q 374.9210000000001 172.32625000000002 372.3250000000001 171.14625 Q 369.7290000000001 169.96625 367.92950000000013 167.66525000000001 Q 366.1300000000001 165.36425 366.1300000000001 161.58825 Q 366.1300000000001 158.28425 367.9590000000001 155.74725 Q 369.7880000000001 153.21025 373.0920000000001 151.85325 Q 376.39600000000013 150.49625 380.7620000000001 150.49625 Q 384.4790000000001 150.49625 388.0485000000001 151.58775 Q 391.6180000000001 152.67925 394.39100000000013 154.50825 L 392.0310000000001 159.58225 Z  M 416.6930000000001 160.88025 Q 421.3540000000001 160.88025 424.98250000000013 162.88625 Q 428.6110000000001 164.89225 430.6465000000001 168.46175 Q 432.68200000000013 172.03125 432.68200000000013 176.63325 Q 432.68200000000013 181.23525 430.6465000000001 184.83425 Q 428.6110000000001 188.43325 424.98250000000013 190.43925000000002 Q 421.3540000000001 192.44525 416.6930000000001 192.44525 Q 411.9730000000001 192.44525 408.3445000000001 190.43925000000002 Q 404.7160000000001 188.43325 402.6805000000001 184.86375 Q 400.6450000000001 181.29425 400.6450000000001 176.63325 Q 400.6450000000001 172.03125 402.6805000000001 168.46175 Q 404.7160000000001 164.89225 408.3445000000001 162.88625 Q 411.9730000000001 160.88025 416.6930000000001 160.88025 Z  M 416.6930000000001 165.65925 Q 413.6250000000001 165.65925 411.2355000000001 167.07525 Q 408.8460000000001 168.49125 407.51850000000013 170.99875 Q 406.19100000000014 173.50625 406.19100000000014 176.69225 Q 406.19100000000014 179.93725 407.51850000000013 182.47424999999998 Q 408.8460000000001 185.01125000000002 411.2355000000001 186.39775 Q 413.6250000000001 187.78425 416.6930000000001 187.78425 Q 419.7020000000001 187.78425 422.0915000000001 186.39775 Q 424.4810000000001 185.01125000000002 425.8085000000001 182.47424999999998 Q 427.1360000000001 179.93725 427.1360000000001 176.69225 Q 427.1360000000001 173.50625 425.8085000000001 170.99875 Q 424.4810000000001 168.49125 422.0915000000001 167.07525 Q 419.7020000000001 165.65925 416.6930000000001 165.65925 Z  M 445.8390000000001 167.78325 Q 447.3730000000001 164.42025 450.20500000000015 162.67975 Q 453.03700000000015 160.93925000000002 456.93100000000015 160.88025 L 456.93100000000015 166.19025 Q 452.1520000000001 166.01325 449.2020000000001 168.66825 Q 446.2520000000001 171.32325 445.8390000000001 175.80725 L 445.8390000000001 192.26825 L 440.3520000000001 192.26825 L 440.3520000000001 161.05725 L 445.8390000000001 161.05725 L 445.8390000000001 167.78325 Z  M 468.3770000000001 167.78325 Q 469.9110000000001 164.42025 472.7430000000001 162.67975 Q 475.5750000000001 160.93925000000002 479.4690000000001 160.88025 L 479.4690000000001 166.19025 Q 474.6900000000001 166.01325 471.7400000000001 168.66825 Q 468.79000000000013 171.32325 468.3770000000001 175.80725 L 468.3770000000001 192.26825 L 462.8900000000001 192.26825 L 462.8900000000001 161.05725 L 468.3770000000001 161.05725 L 468.3770000000001 167.78325 Z  M 496.3430000000001 196.69325 Q 494.8680000000001 200.29225 492.4195000000001 202.12125 Q 489.9710000000001 203.95024999999998 486.66700000000014 203.95024999999998 Q 484.6610000000001 203.95024999999998 483.0090000000001 203.36025 Q 481.3570000000001 202.77025 479.8230000000001 201.53125 L 482.1830000000001 197.22425 Q 484.2480000000001 198.69925 486.3720000000001 198.69925 Q 489.9120000000001 198.69925 491.68200000000013 194.68725 L 492.8620000000001 191.91425 L 479.94100000000014 161.05725 L 485.7230000000001 161.05725 L 495.6350000000001 186.07325 L 505.0160000000001 161.05725 L 510.6210000000001 161.05725 L 496.3430000000001 196.69325 Z  M 516.5210000000001 186.01425 Q 517.8780000000002 186.01425 518.7925000000001 186.95825 Q 519.7070000000001 187.90225 519.7070000000001 189.37725 Q 519.7070000000001 190.85225 518.7925000000001 191.82575 Q 517.8780000000002 192.79925 516.5210000000001 192.79925 Q 515.1640000000001 192.79925 514.2200000000001 191.82575 Q 513.2760000000001 190.85225 513.2760000000001 189.37725 Q 513.2760000000001 187.90225 514.2200000000001 186.95825 Q 515.1640000000001 186.01425 516.5210000000001 186.01425 Z  M 528.7340000000002 186.01425 Q 530.0910000000001 186.01425 531.0055000000001 186.95825 Q 531.9200000000001 187.90225 531.9200000000001 189.37725 Q 531.9200000000001 190.85225 531.0055000000001 191.82575 Q 530.0910000000001 192.79925 528.7340000000002 192.79925 Q 527.3770000000001 192.79925 526.4330000000001 191.82575 Q 525.489 190.85225 525.489 189.37725 Q 525.489 187.90225 526.4330000000001 186.95825 Q 527.3770000000001 186.01425 528.7340000000002 186.01425 Z  M 540.9470000000001 186.01425 Q 542.3040000000001 186.01425 543.2185000000001 186.95825 Q 544.133 187.90225 544.133 189.37725 Q 544.133 190.85225 543.2185000000001 191.82575 Q 542.3040000000001 192.79925 540.9470000000001 192.79925 Q 539.5900000000001 192.79925 538.6460000000001 191.82575 Q 537.7020000000001 190.85225 537.7020000000001 189.37725 Q 537.7020000000001 187.90225 538.6460000000001 186.95825 Q 539.5900000000001 186.01425 540.9470000000001 186.01425 Z "
              fill-rule="evenodd" fill="none" vector-effect="non-scaling-stroke" stroke-width="1" stroke="rgb(0,0,0)"
              stroke-linejoin="miter" stroke-linecap="square" stroke-miterlimit="3"/>
        <path d=" M 982.2080000000002 192.26825 L 982.2080000000002 187.90225 Q 978.7270000000002 192.50425 971.2930000000001 192.50425 Q 968.0480000000001 192.50425 965.5995000000001 191.26525 Q 963.1510000000002 190.02625 961.8235000000002 187.84325 Q 960.4960000000002 185.66025000000002 960.4960000000002 182.94625 Q 960.4960000000002 178.75725 963.5935000000002 176.30875 Q 966.6910000000001 173.86025 972.2370000000002 173.80124999999998 L 982.1490000000001 173.80124999999998 L 982.1490000000001 172.32625000000002 Q 982.1490000000001 169.02224999999999 980.1135000000002 167.22275000000002 Q 978.0780000000002 165.42325 974.1840000000002 165.42325 Q 969.4640000000002 165.42325 964.5670000000001 168.78625 L 962.2660000000002 165.01024999999998 Q 965.6290000000001 162.82725 968.4905000000001 161.85375 Q 971.3520000000002 160.88025 975.3050000000002 160.88025 Q 981.1460000000002 160.88025 984.3320000000001 163.74175 Q 987.5180000000001 166.60325 987.5770000000001 171.73624999999998 L 987.6360000000002 192.26825 L 982.2080000000002 192.26825 Z  M 972.4140000000001 187.96125 Q 976.2490000000001 187.96125 978.9335000000002 186.10275000000001 Q 981.6180000000002 184.24425 982.1490000000001 181.17625 L 982.1490000000001 178.04925 L 973.0040000000001 178.04925 Q 969.2870000000001 178.04925 967.4875000000002 179.17025 Q 965.6880000000001 180.29125 965.6880000000001 182.71025 Q 965.6880000000001 185.12925 967.5170000000002 186.54525 Q 969.3460000000001 187.96125 972.4140000000001 187.96125 Z  M 992.2380000000002 161.05725 L 998.0790000000002 161.05725 L 1007.4600000000002 186.84025 L 1016.7820000000002 161.05725 L 1022.3280000000002 161.05725 L 1010.1740000000001 192.26825 L 1004.4510000000001 192.26825 L 992.2380000000002 161.05725 Z  M 1046.5770000000002 192.26825 L 1046.5770000000002 187.90225 Q 1043.0960000000002 192.50425 1035.6620000000003 192.50425 Q 1032.4170000000001 192.50425 1029.9685000000002 191.26525 Q 1027.5200000000002 190.02625 1026.1925 187.84325 Q 1024.8650000000002 185.66025000000002 1024.8650000000002 182.94625 Q 1024.8650000000002 178.75725 1027.9625 176.30875 Q 1031.0600000000002 173.86025 1036.6060000000002 173.80124999999998 L 1046.518 173.80124999999998 L 1046.518 172.32625000000002 Q 1046.518 169.02224999999999 1044.4825 167.22275000000002 Q 1042.4470000000001 165.42325 1038.5530000000003 165.42325 Q 1033.833 165.42325 1028.9360000000001 168.78625 L 1026.6350000000002 165.01024999999998 Q 1029.998 162.82725 1032.8595 161.85375 Q 1035.7210000000002 160.88025 1039.6740000000002 160.88025 Q 1045.5150000000003 160.88025 1048.701 163.74175 Q 1051.8870000000002 166.60325 1051.9460000000001 171.73624999999998 L 1052.005 192.26825 L 1046.5770000000002 192.26825 Z  M 1036.7830000000001 187.96125 Q 1040.6180000000002 187.96125 1043.3025000000002 186.10275000000001 Q 1045.987 184.24425 1046.518 181.17625 L 1046.518 178.04925 L 1037.373 178.04925 Q 1033.6560000000002 178.04925 1031.8565000000003 179.17025 Q 1030.0570000000002 180.29125 1030.0570000000002 182.71025 Q 1030.0570000000002 185.12925 1031.8860000000002 186.54525 Q 1033.7150000000001 187.96125 1036.7830000000001 187.96125 Z  M 1061.7990000000002 161.05725 L 1067.286 161.05725 L 1067.286 192.26825 L 1061.7990000000002 192.26825 L 1061.7990000000002 161.05725 Z  M 1064.5130000000001 148.60825 Q 1065.9880000000003 148.60825 1066.9615000000003 149.61124999999998 Q 1067.9350000000002 150.61425 1067.9350000000002 152.14825 Q 1067.9350000000002 153.68225 1066.9615000000003 154.68525 Q 1065.9880000000003 155.68824999999998 1064.5130000000001 155.68824999999998 Q 1063.038 155.68824999999998 1062.0645000000002 154.68525 Q 1061.0910000000001 153.68225 1061.0910000000001 152.14825 Q 1061.0910000000001 150.61425 1062.0645000000002 149.61124999999998 Q 1063.038 148.60825 1064.5130000000001 148.60825 Z  M 1078.2600000000002 148.49025 L 1083.7470000000003 148.49025 L 1083.7470000000003 192.26825 L 1078.2600000000002 192.26825 L 1078.2600000000002 148.49025 Z  M 1113.8370000000004 192.26825 L 1113.8370000000004 187.90225 Q 1110.3560000000002 192.50425 1102.9220000000003 192.50425 Q 1099.6770000000001 192.50425 1097.2285000000002 191.26525 Q 1094.7800000000002 190.02625 1093.4525000000003 187.84325 Q 1092.1250000000005 185.66025000000002 1092.1250000000005 182.94625 Q 1092.1250000000005 178.75725 1095.2225000000003 176.30875 Q 1098.3200000000002 173.86025 1103.8660000000004 173.80124999999998 L 1113.7780000000002 173.80124999999998 L 1113.7780000000002 172.32625000000002 Q 1113.7780000000002 169.02224999999999 1111.7425000000003 167.22275000000002 Q 1109.7070000000003 165.42325 1105.8130000000003 165.42325 Q 1101.0930000000003 165.42325 1096.1960000000004 168.78625 L 1093.8950000000004 165.01024999999998 Q 1097.2580000000003 162.82725 1100.1195000000002 161.85375 Q 1102.9810000000002 160.88025 1106.9340000000002 160.88025 Q 1112.7750000000003 160.88025 1115.9610000000002 163.74175 Q 1119.1470000000004 166.60325 1119.2060000000001 171.73624999999998 L 1119.2650000000003 192.26825 L 1113.8370000000004 192.26825 Z  M 1104.0430000000001 187.96125 Q 1107.8780000000002 187.96125 1110.5625000000005 186.10275000000001 Q 1113.2470000000003 184.24425 1113.7780000000002 181.17625 L 1113.7780000000002 178.04925 L 1104.6330000000003 178.04925 Q 1100.9160000000002 178.04925 1099.1165000000003 179.17025 Q 1097.3170000000002 180.29125 1097.3170000000002 182.71025 Q 1097.3170000000002 185.12925 1099.1460000000002 186.54525 Q 1100.9750000000004 187.96125 1104.0430000000001 187.96125 Z  M 1146.4050000000002 160.88025 Q 1150.7710000000002 160.88025 1154.1930000000002 162.88625 Q 1157.6150000000002 164.89225 1159.5030000000002 168.49125 Q 1161.3910000000003 172.09025 1161.3910000000003 176.75125 Q 1161.3910000000003 181.35325 1159.5325000000003 184.92275 Q 1157.6740000000004 188.49225 1154.2815000000003 190.46875 Q 1150.8890000000001 192.44525 1146.5230000000001 192.44525 Q 1142.5700000000002 192.44525 1139.5610000000001 190.79325 Q 1136.5520000000001 189.14125 1134.8410000000003 186.07325 L 1134.8410000000003 192.26825 L 1129.3540000000003 192.26825 L 1129.3540000000003 148.49025 L 1134.8410000000003 148.49025 L 1134.8410000000003 167.25225 Q 1136.5520000000001 164.18425 1139.5315000000003 162.53225 Q 1142.5110000000004 160.88025 1146.4050000000002 160.88025 Z  M 1145.3430000000003 187.66625 Q 1148.3520000000003 187.66625 1150.7415000000003 186.25025 Q 1153.1310000000003 184.83425 1154.4585000000002 182.29725000000002 Q 1155.7860000000003 179.76024999999998 1155.7860000000003 176.57425 Q 1155.7860000000003 173.44725 1154.4290000000003 170.91025000000002 Q 1153.0720000000001 168.37324999999998 1150.7120000000004 166.95725 Q 1148.3520000000003 165.54125 1145.3430000000003 165.54125 Q 1142.3340000000003 165.54125 1139.9445000000003 166.95725 Q 1137.5550000000003 168.37324999999998 1136.1980000000003 170.91025000000002 Q 1134.8410000000003 173.44725 1134.8410000000003 176.57425 Q 1134.8410000000003 179.81925 1136.1980000000003 182.32675 Q 1137.5550000000003 184.83425 1139.9445000000003 186.25025 Q 1142.3340000000003 187.66625 1145.3430000000003 187.66625 Z  M 1169.3560000000002 148.49025 L 1174.8430000000003 148.49025 L 1174.8430000000003 192.26825 L 1169.3560000000002 192.26825 L 1169.3560000000002 148.49025 Z  M 1198.3840000000002 160.88025 Q 1205.6410000000003 160.88025 1209.3580000000002 165.15775 Q 1213.0750000000003 169.43525 1213.0750000000003 177.04625 Q 1213.0750000000003 178.22625 1213.0160000000003 178.81625 L 1188.3540000000003 178.81625 Q 1189.0030000000002 183.00525 1191.8645000000001 185.48325 Q 1194.7260000000003 187.96125 1198.9150000000004 187.96125 Q 1201.6880000000003 187.96125 1204.0775000000003 186.95825 Q 1206.4670000000003 185.95525 1208.2370000000003 184.12625 L 1211.2460000000003 187.25325 Q 1208.9450000000002 189.73125 1205.7000000000003 191.08825000000002 Q 1202.4550000000004 192.44525 1198.5020000000004 192.44525 Q 1193.9000000000003 192.44525 1190.3305000000003 190.46875 Q 1186.7610000000004 188.49225 1184.7845000000002 184.89325 Q 1182.8080000000004 181.29425 1182.8080000000004 176.69225 Q 1182.8080000000004 172.09025 1184.7845000000002 168.52075 Q 1186.7610000000004 164.95125000000002 1190.3010000000004 162.91575 Q 1193.8410000000003 160.88025 1198.3840000000002 160.88025 Z  M 1208.1190000000001 174.56825 Q 1207.8830000000003 170.32025 1205.2870000000003 167.87175 Q 1202.6910000000003 165.42325 1198.4430000000002 165.42325 Q 1194.3130000000003 165.42325 1191.5695000000003 167.90125 Q 1188.8260000000002 170.37925 1188.2950000000003 174.56825 L 1208.1190000000001 174.56825 Z  M 866.0960000000001 160.88025 Q 871.5830000000001 160.88025 874.7100000000002 164.09575 Q 877.8370000000001 167.31125 877.8370000000001 172.97525000000002 L 877.8370000000001 192.26825 L 872.3500000000001 192.26825 L 872.3500000000001 174.45024999999998 Q 872.3500000000001 170.49725 870.1375000000002 168.28475 Q 867.9250000000002 166.07225 864.0310000000002 166.07225 Q 859.8420000000001 166.13125 857.2165000000002 168.75675 Q 854.5910000000001 171.38225 854.2370000000001 175.57125 L 854.2370000000001 192.26825 L 848.7500000000002 192.26825 L 848.7500000000002 161.05725 L 854.2370000000001 161.05725 L 854.2370000000001 167.66525000000001 Q 857.3640000000001 160.99824999999998 866.0960000000001 160.88025 Z  M 900.6110000000002 160.88025 Q 905.2720000000002 160.88025 908.9005000000002 162.88625 Q 912.5290000000002 164.89225 914.5645000000002 168.46175 Q 916.6000000000001 172.03125 916.6000000000001 176.63325 Q 916.6000000000001 181.23525 914.5645000000002 184.83425 Q 912.5290000000002 188.43325 908.9005000000002 190.43925000000002 Q 905.2720000000002 192.44525 900.6110000000002 192.44525 Q 895.8910000000002 192.44525 892.2625000000002 190.43925000000002 Q 888.6340000000001 188.43325 886.5985000000002 184.86375 Q 884.5630000000002 181.29425 884.5630000000002 176.63325 Q 884.5630000000002 172.03125 886.5985000000002 168.46175 Q 888.6340000000001 164.89225 892.2625000000002 162.88625 Q 895.8910000000002 160.88025 900.6110000000002 160.88025 Z  M 900.6110000000002 165.65925 Q 897.5430000000001 165.65925 895.1535000000001 167.07525 Q 892.7640000000001 168.49125 891.4365000000001 170.99875 Q 890.1090000000002 173.50625 890.1090000000002 176.69225 Q 890.1090000000002 179.93725 891.4365000000001 182.47424999999998 Q 892.7640000000001 185.01125000000002 895.1535000000001 186.39775 Q 897.5430000000001 187.78425 900.6110000000002 187.78425 Q 903.6200000000001 187.78425 906.0095000000002 186.39775 Q 908.3990000000002 185.01125000000002 909.7265000000002 182.47424999999998 Q 911.0540000000002 179.93725 911.0540000000002 176.69225 Q 911.0540000000002 173.50625 909.7265000000002 170.99875 Q 908.3990000000002 168.49125 906.0095000000002 167.07525 Q 903.6200000000001 165.65925 900.6110000000002 165.65925 Z  M 941.0260000000002 190.20325 Q 937.4270000000001 192.50425 933.7100000000002 192.50425 Q 929.9930000000002 192.50425 927.6920000000002 190.29175 Q 925.3910000000002 188.07925 925.3910000000002 183.59525 L 925.3910000000002 166.30825 L 920.9660000000002 166.30825 L 920.9660000000002 162.11925 L 925.3910000000002 162.11925 L 925.3910000000002 153.74125 L 930.9370000000002 153.74125 L 930.9370000000002 162.11925 L 940.4950000000002 162.11925 L 940.4950000000002 166.30825 L 930.9370000000002 166.30825 L 930.9370000000002 182.59225 Q 930.9370000000002 185.18825 931.8810000000002 186.30925 Q 932.8250000000002 187.43025 934.7130000000002 187.43025 Q 936.9550000000002 187.43025 939.5510000000002 185.95525 L 941.0260000000002 190.20325 Z  M 618.0600000000001 150.96825 L 623.96 150.96825 L 609.9770000000001 192.26825 L 604.0770000000001 192.26825 L 593.3980000000001 158.16625 L 582.5420000000001 192.26825 L 576.701 192.26825 L 562.777 150.96825 L 568.854 150.96825 L 579.7690000000001 186.19125 L 590.6250000000001 150.96825 L 596.2890000000001 150.96825 L 607.2040000000001 186.19125 L 618.0600000000001 150.96825 Z  M 642.0730000000001 160.88025 Q 649.3300000000002 160.88025 653.047 165.15775 Q 656.7640000000001 169.43525 656.7640000000001 177.04625 Q 656.7640000000001 178.22625 656.7050000000002 178.81625 L 632.0430000000001 178.81625 Q 632.692 183.00525 635.5535000000001 185.48325 Q 638.4150000000001 187.96125 642.604 187.96125 Q 645.3770000000001 187.96125 647.7665000000001 186.95825 Q 650.1560000000001 185.95525 651.9260000000002 184.12625 L 654.9350000000001 187.25325 Q 652.634 189.73125 649.3890000000001 191.08825000000002 Q 646.144 192.44525 642.191 192.44525 Q 637.589 192.44525 634.0195000000001 190.46875 Q 630.45 188.49225 628.4735000000001 184.89325 Q 626.4970000000001 181.29425 626.4970000000001 176.69225 Q 626.4970000000001 172.09025 628.4735000000001 168.52075 Q 630.45 164.95125000000002 633.99 162.91575 Q 637.5300000000001 160.88025 642.0730000000001 160.88025 Z  M 651.8080000000001 174.56825 Q 651.5720000000001 170.32025 648.9760000000001 167.87175 Q 646.3800000000001 165.42325 642.1320000000001 165.42325 Q 638.0020000000001 165.42325 635.2585000000001 167.90125 Q 632.5150000000001 170.37925 631.9840000000002 174.56825 L 651.8080000000001 174.56825 Z  M 681.6030000000001 160.88025 Q 685.969 160.88025 689.3910000000001 162.88625 Q 692.8130000000001 164.89225 694.701 168.49125 Q 696.5890000000002 172.09025 696.5890000000002 176.75125 Q 696.5890000000002 181.35325 694.7305000000001 184.92275 Q 692.8720000000001 188.49225 689.4795000000001 190.46875 Q 686.0870000000001 192.44525 681.7210000000001 192.44525 Q 677.768 192.44525 674.759 190.79325 Q 671.7500000000001 189.14125 670.0390000000001 186.07325 L 670.0390000000001 192.26825 L 664.5520000000001 192.26825 L 664.5520000000001 148.49025 L 670.0390000000001 148.49025 L 670.0390000000001 167.25225 Q 671.7500000000001 164.18425 674.7295000000001 162.53225 Q 677.7090000000001 160.88025 681.6030000000001 160.88025 Z  M 680.5410000000002 187.66625 Q 683.5500000000001 187.66625 685.9395000000001 186.25025 Q 688.3290000000001 184.83425 689.6565 182.29725000000002 Q 690.9840000000002 179.76024999999998 690.9840000000002 176.57425 Q 690.9840000000002 173.44725 689.6270000000001 170.91025000000002 Q 688.2700000000001 168.37324999999998 685.9100000000001 166.95725 Q 683.5500000000001 165.54125 680.5410000000002 165.54125 Q 677.5320000000002 165.54125 675.1425000000002 166.95725 Q 672.7530000000002 168.37324999999998 671.3960000000001 170.91025000000002 Q 670.0390000000001 173.44725 670.0390000000001 176.57425 Q 670.0390000000001 179.81925 671.3960000000001 182.32675 Q 672.7530000000002 184.83425 675.1425000000002 186.25025 Q 677.5320000000002 187.66625 680.5410000000002 187.66625 Z  M 726.1480000000001 169.37625 Q 722.431 165.77725 717.239 165.77725 Q 714.171 165.77725 711.7815 167.13425 Q 709.392 168.49125 708.0350000000001 170.96925 Q 706.6780000000001 173.44725 706.6780000000001 176.69225 Q 706.6780000000001 179.93725 708.0055000000001 182.41525000000001 Q 709.3330000000001 184.89325 711.6635000000001 186.27975 Q 713.9940000000001 187.66625 717.0030000000002 187.66625 Q 720.0120000000002 187.66625 722.431 186.66325 Q 724.8500000000001 185.66025000000002 726.4430000000001 183.77224999999999 L 729.5700000000002 186.95825 Q 727.4460000000001 189.61325 724.1715000000002 191.02925 Q 720.8970000000002 192.44525 716.767 192.44525 Q 712.2240000000002 192.44525 708.6840000000001 190.43925000000002 Q 705.1440000000001 188.43325 703.1675 184.86375 Q 701.191 181.29425 701.191 176.69225 Q 701.191 172.09025 703.1675 168.49125 Q 705.1440000000001 164.89225 708.6840000000001 162.88625 Q 712.2240000000002 160.88025 716.767 160.88025 Q 720.72 160.88025 723.8765000000001 162.08975 Q 727.0330000000001 163.29925 729.1570000000002 165.60025 L 726.1480000000001 169.37625 Z  M 756.4740000000002 192.26825 L 756.4740000000002 187.90225 Q 752.9930000000002 192.50425 745.5590000000002 192.50425 Q 742.3140000000001 192.50425 739.8655000000001 191.26525 Q 737.4170000000001 190.02625 736.0895 187.84325 Q 734.7620000000002 185.66025000000002 734.7620000000002 182.94625 Q 734.7620000000002 178.75725 737.8595000000001 176.30875 Q 740.9570000000001 173.86025 746.5030000000002 173.80124999999998 L 756.4150000000002 173.80124999999998 L 756.4150000000002 172.32625000000002 Q 756.4150000000002 169.02224999999999 754.3795000000001 167.22275000000002 Q 752.344 165.42325 748.45 165.42325 Q 743.7300000000001 165.42325 738.8330000000001 168.78625 L 736.5320000000002 165.01024999999998 Q 739.8950000000001 162.82725 742.7565000000002 161.85375 Q 745.6180000000002 160.88025 749.5710000000001 160.88025 Q 755.412 160.88025 758.5980000000002 163.74175 Q 761.7840000000001 166.60325 761.8430000000001 171.73624999999998 L 761.902 192.26825 L 756.4740000000002 192.26825 Z  M 746.6800000000001 187.96125 Q 750.5150000000001 187.96125 753.1995000000002 186.10275000000001 Q 755.8840000000001 184.24425 756.4150000000002 181.17625 L 756.4150000000002 178.04925 L 747.2700000000001 178.04925 Q 743.5530000000001 178.04925 741.7535000000001 179.17025 Q 739.9540000000002 180.29125 739.9540000000002 182.71025 Q 739.9540000000002 185.12925 741.7830000000001 186.54525 Q 743.6120000000001 187.96125 746.6800000000001 187.96125 Z  M 811.9930000000002 160.88025 Q 817.3620000000001 160.88025 820.4300000000001 164.12525 Q 823.498 167.37025 823.498 172.97525000000002 L 823.498 192.26825 L 817.9520000000001 192.26825 L 817.9520000000001 174.45024999999998 Q 817.9520000000001 170.49725 815.7985000000001 168.25525 Q 813.6450000000001 166.01325 809.8690000000001 166.01325 Q 805.4440000000002 166.13125 802.9070000000002 169.14025 Q 800.3700000000001 172.14925 800.3700000000001 176.86925 L 800.3700000000001 192.26825 L 794.8240000000001 192.26825 L 794.8240000000001 174.45024999999998 Q 794.8240000000001 170.49725 792.7 168.25525 Q 790.5760000000001 166.01325 786.7410000000001 166.01325 Q 782.316 166.13125 779.7495000000001 169.14025 Q 777.1830000000001 172.14925 777.1830000000001 176.86925 L 777.1830000000001 192.26825 L 771.6960000000001 192.26825 L 771.6960000000001 161.05725 L 777.1830000000001 161.05725 L 777.1830000000001 167.60625 Q 780.2510000000001 160.99824999999998 788.806 160.88025 Q 793.113 160.88025 795.9745 162.94525 Q 798.8360000000001 165.01024999999998 799.8390000000002 168.72725 Q 802.7300000000001 160.99824999999998 811.9930000000002 160.88025 Z  M 392.0310000000001 159.58225 Q 389.1400000000001 157.75325 386.04250000000013 156.83875 Q 382.9450000000001 155.92425 380.3490000000001 155.92425 Q 376.7500000000001 155.92425 374.5965000000001 157.31074999999998 Q 372.4430000000001 158.69725 372.4430000000001 161.11625 Q 372.4430000000001 163.29925 373.7410000000001 164.68574999999998 Q 375.0390000000001 166.07225 376.92700000000013 166.86875 Q 378.8150000000001 167.66525000000001 382.1780000000001 168.72725 Q 386.36700000000013 170.02525 388.96300000000014 171.20525 Q 391.55900000000014 172.38524999999998 393.3880000000001 174.71575 Q 395.2170000000001 177.04625 395.2170000000001 180.88125 Q 395.2170000000001 184.42125 393.29950000000014 187.07625000000002 Q 391.3820000000001 189.73125 387.9305000000001 191.17675 Q 384.4790000000001 192.62225 379.9950000000001 192.62225 Q 375.4520000000001 192.62225 371.1450000000001 190.85225 Q 366.83800000000014 189.08225 363.7110000000001 186.13225 L 366.2480000000001 181.23525 Q 369.1980000000001 184.12625 372.8855000000001 185.68975 Q 376.5730000000001 187.25325 380.0540000000001 187.25325 Q 384.18400000000014 187.25325 386.57350000000014 185.63075 Q 388.96300000000014 184.00825 388.96300000000014 181.23525 Q 388.96300000000014 179.05225000000002 387.66500000000013 177.63625000000002 Q 386.36700000000013 176.22025 384.3905000000001 175.39425 Q 382.4140000000001 174.56825 379.0510000000001 173.56525 Q 374.9210000000001 172.32625000000002 372.3250000000001 171.14625 Q 369.7290000000001 169.96625 367.92950000000013 167.66525000000001 Q 366.1300000000001 165.36425 366.1300000000001 161.58825 Q 366.1300000000001 158.28425 367.9590000000001 155.74725 Q 369.7880000000001 153.21025 373.0920000000001 151.85325 Q 376.39600000000013 150.49625 380.7620000000001 150.49625 Q 384.4790000000001 150.49625 388.0485000000001 151.58775 Q 391.6180000000001 152.67925 394.39100000000013 154.50825 L 392.0310000000001 159.58225 Z  M 416.6930000000001 160.88025 Q 421.3540000000001 160.88025 424.98250000000013 162.88625 Q 428.6110000000001 164.89225 430.6465000000001 168.46175 Q 432.68200000000013 172.03125 432.68200000000013 176.63325 Q 432.68200000000013 181.23525 430.6465000000001 184.83425 Q 428.6110000000001 188.43325 424.98250000000013 190.43925000000002 Q 421.3540000000001 192.44525 416.6930000000001 192.44525 Q 411.9730000000001 192.44525 408.3445000000001 190.43925000000002 Q 404.7160000000001 188.43325 402.6805000000001 184.86375 Q 400.6450000000001 181.29425 400.6450000000001 176.63325 Q 400.6450000000001 172.03125 402.6805000000001 168.46175 Q 404.7160000000001 164.89225 408.3445000000001 162.88625 Q 411.9730000000001 160.88025 416.6930000000001 160.88025 Z  M 416.6930000000001 165.65925 Q 413.6250000000001 165.65925 411.2355000000001 167.07525 Q 408.8460000000001 168.49125 407.51850000000013 170.99875 Q 406.19100000000014 173.50625 406.19100000000014 176.69225 Q 406.19100000000014 179.93725 407.51850000000013 182.47424999999998 Q 408.8460000000001 185.01125000000002 411.2355000000001 186.39775 Q 413.6250000000001 187.78425 416.6930000000001 187.78425 Q 419.7020000000001 187.78425 422.0915000000001 186.39775 Q 424.4810000000001 185.01125000000002 425.8085000000001 182.47424999999998 Q 427.1360000000001 179.93725 427.1360000000001 176.69225 Q 427.1360000000001 173.50625 425.8085000000001 170.99875 Q 424.4810000000001 168.49125 422.0915000000001 167.07525 Q 419.7020000000001 165.65925 416.6930000000001 165.65925 Z  M 445.8390000000001 167.78325 Q 447.3730000000001 164.42025 450.20500000000015 162.67975 Q 453.03700000000015 160.93925000000002 456.93100000000015 160.88025 L 456.93100000000015 166.19025 Q 452.1520000000001 166.01325 449.2020000000001 168.66825 Q 446.2520000000001 171.32325 445.8390000000001 175.80725 L 445.8390000000001 192.26825 L 440.3520000000001 192.26825 L 440.3520000000001 161.05725 L 445.8390000000001 161.05725 L 445.8390000000001 167.78325 Z  M 468.3770000000001 167.78325 Q 469.9110000000001 164.42025 472.7430000000001 162.67975 Q 475.5750000000001 160.93925000000002 479.4690000000001 160.88025 L 479.4690000000001 166.19025 Q 474.6900000000001 166.01325 471.7400000000001 168.66825 Q 468.79000000000013 171.32325 468.3770000000001 175.80725 L 468.3770000000001 192.26825 L 462.8900000000001 192.26825 L 462.8900000000001 161.05725 L 468.3770000000001 161.05725 L 468.3770000000001 167.78325 Z  M 496.3430000000001 196.69325 Q 494.8680000000001 200.29225 492.4195000000001 202.12125 Q 489.9710000000001 203.95024999999998 486.66700000000014 203.95024999999998 Q 484.6610000000001 203.95024999999998 483.0090000000001 203.36025 Q 481.3570000000001 202.77025 479.8230000000001 201.53125 L 482.1830000000001 197.22425 Q 484.2480000000001 198.69925 486.3720000000001 198.69925 Q 489.9120000000001 198.69925 491.68200000000013 194.68725 L 492.8620000000001 191.91425 L 479.94100000000014 161.05725 L 485.7230000000001 161.05725 L 495.6350000000001 186.07325 L 505.0160000000001 161.05725 L 510.6210000000001 161.05725 L 496.3430000000001 196.69325 Z  M 516.5210000000001 186.01425 Q 517.8780000000002 186.01425 518.7925000000001 186.95825 Q 519.7070000000001 187.90225 519.7070000000001 189.37725 Q 519.7070000000001 190.85225 518.7925000000001 191.82575 Q 517.8780000000002 192.79925 516.5210000000001 192.79925 Q 515.1640000000001 192.79925 514.2200000000001 191.82575 Q 513.2760000000001 190.85225 513.2760000000001 189.37725 Q 513.2760000000001 187.90225 514.2200000000001 186.95825 Q 515.1640000000001 186.01425 516.5210000000001 186.01425 Z  M 528.7340000000002 186.01425 Q 530.0910000000001 186.01425 531.0055000000001 186.95825 Q 531.9200000000001 187.90225 531.9200000000001 189.37725 Q 531.9200000000001 190.85225 531.0055000000001 191.82575 Q 530.0910000000001 192.79925 528.7340000000002 192.79925 Q 527.3770000000001 192.79925 526.4330000000001 191.82575 Q 525.489 190.85225 525.489 189.37725 Q 525.489 187.90225 526.4330000000001 186.95825 Q 527.3770000000001 186.01425 528.7340000000002 186.01425 Z  M 540.9470000000001 186.01425 Q 542.3040000000001 186.01425 543.2185000000001 186.95825 Q 544.133 187.90225 544.133 189.37725 Q 544.133 190.85225 543.2185000000001 191.82575 Q 542.3040000000001 192.79925 540.9470000000001 192.79925 Q 539.5900000000001 192.79925 538.6460000000001 191.82575 Q 537.7020000000001 190.85225 537.7020000000001 189.37725 Q 537.7020000000001 187.90225 538.6460000000001 186.95825 Q 539.5900000000001 186.01425 540.9470000000001 186.01425 Z "
              fill-rule="evenodd" fill="none" vector-effect="non-scaling-stroke" stroke-width="1" stroke="rgb(0,0,0)"
              stroke-linejoin="miter" stroke-linecap="square" stroke-miterlimit="3"/>
    </g>
</svg>